<svg xmlns="http://www.w3.org/2000/svg" style="display:none"><symbol id="icon-amazon" viewBox="9.084 9.084 17.25 17.25"><path d="M19.287 13.53c-.418.036-.899.072-1.382.144-.738.104-1.477.247-2.086.563-1.188.531-1.991 1.66-1.991 3.319 0 2.084 1.221 3.141 2.761 3.141.515 0 .932-.068 1.316-.175.611-.212 1.125-.6 1.735-1.305.354.529.449.776 1.061 1.342.16.07.32.07.448-.035a53.896 53.896 0 0 0 1.413-1.342c.16-.143.128-.352.032-.529-.354-.495-.706-.919-.706-1.87v-3.178c0-1.344.096-2.578-.802-3.495-.739-.744-1.896-1.024-2.793-1.024h-.386c-1.638.105-3.371.881-3.757 3.107-.063.28.13.388.258.424l1.798.248c.193-.038.289-.213.32-.39.162-.775.739-1.164 1.381-1.234h.129c.385 0 .801.177 1.028.527.254.425.224.991.224 1.484l-.001.278zm-.353 4.2c-.225.494-.61.813-1.028.919-.064 0-.159.036-.256.036-.706 0-1.125-.601-1.125-1.483 0-1.128.611-1.66 1.381-1.906.417-.105.9-.142 1.381-.142v.424c0 .813.029 1.447-.353 2.152zm7.4 4.903v.115c-.018.689-.349 2.015-1.134 2.743-.157.134-.314.057-.245-.136.229-.612.751-2.033.507-2.358-.174-.249-.89-.23-1.5-.173-.278.039-.523.056-.715.099-.174.018-.21-.154-.035-.287a2.73 2.73 0 0 1 .751-.404c.993-.324 2.146-.134 2.303.078a.65.65 0 0 1 .068.323zm-1.657 1.341c-.227.191-.47.365-.715.521-1.831 1.209-4.203 1.839-6.261 1.839-3.315 0-6.28-1.343-8.53-3.586-.193-.173-.036-.422.191-.289a15.96 15.96 0 0 0 8.53 2.495c1.955 0 4.063-.403 6.07-1.268.139-.056.296-.135.436-.189.314-.156.593.23.279.477z"/></symbol><symbol id="icon-arrow-right" viewBox="50.4 -114.8 16 16"><path d="M63.1-107.7l-6.7-6.7c-.2-.3-.6-.4-.9-.4-.4 0-.7.1-.9.4l-.8.8c-.3.3-.4.6-.4.9 0 .4.1.7.4.9l5 5-5 5c-.3.3-.4.6-.4.9 0 .4.1.7.4.9l.8.8c.3.3.6.4.9.4.4 0 .7-.1.9-.4l6.7-6.7c.3-.3.4-.6.4-.9 0-.4-.2-.7-.4-.9z"/></symbol><symbol id="icon-back-arrow" viewBox="0 0 16 16"><path d="M4.4 12.4l1-1-2.7-2.7H16V7.3H2.7l2.7-2.7-1-1L0 8z"/></symbol><symbol id="icon-calendar" viewBox="0 0 16 16"><path d="M12 2V0h-2v2H6V0H4v2H0v14h16V2h-4zm2 12H2V4h2v2h2V4h4v2h2V4h2v10z"/></symbol><symbol id="icon-comments" viewBox="0 0 16 16"><path d="M5 9h7V7H4v2h1zm7-5H4v2h8V4zm4-4H0v13h8.5l4.5 3v-3h3V0zm-2 11h-3v1.5L8.5 11H2V2h12v9z"/></symbol><symbol id="icon-download" viewBox="0 0 16 16"><path d="M15.4 4.9C13.7.8 9-1.1 4.9.6S-1.1 7 .6 11.1s6.4 6 10.5 4.3c3-1.2 4.9-4.2 4.9-7.4 0-1.1-.2-2.1-.6-3.1zm-5.9 7.4L8 13.7l-1.4-1.4-3.5-3.5 1.4-1.4L7 9.8V2.7h2v7.1l2.5-2.5L13 8.8l-3.5 3.5z"/></symbol><symbol id="icon-email" viewBox="313.1 3.7 16 16"><path d="M318.5 8.9c0-.2.2-.4.4-.4h4.5c.2 0 .4.2.4.4s-.2.4-.4.4h-4.5c-.3 0-.4-.2-.4-.4zm.4 2.1h4.5c.2 0 .4-.2.4-.4s-.2-.4-.4-.4h-4.5c-.2 0-.4.2-.4.4s.1.4.4.4zm3.5 1.2c0-.2-.2-.4-.4-.4h-3.1c-.2 0-.4.2-.4.4s.2.4.4.4h3.1c.2.1.4-.1.4-.4zm-1.5-8.4l-1.7 1.4c-.2.1-.2.4 0 .6s.4.2.6 0l1.4-1.2 1.4 1.2c.2.1.4.1.6 0s.1-.4 0-.6l-1.7-1.4c-.3-.1-.5-.1-.6 0zm7.8 6.2c.1.1.1.2.1.3v7.9c0 .8-.7 1.5-1.5 1.5h-12.5c-.8 0-1.5-.7-1.5-1.5v-7.9c0-.1.1-.2.1-.3l1.6-1.3c.2-.1.4-.1.6 0s.1.4 0 .6l-1.2 1 1.8 1.3v-4c0-.6.5-1.1 1.1-1.1h7.5c.6 0 1.1.5 1.1 1.1v4l1.8-1.3-1.2-1c-.2-.1-.2-.4 0-.6s.4-.2.6 0l1.6 1.3zm-11.6 2.2l4 2.8 4-2.8V7.6c0-.1-.1-.2-.2-.2h-7.5c-.1 0-.2.1-.2.2v4.6zm10.9-1l-4.7 3.4 3.4 2.6c.2.1.2.4.1.6-.1.2-.4.2-.6.1l-3.6-2.8-1.2.8c-.1.1-.3.1-.5 0l-1.2-.8-3.6 2.8c-.2.1-.4.1-.6-.1-.1-.2-.1-.4.1-.6l3.4-2.6-4.7-3.4v7.1c0 .4.3.6.6.6h12.5c.4 0 .6-.3.6-.6v-7.1z"/></symbol><symbol id="icon-facebook" viewBox="0 0 16 16"><path d="M15.117 0H.883A.883.883 0 0 0 0 .883v14.234c0 .488.395.883.883.883h7.663V9.804H6.46V7.39h2.086V5.607c0-2.066 1.262-3.19 3.106-3.19.883 0 1.642.064 1.863.094v2.16h-1.28c-1 0-1.195.48-1.195 1.18v1.54h2.39l-.31 2.42h-2.08V16h4.077a.883.883 0 0 0 .883-.883V.883A.883.883 0 0 0 15.117 0" fill-rule="nonzero"/></symbol><symbol id="icon-folder" viewBox="0 0 16 16"><path d="M0 16h16V6h-2V2H8.5L7 0H0v16zm14-8v6H6V8h8zM7.5 4H12v2H4v8H2V2h4l1.5 2z"/></symbol><symbol id="icon-github" viewBox="0 0 16 16"><path d="M8 0a8 8 0 0 0-8 8 8 8 0 0 0 5.47 7.59c.4.075.547-.172.547-.385 0-.19-.007-.693-.01-1.36-2.226.483-2.695-1.073-2.695-1.073-.364-.924-.89-1.17-.89-1.17-.725-.496.056-.486.056-.486.803.056 1.225.824 1.225.824.714 1.223 1.873.87 2.33.665.072-.517.278-.87.507-1.07-1.777-.2-3.644-.888-3.644-3.953 0-.873.31-1.587.823-2.147-.09-.202-.36-1.015.07-2.117 0 0 .67-.215 2.2.82a7.67 7.67 0 0 1 2-.27 7.67 7.67 0 0 1 2 .27c1.52-1.035 2.19-.82 2.19-.82.43 1.102.16 1.915.08 2.117a3.1 3.1 0 0 1 .82 2.147c0 3.073-1.87 3.75-3.65 3.947.28.24.54.73.54 1.48 0 1.07-.01 1.93-.01 2.19 0 .21.14.46.55.38A7.972 7.972 0 0 0 16 8a8 8 0 0 0-8-8"/></symbol><symbol id="icon-instagram" viewBox="0 0 16 16"><path d="M8 0C5.827 0 5.555.01 4.702.048 3.85.088 3.27.222 2.76.42a3.908 3.908 0 0 0-1.417.923c-.445.444-.72.89-.923 1.417-.198.51-.333 1.09-.372 1.942C.008 5.555 0 5.827 0 8s.01 2.445.048 3.298c.04.852.174 1.433.372 1.942.204.526.478.973.923 1.417.444.445.89.72 1.417.923.51.198 1.09.333 1.942.372.853.04 1.125.048 3.298.048s2.445-.01 3.298-.048c.852-.04 1.433-.174 1.942-.372a3.908 3.908 0 0 0 1.417-.923c.445-.444.72-.89.923-1.417.198-.51.333-1.09.372-1.942.04-.853.048-1.125.048-3.298s-.01-2.445-.048-3.298c-.04-.852-.174-1.433-.372-1.942a3.908 3.908 0 0 0-.923-1.417A3.886 3.886 0 0 0 13.24.42c-.51-.198-1.09-.333-1.942-.372C10.445.008 10.173 0 8 0zm0 1.44c2.136 0 2.39.01 3.233.048.78.036 1.203.166 1.485.276.374.145.64.318.92.598.28.28.453.546.598.92.11.282.24.705.276 1.485.038.844.047 1.097.047 3.233s-.01 2.39-.05 3.233c-.04.78-.17 1.203-.28 1.485-.15.374-.32.64-.6.92-.28.28-.55.453-.92.598-.28.11-.71.24-1.49.276-.85.038-1.1.047-3.24.047s-2.39-.01-3.24-.05c-.78-.04-1.21-.17-1.49-.28a2.49 2.49 0 0 1-.92-.6c-.28-.28-.46-.55-.6-.92-.11-.28-.24-.71-.28-1.49-.03-.84-.04-1.1-.04-3.23s.01-2.39.04-3.24c.04-.78.17-1.21.28-1.49.14-.38.32-.64.6-.92.28-.28.54-.46.92-.6.28-.11.7-.24 1.48-.28.85-.03 1.1-.04 3.24-.04zm0 2.452a4.108 4.108 0 1 0 0 8.215 4.108 4.108 0 0 0 0-8.215zm0 6.775a2.667 2.667 0 1 1 0-5.334 2.667 2.667 0 0 1 0 5.334zm5.23-6.937a.96.96 0 1 1-1.92 0 .96.96 0 0 1 1.92 0z"/></symbol><symbol id="icon-loading" viewBox="149.8 37.8 499.818 525"><path d="M557.8 187.8c13.8 0 24.601-10.8 24.601-24.6S571.6 138.6 557.8 138.6s-24.6 10.8-24.6 24.6c0 13.2 10.8 24.6 24.6 24.6zm61.2 90.6c-16.8 0-30.6 13.8-30.6 30.6s13.8 30.6 30.6 30.6 30.6-13.8 30.6-30.6c.6-16.8-13.2-30.6-30.6-30.6zm-61.2 145.2c-20.399 0-36.6 16.2-36.6 36.601 0 20.399 16.2 36.6 36.6 36.6 20.4 0 36.601-16.2 36.601-36.6C595 439.8 578.2 423.6 557.8 423.6zM409 476.4c-24 0-43.2 19.199-43.2 43.199s19.2 43.2 43.2 43.2 43.2-19.2 43.2-43.2S433 476.4 409 476.4zM260.8 411c-27 0-49.2 22.2-49.2 49.2s22.2 49.2 49.2 49.2 49.2-22.2 49.2-49.2-22.2-49.2-49.2-49.2zm-10.2-102c0-27.6-22.8-50.4-50.4-50.4-27.6 0-50.4 22.8-50.4 50.4 0 27.6 22.8 50.4 50.4 50.4 27.6 0 50.4-22.2 50.4-50.4zm10.2-199.8c-30 0-54 24-54 54s24 54 54 54 54-24 54-54-24.6-54-54-54zM409 37.8c-35.4 0-63.6 28.8-63.6 63.6S374.2 165 409 165s63.6-28.8 63.6-63.6-28.2-63.6-63.6-63.6z"/></symbol><symbol id="icon-mistake" viewBox="0 0 16 16"><path d="M3 11h1V7H2V5h3v2h2v4h3V7H8V5h3v2h2v4h3V7h-1V5h1V0h-5v2h-1V0H5v2H3V0H0v11h2.1zM0 13.7V16h3v-2H2v-2H0zM11.6 12H11v2h2v2h3v-2h-2v-2zM5 12v2h1v2h4v-2H8v-2H5.3z"/></symbol><symbol id="icon-paypal" viewBox="12.057 0 411.391 435.504"><path d="M403.497 101.917c-4.105-5.073-8.877-9.705-14.166-13.839.707 13.117-.508 27.092-3.668 41.884-8.627 40.413-29.256 74.754-59.656 99.304-30.375 24.533-68.305 37.502-109.687 37.502h-60.344l-19.533 91.512c-3.836 17.959-19.943 30.99-38.303 30.99H70.938l-4.898 22.484a19.583 19.583 0 0 0 19.137 23.75h66.498c9.24 0 17.225-6.459 19.152-15.494L193.667 313h76.188c36.854 0 70.526-11.465 97.384-33.152 26.869-21.697 45.129-52.186 52.807-88.162 7.777-36.377 2.206-66.58-16.549-89.769z"/><path d="M117.292 354.192l22.84-107.009h76.188c36.853 0 70.527-11.466 97.384-33.154 26.866-21.697 45.129-52.186 52.809-88.161 7.773-36.378 2.207-66.58-16.553-89.769C331.952 13.832 301.17 0 269.633 0H103.639a19.585 19.585 0 0 0-19.135 15.414L12.505 345.938a19.583 19.583 0 0 0 19.135 23.748h66.5c9.24.002 17.22-6.457 19.152-15.494zm60.943-278.901h52.229c12.287 0 23.275 5.149 30.146 14.129 7.298 9.539 9.431 22.729 5.853 36.188-.047.171-.088.342-.131.516-6.57 27.73-33.892 50.291-60.897 50.291h-50.05l22.85-101.124z"/></symbol><symbol id="icon-pdf" viewBox="379 72.1 16 16"><path d="M386.8 79.1c-.1.2-.1.4-.2.7-.2.7-.3.9-.4 1.1-.1.2-.1.2-.2.5 0 .1-.1.2-.2.4.5-.2.8-.3 1.3-.5l.3-.1c.2-.1.4-.1.5-.2.1 0 .1 0 .2-.1-.1-.1-.2-.3-.4-.5-.3-.3-.6-.7-.9-1.3zm-3.6 5.2l-.1.4c.1 0 .2.1.2 0 .1-.1.2-.2.4-.6.1-.1.1-.2.2-.4 0 0 0-.1.1-.1-.4.3-.7.5-.8.7zm3.3-7.6c.1-.6.1-.7 0-1.2v-.1s0 .1-.1.1c-.1.3-.1.6 0 1 .1.1.1.1.1.2z"/><path d="M391.3 72.1h-8.6c-1.1 0-2 .9-2 2.1V86c0 1.1.9 2.1 2 2.1h6.6l4.1-4.1v-9.8c0-1.2-1-2.1-2.1-2.1zm-2.1 10c-.2-.2-.3-.3-.5-.4-.2 0-.3.1-.5.2-.1.1-.3.1-.6.2l-.3.1c-.6.2-.9.3-1.6.6-.2.1-.3.1-.5.2v.1c0 .1-.2.5-.6 1.1-.1.1-.1.3-.2.4-.2.4-.3.6-.6.8-.2.2-.4.2-.7.2-.2 0-.5-.1-.7-.2-.5-.4-.3-1.1-.2-1.4.2-.5.7-.8 1.4-1.2.3-.2.6-.3.8-.5.2-.3.4-.8.6-1.2.1-.3.1-.3.2-.5 0-.1.1-.4.4-1.1.2-.7.3-1.1.5-1.5-.3-.6-.5-1-.6-1.4-.1-.5-.1-.9 0-1.4.2-.7.7-.8.8-.8.2 0 .7.1.9.8.1.6.1.9-.1 1.7l-.1.3c0 .2-.1.5-.1.6.1.1.1.2.2.3.4.8.7 1.2 1.1 1.8.2.3.4.5.6.7h.2c.3-.1.5-.1.7-.1.2 0 .5 0 .8.1.8.1 1 .7 1 1 0 .2 0 .8-.8.9-.2.1-.6.1-.8 0 0 .1-.3 0-.7-.4zm.5 5V85c0-.3.3-.6.6-.6h2.1l-2.7 2.7z"/><path d="M390.8 81.9h.1v-.1s-.1-.1-.3-.1c-.3-.1-.5-.1-.7-.1h-.2c.3.3.5.4.6.4.1-.1.3-.1.5-.1z"/></symbol><symbol id="icon-reply" viewBox="0 0 16 16"><path d="M11.6 12.8l-1-1 2.7-2.7H5.5C.2 9.1 0 3.9 0 3.7v-.5h1.4v.5c0 .2 0 4.1 4.1 4.1h7.8L10.6 5l1-1L16 8.4l-4.4 4.4z"/></symbol><symbol id="icon-rss" viewBox="0 0 16 16"><path d="M12.8 16C12.8 8.978 7.022 3.2 0 3.2V0c8.777 0 16 7.223 16 16h-3.2zM2.194 11.61c1.21 0 2.195.985 2.195 2.196 0 1.21-.99 2.194-2.2 2.194A2.192 2.192 0 0 1 0 13.806c0-1.21.983-2.195 2.194-2.195zM10.606 16h-3.11c0-4.113-3.383-7.497-7.496-7.497v-3.11c5.818 0 10.606 4.79 10.606 10.607z"/></symbol><symbol id="icon-stopwatch" viewBox="15 309.7 16 16"><path d="M23.9 315.1v3.6c0 .5-.4.9-.9.9s-.9-.4-.9-.9v-3.6h1.8z"/><path d="M30.1 317.7c.5 3.9-2.3 7.5-6.2 7.9-3.9.5-7.5-2.3-7.9-6.2-.5-3.9 2.3-7.5 6.2-7.9v-1.8H24v1.8c1.1.1 2.7.7 3.5 1.4l1.3-1.3 1.3 1.3-1.3 1.3c.5.9 1.2 2.5 1.3 3.5zm-1.8.9c0-2.9-2.4-5.3-5.3-5.3s-5.3 2.4-5.3 5.3 2.4 5.3 5.3 5.3 5.3-2.3 5.3-5.3z"/></symbol><symbol id="icon-twitter" viewBox="0 0 16 16"><path d="M16 3.038a6.62 6.62 0 0 1-1.885.517 3.299 3.299 0 0 0 1.443-1.816c-.634.37-1.337.64-2.085.79a3.282 3.282 0 0 0-5.593 2.99 9.307 9.307 0 0 1-6.766-3.42A3.222 3.222 0 0 0 .67 3.75c0 1.14.58 2.143 1.46 2.732a3.278 3.278 0 0 1-1.487-.41v.04c0 1.59 1.13 2.918 2.633 3.22a3.336 3.336 0 0 1-1.475.056 3.29 3.29 0 0 0 3.07 2.28 6.578 6.578 0 0 1-4.85 1.359 9.332 9.332 0 0 0 5.04 1.474c6.04 0 9.34-5 9.34-9.33 0-.14 0-.28-.01-.42a6.63 6.63 0 0 0 1.64-1.7z" fill-rule="nonzero"/></symbol></svg>