<?xml version="1.0" encoding="utf-8"?><!DOCTYPE svg PUBLIC "-//W3C//DTD SVG 1.1//EN" "http://www.w3.org/Graphics/SVG/1.1/DTD/svg11.dtd"><svg width="1750" height="1651" viewBox="0 0 1750 1651" xmlns="http://www.w3.org/2000/svg" xmlns:xlink="http://www.w3.org/1999/xlink"><svg width="109.3" height="54.7" viewBox="-5 -5 109.3 54.7" id="author-smiley" xmlns="http://www.w3.org/2000/svg"><path fill="#2C55A2" d="M13 19.5c0 .9-.2 1.8-.5 2.6s-.8 1.5-1.4 2.1c-.6.6-1.3 1.1-2.1 1.4-.8.3-1.7.4-2.6.4-.9 0-1.7-.2-2.5-.5-.8-.4-1.5-.8-2-1.4-.6-.6-1-1.3-1.4-2.1S0 20.4 0 19.5c0-.9.2-1.7.5-2.5s.8-1.5 1.4-2 1.3-1 2-1.4c.8-.4 1.6-.6 2.5-.6.9 0 1.8.2 2.6.5s1.5.8 2.1 1.4c.6.6 1.1 1.3 1.4 2 .3.8.5 1.7.5 2.6M70.6 18.8c0 .9-.2 1.8-.5 2.6s-.8 1.5-1.4 2.1c-.6.6-1.3 1.1-2.1 1.4-.8.4-1.6.5-2.6.5-.9 0-1.7-.2-2.5-.5-.8-.4-1.5-.8-2-1.4-.6-.6-1-1.3-1.4-2.1s-.5-1.6-.5-2.6c0-.9.2-1.7.5-2.5s.8-1.5 1.4-2 1.3-1 2-1.4c.8-.3 1.6-.5 2.5-.5.9 0 1.8.2 2.6.5s1.5.8 2.1 1.4c.6.6 1.1 1.3 1.4 2 .3.8.5 1.6.5 2.5M20.5 37.7h29V40h-29zM99.3 22.3c0 2.3-.2 4.4-.5 6.3s-.8 3.8-1.5 5.6c-.7 1.8-1.6 3.6-2.6 5.3-1.1 1.7-2.3 3.4-3.7 5.2h-4.5c1.5-1.8 2.8-3.6 3.9-5.4 1.1-1.8 2-3.5 2.6-5.3.7-1.8 1.2-3.6 1.5-5.6.3-1.9.5-3.9.5-6.1 0-2.1-.2-4.2-.5-6.1-.3-1.9-.8-3.8-1.5-5.6-.7-1.8-1.6-3.6-2.6-5.3-1.1-1.8-2.4-3.6-3.9-5.4H91c1.4 1.8 2.7 3.5 3.7 5.2 1.1 1.7 1.9 3.4 2.6 5.2.7 1.8 1.2 3.7 1.5 5.6.3 2.1.5 4.2.5 6.4"/></svg><svg width="76.3" height="76.3" viewBox="-5 -5 76.3 76.3" id="dauer_01_unterrichtsreihe" x="110" y="55" xmlns="http://www.w3.org/2000/svg"><path fill="none" d="M48.4 18h-3.1v2.9c0 .6-.4 1-1 1s-1-.4-1-1V18h-5.6v2.9c0 .6-.4 1-1 1s-1-.4-1-1V18h-5.4v2.9c0 .6-.4 1-1 1s-1-.4-1-1V18h-5.5v2.9c0 .6-.4 1-1 1s-1-.4-1-1V18h-3.2v5.6h30.8V18zM48.4 25.6H17.6v23.8h30.8V25.6zM25.7 46h-4.3c-.6 0-1-.4-1-1s.4-1 1-1h4.3c.6 0 1 .4 1 1s-.4 1-1 1zm0-5.1h-4.3c-.6 0-1-.4-1-1s.4-1 1-1h4.3c.6 0 1 .4 1 1s-.4 1-1 1zm0-4.7h-4.3c-.6 0-1-.4-1-1s.4-1 1-1h4.3c.6 0 1 .4 1 1s-.4 1-1 1zm9.4 9.8h-4.3c-.6 0-1-.4-1-1s.4-1 1-1h4.3c.6 0 1 .4 1 1s-.5 1-1 1zm0-5.1h-4.3c-.6 0-1-.4-1-1s.4-1 1-1h4.3c.6 0 1 .4 1 1s-.5 1-1 1zm0-4.7h-4.3c-.6 0-1-.4-1-1s.4-1 1-1h4.3c.6 0 1 .4 1 1s-.5 1-1 1zm9.3 9.8h-4.3c-.6 0-1-.4-1-1s.4-1 1-1h4.3c.6 0 1 .4 1 1s-.4 1-1 1zm0-5.1h-4.3c-.6 0-1-.4-1-1s.4-1 1-1h4.3c.6 0 1 .4 1 1s-.4 1-1 1zm0-4.7h-4.3c-.6 0-1-.4-1-1s.4-1 1-1h4.3c.6 0 1 .4 1 1s-.4 1-1 1zm.2-5h-4.3c-.6 0-1-.4-1-1s.4-1 1-1h4.3c.6 0 1 .4 1 1s-.5 1-1 1z"/><path fill="none" d="M33.1 64.3c17.2 0 31.1-14 31.1-31.1S50.3 2 33.1 2 2 16 2 33.1s14 31.2 31.1 31.2zM15.6 17c0-.6.4-1 1-1h4.2v-2.6c0-.6.4-1 1-1s1 .4 1 1V16h5.5v-2.6c0-.6.4-1 1-1s1 .4 1 1V16h5.4v-2.6c0-.6.4-1 1-1s1 .4 1 1V16h5.6v-2.6c0-.6.4-1 1-1s1 .4 1 1V16h4.1c.6 0 1 .4 1 1v33.3c0 .6-.4 1-1 1H16.6c-.6 0-1-.4-1-1V17z"/><path fill="#2D50C6" d="M33.1 66.3c18.3 0 33.1-14.9 33.2-33.1C66.3 14.9 51.4 0 33.1 0 14.9 0 0 14.9 0 33.1c0 18.3 14.9 33.2 33.1 33.2zm0-64.3c17.2 0 31.1 14 31.1 31.1s-14 31.1-31.1 31.1S2 50.3 2 33.1 16 2 33.1 2z"/><path fill="#2D50C6" d="M16.6 51.3h32.8c.6 0 1-.4 1-1V17c0-.6-.4-1-1-1h-4.1v-2.6c0-.6-.4-1-1-1s-1 .4-1 1V16h-5.6v-2.6c0-.6-.4-1-1-1s-1 .4-1 1V16h-5.4v-2.6c0-.6-.4-1-1-1s-1 .4-1 1V16h-5.5v-2.6c0-.6-.4-1-1-1s-1 .4-1 1V16h-4.2c-.6 0-1 .4-1 1v33.3c0 .6.4 1 1 1zm1-33.3h3.2v2.9c0 .6.4 1 1 1s1-.4 1-1V18h5.5v2.9c0 .6.4 1 1 1s1-.4 1-1V18h5.4v2.9c0 .6.4 1 1 1s1-.4 1-1V18h5.6v2.9c0 .6.4 1 1 1s1-.4 1-1V18h3.1v5.6H17.6V18zm0 7.6h30.8v23.8H17.6V25.6z"/><path fill="#2D50C6" d="M44.4 44h-4.3c-.6 0-1 .4-1 1s.4 1 1 1h4.3c.6 0 1-.4 1-1s-.4-1-1-1zM44.4 38.9h-4.3c-.6 0-1 .4-1 1s.4 1 1 1h4.3c.6 0 1-.4 1-1s-.4-1-1-1zM35.1 34.2h-4.3c-.6 0-1 .4-1 1s.4 1 1 1h4.3c.6 0 1-.4 1-1s-.5-1-1-1zM44.4 34.2h-4.3c-.6 0-1 .4-1 1s.4 1 1 1h4.3c.6 0 1-.4 1-1s-.4-1-1-1zM44.6 29.2h-4.3c-.6 0-1 .4-1 1s.4 1 1 1h4.3c.6 0 1-.4 1-1s-.5-1-1-1zM35.1 38.9h-4.3c-.6 0-1 .4-1 1s.4 1 1 1h4.3c.6 0 1-.4 1-1s-.5-1-1-1zM25.7 44h-4.3c-.6 0-1 .4-1 1s.4 1 1 1h4.3c.6 0 1-.4 1-1s-.4-1-1-1zM25.7 38.9h-4.3c-.6 0-1 .4-1 1s.4 1 1 1h4.3c.6 0 1-.4 1-1s-.4-1-1-1zM25.7 34.2h-4.3c-.6 0-1 .4-1 1s.4 1 1 1h4.3c.6 0 1-.4 1-1s-.4-1-1-1zM35.1 44h-4.3c-.6 0-1 .4-1 1s.4 1 1 1h4.3c.6 0 1-.4 1-1s-.5-1-1-1z"/></svg><svg width="33.2" height="33.2" viewBox="-6 -5 33.2 33.2" id="dauer_01_unterrichtsreihe_small" x="187" y="132" xmlns="http://www.w3.org/2000/svg"><path fill="none" d="M5.3 6.5v1.7h10.4V6.5h-.8v.9c0 .3-.2.5-.5.5s-.4-.3-.4-.5v-.9h-1.7v.9c0 .3-.2.5-.5.5s-.5-.2-.5-.5v-.9H9.7v.9c0 .3-.2.5-.5.5-.2-.1-.4-.3-.4-.5v-.9H7.1v.9c0 .3-.2.5-.5.5s-.5-.2-.5-.5v-.9h-.8z"/><path fill="none" d="M10.6.9C4.7.9-.1 5.7-.1 11.6c0 5.9 4.8 10.6 10.6 10.6 5.9 0 10.6-4.8 10.6-10.6S16.4.9 10.6.9zm6.1 16.6c0 .3-.2.5-.5.5H4.8c-.3 0-.5-.2-.5-.5V6c0-.3.2-.5.5-.5h1.3v-.7c0-.3.2-.5.5-.5s.5.2.5.5v.8h1.6v-.8c0-.3.2-.5.5-.5s.5.2.5.5v.8h1.6v-.8c0-.3.2-.5.5-.5s.5.2.5.5v.8H14v-.8c0-.3.2-.5.5-.5s.5.2.5.5v.8h1.3c.3 0 .5.2.5.5l-.1 11.4z"/><path fill="none" d="M15.7 17.1v-8H5.3v8h10.4zm-2.7-7h1.5c.3 0 .5.2.5.5s-.2.5-.5.5H13c-.3 0-.5-.2-.5-.5.1-.3.3-.5.5-.5zm0 1.7h1.5c.3 0 .5.2.5.5s-.2.5-.5.5H13c-.3 0-.5-.2-.5-.5s.2-.5.5-.5zm0 1.7h1.5c.3 0 .5.2.5.5s-.2.5-.5.5H13c-.3 0-.5-.2-.5-.5s.2-.5.5-.5zm0 1.7h1.5c.3 0 .5.2.5.5s-.2.5-.5.5H13c-.3 0-.5-.2-.5-.5s.2-.5.5-.5zm-3.2-3.4h1.5c.3 0 .5.2.5.5s-.2.5-.5.5H9.8c-.3 0-.5-.2-.5-.5s.2-.5.5-.5zm0 1.7h1.5c.3 0 .5.2.5.5s-.2.5-.5.5H9.8c-.3 0-.5-.2-.5-.5s.2-.5.5-.5zm0 1.7h1.5c.3 0 .5.2.5.5s-.2.5-.5.5H9.8c-.3 0-.5-.2-.5-.5s.2-.5.5-.5zm-3.3-3.4H8c.3 0 .5.2.5.5s-.2.5-.5.5H6.5c-.3 0-.5-.2-.5-.5s.3-.5.5-.5zm0 1.7H8c.3 0 .5.2.5.5s-.2.4-.5.4H6.5c-.3 0-.5-.2-.5-.5s.3-.4.5-.4zm0 1.7H8c.3 0 .5.2.5.5s-.2.4-.5.4H6.5c-.3 0-.5-.2-.5-.5s.3-.4.5-.4z"/><path fill="#2D50C6" d="M10.6 0C4.2 0-1 5.2-1 11.6c0 6.4 5.2 11.6 11.6 11.6 6.4 0 11.6-5.2 11.6-11.6C22.2 5.2 17 0 10.6 0zm10.6 11.6c0 5.9-4.8 10.6-10.6 10.6C4.7 22.2 0 17.4 0 11.6S4.7.9 10.6.9s10.6 4.8 10.6 10.7z"/><path fill="#2D50C6" d="M16.2 5.5h-1.3v-.7c0-.3-.2-.5-.5-.5s-.4.2-.4.5v.8h-1.7v-.8c0-.3-.2-.5-.5-.5s-.5.2-.5.5v.8H9.7v-.8c0-.3-.2-.5-.5-.5-.2 0-.4.2-.4.5v.8H7.1v-.8c0-.3-.2-.5-.5-.5s-.5.2-.5.5v.8H4.8c-.2-.1-.4.1-.4.4v11.5c0 .3.2.5.5.5h11.4c.3 0 .5-.2.5-.5V6c-.1-.3-.3-.5-.6-.5zm-.5 3.6v8H5.3v-8h10.4zm-9-1.3c.3 0 .5-.2.5-.5v-.8h1.6v.9c0 .3.2.5.5.5s.5-.2.5-.5v-.9h1.6v.9c0 .3.2.5.5.5s.5-.2.5-.5v-.9H14v.9c0 .3.2.5.5.5s.5-.2.5-.5v-.9h.8v1.7H5.3V6.5h.9v.9c0 .2.2.4.5.4z"/><path fill="#2D50C6" d="M13 16.1h1.5c.3 0 .5-.2.5-.5s-.2-.5-.5-.5H13c-.3 0-.5.2-.5.5s.2.5.5.5zM13 14.4h1.5c.3 0 .5-.2.5-.5s-.2-.5-.5-.5H13c-.3 0-.5.2-.5.5s.2.5.5.5zM9.8 12.8h1.5c.3 0 .5-.2.5-.5s-.2-.5-.5-.5H9.8c-.3 0-.5.2-.5.5s.2.5.5.5zM13 12.8h1.5c.3 0 .5-.2.5-.5s-.2-.5-.5-.5H13c-.3 0-.5.2-.5.5s.2.5.5.5zM13 11h1.5c.3 0 .5-.2.5-.5s-.2-.5-.5-.5H13c-.3 0-.5.2-.5.5.1.3.3.5.5.5zM9.8 14.4h1.5c.3 0 .5-.2.5-.5s-.2-.5-.5-.5H9.8c-.3 0-.5.2-.5.5s.2.5.5.5zM6.5 16.1H8c.3 0 .5-.2.5-.5s-.2-.4-.5-.4H6.5c-.3 0-.5.2-.5.5s.3.4.5.4zM6.5 14.4H8c.3 0 .5-.2.5-.5s-.2-.4-.5-.4H6.5c-.3 0-.5.2-.5.5s.3.4.5.4zM6.5 12.8H8c.3 0 .5-.2.5-.5s-.2-.5-.5-.5H6.5c-.3 0-.5.2-.5.5s.3.5.5.5zM9.8 16.1h1.5c.3 0 .5-.2.5-.5s-.2-.5-.5-.5H9.8c-.3 0-.5.2-.5.5s.2.5.5.5z"/></svg><svg width="76.3" height="76.3" viewBox="-5 -5 76.3 76.3" id="dauer_02_doppelstunde" x="221" y="166" xmlns="http://www.w3.org/2000/svg"><path fill="none" d="M41.4 19.7c-1.6 0-2.8.7-3.7 2-.8 1.3-1.3 3.2-1.3 5.6 0 2.4.4 4.3 1.3 5.6.8 1.3 2.1 2 3.7 2s2.8-.7 3.7-2c.8-1.3 1.3-3.2 1.3-5.6 0-2.4-.4-4.3-1.3-5.6-.9-1.3-2.1-2-3.7-2zM23.4 19.7c-1.1 0-2.1.3-2.8 1-.7.7-1.1 1.6-1.1 2.7s.4 2.1 1.1 2.7c.7.7 1.7 1 2.8 1s2.1-.4 2.8-1.1 1.1-1.6 1.1-2.7-.4-2-1.1-2.6c-.7-.6-1.6-1-2.8-1z"/><path fill="none" d="M33.1 2C16 2 2 16 2 33.1s14 31.1 31.1 31.1c17.2 0 31.1-14 31.1-31.1C64.3 16 50.3 2 33.1 2zm-3.4 47.7h-.9v-6.2l-2.6 5.3h-.6L23 43.5v6.3h-.9v-7.5h1.4l2.5 5.1 2.5-5.1h1.3c-.1-.1-.1 7.4-.1 7.4zm-2.8-13.3c-.9.5-2 .7-3.1.7-2.1 0-3.7-.6-4.9-1.7-1.2-1.1-1.8-2.5-1.8-4.2h2.5c0 1.1.4 2 1.1 2.7.7.7 1.5 1 2.6 1s1.9-.2 2.5-.6c1.8-1.1 2.7-3.7 2.7-7.7 0-.8 0-1.6-.1-2.2-.2 1.6-.8 2.8-1.8 3.6-1 .8-2.2 1.2-3.8 1.2s-2.9-.6-4.1-1.7c-1.1-1-1.7-2.5-1.7-4.2 0-1.7.6-3.1 1.8-4.2 1.2-1.1 2.7-1.6 4.7-1.6 1 0 2 .2 2.9.7.9.4 1.7 1.1 2.4 1.9 1.4 1.8 2.2 4 2.2 6.9-.1 4.8-1.4 8-4.1 9.4zM33 49.7h-.9v-7.5h.9v7.5zm8.3 0h-1.1l-3.8-6.1v6.1h-1v-7.5h1.1l3.7 6.1v-6.1h.9v7.5zm2.7-.1c-.1.1-.3.2-.5.2s-.4-.1-.5-.2c-.1-.1-.2-.3-.2-.5s.1-.3.2-.5c.1-.1.3-.2.5-.2s.4.1.5.2c.1.1.2.3.2.5s0 .4-.2.5zm2.8-15.1c-1.3 1.7-3.1 2.5-5.4 2.5-2.3 0-4.1-.8-5.4-2.5-1.3-1.7-2-4.1-2-7.3s.7-5.6 2-7.3c1.3-1.7 3.1-2.5 5.4-2.5 2.3 0 4.1.8 5.4 2.5 1.3 1.7 2 4.1 2 7.2 0 3.3-.7 5.8-2 7.4z"/><path fill="#2D50C6" d="M33.1 0C14.9 0 0 14.9 0 33.1s14.9 33.1 33.1 33.1 33.1-14.9 33.1-33.1S51.4 0 33.1 0zm0 64.3C16 64.3 2 50.3 2 33.1S16 2 33.1 2c17.2 0 31.1 14 31.1 31.1.1 17.2-13.9 31.2-31.1 31.2z"/><path fill="#2D50C6" d="M26.4 18.2c-.9-.4-1.9-.7-2.9-.7-2 0-3.5.5-4.7 1.6-1.2 1.1-1.8 2.5-1.8 4.2 0 1.7.6 3.1 1.7 4.2s2.5 1.7 4.1 1.7 2.8-.4 3.8-1.2c1-.8 1.6-2 1.8-3.6.1.7.1 1.4.1 2.2 0 4-.9 6.6-2.7 7.7-.6.4-1.5.6-2.5.6s-1.9-.3-2.6-1c-.7-.7-1-1.6-1.1-2.7h-2.5c0 1.7.6 3.1 1.8 4.2 1.2 1.1 2.8 1.7 4.9 1.7 1.1 0 2.1-.2 3.1-.7C29.6 35 31 31.9 31 27c0-2.8-.7-5.1-2.2-6.9-.7-.8-1.5-1.5-2.4-1.9zm-.1 7.9c-.7.7-1.7 1.1-2.8 1.1s-2.1-.3-2.8-1c-.7-.7-1.1-1.6-1.1-2.7s.4-2.1 1.1-2.7c.7-.7 1.7-1 2.8-1 1.1 0 2.1.3 2.8 1s1.1 1.6 1.1 2.6c0 1.1-.4 2-1.1 2.7zM41.4 17.5c-2.3 0-4.1.8-5.4 2.5-1.3 1.7-2 4.1-2 7.3s.7 5.6 2 7.3c1.3 1.7 3.1 2.5 5.4 2.5 2.3 0 4.1-.8 5.4-2.5 1.3-1.7 2-4.1 2-7.2 0-3.1-.7-5.6-2-7.2-1.3-1.8-3.1-2.7-5.4-2.7zM45 32.9c-.8 1.3-2.1 2-3.7 2s-2.8-.7-3.7-2c-.8-1.3-1.3-3.2-1.3-5.6 0-2.4.4-4.3 1.3-5.6.8-1.3 2.1-2 3.7-2s2.8.7 3.7 2c.8 1.3 1.3 3.2 1.3 5.6 0 2.4-.4 4.3-1.3 5.6zM25.8 47.3l-2.5-5.1h-1.4v7.5h1v-6.3l2.6 5.4h.6l2.6-5.3v6.2h1v-7.5h-1.4zM32.1 42.2h.9v7.5h-.9zM40.3 48.2l-3.7-6h-1.2v7.5h1v-6.1l3.8 6.1h1.1v-7.5h-1zM43.5 48.5c-.2 0-.4.1-.5.2-.1.1-.2.3-.2.5s.1.3.2.5c.1.1.3.2.5.2s.4-.1.5-.2c.1-.1.2-.3.2-.5s-.1-.3-.2-.5-.3-.2-.5-.2z"/></svg><svg width="33.5" height="33.5" viewBox="-6 -5.1 33.5 33.5" id="dauer_02_doppelstunde_small" x="298" y="243" xmlns="http://www.w3.org/2000/svg"><path fill="none" d="M7.4 9.2c-.4 0-.7.1-1 .3-.2.2-.3.5-.3.8s.1.7.4.9c.2.2.5.3.9.3s.7-.1.9-.3c.2-.2.4-.5.4-.9s-.1-.6-.4-.8c-.3-.2-.6-.3-.9-.3zM13.7 9.2c-.5 0-.9.2-1.2.6-.3.4-.4 1.1-.4 1.9 0 .8.1 1.5.4 1.9.3.4.7.6 1.2.6s.9-.2 1.2-.6c.3-.4.4-1.1.4-1.9s-.1-1.5-.4-1.9c-.3-.4-.7-.6-1.2-.6z"/><path fill="none" d="M10.8.8C4.8.8 0 5.7 0 11.6c0 6 4.9 10.8 10.8 10.8s10.8-4.9 10.8-10.8S16.7.8 10.8.8zM8.6 15c-.3.2-.7.3-1.1.3-.8 0-1.4-.2-1.8-.6-.5-.5-.7-1-.7-1.6V13h1.1v.1c0 .4.1.7.3.9.2.2.5.3.8.3.3 0 .6-.1.8-.2.7-.4 1-1.3 1-2.6-.1.3-.3.5-.5.6-.4.3-.8.4-1.4.4-.6 0-1.1-.2-1.5-.6-.4-.4-.6-1-.6-1.6 0-.6.2-1.2.7-1.6.4-.4 1-.6 1.7-.6.4 0 .7.1 1.1.2.3.2.6.4.9.7.5.6.8 1.5.8 2.5-.1 1.8-.6 3-1.6 3.5zm7.1-.7c-.5.6-1.2.9-2 .9s-1.5-.3-2-.9c-.5-.6-.7-1.5-.7-2.6s.2-2 .7-2.6c.5-.6 1.2-.9 2-.9s1.5.3 2 .9c.5.6.7 1.5.7 2.6s-.3 2-.7 2.6z"/><path fill="#2D50C6" d="M10.8-.1C4.3-.1-1 5.2-1 11.6s5.3 11.8 11.8 11.8 11.8-5.3 11.8-11.8S17.3-.1 10.8-.1zm10.8 11.7c0 6-4.9 10.8-10.8 10.8S0 17.6 0 11.6C0 5.6 4.9.8 10.8.8s10.8 4.9 10.8 10.8z"/><path fill="#2D50C6" d="M8.5 8.4c-.4-.2-.7-.3-1.1-.3-.7 0-1.3.2-1.7.6-.5.4-.7 1-.7 1.6 0 .6.2 1.2.6 1.6.4.4.9.6 1.5.6s1.1-.2 1.4-.4c.2-.2.4-.4.5-.6 0 1.4-.3 2.2-.9 2.6-.2.1-.5.2-.8.2-.3 0-.6-.1-.8-.3-.2-.2-.3-.5-.3-.9V13H5v.1c0 .6.2 1.2.7 1.6.4.4 1 .6 1.8.6.4 0 .8-.1 1.1-.3 1-.5 1.5-1.7 1.5-3.4 0-1-.3-1.9-.8-2.5-.2-.3-.5-.5-.8-.7zm.1 1.9c0 .4-.1.6-.4.9-.2.2-.5.3-.9.3s-.7-.1-.9-.3c-.2-.2-.4-.5-.4-.9s.1-.7.3-.9c.4-.1.7-.2 1.1-.2.4 0 .7.1.9.3.2.2.3.5.3.8zM13.7 8.1c-.8 0-1.5.3-2 .9-.5.6-.7 1.5-.7 2.6s.2 2 .7 2.6c.5.6 1.2.9 2 .9s1.5-.3 2-.9c.5-.6.7-1.5.7-2.6s-.2-2-.7-2.6c-.5-.5-1.2-.9-2-.9zm1.6 3.6c0 .8-.1 1.5-.4 1.9-.3.4-.7.6-1.2.6s-.9-.2-1.2-.6c-.3-.4-.4-1.1-.4-1.9 0-.8.1-1.5.4-1.9.3-.4.7-.6 1.2-.6s.9.2 1.2.6c.2.4.4 1.1.4 1.9z"/></svg><svg width="76.3" height="76.3" viewBox="-4.8 -4.6 76.3 76.3" id="dauer_03_45_minuten" x="332" y="277" xmlns="http://www.w3.org/2000/svg"><path fill="none" d="M33.3 2.4c-17.2 0-31.1 14-31.1 31.1s14 31.1 31.1 31.1 31.1-14 31.1-31.1S50.5 2.4 33.3 2.4zm-3.1 47.9h-1.1v-6.9l-2.9 5.9h-.7l-2.9-6v7h-1.1v-8.4H23l2.8 5.7 2.8-5.7h1.5v8.4zm1.7-17.8h-3.3v4.6h-2.3v-4.6h-9.8v-1.8l9.9-12.8h2.2v12.6h3.3v2zM34 50.3h-1.1v-8.4H34v8.4zm9.1 0H42l-4.2-6.8v6.8h-1.1v-8.4H38l4.2 6.8v-6.8h1.1c-.2 0-.2 8.4-.2 8.4zm3.1-.1c-.2.1-.3.2-.6.2s-.4-.1-.6-.2c-.1-.1-.2-.3-.2-.5s.1-.4.2-.5c.1-.1.3-.2.6-.2s.4.1.6.2c.2.1.2.3.2.5.1.1 0 .3-.2.5zm-.1-14.6c-1.3 1.2-2.9 1.8-4.8 1.8-2 0-3.6-.5-4.8-1.5-1.3-1-1.9-2.4-1.9-4.1H37c0 1.7.8 2.7 2.5 3.2.5.1 1.1.2 1.7.2 1.3 0 2.3-.4 3.1-1.2.8-.8 1.2-1.8 1.2-3.1 0-2.4-1.6-3.6-4.7-3.6h-5.1l.8-9.2H47v2.2h-8.3l-.5 5.5c1-.2 2-.3 3-.3 2.1 0 3.7.5 4.9 1.4 1.2.9 1.8 2.3 1.8 4.2.1 1.7-.5 3.3-1.8 4.5z"/><path fill="none" d="M26.4 30.6v-9l-7.1 9z"/><path fill="#2D50C6" d="M33.3.4C15.1.4.2 15.2.2 33.5s14.9 33.1 33.1 33.1 33.1-14.9 33.1-33.1C66.5 15.2 51.6.4 33.3.4zm0 64.2c-17.2 0-31.1-14-31.1-31.1s14-31.1 31.1-31.1 31.1 14 31.1 31.1-13.9 31.1-31.1 31.1z"/><path fill="#2D50C6" d="M28.6 17.8h-2.2l-9.9 12.8v1.8h9.8V37h2.3v-4.6h3.3v-2.1h-3.3V17.8zm-2.2 12.8h-7l7-9.1v9.1zM46.2 26.8c-1.2-.9-2.8-1.4-4.9-1.4-.9 0-1.9.1-3 .3l.5-5.5h8.3V18H36.5l-.8 9.2h5.1c3.1 0 4.7 1.2 4.7 3.6 0 1.3-.4 2.3-1.2 3.1-.8.8-1.8 1.2-3.1 1.2-.6 0-1.2-.1-1.7-.2-1.7-.5-2.5-1.6-2.5-3.2h-2.4c0 1.8.6 3.1 1.9 4.1 1.2 1 2.9 1.5 4.8 1.5 2 0 3.6-.6 4.8-1.8 1.2-1.2 1.9-2.8 1.9-4.6 0-1.8-.6-3.2-1.8-4.1zM25.9 47.6l-2.8-5.7h-1.5v8.4h1.1v-7l2.9 5.9h.7l2.9-5.8v6.9h1v-8.4h-1.4zM32.9 41.9H34v8.4h-1.1zM42.1 48.6l-4.2-6.7h-1.2v8.4h1v-6.9l4.3 6.9h1.1v-8.4h-1zM45.7 48.9c-.2 0-.4.1-.6.2-.1.1-.2.3-.2.5s.1.4.2.5c.1.1.3.2.6.2s.4-.1.6-.2c.2-.1.2-.3.2-.5s-.1-.4-.2-.5c-.2-.1-.4-.2-.6-.2z"/></svg><svg width="33.2" height="33.2" viewBox="-5 -5 33.2 33.2" id="dauer_03_45_minuten_small" x="409" y="354" xmlns="http://www.w3.org/2000/svg"><path fill="none" d="M7 12.6h2.1V9.9z"/><path fill="none" d="M11.6.9C5.7.9.9 5.7.9 11.6c0 5.9 4.8 10.7 10.7 10.7s10.7-4.8 10.7-10.7C22.3 5.7 17.5.9 11.6.9zm-.4 12.6h-1.1V15H9v-1.6H5.6v-.8l3.5-4.5h.9v4.4h1.1v1zm4.9 1c-.5.4-1 .7-1.8.7-.7 0-1.3-.2-1.8-.5-.5-.4-.7-.9-.7-1.5V13H13v.1c0 .5.3.8.8 1 .2 0 .4.1.6.1.4 0 .7-.1 1-.4.3-.3.4-.6.4-1 0-.8-.5-1.1-1.5-1.1h-1.9l.3-3.5h3.9v1h-2.9l-.2 1.6c.3 0 .6-.1.9-.1.7 0 1.3.2 1.8.5.4.3.7.9.7 1.5-.1.8-.3 1.3-.8 1.8z"/><path fill="#2D50C6" d="M11.6 0C5.2 0 0 5.2 0 11.6 0 18 5.2 23.2 11.6 23.2S23.2 18 23.2 11.6C23.2 5.2 18 0 11.6 0zm10.7 11.6c0 5.9-4.8 10.7-10.7 10.7S.9 17.5.9 11.6 5.7.9 11.6.9s10.7 4.8 10.7 10.7z"/><path fill="#2D50C6" d="M10.1 8.1h-.9l-3.5 4.5v.8H9V15h1.1v-1.6h1.1v-1h-1.1V8.1zM7 12.6L9.1 10v2.6H7zM16.1 11.3c-.4-.3-1-.5-1.8-.5-.3 0-.6 0-.9.1l.2-1.6h2.9v-1h-3.9l-.3 3.5h1.9c1 0 1.5.4 1.5 1.1 0 .4-.1.7-.4 1-.2.3-.6.4-1 .4-.2 0-.4 0-.6-.1-.5-.2-.8-.5-.8-1V13h-1.1v.1c0 .6.2 1.2.7 1.5.5.4 1 .5 1.8.5.7 0 1.3-.2 1.8-.7.5-.4.7-1 .7-1.7 0-.6-.2-1.1-.7-1.4z"/></svg><svg width="76.3" height="76.3" viewBox="-5 -5 76.3 76.3" id="dauer_04_ubung_bis_zu_20_min" x="443" y="388" xmlns="http://www.w3.org/2000/svg"><circle fill="none" stroke="#2D50C6" stroke-width="2" stroke-miterlimit="10" cx="33.4" cy="33.2" r="32.1"/><path fill="#2D50C6" d="M20.6 37.1l-9.5-7V28l9.5-6.9 1.6 1.8-8.7 6.2 8.7 6.2z"/><g fill="#2D50C6"><path d="M26.2 36.1h11v2.2H23.8v-2.8c0-2.2.8-3.9 2.5-4.9.5-.3 1.1-.6 1.8-.9l3.7-1.5c1.9-.8 2.9-2 2.9-3.8 0-1-.3-1.8-1-2.4s-1.6-.9-2.8-.9-2.2.3-2.9.8c-.8.5-1.2 1.3-1.3 2.3h-2.6c.1-1.7.8-2.9 2-3.8s2.8-1.3 4.7-1.3 3.5.5 4.7 1.6c1.2 1 1.8 2.3 1.8 3.9 0 1.5-.4 2.8-1.2 3.7-.8.9-1.9 1.6-3.3 2.2L29 32c-1 .4-1.7.9-2.2 1.4s-.7 1.2-.7 2l.1.7zM51.9 28.8c0-2.5-.4-4.4-1.3-5.7-.8-1.3-2.1-2-3.7-2s-2.9.7-3.7 2-1.3 3.2-1.3 5.7.4 4.4 1.3 5.7c.8 1.3 2.1 2 3.7 2s2.9-.7 3.7-2c.9-1.3 1.3-3.2 1.3-5.7m-5-9.8c2.3 0 4.1.8 5.4 2.5 1.3 1.7 2 4.1 2 7.3s-.7 5.6-2 7.3-3.1 2.5-5.4 2.5c-2.3 0-4.1-.8-5.5-2.5-1.3-1.7-2-4.1-2-7.3s.7-5.7 2-7.3c1.4-1.7 3.2-2.5 5.5-2.5"/></g><path fill="#2D50C6" d="M23.1 43.1l2.9 5.7 2.8-5.7h1.5v8.4h-1.1v-6.9l-2.9 5.9h-.7l-2.9-6v7h-1.1v-8.4zM33 43.1h1.1v8.4H33zM37.9 43.1l4.2 6.8v-6.8h1.1v8.4H42l-4.2-6.8v6.8h-1.1v-8.4zM45.7 51.6c-.2 0-.4-.1-.6-.2-.1-.1-.2-.3-.2-.5s.1-.4.2-.5c.1-.1.3-.2.6-.2.2 0 .4.1.6.2.2.1.2.3.2.5s-.1.4-.2.5c-.2.2-.4.2-.6.2"/></svg><svg width="34.2" height="34.2" viewBox="-5.5 -5.5 34.2 34.2" id="dauer_04_ubung_bis_zu_20_min_small" x="520" y="465" xmlns="http://www.w3.org/2000/svg"><path fill="#2D50C6" d="M11.6 23.7C4.9 23.7-.5 18.3-.5 11.6S4.9-.5 11.6-.5s12.1 5.4 12.1 12.1c0 6.6-5.5 12.1-12.1 12.1zm0-23.2C5.5.5.5 5.5.5 11.6s5 11.1 11.1 11.1 11.1-5 11.1-11.1S17.7.5 11.6.5z"/><path fill="#2D50C6" d="M6.9 14.8l-3.4-2.5v-.8L6.9 9l.6.7-3.2 2.2 3.2 2.3z"/><g fill="#2D50C6"><path d="M9 14.4h4v.8H8.1v-1c0-.8.3-1.4.9-1.8.2-.1.4-.2.7-.3l1.4-.5c.7-.3 1.1-.7 1.1-1.4 0-.4-.1-.6-.4-.9-.2-.2-.6-.3-1-.3-.5 0-.8.1-1.1.3s-.4.5-.5.8h-1c.1-.6.3-1.1.8-1.4.4-.3 1-.5 1.7-.5s1.3.2 1.7.6c.4.4.7.8.7 1.4 0 .6-.1 1-.4 1.3-.3.3-.7.6-1.2.8l-1.5.6c-.3.1-.6.3-.8.5-.1.2-.2.4-.2.7v.3zM16.5 8.2c.8 0 1.5.3 2 .9.5.6.7 1.5.7 2.6s-.2 2-.7 2.6-1.1.9-2 .9c-.8 0-1.5-.3-2-.9s-.7-1.5-.7-2.7.2-2 .7-2.7c.5-.4 1.2-.7 2-.7m1.8 3.6c0-.9-.2-1.6-.5-2.1-.3-.4-.7-.7-1.3-.7s-1 .2-1.3.7-.5 1.2-.5 2.1.2 1.6.5 2.1.8.7 1.3.7 1-.2 1.3-.7c.3-.5.5-1.2.5-2.1"/></g></svg><svg width="76.3" height="76.3" viewBox="-5 -5 76.3 76.3" id="dauer_05_flexibel" x="555" y="500" xmlns="http://www.w3.org/2000/svg"><path fill="#2D50C6" d="M33.1 66.3C14.9 66.3 0 51.4 0 33.1 0 14.9 14.9 0 33.1 0c18.3 0 33.1 14.9 33.1 33.1.1 18.3-14.8 33.2-33.1 33.2zm0-64.3C16 2 2 16 2 33.1s14 31.1 31.1 31.1c17.2 0 31.1-14 31.1-31.1S50.3 2 33.1 2z"/><path fill="#2D50C6" d="M24.2 20.4v6.4h6.2v2h-6.2v6.4h-2.4v-6.4h-6.2v-2h6.2v-6.4zM38.7 13.1h2.5l-7.7 24.3h-2.4zM42.1 25.4h8.2v2.1h-8.2zM22.9 43l2.8 5.7 2.9-5.7H30v8.4h-1v-6.9l-2.9 5.9h-.7l-2.9-6v7h-1.1V43zM32.7 43h1.1v8.4h-1.1zM37.7 43l4.2 6.8V43h1v8.4h-1.1l-4.3-6.8v6.8h-1V43zM45.5 51.5c-.2 0-.4-.1-.6-.2-.1-.1-.2-.3-.2-.5s.1-.4.2-.5c.1-.1.3-.2.6-.2s.4.1.6.2c.2.1.2.3.2.5s-.1.4-.2.5c-.2.2-.4.2-.6.2"/></svg><svg width="33.4" height="33.4" viewBox="-6 -5 33.4 33.4" id="dauer_05_flexibel_small" x="632" y="577" xmlns="http://www.w3.org/2000/svg"><path fill="none" d="M10.7.9C4.8.9-.1 5.8-.1 11.7s4.8 10.7 10.7 10.7 10.7-4.8 10.7-10.7S16.6.9 10.7.9zM7.3 14.6H6.2v-2.2H4.1v-1h2.2V9.2h1.1v2.2h2.2v1H7.3v2.2zm3.3.8H9.5l2.7-8.7h1.1l-2.7 8.7zm5.9-3.5h-3.1v-1h3.1v1z"/><path fill="#2D50C6" d="M10.7 0C4.2 0-1 5.2-1 11.7s5.2 11.7 11.7 11.7 11.7-5.2 11.7-11.7C22.4 5.2 17.1 0 10.7 0zm10.7 11.7c0 5.9-4.8 10.7-10.7 10.7S-.1 17.6-.1 11.7 4.8.9 10.7.9s10.7 4.9 10.7 10.8z"/><path fill="#2D50C6" d="M9.5 11.4H7.3V9.2H6.2v2.2H4.1v1h2.1v2.2h1.1v-2.2h2.2zM9.5 15.4h1.1l2.7-8.7h-1.1zM13.3 11h3.1v1h-3.1z"/></svg><svg width="76" height="58" viewBox="-4.3 -5 76 58" id="medieneinsatz_01_ohne_internetzugang" x="666" y="611" xmlns="http://www.w3.org/2000/svg"><path fill="none" d="M33.8 36.9c-2.4 0-4.3 1.9-4.3 4.3s1.9 4.3 4.3 4.3 4.3-1.9 4.3-4.3c0-2.3-1.9-4.3-4.3-4.3zM33.9 20.2c-6.6 0-12.6 3-16.5 8.3l5.6 3.9c2.6-3.3 6.5-5.2 10.8-5.2 4 0 7.7 1.7 10.3 4.7l.1.1 5.7-4.1c-3.9-4.9-9.7-7.7-16-7.7z"/><path fill="none" d="M63.3 16.5C56.1 7.3 45.3 2 33.7 2c-12 0-23.3 5.8-30.4 15.5-.1.1-.1.2-.2.3L8.7 22l.3-.3c5.8-7.9 15-12.6 24.8-12.6 9.4 0 18.1 4.2 24 11.5.2.2.5.6.8 1l5.8-4c-.1-.1-.2-.3-.4-.4l-.7-.7z"/><path fill="#2D50C6" d="M66.6 17.3c-.2-.2-.7-.8-1.1-1.3-.3-.3-.5-.6-.6-.7C57.3 5.6 45.9 0 33.7 0 21.1 0 9.1 6.1 1.7 16.3c-.3.4-.5.7-.8 1.1-.3.4-.2 1 .2 1.4l7.1 5.3c.2.1.4.2.6.2H9c.3 0 .5-.2.7-.4.1-.1.2-.3.4-.5s.4-.4.5-.6C16 15.4 24.7 11 33.8 11c8.8 0 16.9 3.9 22.4 10.8.3.3 1.1 1.4 1.4 1.8.3.4.9.5 1.4.2l7.4-5.1c.2-.2.4-.4.4-.7 0-.2-.1-.5-.2-.7zm-8.1 4.4c-.3-.4-.7-.9-.8-1-5.9-7.3-14.6-11.5-24-11.5-9.8 0-19 4.7-24.8 12.6l-.3.3L3 17.9c.1-.1.1-.2.2-.3C10.3 7.8 21.7 2 33.7 2c11.6 0 22.4 5.3 29.6 14.5.1.1.4.4.6.8.1.1.2.3.4.4l-5.8 4zM33.8 34.9c-3.5 0-6.3 2.8-6.3 6.3s2.8 6.3 6.3 6.3 6.3-2.8 6.3-6.3-2.8-6.3-6.3-6.3zm0 10.7c-2.4 0-4.3-1.9-4.3-4.3s1.9-4.3 4.3-4.3 4.3 1.9 4.3 4.3c0 2.3-1.9 4.3-4.3 4.3z"/><path fill="#2D50C6" d="M51.5 26.7c-4.3-5.4-10.7-8.4-17.6-8.4-7.1 0-13.9 3.4-18.1 9.1-.2.3-.4.5-.6.8-.3.5-.2 1.1.3 1.4l7.3 5c.2.1.4.2.6.2h.2c.3 0 .5-.2.6-.4.1-.2.3-.4.5-.6 2.2-2.9 5.6-4.5 9.2-4.5 3.4 0 6.6 1.5 8.8 4 .2.3.4.5.6.8.3.4.9.5 1.4.2L52 29c.2-.2.4-.4.4-.7s0-.5-.2-.7c-.3-.4-.5-.6-.7-.9zM44.3 32l-.1-.1c-2.6-3-6.4-4.7-10.3-4.7-4.2 0-8.1 1.9-10.8 5.2l-5.6-3.9c3.9-5.3 9.9-8.3 16.5-8.3 6.3 0 12.1 2.8 16 7.7L44.3 32zM14.7 36.8c-.4-.4-1-.4-1.4 0l-4 4-4-4c-.4-.4-1-.4-1.4 0s-.4 1 0 1.4l4 4-4 4c-.4.4-.4 1 0 1.4s1 .4 1.4 0l4-4 4 4c.2.2.5.3.7.3s.5-.1.7-.3c.4-.4.4-1 0-1.4l-4-4 4-4c.4-.4.4-1 0-1.4z"/></svg><svg width="33.7" height="27.3" viewBox="-5 -5 33.7 27.3" id="medieneinsatz_01_ohne_internetzugang_small" x="742" y="669" xmlns="http://www.w3.org/2000/svg"><path fill="none" d="M11.9 7.4c-2.2 0-4.3 1-5.7 2.8L8 11.4c.9-1.1 2.3-1.8 3.8-1.8 1.4 0 2.8.6 3.7 1.7l1.8-1.3C16 8.4 14 7.4 11.9 7.4zM12.1 16.1c.6-.1 1.1-.7 1.1-1.4 0-.8-.6-1.4-1.4-1.4s-1.4.6-1.4 1.4c0 .7.5 1.3 1.1 1.4h.3c.2.1.3.1.3 0z"/><path fill="none" d="M22.5 6.4l-.1-.2c0-.1-.1-.1-.1-.1-1.6-2-3.6-3.5-6-4.3-1.5-.6-3-.8-4.5-.8-2 0-4.1.4-5.9 1.3 0 0-.1 0-.1.1 0 0-.1 0-.1.1-1.8.9-3.4 2.2-4.6 3.9l1.8 1.3c.4-.5.9-1 1.3-1.5.8-.7 1.6-1.3 2.6-1.8 1.5-.8 3.2-1.2 5-1.2 3.4 0 6.5 1.5 8.6 4.1 0 .1.1.2.2.3l1.9-1.2z"/><path fill="#2D50C6" d="M23.6 6.2c-.1-.1-.2-.3-.4-.5l-.1-.1c-.1-.1-.1-.1-.1-.2C20.3 2 16.2 0 11.8 0 7.3 0 3 2.2.4 5.8c-.1.2-.2.3-.3.4-.2.2-.1.5.1.7l2.5 1.9c.1 0 .2.1.3.1h.1c.1 0 .2-.1.3-.2l.1-.1c.1-.1.1-.2.2-.2 1.9-2.6 4.9-4.1 8.1-4.1 3.1 0 5.9 1.4 7.9 3.8.1.1.4.5.5.6.1.2.5.3.7.1L23.5 7c.1-.1.2-.2.2-.3 0-.3-.1-.4-.1-.5zm-11.8-3c-1.7 0-3.5.4-5 1.2-.9.5-1.7 1.1-2.5 1.8-.5.5-1 1-1.4 1.5L1.1 6.4c1.2-1.7 2.8-3 4.6-3.9 0 0 .1 0 .1-.1 0 0 .1 0 .1-.1C7.7 1.4 9.8 1 11.8 1c1.5 0 3 .3 4.4.8 2.3.8 4.4 2.3 6 4.3l.1.1.1.2-1.8 1.3c-.1-.1-.2-.2-.2-.3-2.1-2.7-5.2-4.2-8.6-4.2zM11.9 12.4c-1.3 0-2.4 1.1-2.4 2.4 0 1.3 1.1 2.4 2.4 2.4 1.3 0 2.4-1.1 2.4-2.4-.1-1.4-1.1-2.4-2.4-2.4zm-1.5 2.3c0-.8.6-1.4 1.4-1.4s1.4.6 1.4 1.4c0 .7-.5 1.3-1.1 1.4h-.6c-.6-.1-1.1-.7-1.1-1.4z"/><path fill="#2D50C6" d="M18.2 9.5c-1.6-1.9-3.9-3-6.3-3-2.6 0-5 1.2-6.5 3.3-.1 0-.2.1-.2.2-.1.2-.1.5.1.7l2.6 1.8c.1.1.2.1.3.1h.1c.1 0 .2-.1.3-.2l.2-.2c.8-1 1.9-1.6 3.2-1.6 1.2 0 2.3.5 3 1.4.1.1.1.2.2.3.1.2.5.3.7.1l2.6-1.9c.1-.1.2-.2.2-.3 0-.1 0-.3-.1-.4-.2-.1-.3-.2-.4-.3zm-2.6 1.8c-.9-1.1-2.3-1.7-3.7-1.7-1.5 0-2.9.7-3.8 1.8l-1.8-1.2C7.7 8.4 9.7 7.4 12 7.4c2.1 0 4.1.9 5.5 2.6l-1.9 1.3zM3.8 15.1l1.3-1.3c.2-.2.2-.5 0-.7-.2-.2-.5-.2-.7 0l-1.3 1.3-1.3-1.3c-.2-.2-.5-.2-.7 0 0 .1-.1.2-.1.3 0 .1 0 .2.1.3L2.4 15l-1.3 1.3c0 .2-.1.4-.1.5 0 .1 0 .2.1.3.2.2.5.2.7 0l1.3-1.3 1.3 1.3c.1.1.2.1.3.1s.2 0 .3-.1c.2-.2.2-.5 0-.7l-1.2-1.3z"/></svg><svg width="80.1" height="63.7" viewBox="-5 -5 80.1 63.7" id="medieneinsatz_02_pc_laptop" x="776" y="697" xmlns="http://www.w3.org/2000/svg"><path fill="none" d="M30 43.5h11c2.2 0 3.9 1.7 4.1 3.8H66l-6.7-6.4c-.3.1-.5.1-.8.1H11.7c-.4 0-.8-.1-1.1-.1L4 47.3h21.9c.2-2.1 2-3.8 4.1-3.8zM11.7 38.9h46.9c1.2 0 2.1-1 2.1-2.1V7.9H9.6v28.9c0 1.2.9 2.1 2.1 2.1zM60.7 4.1c0-1.2-1-2.1-2.1-2.1H11.7c-1.2 0-2.1 1-2.1 2.1v1.8h51.1V4.1zM4.9 51.7h60.3c1.4 0 2.6-1 2.8-2.4H2c.3 1.4 1.4 2.4 2.9 2.4z"/><path fill="none" d="M30 45.5c-1.1 0-1.9.8-2.1 1.8h15.2c-.2-1-1-1.8-2.1-1.8H30z"/><path fill="#2D50C6" d="M61.3 39.9c.9-.8 1.4-1.9 1.4-3.1V4.1c0-2.3-1.9-4.1-4.1-4.1H11.7C9.4 0 7.6 1.9 7.6 4.1v32.7c0 1.2.4 2.2 1.2 3L0 48.4v.4c0 2.7 2.2 4.9 4.9 4.9h60.3c2.7 0 4.9-2.2 4.9-4.9v-.4l-8.8-8.5zM9.6 4.1c0-1.2 1-2.1 2.1-2.1h46.9c1.2 0 2.1 1 2.1 2.1v1.8H9.6V4.1zm0 3.8h51.1v28.9c0 1.2-1 2.1-2.1 2.1H11.7c-1.2 0-2.1-1-2.1-2.1V7.9zm1 32.9c.4.1.7.1 1.1.1h46.9c.3 0 .5 0 .8-.1l6.7 6.4h-21c-.2-2.1-2-3.8-4.1-3.8H30c-2.2 0-3.9 1.7-4.1 3.8H4l6.6-6.4zm32.5 6.5H27.9c.2-1 1-1.8 2.1-1.8h11c1.1 0 1.9.8 2.1 1.8zm22.1 4.4H4.9c-1.4 0-2.6-1-2.8-2.4h66c-.3 1.4-1.5 2.4-2.9 2.4z"/></svg><svg width="33.7" height="28.2" viewBox="-5 -5 33.7 28.2" id="medieneinsatz_02_pc_laptop_small" x="857" y="761" xmlns="http://www.w3.org/2000/svg"><path fill="none" d="M13.8 15.5h-3.7c-.2 0-.4.1-.5.3h4.7c0-.2-.2-.3-.5-.3z"/><path fill="none" d="M19.7 13.9h-16l-1.9 1.9h6.9c.1-.7.8-1.3 1.5-1.3h3.7c.7 0 1.4.5 1.5 1.3H22l-2-1.9h-.3zM22.7 16.7H1c.1.3.4.6.8.6H22c.3 0 .6-.3.7-.6zM20.3 2.9H3.4v9.5c0 .3.3.6.6.6h15.7c.3 0 .6-.3.6-.6V2.9zM20.3 1.5c0-.3-.3-.6-.6-.6H4c-.3 0-.6.3-.6.6V2h16.8v-.5z"/><path fill="#2D50C6" d="M20.8 13.5c.3-.3.4-.7.4-1v-11c0-.8-.7-1.5-1.5-1.5H4c-.8 0-1.5.7-1.5 1.5v10.9c0 .4.1.7.4 1L0 16.2v.2c0 1 .8 1.8 1.8 1.8H22c1 0 1.7-.8 1.7-1.8v-.2l-2.9-2.7zM1 16.7h21.7c-.1.3-.4.6-.8.6H1.8c-.4 0-.7-.3-.8-.6zm9.2-1.2h3.7c.2 0 .4.1.5.3H9.6c.1-.2.3-.3.6-.3zm5.1.3c-.1-.7-.8-1.3-1.5-1.3h-3.7c-.7 0-1.4.5-1.5 1.3H1.8l1.9-1.9h16.2l2 1.9h-6.6zm4.4-2.8H4c-.3 0-.6-.3-.6-.6V2.9h16.8v9.5c.1.3-.2.6-.5.6zM3.4 1.5c0-.3.3-.6.6-.6h15.7c.3 0 .6.3.6.6V2H3.4v-.5z"/></svg><svg width="61.9" height="64.5" viewBox="-5 -5 61.9 64.5" id="medieneinsatz_03_tablet_smartphone" x="891" y="790" xmlns="http://www.w3.org/2000/svg"><path fill="none" d="M34.5 13.1V6.5H6.1v39.3H30V17.2c0-2.3 1.8-4.1 4.1-4.1h.4z"/><path fill="none" d="M30.4 47.7H4.1V4.5h32.4v8.6h2v-9c0-1.2-.9-2.1-2.1-2.1H4.1C2.9 2 2 2.9 2 4.1v46.4c0 1.2.9 2.1 2.1 2.1h32.3c1.2 0 2.1-.9 2.1-2.1v-.3h-4.4c-1.7 0-3.1-1-3.7-2.5z"/><path fill="none" d="M32 46.1c0 1.2.9 2.1 2.1 2.1h13.8c1.2 0 2.1-.9 2.1-2.1v-2.9H32v2.9zM32 19.8h17.9v21.3H32zM47.8 15.1H34.1c-1.2 0-2.1.9-2.1 2.1v.7h17.9v-.7c0-1.2-.9-2.1-2.1-2.1z"/><path fill="#2D50C6" d="M47.8 13.1h-7.3v-9c0-2.3-1.8-4.1-4.1-4.1H4.1C1.8 0 0 1.8 0 4.1v46.4c0 2.3 1.8 4.1 4.1 4.1h32.3c2.3 0 4.1-1.8 4.1-4.1v-.3h7.3c2.3 0 4.1-1.8 4.1-4.1V17.2c0-2.3-1.8-4.1-4.1-4.1zm-9.3 37.4c0 1.2-.9 2.1-2.1 2.1H4.1c-1.2 0-2.1-.9-2.1-2.1V4.1C2 2.9 2.9 2 4.1 2h32.3c1.2 0 2.1.9 2.1 2.1v9h-2V4.5H4.1v43.3h26.2c.6 1.4 2.1 2.4 3.7 2.4h4.4v.3zM30 17.2v28.6H6.1V6.5h28.4v6.6h-.4c-2.3 0-4.1 1.8-4.1 4.1zm19.9 28.9c0 1.2-.9 2.1-2.1 2.1H34.1c-1.2 0-2.1-.9-2.1-2.1v-2.9h17.9v2.9zm0-4.9H32V19.8h17.9v21.4zm0-23.4H32v-.7c0-1.2.9-2.1 2.1-2.1h13.8c1.2 0 2.1.9 2.1 2.1l-.1.7z"/></svg><svg width="33.9" height="35.1" viewBox="-5.1 -5.1 33.9 35.1" id="medieneinsatz_03_tablet_smartphone_small" x="953" y="855" xmlns="http://www.w3.org/2000/svg"><path fill="none" d="M13.6 20.7V7.8c0-1.1.9-2 2-2h.1V3.1H2.9v17.7h10.7z"/><path fill="none" d="M13.8 21.9h-12v-20h15v3.9h.7v-4c0-.5-.4-.8-.8-.8H1.9c-.5 0-.9.4-.9.9V23c0 .5.4.8.8.8h14.7c.5 0 .8-.4.8-.8h-1.9c-.6 0-1.3-.4-1.6-1.1z"/><path fill="none" d="M14.7 21c0 .5.4.8.8.8h6.3c.5 0 .8-.4.8-.8v-1.2h-7.9V21zM21.8 7h-6.3c-.5 0-.8.4-.8.8V8h7.9v-.2c.1-.4-.3-.8-.8-.8zM14.7 9.2h7.9v9.5h-7.9z"/><path fill="#2D50C6" d="M21.8 5.8h-3.2v-4c0-1.1-.9-2-2-2H1.9c-1.1 0-2 .9-2 2V23c0 1.1.9 2 2 2h14.8c1.1 0 2-.9 2-2h3.2c1.1 0 2-.9 2-2V7.8c-.1-1.1-1-2-2.1-2zM17.5 23c0 .5-.4.8-.8.8H1.9c-.5 0-.9-.3-.9-.8V1.9c0-.5.4-.9.9-.9h14.8c.5 0 .8.4.8.8v4h-.7V1.9h-15v20h12c.3.7 1 1.1 1.8 1.1h1.9zM15.6 3.1v2.7h-.1c-1.1 0-2 .9-2 2v12.9H2.9V3.1h12.7zM22.7 21c0 .5-.4.8-.8.8h-6.3c-.5 0-.8-.4-.8-.8v-1.2h7.9V21zm0-2.3h-7.9V9.2h7.9v9.5zm0-10.7h-7.9v-.2c0-.5.4-.8.8-.8h6.3c.5 0 .8.4.8.8V8z"/></svg><svg width="65.2" height="63.4" viewBox="-5 -5 65.2 63.4" id="medieneinsatz_04_hardware_basteln" x="987" y="891" xmlns="http://www.w3.org/2000/svg"><path fill="none" d="M27.9 38.4c0-1.5-1.2-2.8-2.8-2.8-1.5 0-2.8 1.2-2.8 2.8 0 1.5 1.2 2.8 2.8 2.8 1.6 0 2.8-1.2 2.8-2.8z"/><path fill="none" d="M37.8 37.9L35.7 40c-.2.2-.5.3-.8.3-.3 0-.6-.2-.7-.5l-7.7-14.2c-.2-.4-.1-.9.2-1.2l4.9-4.9c.3-.3.8-.4 1.2-.2L47 27c.3.1.5.4.5.7s-.1.6-.3.9L45 30.7l8.2 8.2v-7.6c-2.3-.8-3.9-3-3.9-5.6V13.1c0-2.1-1.7-3.9-3.8-3.9-.5 2.1-2.4 3.7-4.6 3.7-2.6 0-4.8-2.1-4.8-4.8 0-2.6 2.1-4.8 4.8-4.8 2.3 0 4.3 1.7 4.7 3.9 3.1.1 5.7 2.6 5.8 5.7v12.8c0 1.4.8 2.7 1.9 3.4v-25C53.2 3 52.2 2 51 2H4.2C3 2 2 3 2 4.1v1.8C3 5 4.4 4.4 5.9 4.4h15.5c2.7 0 4.9 1.8 5.7 4.2 2.4.3 4.2 2.3 4.2 4.7 0 2.6-2.1 4.8-4.8 4.8-2.6 0-4.8-2.1-4.8-4.8 0-2.1 1.4-3.9 3.3-4.5-.6-1.4-2-2.4-3.6-2.4H5.9C3.9 6.5 2.3 8 2 9.9v18.5c.2 1.9 1.9 3.4 3.9 3.4h8c2.1 0 3.8-1.7 3.9-3.8-2-.5-3.6-2.4-3.6-4.6 0-2.6 2.1-4.8 4.8-4.8 2.6 0 4.8 2.1 4.8 4.8 0 2.4-1.7 4.3-4 4.7-.1 3.1-2.7 5.7-5.9 5.7h-8c-1.5 0-2.8-.6-3.9-1.5v16.9c0 1.2 1 2.1 2.1 2.1h2.4v-8.4c0-3.3 2.7-5.9 5.9-5.9h8.1c.6-2 2.4-3.5 4.6-3.5 2.6 0 4.8 2.1 4.8 4.8 0 2.6-2.1 4.8-4.8 4.8-2.4 0-4.4-1.8-4.7-4.1h-7.9c-2.2 0-3.9 1.8-3.9 3.9v8.4h42.6L37.8 37.9z"/><path fill="none" d="M53.2 41.8L42.8 31.5c-.2-.2-.3-.4-.3-.7s.1-.5.3-.7l1.9-1.9-12.4-6.7-3.8 3.8 6.7 12.4 1.9-1.9c.4-.4 1-.4 1.4 0L53 50.2c.1-.3.2-.6.2-1v-7.4zM21.8 23.4c0-1.5-1.2-2.8-2.8-2.8-1.5 0-2.8 1.2-2.8 2.8 0 1.5 1.2 2.8 2.8 2.8 1.6 0 2.8-1.2 2.8-2.8zM26.5 16.2c1.5 0 2.8-1.2 2.8-2.8 0-1.5-1.2-2.8-2.8-2.8-1.5 0-2.8 1.2-2.8 2.8 0 1.5 1.3 2.8 2.8 2.8zM38 8.1c0 1.5 1.2 2.8 2.8 2.8 1.5 0 2.8-1.2 2.8-2.8 0-1.5-1.2-2.8-2.8-2.8-1.6 0-2.8 1.3-2.8 2.8z"/><path fill="#2D50C6" d="M55.2 29.6V4.1C55.2 1.9 53.3 0 51 0H4.2C1.9 0 0 1.9 0 4.1v45.1c0 2.3 1.9 4.1 4.1 4.1H51c2.3 0 4.1-1.9 4.1-4.1V31.6l.1-2zm-16.7 6.2c-.4-.4-1-.4-1.4 0l-1.9 1.9-6.7-12.4 3.8-3.8 12.4 6.7-1.9 1.8c-.2.2-.3.4-.3.7s.1.5.3.7l10.3 10.3v7.5c0 .3-.1.7-.2 1L38.5 35.8zM8.6 51.4V43c0-2.2 1.8-3.9 3.9-3.9h7.9c.3 2.3 2.3 4.1 4.7 4.1 2.6 0 4.8-2.1 4.8-4.8 0-2.6-2.1-4.8-4.8-4.8-2.2 0-4 1.5-4.6 3.5h-8.1c-3.3 0-5.9 2.7-5.9 5.9v8.4H4.2c-1.2 0-2.1-1-2.1-2.1v-17c1 .9 2.4 1.5 3.9 1.5h8c3.2 0 5.8-2.5 5.9-5.7 2.3-.4 4-2.3 4-4.7 0-2.6-2.1-4.8-4.8-4.8-2.6 0-4.8 2.1-4.8 4.8 0 2.2 1.5 4.1 3.6 4.6-.1 2.1-1.8 3.8-3.9 3.8H6c-2 0-3.6-1.5-3.9-3.4V9.9C2.3 8 3.9 6.5 5.9 6.5h15.5c1.6 0 3 1 3.6 2.4-1.9.6-3.3 2.4-3.3 4.5 0 2.6 2.1 4.8 4.8 4.8 2.6 0 4.8-2.1 4.8-4.8 0-2.4-1.8-4.4-4.2-4.7-.7-2.4-3-4.2-5.7-4.2H5.9C4.4 4.5 3.1 5 2 5.9V4.1C2 3 3 2 4.2 2H51c1.2 0 2.1 1 2.1 2.1v25c-1.1-.7-1.9-1.9-1.9-3.4V12.9c-.1-3.1-2.7-5.6-5.8-5.7-.4-2.2-2.3-3.9-4.6-3.9-2.6 0-4.8 2.1-4.8 4.8 0 2.6 2.1 4.8 4.8 4.8 2.3 0 4.1-1.6 4.6-3.7 2.1 0 3.8 1.8 3.8 3.9v12.6c0 2.6 1.6 4.7 3.9 5.6v7.6L45 30.7l2.1-2.1c.2-.2.3-.5.3-.9 0-.3-.2-.6-.5-.7l-14.2-7.7c-.4-.2-.9-.1-1.2.2l-4.9 4.9c-.3.3-.4.8-.2 1.2l7.7 14.2c.2.3.4.5.7.5.3 0 .6-.1.8-.3l2.1-2.1 13.5 13.5H8.6zm13.8-13c0-1.5 1.2-2.8 2.8-2.8 1.5 0 2.8 1.2 2.8 2.8 0 1.5-1.2 2.8-2.8 2.8s-2.8-1.2-2.8-2.8zm-6.1-15c0-1.5 1.2-2.8 2.8-2.8 1.5 0 2.8 1.2 2.8 2.8 0 1.5-1.2 2.8-2.8 2.8-1.6 0-2.8-1.2-2.8-2.8zm10.2-12.8c1.5 0 2.8 1.2 2.8 2.8 0 1.5-1.2 2.8-2.8 2.8-1.5 0-2.8-1.2-2.8-2.8 0-1.5 1.3-2.8 2.8-2.8zm17-2.5c0 1.5-1.2 2.8-2.8 2.8-1.5 0-2.8-1.2-2.8-2.8 0-1.5 1.2-2.8 2.8-2.8 1.6 0 2.8 1.3 2.8 2.8z"/></svg><svg width="33.4" height="32.7" viewBox="-5 -5 33.4 32.7" id="medieneinsatz_04_hardware_basteln_small" x="1053" y="955" xmlns="http://www.w3.org/2000/svg"><circle fill="none" cx="10.7" cy="16.3" r="1"/><path fill="none" d="M16.4 15.1l5.9 5.9V17.7L18 13.4c-.1-.1-.2-.2-.2-.4s.1-.3.2-.4l.7-.7-5-2.7-1.5 1.5 2.7 5 .7-.7c.1-.1.2-.2.4-.2.1.1.3.2.4.3z"/><path fill="none" d="M22.3 13.4c-1-.4-1.6-1.4-1.6-2.4V5.6c0-.8-.6-1.5-1.4-1.5-.3.9-1.1 1.5-2 1.5-1.2 0-2.1-1-2.1-2.1s1-2.1 2.1-2.1c1 0 1.8.7 2.1 1.6 1.3.1 2.3 1.1 2.5 2.4v5.5c0 .5.2.9.6 1.2V1.9c0-.4-.3-.8-.8-.8H1.9c-.4 0-.8.3-.8.8v.5c.4-.3 1-.5 1.5-.5h6.5c1.1 0 2.1.7 2.5 1.8 1 .2 1.8 1.1 1.8 2.1 0 1.2-1 2.1-2.1 2.1s-2.1-1-2.1-2.1c0-.9.5-1.7 1.3-2-.3-.5-.8-.8-1.4-.8H2.6c-.7 0-1.4.5-1.5 1.3v7.8c.1.7.7 1.3 1.5 1.3H6c.8 0 1.4-.6 1.5-1.4-.9-.3-1.5-1.1-1.5-2 0-1.2 1-2.1 2.1-2.1s2.1 1 2.1 2.1c0 1-.7 1.9-1.7 2.1-.1 1.4-1.2 2.4-2.6 2.4H2.6c-.5 0-1.1-.2-1.5-.5v6.9c0 .4.3.8.8.8h.9v-3.4c0-1.4 1.2-2.6 2.6-2.6h3.3c.3-.9 1.1-1.5 2-1.5 1.2 0 2.1 1 2.1 2.1s-1 2.1-2.1 2.1c-1 0-1.9-.7-2.1-1.7H5.4c-.8 0-1.5.7-1.5 1.5v3.4h17.5L16 16.2l-.8.8c-.1.1-.3.2-.5.2s-.3-.1-.4-.3l-3.2-6c-.1-.2-.1-.5.1-.6l2.1-2.1c.2-.2.4-.2.6-.1l6 3.2c.2.1.3.2.3.4s0 .3-.2.5l-.8.8 3.1 3.1v-2.7z"/><circle fill="none" cx="11.3" cy="5.8" r="1"/><circle fill="none" cx="17.3" cy="3.5" r="1"/><circle fill="none" cx="8.1" cy="10" r="1"/><path fill="#2D50C6" d="M21.6 0H1.9C.8 0 0 .8 0 1.9v19c0 1 .8 1.9 1.9 1.9h19.7c1 0 1.9-.8 1.9-1.9v-19C23.4.8 22.6 0 21.6 0zm-6 15.1l-.7.7-2.7-5 1.5-1.5 5 2.7-.7.7c-.1.1-.2.2-.2.4s.1.3.2.4l4.3 4.3V21.1l-5.9-5.9c-.1-.1-.2-.2-.4-.2-.2-.1-.3 0-.4.1zm4.4-2.9c.1-.1.2-.3.2-.5s-.1-.3-.3-.4l-6-3.2c-.2-.1-.5-.1-.6.1l-2.1 2.1c-.2.2-.2.4-.1.6l3.2 6c.1.1.2.3.4.3s.3 0 .5-.2l.8-.8 5.4 5.4H3.9v-3.4c0-.8.7-1.5 1.5-1.5h3.2c.2 1 1.1 1.7 2.1 1.7 1.2 0 2.1-1 2.1-2.1s-1-2.1-2.1-2.1c-.9 0-1.7.6-2 1.5H5.4c-1.4 0-2.6 1.2-2.6 2.6v3.4h-.9c-.4 0-.8-.3-.8-.8V14c.4.3 1 .5 1.5.5H6c1.4 0 2.5-1 2.6-2.4 1-.2 1.7-1.1 1.7-2.1 0-1.2-1-2.1-2.1-2.1S6 8.8 6 10c0 .9.6 1.8 1.5 2-.1.8-.7 1.4-1.5 1.4H2.6c-.8 0-1.4-.6-1.5-1.3V4.3c.1-.8.8-1.3 1.5-1.3h6.5c.6 0 1.1.3 1.3.8-.8.3-1.3 1.1-1.3 2 0 1.2 1 2.1 2.1 2.1s2.1-1 2.1-2.1c0-1-.8-1.9-1.8-2.1-.4-1.1-1.4-1.8-2.5-1.8H2.6c-.5 0-1.1.1-1.5.5v-.5c0-.4.3-.8.8-.8h19.7c.4 0 .8.3.8.8v10.2c-.3-.3-.6-.7-.6-1.2V5.4c-.1-1.3-1.2-2.3-2.5-2.4-.2-1-1.1-1.6-2.1-1.6-1.2 0-2.1 1-2.1 2.1 0 1.2 1 2.1 2.1 2.1 1 0 1.8-.6 2-1.5.8.1 1.4.7 1.4 1.5v5.3c0 1.1.7 2 1.6 2.4v2.8l-3-3.1.8-.8zM9.7 16.3c0-.6.5-1 1-1s1 .5 1 1-.5 1-1 1c-.6 0-1-.4-1-1zM8.1 11c-.6 0-1-.5-1-1s.5-1 1-1 1 .5 1 1-.4 1-1 1zm2.1-5.2c0-.6.5-1 1-1 .6 0 1 .5 1 1s-.5 1-1 1-1-.5-1-1zm8.1-2.3c0 .6-.5 1-1 1s-1-.5-1-1 .5-1 1-1 1 .5 1 1z"/></svg><svg width="76.3" height="76.3" viewBox="-5 -5 76.3 76.3" id="vorbereitungszeit_01_keine" x="1087" y="988" xmlns="http://www.w3.org/2000/svg"><path fill="none" d="M30.6 35.1c-3.7.9-6.5 4.8-7.1 9.8l10.8-10.8c-.1-.2-.2-.5-.2-.9 0-1 .7-1.7 1.2-1.9.1 0 .1 0 .2-.1 4-1.1 7-5.7 7.4-10.9H23.4c.4 5.1 3.4 9.7 7.3 10.8.6.2 1.6.8 1.6 2s-.9 1.9-1.7 2zM36 35.2L25.2 46h17.6c-.3-5.3-3-9.7-6.8-10.8z"/><path fill="none" d="M19 49.4c-.5 0-.9-.5-.9-1 0-.6.4-1 1-1H21l.4-.4c0-6.8 3.7-12.6 8.8-13.8h-.1c-5-1.5-8.7-7.2-8.8-13.6H19c-.6 0-1-.4-1-1s.4-1 1-1h27.1c.6 0 1 .4 1 1s-.4 1-1 1h-1.4c0 1.7-.3 3.3-.7 4.8l12.1-12.1C50.5 5.9 42.3 2 33.1 2 16 2 2 16 2 33.1c0 9.1 3.9 17.3 10.2 23l6.8-6.7zM57.5 13.7l-20 20c4.3 1.9 7.3 7.2 7.3 13.4 0 .1 0 .2-.1.3h1.5c.6 0 1 .4 1 1s-.4 1-1 1H21.8l-8.1 8.1c5.3 4.3 12.1 6.8 19.4 6.8 17.2 0 31.1-14 31.1-31.1.1-7.4-2.5-14.1-6.7-19.5z"/><path fill="#2D50C6" d="M33.1 0C14.9 0 0 14.9 0 33.1s14.9 33.1 33.1 33.1 33.1-14.9 33.1-33.1S51.4 0 33.1 0zM2 33.1C2 16 16 2 33.1 2c9.1 0 17.3 3.9 23 10.2l-12 12.1c.4-1.5.7-3.1.7-4.8h1.4c.6 0 1-.4 1-1s-.4-1-1-1H19.1c-.6 0-1 .4-1 1s.4 1 1 1h2.3c.1 6.4 3.7 12.1 8.8 13.6h.1c-5.1 1.2-8.8 7.1-8.8 13.8l-.5.5h-1.9c-.6 0-1 .4-1 1 0 .5.4.9.9 1l-6.8 6.8C5.9 50.5 2 42.3 2 33.1zm28.7-1.9c-3.9-1.2-6.9-5.7-7.3-10.8h19.4c-.3 5.2-3.4 9.8-7.4 10.9-.1 0-.1 0-.2.1-.4.2-1.2.8-1.2 1.9 0 .3.1.6.2.9L23.5 44.9c.6-4.9 3.4-8.9 7.1-9.8.8-.2 1.7-.9 1.7-1.9 0-1.2-1-1.8-1.6-2zm5.3 4c3.8 1.1 6.5 5.5 6.8 10.8H25.2L36 35.2zm-2.9 29.1c-7.3 0-14.1-2.6-19.4-6.8l8.1-8.1h24.4c.6 0 1-.4 1-1s-.4-1-1-1h-1.5c0-.1.1-.2.1-.3 0-6.2-3-11.5-7.3-13.4l19.9-19.9c4.3 5.3 6.8 12.1 6.8 19.4.1 17.1-13.9 31.1-31.1 31.1z"/></svg><svg width="33.3" height="33.3" viewBox="-5.1 -5.1 33.3 33.3" id="vorbereitungszeit_01_keine_small" x="1164" y="1065" xmlns="http://www.w3.org/2000/svg"><path fill="none" d="M.8 11.5c0 2.5.9 4.9 2.5 6.8.3.4.6.7.9 1l2.1-2.1c-.1-.1-.2-.2-.2-.4 0-.3.2-.5.5-.5h.7c0-2.2 1.2-4.2 2.8-4.8-.3-.1-.6-.3-.9-.5-1.1-.9-1.9-2.4-2-4.1h-.6c-.3 0-.5-.2-.5-.5s.3-.4.5-.4H16c.3 0 .5.2.5.5s-.2.5-.5.5h-.4c0 .4-.1.7-.1 1.1l3.8-3.8c-2-2.2-4.9-3.4-7.8-3.4C5.6.8.8 5.6.8 11.5zM14.7 15.9c-.1-1.1-.5-2-1-2.7-.3-.4-.7-.7-1.2-.8L9 15.9h5.7z"/><path fill="none" d="M8.4 7.8c.3 1.4 1.2 2.6 2.3 2.9.1 0 .4.2.5.4l.1.1c0 .1.1.2.1.3 0 .4-.4.7-.7.8-.3.1-.5.2-.8.4-.7.5-1.3 1.4-1.5 2.5l3.4-3.4c0-.1-.1-.2-.1-.3 0-.4.3-.7.5-.8h.1c1.1-.3 2-1.5 2.4-2.9 0-.2.1-.4.1-.6H8.3c0 .2 0 .4.1.6zM15.7 21.4c3.8-1.6 6.5-5.4 6.5-9.9 0-1.8-.4-3.5-1.3-5.1-.3-.5-.6-1-1-1.5l-6.7 6.7c1.3.6 2.2 2.1 2.4 3.9v.8h.4c.3 0 .5.2.5.5s-.2.5-.5.5H7.6L5 20c1.9 1.5 4.2 2.3 6.6 2.3 1.4-.1 2.8-.4 4.1-.9z"/><path fill="#2D50C6" d="M11.5-.1C5.1-.1-.1 5.1-.1 11.5s5.2 11.6 11.6 11.6 11.6-5.2 11.6-11.6S17.9-.1 11.5-.1zm2.2 13.3c.6.7.9 1.6 1 2.7H9l3.5-3.5c.5.1.9.4 1.2.8zm.9-5.4c-.3 1.4-1.2 2.6-2.4 2.9h-.1c-.2.1-.5.3-.5.8 0 .1 0 .2.1.3l-3.4 3.4c.2-1.1.8-2 1.5-2.5.2-.2.5-.3.8-.4.3-.1.7-.4.7-.8 0-.1 0-.2-.1-.3 0-.1-.1-.1-.1-.1-.1-.2-.3-.3-.5-.4-1.1-.3-2-1.5-2.3-2.9 0-.2-.1-.4-.1-.6h6.5c0 .2 0 .4-.1.6zm1 .2c.1-.4.1-.7.1-1.1h.4c.3 0 .5-.2.5-.5s-.2-.5-.5-.5H6.6c-.2.1-.4.3-.4.5s.2.5.5.5h.7c0 1.7.8 3.2 2 4.1.3.2.5.4.9.5-1.6.6-2.8 2.5-2.8 4.8h-.9c-.3 0-.5.2-.5.5 0 .2.1.3.2.4l-2.1 2.1c-.3-.3-.7-.7-.9-1C1.7 16.4.8 14 .8 11.5.8 5.6 5.6.8 11.5.8c3 0 5.8 1.2 7.8 3.4L15.6 8zm-8 9.3H16c.3 0 .5-.2.5-.5s-.2-.5-.5-.5h-.4v-.8c-.2-1.8-1.1-3.3-2.4-3.9L20 5c.4.5.7 1 1 1.5.8 1.5 1.3 3.3 1.3 5.1 0 4.4-2.7 8.2-6.5 9.9-1.3.5-2.7.8-4.2.8-2.4 0-4.7-.8-6.6-2.3l2.6-2.7z"/></svg><svg width="76.3" height="76.3" viewBox="-5 -5 76.3 76.3" id="zielgruppe_01_kita_vorschule" x="1198" y="1099" xmlns="http://www.w3.org/2000/svg"><path fill="none" d="M39.956 50.066l-.778-.778 6.93-6.93.777.778zM25.6 21.8l-1-1H23c-.1 0-.2 0-.3-.1l-7.4-3.1-.5.5 2.7 7.7v.2l.2 1.8 1 1 6.9-7zM27.047 23.224l.637.637-6.93 6.93-.636-.637zM37.713 47.833L22.156 32.277l6.93-6.93 15.556 15.557z"/><path fill="none" d="M33.1 2C16 2 2 16 2 33.1s14 31.1 31.1 31.1 31.1-14 31.1-31.1S50.3 2 33.1 2zm19.3 45.2L44 55.6c-.2.2-.5.3-.7.3s-.5-.1-.7-.3L16 29c-.2-.2-.3-.4-.3-.6l-.2-2-2.9-8.2c-.1-.4 0-.8.2-1l1.4-1.5c.3-.3.7-.4 1.1-.2l7.9 3.3 1.9.1c.2 0 .5.1.6.3l26.6 26.6c.5.4.5 1.1.1 1.4z"/><path fill="none" d="M48.28 44.54l2.05 2.051-6.929 6.93-2.05-2.05z"/><path fill="#2D50C6" d="M33.1 0C14.9 0 0 14.9 0 33.1s14.9 33.1 33.1 33.1 33.1-14.9 33.1-33.1S51.4 0 33.1 0zm0 64.3C16 64.3 2 50.3 2 33.1S16 2 33.1 2s31.1 14 31.1 31.1-13.9 31.2-31.1 31.2z"/><path fill="#2D50C6" d="M25.8 19.2c-.2-.2-.4-.3-.6-.3l-1.9-.1-7.9-3.3c-.4-.2-.8-.1-1.1.2l-1.4 1.5c-.3.3-.4.7-.2 1l2.9 8.2.2 2c0 .2.1.4.3.6l26.6 26.6c.2.2.5.3.7.3s.5-.1.7-.3l8.4-8.4c.4-.4.4-1 0-1.4L25.8 19.2zm3.3 6.1l15.6 15.6-7 7-15.6-15.6 7-7zm-8.4 5.6l-.6-.6 7-7 .6.6-7 7zm25.4 11.4l.8.8-7 7-.8-.8 7-7zM17.5 26v-.2l-2.7-7.7.5-.5 7.4 3.1c.1 0 .2.1.3.1l1.7.1 1 1-7 7-1-1-.2-1.9zm25.8 27.5l-2-2 7-7 2 2-7 7z"/></svg><svg width="33.7" height="33.7" viewBox="-6.1 -5.1 33.7 33.7" id="zielgruppe_01_kita_vorschule_small" x="1275" y="1176" xmlns="http://www.w3.org/2000/svg"><path fill="none" d="M14.073 13.941l-2.263 2.263-4.313-4.313L9.76 9.628zM16.048 15.903l.566.566-2.263 2.263-.565-.566zM7.1 7.5h-.2L4.4 6.3l-.1.1.9 2.7v.1l.1.6.3.2 2.3-2.3-.3-.2h-.5zM13.138 17.479l-.566-.566 2.263-2.262.565.565zM9.085 8.98l-2.262 2.263-.566-.565 2.262-2.263z"/><path fill="none" d="M10.7.8C4.7.8-.2 5.7-.2 11.7s4.9 10.9 10.9 10.9 10.9-4.9 10.9-10.9S16.7.8 10.7.8zm6.9 16l-3 3c-.1.1-.2.1-.3.1s-.2 0-.3-.1l-9.4-9.4c-.1-.1-.1-.2-.1-.3l-.2-.8-1-2.9c0-.1 0-.3.1-.4l.5-.5c.1-.1.4-.2.5-.1l2.8 1.2h.6c.1 0 .2.1.3.1l9.4 9.4c.3.2.3.5.1.7z"/><path fill="#2D50C6" d="M10.7-.1C4.2-.1-1.1 5.2-1.1 11.7s5.3 11.8 11.8 11.8 11.8-5.3 11.8-11.8S17.2-.1 10.7-.1zm10.9 11.8c0 6-4.9 10.9-10.9 10.9S-.2 17.7-.2 11.7 4.7.8 10.7.8s10.9 4.9 10.9 10.9z"/><path fill="#2D50C6" d="M8.2 6.7c-.1-.1-.2-.1-.3-.1h-.6L4.5 5.3c-.2-.1-.4 0-.5.1l-.6.6c-.1.1-.1.3-.1.5l1 2.9.1.6c0 .1.1.2.1.3l9.4 9.4c.1.1.2.1.3.1s.2 0 .3-.1l3-3c.2-.2.2-.5 0-.7L8.2 6.7zm-.3 1L5.6 10l-.2-.2-.1-.6v-.1l-1-2.7.1-.1 2.5 1.1h.7l.3.3zm8.7 8.7l-2.3 2.3-.5-.5 2.3-2.3.5.5zm-1.8-1.8l.6.6-2.3 2.3-.6-.6 2.3-2.3zm-7.3-2.7l2.3-2.3 4.3 4.3-2.3 2.3-4.3-4.3zm-.7-.7l-.6-.6 2.3-2.3.6.6-2.3 2.3z"/></svg><svg width="76.3" height="76.3" viewBox="-5 -5 76.3 76.3" id="zielgruppe_02_grundstufe_1-3" x="1309" y="1210" xmlns="http://www.w3.org/2000/svg"><path fill="none" d="M42.7 29.7c-2.8 0-5 3.3-5 7.4s2.3 7.4 5 7.4c2.8 0 5-3.3 5-7.4s-2.2-7.4-5-7.4zM27.7 33.6V17.9l-6.6 15.7z"/><path fill="none" d="M33.1 2C16 2 2 16 2 33.1s14 31.1 31.1 31.1 31.1-14 31.1-31.1S50.3 2 33.1 2zm19.3 44.6c-2.1 0-3.8-1.4-4.4-3.2-1.3 1.9-3.2 3.2-5.3 3.2-1.9 0-3.5-1-4.8-2.6-.8 1.4-2.4 2.8-5 2.8-2.5 0-5.2-2-5.2-4.6v-6.5h-7.4L17.7 42c-.3 1.7-1.9 4.7-5.7 4.7-2.5 0-5.2-2-5.2-4.6 0-.6.4-1 1-1s1 .4 1 1c0 1.4 1.8 2.6 3.2 2.6 3.2 0 3.7-3 3.8-3.1 0-.1 0-.2.1-.2l2.9-6.8c0-.1.1-.2.1-.3l9-21.6c.2-.4.7-.7 1.1-.6.5.1.8.5.8 1v29.2c0 1.4 1.8 2.6 3.2 2.6 2.8 0 3.6-2.2 3.7-2.9-.6-1.4-1-3-1-4.7 0-5.2 3.2-9.4 7-9.4 2 0 3.8 1.1 5 2.9V28c0-.6.4-1 1-1s1 .4 1 1v14.2c.1 1.3 1.2 2.4 2.6 2.4 1.4 0 2.6-1.2 2.6-2.6 0-.6.4-1 1-1s1 .4 1 1c.1 2.5-2 4.6-4.5 4.6z"/><path fill="#2D50C6" d="M33.1 0C14.9 0 0 14.9 0 33.1s14.9 33.1 33.1 33.1 33.1-14.9 33.1-33.1S51.4 0 33.1 0zm0 64.3C16 64.3 2 50.3 2 33.1S16 2 33.1 2s31.1 14 31.1 31.1-13.9 31.2-31.1 31.2z"/><path fill="#2D50C6" d="M56 40.9c-.6 0-1 .4-1 1 0 1.4-1.2 2.6-2.6 2.6-1.4 0-2.5-1.1-2.6-2.4V28c0-.6-.4-1-1-1s-1 .4-1 1v2.5c-1.3-1.8-3.1-2.9-5-2.9-3.9 0-7 4.2-7 9.4 0 1.7.4 3.3 1 4.7-.2.7-.9 2.9-3.7 2.9-1.5 0-3.2-1.2-3.2-2.6V12.9c0-.5-.3-.9-.8-1-.5-.1-.9.2-1.1.6l-9 21.6c-.1.1-.1.2-.1.3L16 41.2c0 .1-.1.2-.1.2 0 .1-.5 3.1-3.8 3.1-1.5 0-3.2-1.2-3.2-2.6 0-.6-.4-1-1-1s-1 .4-1 1c0 2.6 2.8 4.6 5.2 4.6 3.8 0 5.4-3 5.7-4.7l2.6-6.3h7.4V42c0 2.6 2.8 4.6 5.2 4.6 2.6 0 4.2-1.4 5-2.8 1.3 1.6 2.9 2.6 4.8 2.6 2.1 0 4-1.2 5.3-3.2.6 1.9 2.3 3.2 4.4 3.2 2.5 0 4.6-2.1 4.6-4.6-.1-.4-.6-.9-1.1-.9zm-28.3-7.3h-6.6l6.6-15.7v15.7zm15 10.9c-2.8 0-5-3.3-5-7.4s2.3-7.4 5-7.4c2.8 0 5 3.3 5 7.4s-2.2 7.4-5 7.4z"/></svg><svg width="33" height="33" viewBox="-5 -5 33 33" id="zielgruppe_02_grundstufe_1-3_small" x="1386" y="1287" xmlns="http://www.w3.org/2000/svg"><path fill="none" d="M9.5 6.9l-2 4.6h2z"/><ellipse fill="none" cx="14.8" cy="12.9" rx="1.6" ry="2.4"/><path fill="none" d="M11.5.9C5.7.9.9 5.7.9 11.5s4.7 10.6 10.6 10.6 10.6-4.7 10.6-10.6C22.1 5.7 17.3.9 11.5.9zm7.8 13.2c.3 0 .5.2.5.5 0 .2 0 .4-.1.6v.1c0 .1-.1.2-.1.2-.1.2-.3.3-.5.5H19c-.1 0-.1.1-.2.1s-.1 0-.2.1h-.5-.1c-.7 0-1.3-.4-1.5-1-.5.6-1.1 1-1.8 1-.2 0-.4 0-.6-.1-.4-.1-.8-.4-1.1-.7-.3.4-.8.9-1.7.9-.9 0-1.9-.7-1.9-1.7v-2.1H7.2l-.9 2.1c-.1.6-.7 1.7-2.1 1.7-.9 0-1.9-.7-1.9-1.7 0-.3.2-.5.5-.5s.5.2.5.5c0 .4.6.8 1 .8 1 0 1.2-.9 1.2-1v-.1l1-2.3s0-.1.1-.1l3.1-7.4s0-.1.1-.1c-.1-.3.1-.3.2-.3h.1c.2.1.3.2.3.4v10c0 .4.6.8 1 .8.8 0 1.1-.6 1.1-.9-.2-.5-.3-1.1-.3-1.6 0-1.9 1.1-3.4 2.5-3.4.6 0 1.2.3 1.6.8v-.5c0-.3.2-.5.5-.5s.5.2.5.5v4.9c0 .4.4.7.8.7s.8-.4.8-.8c0-.2.2-.4.4-.4z"/><path fill="#2D50C6" d="M18.1 15.3c-.4 0-.7-.3-.8-.7V9.7c0-.3-.2-.5-.5-.5s-.5.2-.5.5v.5c-.5-.5-1-.8-1.6-.8-1.4 0-2.5 1.5-2.5 3.4 0 .6.1 1.1.3 1.6-.1.3-.3.9-1.1.9-.4 0-1-.4-1-.8v-10c0-.2-.1-.4-.3-.4H10c-.2 0-.3 0-.4.2l-.1.1-3.1 7.4s0 .1-.1.1l-1 2.3v.1s-.2 1-1.2 1c-.4 0-1-.4-1-.8 0-.3-.2-.5-.5-.5s-.5.2-.5.5c0 1 1 1.7 1.9 1.7 1.4 0 2-1.1 2.1-1.7l.9-2.1h2.3v2.1c0 1 1 1.7 1.9 1.7.9 0 1.5-.5 1.7-.9.3.3.7.6 1.1.7.2.1.4.1.6.1.7 0 1.3-.3 1.8-1 .3.6.9 1 1.5 1H18.5c.1 0 .1 0 .2-.1.1 0 .1-.1.2-.1h.1c.2-.1.3-.3.5-.5 0-.1.1-.2.1-.2v-.1c.1-.2.1-.4.1-.6 0-.3-.2-.5-.5-.5s-.5.2-.5.5c.2.5-.2.8-.6.8zM9.5 6.9v4.7h-2l2-4.7zm6.9 6c0 1.3-.7 2.4-1.6 2.4-.9 0-1.6-1.1-1.6-2.4s.7-2.4 1.6-2.4c.9-.1 1.6 1 1.6 2.4z"/><path fill="#2D50C6" d="M11.5 0C5.2 0 0 5.2 0 11.5S5.2 23 11.5 23 23 17.8 23 11.5 17.8 0 11.5 0zm10.6 11.5c0 5.8-4.7 10.6-10.6 10.6S.9 17.3.9 11.5 5.7.9 11.5.9s10.6 4.8 10.6 10.6z"/></svg><svg width="76.3" height="76.3" viewBox="-5 -5 76.3 76.3" id="zielgruppe_03_grundstufe_4-6" x="1419" y="1320" xmlns="http://www.w3.org/2000/svg"><path fill="none" d="M34.5 37.4c0-6.7-3.8-12.1-8.4-12.1-4.6 0-8.4 5.5-8.4 12.2s3.8 12.2 8.4 12.2c4.6-.1 8.4-5.6 8.4-12.3z"/><path fill="none" d="M33.1 2C16 2 2 16 2 33.1s14 31.1 31.1 31.1 31.1-14 31.1-31.1S50.3 2 33.1 2zm10.7 21c-.6 0-1-.4-1-1s.4-1 1-1c.9 0 1.7-.8 1.7-1.7s-.8-1.7-1.7-1.7-1.8.7-1.8 1.6c0 .6-.4 1-1 1s-1-.4-1-1c0-2 1.7-3.7 3.7-3.7s3.7 1.7 3.7 3.7c0 1.1-.5 2.1-1.2 2.7.7.7 1.2 1.7 1.2 2.7 0 2-1.7 3.7-3.7 3.7S40 26.6 40 24.6c0-.6.4-1 1-1s1 .4 1 1c0 .9.8 1.7 1.7 1.7s1.7-.8 1.7-1.7c.1-.8-.7-1.6-1.6-1.6zm-2.6 28.7c-3.4 0-6.2-2.6-6.6-5.9v-.1c-1.9 3.6-5 5.9-8.4 5.9-5.8 0-10.4-6.4-10.4-14.2s4.7-14.2 10.4-14.2c3.5 0 6.5 2.3 8.4 5.9v-5.9c0-.6.4-1 1-1s1 .4 1 1v22.1c.2 2.4 2.2 4.3 4.6 4.3 2.6 0 4.6-2.1 4.6-4.6 0-.6.4-1 1-1s1 .4 1 1c0 3.7-3 6.7-6.6 6.7z"/><path fill="#2D50C6" d="M33.1 0C14.9 0 0 14.9 0 33.1s14.9 33.1 33.1 33.1 33.1-14.9 33.1-33.1S51.4 0 33.1 0zm0 64.3C16 64.3 2 50.3 2 33.1S16 2 33.1 2s31.1 14 31.1 31.1-13.9 31.2-31.1 31.2z"/><path fill="#2D50C6" d="M46.8 44c-.6 0-1 .4-1 1 0 2.6-2.1 4.6-4.6 4.6-2.4 0-4.4-1.9-4.6-4.3v-22c0-.6-.4-1-1-1s-1 .4-1 1v5.9c-1.9-3.5-5-5.9-8.4-5.9-5.8 0-10.4 6.4-10.4 14.2s4.7 14.2 10.4 14.2c3.5 0 6.6-2.3 8.4-5.9v.1c.4 3.3 3.2 5.9 6.6 5.9 3.7 0 6.6-3 6.6-6.6 0-.7-.4-1.2-1-1.2zm-20.7 5.6c-4.6 0-8.4-5.5-8.4-12.2 0-6.7 3.8-12.2 8.4-12.2 4.6 0 8.4 5.4 8.4 12.1 0 6.8-3.8 12.3-8.4 12.3zM43.8 26.4c-.9 0-1.7-.8-1.7-1.7 0-.6-.4-1-1-1s-1 .4-1 1c0 2 1.7 3.7 3.7 3.7s3.7-1.7 3.7-3.7c0-1.1-.5-2.1-1.2-2.7.7-.7 1.2-1.7 1.2-2.7 0-2-1.7-3.7-3.7-3.7s-3.7 1.7-3.7 3.7c0 .6.4 1 1 1s1-.4 1-1c0-.9.8-1.7 1.7-1.7s1.7.8 1.7 1.7-.8 1.7-1.7 1.7c-.6 0-1 .4-1 1s.4 1 1 1c.9 0 1.7.8 1.7 1.7 0 1-.8 1.7-1.7 1.7z"/></svg><svg width="33.3" height="33.2" viewBox="-5.4 -5.4 33.3 33.2" id="zielgruppe_03_grundstufe_4-6_small" x="1496" y="1397" xmlns="http://www.w3.org/2000/svg"><path fill="none" d="M8.8 16.8c1.5 0 2.8-1.8 2.8-4.1s-1.3-4.1-2.8-4.1C7.3 8.7 6 10.5 6 12.7c0 2.3 1.3 4.1 2.8 4.1z"/><path fill="none" d="M11.3.6C5.4.6.6 5.4.6 11.3S5.4 22 11.3 22C17.2 22 22 17.2 22 11.3S17.1.6 11.3.6zm3.6 7.3c-.3 0-.5-.2-.5-.5s.2-.5.5-.5.5-.2.5-.5-.2-.4-.5-.4-.5.2-.5.5-.2.5-.5.5-.5-.2-.5-.5c0-.8.6-1.4 1.4-1.4s1.4.6 1.4 1.4c0 .4-.1.7-.4 1 .2.3.4.6.4 1 0 .8-.6 1.4-1.4 1.4s-1.4-.6-1.4-1.4c0-.3.2-.5.5-.5s.5.2.5.5.2.5.5.5.5-.2.5-.5c0-.4-.2-.6-.5-.6zm.9 9.2c-.1 0-.1 0 0 0-.2.1-.3.2-.4.3-.1.1-.2.1-.3.2 0 0-.1 0-.1.1-.1 0-.2.1-.3.1h-.6c-1.1 0-2.1-.8-2.4-1.8-.7 1.1-1.8 1.8-2.9 1.8-2.1 0-3.7-2.3-3.7-5 0-2.8 1.7-5 3.7-5 1.1 0 2.1.6 2.8 1.7V7.8c0-.3.2-.5.5-.5s.5.2.5.5v7.7c0 .4.2.7.5 1 .3.2.6.4 1 .4.7 0 1.3-.5 1.5-1.2v-.3c0-.3.2-.5.5-.5.1 0 .2.1.3.1.1.1.1.2.1.3v.5c0 .1 0 .1-.1.2 0 .1 0 .2-.1.3 0 .1-.1.1-.1.2s-.1.2-.1.2c-.1.1-.2.2-.3.4z"/><path fill="#2D50C6" d="M16.2 16.5c0-.1.1-.1.1-.2s.1-.2.1-.3c0-.1 0-.1.1-.2v-.3-.2c0-.1-.1-.2-.1-.3-.1-.1-.2-.1-.3-.1-.3 0-.5.2-.5.5v.3c-.1.7-.7 1.2-1.5 1.2-.4 0-.7-.1-1-.4s-.4-.6-.5-1V7.8c0-.3-.2-.5-.5-.5s-.5.2-.5.5v1.6c-.7-1.1-1.7-1.7-2.8-1.7-2.1 0-3.7 2.3-3.7 5 0 2.8 1.7 5 3.7 5 1.1 0 2.2-.7 2.9-1.8.3 1.1 1.2 1.8 2.4 1.8h.6c.1 0 .2-.1.3-.1 0 0 .1 0 .1-.1.1 0 .2-.1.3-.2.1-.1.2-.2.3-.2l.1-.1v-.1l.3-.3c0 .1 0 0 .1-.1zM8.8 8.7c1.5 0 2.8 1.8 2.8 4.1s-1.3 4.1-2.8 4.1C7.3 16.8 6 15 6 12.7c0-2.2 1.3-4 2.8-4z"/><path fill="#2D50C6" d="M11.3-.4C4.8-.4-.4 4.8-.4 11.3s5.2 11.6 11.6 11.6 11.6-5.2 11.6-11.6S17.7-.4 11.3-.4zm10.6 11.7c0 5.9-4.8 10.7-10.7 10.7C5.3 22 .5 17.2.5 11.3S5.4.6 11.3.6s10.6 4.8 10.6 10.7z"/><path fill="#2D50C6" d="M14.9 8.8c-.3 0-.5-.2-.5-.5s-.2-.5-.5-.5-.5.2-.5.5c0 .8.6 1.4 1.4 1.4s1.4-.6 1.4-1.4c0-.4-.1-.7-.4-1 .2-.3.4-.6.4-1 0-.8-.6-1.4-1.4-1.4s-1.4.6-1.4 1.4c0 .3.2.5.5.5s.5-.2.5-.5.2-.5.5-.5.5.2.5.5-.2.5-.5.5-.5.2-.5.5.2.5.5.5.5.2.5.5-.2.5-.5.5z"/></svg><svg width="76.3" height="76.3" viewBox="-5 -5.5 76.3 76.3" id="zielgruppe_04_sekundarstufe_1" x="1530" y="1431" xmlns="http://www.w3.org/2000/svg"><path fill="none" d="M14.3 37.4v6.3h6.3c-.4-3.2-3-5.8-6.3-6.3zm2.4 4.8c-.5 0-.9-.4-.9-.9s.4-.9.9-.9.9.4.9.9c-.1.5-.5.9-.9.9zM20.5 38.8c1.1 1.4 1.9 3.1 2.1 4.9h28L29.8 29.5l-9.3 9.3zM28.2 28.3l-13.9-9.6v16.6c1.8.2 3.5.9 4.8 2l9.1-9z"/><path fill="none" d="M33.1 1.5C16 1.5 2 15.4 2 32.6s14 31.1 31.1 31.1 31.1-14 31.1-31.1S50.3 1.5 33.1 1.5zM54.7 45c-.1.4-.5.7-1 .7H13.3c-.6 0-1-.4-1-1V16.9c0-.4.2-.7.5-.9.3-.2.7-.1 1 .1L54.3 44c.4.2.6.6.4 1z"/><path fill="#2D50C6" d="M33.1-.5C14.9-.5 0 14.3 0 32.6s14.9 33.1 33.1 33.1 33.1-14.9 33.1-33.1S51.4-.5 33.1-.5zm0 64.3C16 63.8 2 49.8 2 32.6S16 1.5 33.1 1.5s31.1 14 31.1 31.1-13.9 31.2-31.1 31.2z"/><path fill="#2D50C6" d="M54.3 43.9L13.8 16c-.3-.2-.7-.2-1-.1-.3.2-.5.5-.5.9v27.9c0 .6.4 1 1 1h40.5c.4 0 .8-.3 1-.7s-.1-.8-.5-1.1zm-40-25.1l13.9 9.5-9.1 9.1c-1.4-1.1-3-1.8-4.8-2V18.8zm0 24.9v-6.3c3.3.4 5.9 3 6.3 6.3h-6.3zm8.3 0c-.2-1.9-.9-3.6-2.1-4.9l9.3-9.3 20.7 14.3-27.9-.1z"/><circle fill="#2D50C6" cx="16.7" cy="41.4" r=".9"/></svg><svg width="33" height="33" viewBox="-5.1 -5.1 33 33" id="zielgruppe_04_sekundarstufe_1_small" x="1607" y="1508" xmlns="http://www.w3.org/2000/svg"><path fill="none" d="M10.3 10.5L8.8 12l-1.5 1.5c.4.5.6 1 .7 1.6h9l-6.7-4.6zM5 12.2c.5.1 1.1.3 1.5.6l2.9-2.9-4.4-3v5.3zM6.9 15.1c-.2-1-.9-1.7-1.9-1.9v1.9h1.9zM5.7 14c.2 0 .4.2.4.4s-.2.4-.4.4-.4-.2-.4-.4.2-.4.4-.4z"/><path fill="none" d="M11.4.8C5.6.8.8 5.6.8 11.4S5.6 22 11.4 22 22 17.2 22 11.4 17.2.8 11.4.8zM18.5 16H4.6c-.3 0-.5-.2-.5-.5V6c0-.1 0-.2.1-.2 0-.1.1-.1.2-.2h.2c.1 0 .1 0 .2.1h.1l13.9 9.6c.2.1.2.3.2.5-.1.1-.3.2-.5.2z"/><circle fill="#2D50C6" cx="5.7" cy="14.4" r=".4"/><path fill="#2D50C6" d="M4.8 5.6c-.1-.1-.1-.1-.2-.1h-.2c-.1 0-.1.1-.2.2 0 .1-.1.2-.1.2v9.6c0 .3.2.5.5.5h13.9c.2 0 .4-.1.4-.3s0-.4-.2-.5L4.8 5.6zm2.4 7.9L8.8 12l1.5-1.5 6.7 4.6H7.9c-.1-.6-.3-1.1-.7-1.6zm-.3 1.6H5v-1.9c1 .2 1.8.9 1.9 1.9zm-.3-2.2c-.5-.3-1-.5-1.5-.6V6.9L9.6 10l-3 2.9z"/><path fill="#2D50C6" d="M11.4-.1C5-.1-.1 5-.1 11.4S5 22.9 11.4 22.9s11.5-5.2 11.5-11.5C22.9 5 17.7-.1 11.4-.1zM22 11.4C22 17.2 17.2 22 11.4 22S.8 17.2.8 11.4 5.6.8 11.4.8 22 5.6 22 11.4z"/></svg><svg width="76.3" height="76.3" viewBox="-5 -4.5 76.3 76.3" id="zielgruppe_05_sekundarstufe_2" x="1640" y="1541" xmlns="http://www.w3.org/2000/svg"><circle fill="none" cx="32.2" cy="34.1" r="2.5"/><path fill="none" d="M43.2 36.6c-.7 1.2-1.4 2.4-2.2 3.6-.4.5-.8 1.1-1.1 1.6 1.6-.3 3.2-.7 4.6-1.2-.4-1.3-.8-2.7-1.3-4zM39.8 25.8c.6.9 1.3 1.9 1.8 2.9.6 1 1.1 2 1.6 3 .6-1.5 1.1-3.1 1.5-4.5-1.4-.5-3.1-1-4.9-1.4zM32.2 23.1c1 0 2.1 0 3.1.1-.8-.9-1.6-1.7-2.4-2.4-.9.7-1.8 1.5-2.7 2.4.6 0 1.3-.1 2-.1zM23 20.1c-.8 0-1.6-.3-2.3-.7-.6 1.4-.8 3.3-.6 5.5 2.1-.7 4.4-1.2 6.9-1.4 1.3-1.5 2.7-2.8 4.2-3.9-1.6-1.2-3.1-2-4.5-2.4-.3 1.6-1.8 2.9-3.7 2.9zM38.1 23.5c2.5.3 4.9.9 7.1 1.7.5-3.5-.2-6.1-1.9-7.3-1.9-1.3-5.2-.7-8.8 1.7 1.2 1.2 2.4 2.5 3.6 3.9zM23.4 28.1c.6-.8 1.1-1.6 1.7-2.4-1.6.3-3.2.7-4.6 1.2.2 1.3.6 2.7 1.1 4.1.5-1 1.1-1.9 1.8-2.9zM24.7 41.8c-.5-.7-1-1.5-1.4-2.3-.7-1.2-1.4-2.5-2-3.7-.7 1.6-1.3 3.2-1.6 4.6 1.5.6 3.2 1.1 5 1.4zM27.5 42.2c3.1.3 6.4.3 9.5 0 .8-1 1.6-2.1 2.4-3.2 1.1-1.6 2.1-3.3 2.9-4.9-.7-1.5-1.4-2.9-2.3-4.4-.9-1.5-1.9-3-2.9-4.3-2.9-.3-6.1-.4-9-.1-1.1 1.2-2.1 2.5-3 3.9-.9 1.4-1.8 2.8-2.5 4.2.7 1.7 1.6 3.4 2.6 5.1.6 1.3 1.4 2.6 2.3 3.7zm4.7-12.6c2.5 0 4.5 2 4.5 4.5s-2 4.5-4.5 4.5-4.5-2-4.5-4.5 2-4.5 4.5-4.5z"/><path fill="none" d="M33.1 2.5C16 2.5 2 16.4 2 33.6s14 31.1 31.1 31.1c17.2 0 31.1-14 31.1-31.1.1-17.2-13.9-31.1-31.1-31.1zM51.2 42c-1 0-2-.4-2.7-1.1l-1.8.9c.8 5.3-.3 9.3-3.1 11-.9.5-2 .8-3.1.8-2.5 0-5.6-1.4-8.6-3.8-.8.6-1.6 1.1-2.4 1.5 0 .2.1.5.1.7 0 2.1-1.7 3.8-3.8 3.8-1.8 0-3.3-1.3-3.7-2.9-.7-.2-1.4-.4-2-.9-2.5-1.7-3.5-5.5-2.5-10.3-4.4-2-6.9-4.8-6.9-7.8 0-3.2 2.8-6.2 7.7-8.2-.4-3.3 0-6 1.2-7.9-.2-.4-.3-.9-.3-1.3 0-2.1 1.7-3.8 3.8-3.8 1.6 0 3 1 3.6 2.5 2 .5 4.1 1.6 6.3 3.3 4.5-3.1 8.8-3.9 11.5-2 2.5 1.7 3.4 5.1 2.7 9.7 4.4 2 6.7 4.8 6.7 7.8 0 .5-.1 1-.2 1.4.8.7 1.4 1.7 1.4 2.9-.1 2-1.8 3.7-3.9 3.7z"/><path fill="none" d="M37.9 44.1c-1.4 1.7-3 3.2-4.5 4.4 3.6 2.8 7 3.8 9 2.6 2-1.2 2.8-4.3 2.2-8.5-1.9.6-4.2 1.2-6.7 1.5zM47.3 38.1c0-2.1 1.7-3.8 3.8-3.8.2 0 .4 0 .6.1 0-.2.1-.4.1-.6 0-2.1-1.9-4.2-5.2-5.8-.5 2-1.2 4-2.2 6.2.8 1.9 1.4 3.8 1.8 5.6.4-.2.9-.4 1.2-.6 0-.4-.1-.7-.1-1.1zM18.6 27.6c-3.8 1.6-6.1 3.9-6.1 6.2 0 2.1 1.9 4.2 5.3 5.9.6-2 1.4-4.2 2.4-6.3-.7-2-1.3-3.9-1.6-5.8zM26.4 44.1c-2.6-.3-5-.9-7.1-1.7-.7 3.8 0 6.7 1.8 7.9.3.2.6.3 1 .5.5-1.5 1.9-2.7 3.6-2.7 1.1 0 2.2.5 2.9 1.3.6-.3 1.1-.6 1.7-1-1.4-1.3-2.7-2.7-3.9-4.3zM29.2 44.4c.9 1 1.8 2 2.7 2.8 1-.8 2.1-1.8 3.1-2.8-1.9.1-3.9.1-5.8 0z"/><path fill="#2D50C6" d="M32.2 38.6c2.5 0 4.5-2 4.5-4.5s-2-4.5-4.5-4.5-4.5 2-4.5 4.5 2 4.5 4.5 4.5zm0-7c1.4 0 2.5 1.1 2.5 2.5s-1.1 2.5-2.5 2.5-2.5-1.1-2.5-2.5 1.1-2.5 2.5-2.5z"/><path fill="#2D50C6" d="M33.1.5C14.9.5 0 15.3 0 33.6s14.9 33.1 33.1 33.1 33.1-14.9 33.1-33.1C66.3 15.3 51.4.5 33.1.5zm0 64.3C16 64.8 2 50.8 2 33.6S16 2.5 33.1 2.5c17.2 0 31.1 14 31.1 31.1.1 17.2-13.9 31.2-31.1 31.2z"/><path fill="#2D50C6" d="M53.6 35.2c.1-.5.2-.9.2-1.4 0-3-2.4-5.8-6.7-7.8.7-4.6-.2-8-2.7-9.7-2.7-1.9-7-1.1-11.5 2-2.2-1.7-4.3-2.9-6.3-3.3-.6-1.4-1.9-2.5-3.6-2.5-2.1 0-3.8 1.7-3.8 3.8 0 .5.1.9.3 1.3-1.1 1.9-1.6 4.6-1.2 7.9-4.9 2-7.7 5-7.7 8.2 0 3 2.5 5.9 6.9 7.8-.9 4.9 0 8.6 2.5 10.3.6.4 1.3.7 2 .9.4 1.7 1.9 2.9 3.7 2.9 2.1 0 3.8-1.7 3.8-3.8 0-.2 0-.5-.1-.7.8-.4 1.6-.9 2.4-1.5 3 2.5 6.1 3.8 8.6 3.8 1.1 0 2.2-.3 3.1-.8 2.8-1.7 4-5.6 3.1-11 .7-.3 1.3-.6 1.8-.9.7.7 1.6 1.1 2.7 1.1 2.1 0 3.8-1.7 3.8-3.8.1-1-.4-2.1-1.3-2.8zM43.3 17.9c1.7 1.2 2.4 3.8 1.9 7.3-2.1-.8-4.5-1.3-7.1-1.7-1.2-1.5-2.4-2.8-3.7-3.9 3.7-2.3 7-3 8.9-1.7zm-22 17.9c.6 1.3 1.3 2.5 2 3.7.5.8.9 1.5 1.4 2.3-1.8-.3-3.5-.8-5-1.4.4-1.4.9-3 1.6-4.6zm-.8-8.9c1.4-.5 3-.9 4.6-1.2-.6.8-1.2 1.6-1.7 2.4-.6.9-1.3 1.9-1.8 2.9-.5-1.4-.9-2.8-1.1-4.1zm2 6.5c.8-1.4 1.6-2.8 2.5-4.2.9-1.4 2-2.7 3-3.9 3-.3 6.1-.3 9 .1 1 1.3 2 2.8 2.9 4.3.8 1.4 1.6 2.9 2.3 4.4-.8 1.7-1.8 3.3-2.9 4.9-.8 1.1-1.6 2.2-2.4 3.2-3.1.3-6.4.3-9.5 0-.9-1.2-1.7-2.4-2.4-3.7-1-1.6-1.8-3.3-2.5-5.1zM41 40.2c.8-1.2 1.6-2.4 2.2-3.6.5 1.4.9 2.7 1.2 4-1.4.5-2.9.9-4.6 1.2.4-.6.8-1.1 1.2-1.6zm2.3-8.5c-.5-1-1-2-1.6-3-.6-1-1.2-1.9-1.8-2.9 1.8.3 3.5.8 5 1.4-.4 1.5-.9 3-1.6 4.5zm-8.1-8.5c-1-.1-2-.1-3.1-.1H30c.9-.9 1.8-1.7 2.7-2.4.9.8 1.7 1.7 2.5 2.5zm-8.1.2c-2.5.3-4.8.8-6.9 1.4-.2-2.2 0-4.1.6-5.5.6.5 1.4.7 2.3.7 1.9 0 3.4-1.3 3.8-3.1 1.4.4 2.9 1.3 4.5 2.4-1.6 1.3-3 2.6-4.3 4.1zM12.5 33.8c0-2.3 2.2-4.5 6.1-6.2.4 1.8.9 3.8 1.7 5.7-1.1 2.2-1.9 4.3-2.4 6.3-3.5-1.6-5.4-3.7-5.4-5.8zm16 15.7c-.7-.8-1.7-1.3-2.9-1.3-1.7 0-3.1 1.1-3.6 2.7-.4-.1-.7-.3-1-.5-1.8-1.2-2.4-4.1-1.8-7.9 2.1.8 4.6 1.3 7.1 1.7 1.2 1.6 2.5 3.1 3.9 4.3-.5.3-1.1.6-1.7 1zm.7-5.1c1.9.1 3.9.1 5.8 0-1 1-2 2-3.1 2.8-.9-.9-1.8-1.8-2.7-2.8zm13.3 6.7c-2.1 1.2-5.5.2-9-2.6 1.5-1.3 3.1-2.8 4.5-4.4 2.4-.3 4.7-.9 6.8-1.6.5 4.3-.3 7.4-2.3 8.6zm3.7-11.3c-.4-1.8-1-3.7-1.8-5.6 1-2.1 1.7-4.2 2.2-6.2 3.3 1.6 5.2 3.7 5.2 5.8 0 .2 0 .4-.1.6-.2 0-.4-.1-.6-.1-2.1 0-3.8 1.7-3.8 3.8 0 .4.1.7.2 1-.4.3-.8.5-1.3.7z"/></svg><svg width="33" height="33" viewBox="-4.7 -4.7 33 33" id="zielgruppe_05_sekundarstufe_2_small" x="1717" y="1618" xmlns="http://www.w3.org/2000/svg"><path fill="none" d="M15.3 10.9c.2-.4.3-.8.4-1.2-.4-.1-.8-.3-1.3-.4.2.2.3.5.5.7.1.4.3.6.4.9zM14.8 12c-.2-.5-.5-1-.7-1.4-.3-.5-.6-1-1-1.4-.5-.1-1-.1-1.5-.1s-1 0-1.5.1c-.3.4-.7.8-1 1.3-.3.5-.6.9-.8 1.4.2.6.5 1.1.9 1.7.2.4.5.8.8 1.2.5.1 1 .1 1.6.1.5 0 1.1 0 1.6-.1.3-.3.5-.7.8-1 .2-.7.5-1.2.8-1.8zm-3.3 1.7c-.9 0-1.7-.7-1.7-1.7s.7-1.7 1.7-1.7 1.7.7 1.7 1.7c0 .9-.8 1.7-1.7 1.7zM8.4 9.9c.1-.2.3-.4.4-.6l-1.2.3c.1.3.2.7.3 1 .1-.2.3-.5.5-.7zM8.7 14.5c-.1-.2-.2-.4-.3-.5-.2-.3-.4-.7-.6-1.1-.2.4-.3.8-.4 1.2.4.2.8.3 1.3.4zM14.6 14.2c-.1.1-.1.2-.2.3.4-.1.8-.2 1.1-.3-.1-.3-.2-.7-.3-1-.1.3-.4.6-.6 1zM8.4 7.3c-.3 0-.5-.1-.7-.2-.2.5-.2 1-.2 1.6.7-.2 1.4-.4 2.2-.5.4-.4.8-.8 1.3-1.2-.4-.3-.9-.5-1.2-.7 0 .1-.1.3-.2.4-.3.4-.8.6-1.2.6z"/><circle fill="none" cx="11.5" cy="12" r=".7"/><path fill="none" d="M18 12h.1v-.1c0-.6-.6-1.3-1.6-1.8-.2.6-.4 1.3-.7 1.9l.6 1.8c.1 0 .1-.1.2-.1v-.3c0-.8.6-1.4 1.4-1.4zM12.3 8.1c-.2-.2-.4-.4-.6-.5-.2.1-.4.3-.5.5 0 0-.1 0-.1.1h.4c.3-.1.5-.1.8-.1zM11.4 16.3c.3-.2.5-.4.7-.7h-1.4l.7.7zM15.7 15.1c-.7.2-1.4.4-2.2.5-.5.5-.9 1-1.4 1.4.2.1.3.2.5.4.1 0 .1.1.2.1.1.1.2.1.3.2.1 0 .1.1.2.1.1.1.3.1.4.1h1c.1 0 .2-.1.3-.1.6-.4.9-1.4.7-2.7zM4.9 11.9c0 .6.5 1.1 1.3 1.6.1.1.2.1.4.2.2-.6.5-1.3.8-2-.4-.6-.5-1.2-.7-1.8-1.1.6-1.8 1.3-1.8 2zM9.3 16.7c.4 0 .7.2 1 .4.1-.1.3-.1.4-.2-.4-.4-.8-.9-1.2-1.4-.8-.1-1.6-.3-2.3-.5-.2 1.2 0 2.1.6 2.5.1 0 .1.1.2.1.2-.5.7-.9 1.3-.9zM13.6 8.3c.8.1 1.6.3 2.3.5.1-1.1-.1-1.9-.6-2.2-.6-.4-1.6-.2-2.8.5.4.3.7.7 1.1 1.2z"/><path fill="none" d="M11.8 1.3C6 1.3 1.3 6 1.3 11.8S6 22.4 11.9 22.4c5.8 0 10.6-4.7 10.6-10.6C22.4 6 17.7 1.3 11.8 1.3zm7 13.3c-.1.1-.2.1-.2.1h-.1c-.1 0-.1 0-.2.1H18c-.3 0-.7-.1-.9-.3-.2.1-.3.2-.5.2V16.7c0 .1 0 .2-.1.3v.1c0 .1-.1.2-.1.4-.2.4-.5.7-.9 1-.3.2-.7.3-1.1.3-.9 0-1.9-.5-2.9-1.3-.2.2-.4.3-.7.4v.2c0 .8-.6 1.4-1.4 1.4-.4 0-.8-.2-1-.5-.1-.2-.3-.3-.3-.5-.2-.1-.5-.2-.7-.3-.2-.1-.4-.3-.5-.5v-.1c-.1-.1-.1-.2-.2-.3v-.1c-.3-.7-.4-1.6-.2-2.6-1.1-.5-1.8-1.1-2.1-1.9 0 0 0-.1-.1-.1-.1-.2-.2-.5-.2-.8 0-1.1 1-2.2 2.6-2.9-.2-1-.1-1.9.3-2.6-.1-.1-.1-.3-.1-.4 0-.8.6-1.4 1.4-1.4.6 0 1.1.3 1.3.9.2 0 .3.1.5.2s.3.1.5.2h.1c.1.1.3.2.4.3.2.1.3.2.5.4.3-.2.4-.2.4-.3.1-.1.2-.1.3-.2.2 0 .3 0 .4-.1.1 0 .2-.1.2-.1.1-.1.2-.1.4-.1.1 0 .1-.1.2-.1s.3-.1.4-.1h1.2c.3.1.5.2.7.3.9.6 1.2 1.8 1 3.4 1.5.7 2.3 1.7 2.3 2.7 0 .1 0 .3-.1.4.3.3.5.6.5 1v.5s0 .1-.1.1c0 0 0 .1-.1.1-.2.3-.3.5-.5.6z"/><path fill="#2D50C6" d="M11.5 10.4c-.9 0-1.7.7-1.7 1.7s.7 1.7 1.7 1.7 1.7-.7 1.7-1.7-.8-1.7-1.7-1.7zm.7 1.6c0 .4-.3.7-.7.7s-.7-.3-.7-.7.3-.7.7-.7c.4 0 .7.3.7.7z"/><path fill="#2D50C6" d="M11.8.3C5.5.3.3 5.5.3 11.8s5.2 11.5 11.5 11.5 11.5-5.2 11.5-11.5S18.2.3 11.8.3zm0 22.1C6 22.4 1.3 17.7 1.3 11.8 1.3 6 6 1.3 11.8 1.3S22.4 6 22.4 11.9c0 5.8-4.7 10.5-10.6 10.5z"/><path fill="#2D50C6" d="M19.4 13.9v-.1-.1-.1-.2c0-.4-.2-.8-.5-1 0-.2.1-.3.1-.4 0-1.1-.8-2-2.3-2.7.2-1.6-.1-2.8-1-3.4-.2-.1-.5-.2-.7-.3H14.4h-.5-.1c-.1 0-.3.1-.4.1-.1 0-.1 0-.2.1-.1 0-.2.1-.4.1-.1 0-.2.1-.2.1-.1.1-.2.1-.3.2-.1.1-.2.1-.3.2-.1.1-.2.1-.3.2-.2-.1-.3-.3-.5-.4-.1-.1-.3-.2-.4-.3h-.1c-.2-.1-.3-.2-.5-.2-.2-.3-.4-.3-.5-.4-.3-.5-.8-.8-1.3-.8-.8 0-1.4.6-1.4 1.4 0 .1 0 .3.1.4-.5.7-.6 1.6-.5 2.7-1.7.7-2.6 1.8-2.6 2.9 0 .3.1.5.2.8 0 0 0 .1.1.1.3.7 1.1 1.4 2.1 1.9-.2 1-.1 1.9.2 2.6v.1c.1.1.1.2.2.3v.1c.1.2.3.4.5.5.2.1.4.2.7.3.1.2.2.4.3.5.3.3.6.5 1 .5.8 0 1.4-.6 1.4-1.4V18c.2-.1.5-.3.7-.4 1 .8 2.1 1.3 2.9 1.3.4 0 .8-.1 1.1-.3.4-.2.6-.5.9-1 .1-.1.1-.2.1-.4v-.1c0-.1.1-.2.1-.3v-.2-.4-.2-.4-.2-.4-.2c.2-.1.3-.2.5-.2.3.2.6.3.9.3h.3c.1 0 .1 0 .2-.1h.1c.1 0 .1-.1.2-.1h.1c.2-.1.3-.2.4-.4 0 0 0-.1.1-.1 0-.2 0-.2.1-.3zm-2.8-.2c-.1 0-.1.1-.2.1-.1-.6-.3-1.2-.6-1.8.3-.7.5-1.3.7-1.9 1 .5 1.6 1.2 1.6 1.8v.1H18c-.8 0-1.4.6-1.4 1.4v.3zm-7.1-7c.1-.1.2-.3.2-.4.4.1.8.4 1.3.7-.4.4-.9.8-1.3 1.2-.8.1-1.5.3-2.2.5 0-.6 0-1.1.1-1.5.2.1.5.2.7.2.5-.1 1-.3 1.2-.7zm1.7 1.4c.2-.2.4-.3.5-.5.2.2.4.4.6.5h-1.1c-.1 0-.1 0 0 0zm.3 6.7c-.5 0-1.1 0-1.6-.1-.3-.4-.6-.8-.8-1.2-.3-.6-.6-1.1-.9-1.7.2-.5.5-.9.8-1.4.3-.5.6-.9 1-1.3.5 0 1-.1 1.5-.1s1 0 1.5.1c.3.5.7.9 1 1.4.3.5.5 1 .7 1.4-.3.6-.6 1.1-1 1.6-.2.4-.5.7-.8 1-.3.2-.9.3-1.4.3zm4.2-5.1c-.1.4-.2.8-.4 1.2-.1-.3-.3-.5-.4-.8-.2-.3-.3-.5-.5-.7.5.1.9.2 1.3.3zm-6.9-.4c-.1.2-.3.4-.4.6-.2.3-.3.5-.5.8-.1-.4-.2-.7-.3-1 .4-.2.8-.3 1.2-.4zm-.4 4.6c.1.2.2.4.3.5-.5-.1-.9-.2-1.3-.4.1-.4.3-.8.4-1.2.2.4.4.8.6 1.1zm6 .6c.1-.1.1-.2.2-.3.2-.3.4-.7.6-1 .1.3.2.7.3 1-.3.1-.7.2-1.1.3zm-2.2 1.2l-.7.7-.7-.7h1.4zm3.1-9.1c.5.4.7 1.2.6 2.2-.7-.2-1.4-.4-2.3-.5-.4-.4-.7-.9-1.1-1.2 1.1-.8 2.2-.9 2.8-.5zm-8.8 7.1c-.1-.1-.3-.1-.4-.2-.8-.5-1.3-1.1-1.3-1.6 0-.7.7-1.4 1.9-2 .1.6.3 1.2.5 1.8-.2.7-.5 1.4-.7 2zm1.3 3.8c-.6-.4-.8-1.3-.6-2.5.7.2 1.5.4 2.3.5.4.5.8.9 1.2 1.4-.1.1-.2.1-.4.2-.3-.3-.6-.4-1-.4-.6 0-1.1.4-1.3.9-.1 0-.2-.1-.2-.1zm6.9.3h-1c-.1 0-.3-.1-.4-.1-.1 0-.1-.1-.2-.1s-.2-.1-.3-.2c-.1 0-.1-.1-.2-.1-.2-.1-.3-.2-.5-.4.5-.4 1-.9 1.4-1.4.8-.1 1.5-.3 2.2-.5.1 1.3-.1 2.3-.7 2.7-.1.1-.2.1-.3.1z"/></svg></svg>