<?xml version="1.0" encoding="utf-8"?>
<!-- Generator: Adobe Illustrator 18.0.0, SVG Export Plug-In . SVG Version: 6.00 Build 0)  -->
<!DOCTYPE svg PUBLIC "-//W3C//DTD SVG 1.1//EN" "http://www.w3.org/Graphics/SVG/1.1/DTD/svg11.dtd">
<svg version="1.1" id="Ebene_1" xmlns="http://www.w3.org/2000/svg" xmlns:xlink="http://www.w3.org/1999/xlink" x="0px" y="0px"
	 width="99.3px" height="44.7px" viewBox="0 0 99.3 44.7" enable-background="new 0 0 99.3 44.7" xml:space="preserve">
<path fill="#2C55A2" d="M13,19.5c0,0.9-0.2,1.8-0.5,2.6c-0.3,0.8-0.8,1.5-1.4,2.1c-0.6,0.6-1.3,1.1-2.1,1.4C8.2,25.9,7.3,26,6.4,26
	c-0.9,0-1.7-0.2-2.5-0.5c-0.8-0.4-1.5-0.8-2-1.4c-0.6-0.6-1-1.3-1.4-2.1S0,20.4,0,19.5c0-0.9,0.2-1.7,0.5-2.5s0.8-1.5,1.4-2
	s1.3-1,2-1.4C4.7,13.2,5.5,13,6.4,13c0.9,0,1.8,0.2,2.6,0.5c0.8,0.3,1.5,0.8,2.1,1.4c0.6,0.6,1.1,1.3,1.4,2
	C12.8,17.7,13,18.6,13,19.5"/>
<path fill="#2C55A2" d="M70.6,18.8c0,0.9-0.2,1.8-0.5,2.6c-0.3,0.8-0.8,1.5-1.4,2.1c-0.6,0.6-1.3,1.1-2.1,1.4
	c-0.8,0.4-1.6,0.5-2.6,0.5c-0.9,0-1.7-0.2-2.5-0.5c-0.8-0.4-1.5-0.8-2-1.4c-0.6-0.6-1-1.3-1.4-2.1s-0.5-1.6-0.5-2.6
	c0-0.9,0.2-1.7,0.5-2.5s0.8-1.5,1.4-2s1.3-1,2-1.4c0.8-0.3,1.6-0.5,2.5-0.5c0.9,0,1.8,0.2,2.6,0.5c0.8,0.3,1.5,0.8,2.1,1.4
	c0.6,0.6,1.1,1.3,1.4,2C70.4,17.1,70.6,17.9,70.6,18.8"/>
<rect x="20.5" y="37.7" fill="#2C55A2" width="29" height="2.3"/>
<path fill="#2C55A2" d="M99.3,22.3c0,2.3-0.2,4.4-0.5,6.3s-0.8,3.8-1.5,5.6c-0.7,1.8-1.6,3.6-2.6,5.3c-1.1,1.7-2.3,3.4-3.7,5.2h-4.5
	c1.5-1.8,2.8-3.6,3.9-5.4c1.1-1.8,2-3.5,2.6-5.3c0.7-1.8,1.2-3.6,1.5-5.6c0.3-1.9,0.5-3.9,0.5-6.1c0-2.1-0.2-4.2-0.5-6.1
	c-0.3-1.9-0.8-3.8-1.5-5.6c-0.7-1.8-1.6-3.6-2.6-5.3c-1.1-1.8-2.4-3.6-3.9-5.4h4.5c1.4,1.8,2.7,3.5,3.7,5.2c1.1,1.7,1.9,3.4,2.6,5.2
	c0.7,1.8,1.2,3.7,1.5,5.6C99.1,18,99.3,20.1,99.3,22.3"/>
</svg>
