<?xml version="1.0" encoding="utf-8"?>
<!-- Generator: Adobe Illustrator 18.0.0, SVG Export Plug-In . SVG Version: 6.00 Build 0)  -->
<!DOCTYPE svg PUBLIC "-//W3C//DTD SVG 1.1//EN" "http://www.w3.org/Graphics/SVG/1.1/DTD/svg11.dtd">
<svg version="1.1" id="Layer_1" xmlns="http://www.w3.org/2000/svg" xmlns:xlink="http://www.w3.org/1999/xlink" x="0px" y="0px"
	 width="24.2px" height="24.2px" viewBox="-0.5 -0.5 24.2 24.2" enable-background="new -0.5 -0.5 24.2 24.2" xml:space="preserve">
<g>
	<path fill="#2D50C6" d="M11.6,23.7c-6.7,0-12.1-5.4-12.1-12.1S4.9-0.5,11.6-0.5s12.1,5.4,12.1,12.1C23.7,18.2,18.2,23.7,11.6,23.7z
		 M11.6,0.5c-6.1,0-11.1,5-11.1,11.1s5,11.1,11.1,11.1s11.1-5,11.1-11.1S17.7,0.5,11.6,0.5z"/>
</g>
<polygon fill="#2D50C6" points="6.9,14.8 3.5,12.3 3.5,11.5 6.9,9 7.5,9.7 4.3,11.9 7.5,14.2 "/>
<g>
	<path fill="#2D50C6" d="M9,14.4h4v0.8H8.1v-1c0-0.8,0.3-1.4,0.9-1.8c0.2-0.1,0.4-0.2,0.7-0.3l1.4-0.5c0.7-0.3,1.1-0.7,1.1-1.4
		c0-0.4-0.1-0.6-0.4-0.9c-0.2-0.2-0.6-0.3-1-0.3C10.3,9,10,9.1,9.7,9.3s-0.4,0.5-0.5,0.8h-1C8.3,9.5,8.5,9,9,8.7
		c0.4-0.3,1-0.5,1.7-0.5s1.3,0.2,1.7,0.6c0.4,0.4,0.7,0.8,0.7,1.4c0,0.6-0.1,1-0.4,1.3c-0.3,0.3-0.7,0.6-1.2,0.8L10,12.9
		c-0.3,0.1-0.6,0.3-0.8,0.5C9.1,13.6,9,13.8,9,14.1V14.4z"/>
	<path fill="#2D50C6" d="M16.5,8.2c0.8,0,1.5,0.3,2,0.9c0.5,0.6,0.7,1.5,0.7,2.6s-0.2,2-0.7,2.6s-1.1,0.9-2,0.9
		c-0.8,0-1.5-0.3-2-0.9s-0.7-1.5-0.7-2.7s0.2-2,0.7-2.7C15,8.5,15.7,8.2,16.5,8.2 M18.3,11.8c0-0.9-0.2-1.6-0.5-2.1
		C17.5,9.3,17.1,9,16.5,9s-1,0.2-1.3,0.7s-0.5,1.2-0.5,2.1s0.2,1.6,0.5,2.1s0.8,0.7,1.3,0.7s1-0.2,1.3-0.7
		C18.1,13.4,18.3,12.7,18.3,11.8"/>
</g>
</svg>
