<?xml version="1.0" encoding="utf-8"?>
<!-- Generator: Adobe Illustrator 18.0.0, SVG Export Plug-In . SVG Version: 6.00 Build 0)  -->
<!DOCTYPE svg PUBLIC "-//W3C//DTD SVG 1.1//EN" "http://www.w3.org/Graphics/SVG/1.1/DTD/svg11.dtd">
<svg version="1.1" id="Layer_1" xmlns="http://www.w3.org/2000/svg" xmlns:xlink="http://www.w3.org/1999/xlink" x="0px" y="0px"
	 width="66.3px" height="66.3px" viewBox="0 0 66.3 66.3" enable-background="new 0 0 66.3 66.3" xml:space="preserve">
<g>
	<path fill="none" d="M48.4,18h-3.1v2.9c0,0.6-0.4,1-1,1s-1-0.4-1-1V18h-5.6v2.9c0,0.6-0.4,1-1,1s-1-0.4-1-1V18h-5.4v2.9
		c0,0.6-0.4,1-1,1s-1-0.4-1-1V18h-5.5v2.9c0,0.6-0.4,1-1,1s-1-0.4-1-1V18h-3.2v5.6h30.8V18z"/>
	<path fill="none" d="M48.4,25.6H17.6v23.8h30.8V25.6z M25.7,46h-4.3c-0.6,0-1-0.4-1-1s0.4-1,1-1h4.3c0.6,0,1,0.4,1,1
		S26.3,46,25.7,46z M25.7,40.9h-4.3c-0.6,0-1-0.4-1-1s0.4-1,1-1h4.3c0.6,0,1,0.4,1,1S26.3,40.9,25.7,40.9z M25.7,36.2h-4.3
		c-0.6,0-1-0.4-1-1s0.4-1,1-1h4.3c0.6,0,1,0.4,1,1S26.3,36.2,25.7,36.2z M35.1,46h-4.3c-0.6,0-1-0.4-1-1s0.4-1,1-1h4.3
		c0.6,0,1,0.4,1,1S35.6,46,35.1,46z M35.1,40.9h-4.3c-0.6,0-1-0.4-1-1s0.4-1,1-1h4.3c0.6,0,1,0.4,1,1S35.6,40.9,35.1,40.9z
		 M35.1,36.2h-4.3c-0.6,0-1-0.4-1-1s0.4-1,1-1h4.3c0.6,0,1,0.4,1,1S35.6,36.2,35.1,36.2z M44.4,46h-4.3c-0.6,0-1-0.4-1-1s0.4-1,1-1
		h4.3c0.6,0,1,0.4,1,1S45,46,44.4,46z M44.4,40.9h-4.3c-0.6,0-1-0.4-1-1s0.4-1,1-1h4.3c0.6,0,1,0.4,1,1S45,40.9,44.4,40.9z
		 M44.4,36.2h-4.3c-0.6,0-1-0.4-1-1s0.4-1,1-1h4.3c0.6,0,1,0.4,1,1S45,36.2,44.4,36.2z M44.6,31.2h-4.3c-0.6,0-1-0.4-1-1s0.4-1,1-1
		h4.3c0.6,0,1,0.4,1,1S45.1,31.2,44.6,31.2z"/>
	<path fill="none" d="M33.1,64.3c17.2,0,31.1-14,31.1-31.1S50.3,2,33.1,2S2,16,2,33.1S16,64.3,33.1,64.3z M15.6,17c0-0.6,0.4-1,1-1
		h4.2v-2.6c0-0.6,0.4-1,1-1s1,0.4,1,1V16h5.5v-2.6c0-0.6,0.4-1,1-1s1,0.4,1,1V16h5.4v-2.6c0-0.6,0.4-1,1-1s1,0.4,1,1V16h5.6v-2.6
		c0-0.6,0.4-1,1-1s1,0.4,1,1V16h4.1c0.6,0,1,0.4,1,1v33.3c0,0.6-0.4,1-1,1H16.6c-0.6,0-1-0.4-1-1C15.6,50.3,15.6,17,15.6,17z"/>
	<path fill="#2D50C6" d="M33.1,66.3L33.1,66.3c18.3,0,33.1-14.9,33.2-33.1v0C66.3,14.9,51.4,0,33.1,0C14.9,0,0,14.9,0,33.1
		C0,51.4,14.9,66.3,33.1,66.3z M33.1,2c17.2,0,31.1,14,31.1,31.1s-14,31.1-31.1,31.1S2,50.3,2,33.1S16,2,33.1,2z"/>
	<path fill="#2D50C6" d="M16.6,51.3h32.8c0.6,0,1-0.4,1-1V17c0-0.6-0.4-1-1-1h-4.1v-2.6c0-0.6-0.4-1-1-1s-1,0.4-1,1V16h-5.6v-2.6
		c0-0.6-0.4-1-1-1s-1,0.4-1,1V16h-5.4v-2.6c0-0.6-0.4-1-1-1s-1,0.4-1,1V16h-5.5v-2.6c0-0.6-0.4-1-1-1s-1,0.4-1,1V16h-4.2
		c-0.6,0-1,0.4-1,1v33.3C15.6,50.9,16,51.3,16.6,51.3z M17.6,18h3.2v2.9c0,0.6,0.4,1,1,1s1-0.4,1-1V18h5.5v2.9c0,0.6,0.4,1,1,1
		s1-0.4,1-1V18h5.4v2.9c0,0.6,0.4,1,1,1s1-0.4,1-1V18h5.6v2.9c0,0.6,0.4,1,1,1s1-0.4,1-1V18h3.1v5.6H17.6V18z M17.6,25.6h30.8v23.8
		H17.6V25.6z"/>
	<path fill="#2D50C6" d="M44.4,44h-4.3c-0.6,0-1,0.4-1,1s0.4,1,1,1h4.3c0.6,0,1-0.4,1-1S45,44,44.4,44z"/>
	<path fill="#2D50C6" d="M44.4,38.9h-4.3c-0.6,0-1,0.4-1,1s0.4,1,1,1h4.3c0.6,0,1-0.4,1-1S45,38.9,44.4,38.9z"/>
	<path fill="#2D50C6" d="M35.1,34.2h-4.3c-0.6,0-1,0.4-1,1s0.4,1,1,1h4.3c0.6,0,1-0.4,1-1S35.6,34.2,35.1,34.2z"/>
	<path fill="#2D50C6" d="M44.4,34.2h-4.3c-0.6,0-1,0.4-1,1s0.4,1,1,1h4.3c0.6,0,1-0.4,1-1S45,34.2,44.4,34.2z"/>
	<path fill="#2D50C6" d="M44.6,29.2h-4.3c-0.6,0-1,0.4-1,1s0.4,1,1,1h4.3c0.6,0,1-0.4,1-1S45.1,29.2,44.6,29.2z"/>
	<path fill="#2D50C6" d="M35.1,38.9h-4.3c-0.6,0-1,0.4-1,1s0.4,1,1,1h4.3c0.6,0,1-0.4,1-1S35.6,38.9,35.1,38.9z"/>
	<path fill="#2D50C6" d="M25.7,44h-4.3c-0.6,0-1,0.4-1,1s0.4,1,1,1h4.3c0.6,0,1-0.4,1-1S26.3,44,25.7,44z"/>
	<path fill="#2D50C6" d="M25.7,38.9h-4.3c-0.6,0-1,0.4-1,1s0.4,1,1,1h4.3c0.6,0,1-0.4,1-1S26.3,38.9,25.7,38.9z"/>
	<path fill="#2D50C6" d="M25.7,34.2h-4.3c-0.6,0-1,0.4-1,1s0.4,1,1,1h4.3c0.6,0,1-0.4,1-1S26.3,34.2,25.7,34.2z"/>
	<path fill="#2D50C6" d="M35.1,44h-4.3c-0.6,0-1,0.4-1,1s0.4,1,1,1h4.3c0.6,0,1-0.4,1-1S35.6,44,35.1,44z"/>
</g>
</svg>
