<?xml version="1.0" encoding="utf-8"?>
<!-- Generator: Adobe Illustrator 18.0.0, SVG Export Plug-In . SVG Version: 6.00 Build 0)  -->
<!DOCTYPE svg PUBLIC "-//W3C//DTD SVG 1.1//EN" "http://www.w3.org/Graphics/SVG/1.1/DTD/svg11.dtd">
<svg version="1.1" id="Layer_1" xmlns="http://www.w3.org/2000/svg" xmlns:xlink="http://www.w3.org/1999/xlink" x="0px" y="0px"
	 width="23.4px" height="23.4px" viewBox="-1 0 23.4 23.4" enable-background="new -1 0 23.4 23.4" xml:space="preserve">
<g>
	<path fill="none" d="M10.7,0.9C4.8,0.9-0.1,5.8-0.1,11.7s4.8,10.7,10.7,10.7s10.7-4.8,10.7-10.7S16.6,0.9,10.7,0.9z M7.3,14.6H6.2
		v-2.2H4.1v-1h2.2V9.2h1.1v2.2h2.2v1H7.3V14.6z M10.6,15.4H9.5l2.7-8.7h1.1L10.6,15.4z M16.5,11.9h-3.1v-1h3.1V11.9z"/>
	<path fill="#2D50C6" d="M10.7,0C4.2,0-1,5.2-1,11.7s5.2,11.7,11.7,11.7s11.7-5.2,11.7-11.7C22.4,5.2,17.1,0,10.7,0z M21.4,11.7
		c0,5.9-4.8,10.7-10.7,10.7S-0.1,17.6-0.1,11.7S4.8,0.9,10.7,0.9S21.4,5.8,21.4,11.7z"/>
	<polygon fill="#2D50C6" points="9.5,11.4 7.3,11.4 7.3,9.2 6.2,9.2 6.2,11.4 4.1,11.4 4.1,12.4 6.2,12.4 6.2,14.6 7.3,14.6 
		7.3,12.4 9.5,12.4 	"/>
	<polygon fill="#2D50C6" points="9.5,15.4 10.6,15.4 13.3,6.7 12.2,6.7 	"/>
	<rect x="13.3" y="11" fill="#2D50C6" width="3.1" height="1"/>
</g>
</svg>
