<?xml version="1.0" encoding="utf-8"?>
<!-- Generator: Adobe Illustrator 18.0.0, SVG Export Plug-In . SVG Version: 6.00 Build 0)  -->
<!DOCTYPE svg PUBLIC "-//W3C//DTD SVG 1.1//EN" "http://www.w3.org/Graphics/SVG/1.1/DTD/svg11.dtd">
<svg version="1.1" id="Layer_1" xmlns="http://www.w3.org/2000/svg" xmlns:xlink="http://www.w3.org/1999/xlink" x="0px" y="0px"
	 width="66.3px" height="66.3px" viewBox="0 0 66.3 66.3" enable-background="new 0 0 66.3 66.3" xml:space="preserve">
<g>
	<path fill="none" d="M41.4,19.7c-1.6,0-2.8,0.7-3.7,2c-0.8,1.3-1.3,3.2-1.3,5.6c0,2.4,0.4,4.3,1.3,5.6c0.8,1.3,2.1,2,3.7,2
		c1.6,0,2.8-0.7,3.7-2c0.8-1.3,1.3-3.2,1.3-5.6c0-2.4-0.4-4.3-1.3-5.6C44.2,20.4,43,19.7,41.4,19.7z"/>
	<path fill="none" d="M23.4,19.7c-1.1,0-2.1,0.3-2.8,1c-0.7,0.7-1.1,1.6-1.1,2.7s0.4,2.1,1.1,2.7c0.7,0.7,1.7,1,2.8,1
		s2.1-0.4,2.8-1.1s1.1-1.6,1.1-2.7c0-1.1-0.4-2-1.1-2.6C25.5,20.1,24.6,19.7,23.4,19.7z"/>
	<path fill="none" d="M33.1,2C16,2,2,16,2,33.1s14,31.1,31.1,31.1c17.2,0,31.1-14,31.1-31.1C64.3,16,50.3,2,33.1,2z M29.7,49.7h-0.9
		v-6.2l-2.6,5.3h-0.6l-2.6-5.3v6.3h-0.9v-7.5h1.4l2.5,5.1l2.5-5.1h1.3C29.7,42.2,29.7,49.7,29.7,49.7z M26.9,36.4
		c-0.9,0.5-2,0.7-3.1,0.7c-2.1,0-3.7-0.6-4.9-1.7c-1.2-1.1-1.8-2.5-1.8-4.2h2.5c0,1.1,0.4,2,1.1,2.7c0.7,0.7,1.5,1,2.6,1
		s1.9-0.2,2.5-0.6c1.8-1.1,2.7-3.7,2.7-7.7c0-0.8,0-1.6-0.1-2.2c-0.2,1.6-0.8,2.8-1.8,3.6c-1,0.8-2.2,1.2-3.8,1.2s-2.9-0.6-4.1-1.7
		C17.6,26.5,17,25,17,23.3c0-1.7,0.6-3.1,1.8-4.2c1.2-1.1,2.7-1.6,4.7-1.6c1,0,2,0.2,2.9,0.7c0.9,0.4,1.7,1.1,2.4,1.9
		c1.4,1.8,2.2,4,2.2,6.9C30.9,31.8,29.6,35,26.9,36.4z M33,49.7h-0.9v-7.5H33V49.7z M41.3,49.7h-1.1l-3.8-6.1v6.1h-1v-7.5h1.1
		l3.7,6.1v-6.1h0.9V49.7z M44,49.6c-0.1,0.1-0.3,0.2-0.5,0.2c-0.2,0-0.4-0.1-0.5-0.2c-0.1-0.1-0.2-0.3-0.2-0.5
		c0-0.2,0.1-0.3,0.2-0.5c0.1-0.1,0.3-0.2,0.5-0.2c0.2,0,0.4,0.1,0.5,0.2c0.1,0.1,0.2,0.3,0.2,0.5C44.2,49.3,44.2,49.5,44,49.6z
		 M46.8,34.5c-1.3,1.7-3.1,2.5-5.4,2.5c-2.3,0-4.1-0.8-5.4-2.5c-1.3-1.7-2-4.1-2-7.3c0-3.2,0.7-5.6,2-7.3c1.3-1.7,3.1-2.5,5.4-2.5
		c2.3,0,4.1,0.8,5.4,2.5c1.3,1.7,2,4.1,2,7.2C48.8,30.4,48.1,32.9,46.8,34.5z"/>
	<path fill="#2D50C6" d="M33.1,0C14.9,0,0,14.9,0,33.1s14.9,33.1,33.1,33.1s33.1-14.9,33.1-33.1S51.4,0,33.1,0z M33.1,64.3
		C16,64.3,2,50.3,2,33.1S16,2,33.1,2c17.2,0,31.1,14,31.1,31.1C64.3,50.3,50.3,64.3,33.1,64.3z"/>
	<path fill="#2D50C6" d="M26.4,18.2c-0.9-0.4-1.9-0.7-2.9-0.7c-2,0-3.5,0.5-4.7,1.6c-1.2,1.1-1.8,2.5-1.8,4.2c0,1.7,0.6,3.1,1.7,4.2
		c1.1,1.1,2.5,1.7,4.1,1.7s2.8-0.4,3.8-1.2c1-0.8,1.6-2,1.8-3.6c0.1,0.7,0.1,1.4,0.1,2.2c0,4-0.9,6.6-2.7,7.7
		c-0.6,0.4-1.5,0.6-2.5,0.6s-1.9-0.3-2.6-1c-0.7-0.7-1-1.6-1.1-2.7h-2.5c0,1.7,0.6,3.1,1.8,4.2c1.2,1.1,2.8,1.7,4.9,1.7
		c1.1,0,2.1-0.2,3.1-0.7c2.7-1.4,4.1-4.5,4.1-9.4c0-2.8-0.7-5.1-2.2-6.9C28.1,19.3,27.3,18.6,26.4,18.2z M26.3,26.1
		c-0.7,0.7-1.7,1.1-2.8,1.1s-2.1-0.3-2.8-1c-0.7-0.7-1.1-1.6-1.1-2.7s0.4-2.1,1.1-2.7c0.7-0.7,1.7-1,2.8-1c1.1,0,2.1,0.3,2.8,1
		s1.1,1.6,1.1,2.6C27.4,24.5,27,25.4,26.3,26.1z"/>
	<path fill="#2D50C6" d="M41.4,17.5c-2.3,0-4.1,0.8-5.4,2.5c-1.3,1.7-2,4.1-2,7.3c0,3.2,0.7,5.6,2,7.3c1.3,1.7,3.1,2.5,5.4,2.5
		c2.3,0,4.1-0.8,5.4-2.5c1.3-1.7,2-4.1,2-7.2c0-3.1-0.7-5.6-2-7.2C45.5,18.4,43.7,17.5,41.4,17.5z M45,32.9c-0.8,1.3-2.1,2-3.7,2
		c-1.6,0-2.8-0.7-3.7-2c-0.8-1.3-1.3-3.2-1.3-5.6c0-2.4,0.4-4.3,1.3-5.6c0.8-1.3,2.1-2,3.7-2c1.6,0,2.8,0.7,3.7,2
		c0.8,1.3,1.3,3.2,1.3,5.6C46.3,29.7,45.9,31.6,45,32.9z"/>
	<polygon fill="#2D50C6" points="25.8,47.3 23.3,42.2 21.9,42.2 21.9,49.7 22.9,49.7 22.9,43.4 25.5,48.8 26.1,48.8 28.7,43.5 
		28.7,49.7 29.7,49.7 29.7,42.2 28.3,42.2 	"/>
	<rect x="32.1" y="42.2" fill="#2D50C6" width="0.9" height="7.5"/>
	<polygon fill="#2D50C6" points="40.3,48.2 36.6,42.2 35.4,42.2 35.4,49.7 36.4,49.7 36.4,43.6 40.2,49.7 41.3,49.7 41.3,42.2 
		40.3,42.2 	"/>
	<path fill="#2D50C6" d="M43.5,48.5c-0.2,0-0.4,0.1-0.5,0.2c-0.1,0.1-0.2,0.3-0.2,0.5c0,0.2,0.1,0.3,0.2,0.5
		c0.1,0.1,0.3,0.2,0.5,0.2c0.2,0,0.4-0.1,0.5-0.2c0.1-0.1,0.2-0.3,0.2-0.5c0-0.2-0.1-0.3-0.2-0.5C43.9,48.5,43.7,48.5,43.5,48.5z"/>
</g>
</svg>
