<?xml version="1.0" encoding="utf-8"?>
<!-- Generator: Adobe Illustrator 18.0.0, SVG Export Plug-In . SVG Version: 6.00 Build 0)  -->
<!DOCTYPE svg PUBLIC "-//W3C//DTD SVG 1.1//EN" "http://www.w3.org/Graphics/SVG/1.1/DTD/svg11.dtd">
<svg version="1.1" id="Layer_1" xmlns="http://www.w3.org/2000/svg" xmlns:xlink="http://www.w3.org/1999/xlink" x="0px" y="0px"
	 width="66.3px" height="66.3px" viewBox="0 0 66.3 66.3" enable-background="new 0 0 66.3 66.3" xml:space="preserve">
<g>
	<g>
		<path fill="#2D50C6" d="M33.1,66.3C14.9,66.3,0,51.4,0,33.1C0,14.9,14.9,0,33.1,0c18.3,0,33.1,14.9,33.1,33.1
			C66.3,51.4,51.4,66.3,33.1,66.3z M33.1,2C16,2,2,16,2,33.1s14,31.1,31.1,31.1c17.2,0,31.1-14,31.1-31.1S50.3,2,33.1,2z"/>
	</g>
	<polygon fill="#2D50C6" points="24.2,20.4 24.2,26.8 30.4,26.8 30.4,28.8 24.2,28.8 24.2,35.2 21.8,35.2 21.8,28.8 15.6,28.8 
		15.6,26.8 21.8,26.8 21.8,20.4 	"/>
	<polygon fill="#2D50C6" points="38.7,13.1 41.2,13.1 33.5,37.4 31.1,37.4 	"/>
	<rect x="42.1" y="25.4" fill="#2D50C6" width="8.2" height="2.1"/>
	<polygon fill="#2D50C6" points="22.9,43 25.7,48.7 28.6,43 30,43 30,51.4 29,51.4 29,44.5 26.1,50.4 25.4,50.4 22.5,44.4 
		22.5,51.4 21.4,51.4 21.4,43 	"/>
	<rect x="32.7" y="43" fill="#2D50C6" width="1.1" height="8.4"/>
	<polygon fill="#2D50C6" points="37.7,43 41.9,49.8 41.9,43 42.9,43 42.9,51.4 41.8,51.4 37.5,44.6 37.5,51.4 36.5,51.4 36.5,43 	
		"/>
	<g>
		<path fill="#2D50C6" d="M45.5,51.5c-0.2,0-0.4-0.1-0.6-0.2c-0.1-0.1-0.2-0.3-0.2-0.5c0-0.2,0.1-0.4,0.2-0.5
			c0.1-0.1,0.3-0.2,0.6-0.2s0.4,0.1,0.6,0.2c0.2,0.1,0.2,0.3,0.2,0.5c0,0.2-0.1,0.4-0.2,0.5C45.9,51.5,45.7,51.5,45.5,51.5"/>
	</g>
</g>
</svg>
