<?xml version="1.0" encoding="utf-8"?>
<!-- Generator: Adobe Illustrator 18.0.0, SVG Export Plug-In . SVG Version: 6.00 Build 0)  -->
<!DOCTYPE svg PUBLIC "-//W3C//DTD SVG 1.1//EN" "http://www.w3.org/Graphics/SVG/1.1/DTD/svg11.dtd">
<svg version="1.1" id="Layer_1" xmlns="http://www.w3.org/2000/svg" xmlns:xlink="http://www.w3.org/1999/xlink" x="0px" y="0px"
	 width="66.3px" height="66.3px" viewBox="0.2 0.4 66.3 66.3" enable-background="new 0.2 0.4 66.3 66.3" xml:space="preserve">
<g>
	<path fill="none" d="M33.3,2.4c-17.2,0-31.1,14-31.1,31.1s14,31.1,31.1,31.1s31.1-14,31.1-31.1S50.5,2.4,33.3,2.4z M30.2,50.3h-1.1
		v-6.9l-2.9,5.9h-0.7l-2.9-6v7h-1.1v-8.4h1.5l2.8,5.7l2.8-5.7h1.5V50.3z M31.9,32.5h-3.3v4.6h-2.3v-4.6h-9.8v-1.8l9.9-12.8h2.2v12.6
		h3.3V32.5z M34,50.3h-1.1v-8.4H34V50.3z M43.1,50.3H42l-4.2-6.8v6.8h-1.1v-8.4h1.3l4.2,6.8v-6.8h1.1C43.1,41.9,43.1,50.3,43.1,50.3
		z M46.2,50.2c-0.2,0.1-0.3,0.2-0.6,0.2s-0.4-0.1-0.6-0.2c-0.1-0.1-0.2-0.3-0.2-0.5c0-0.2,0.1-0.4,0.2-0.5c0.1-0.1,0.3-0.2,0.6-0.2
		s0.4,0.1,0.6,0.2c0.2,0.1,0.2,0.3,0.2,0.5C46.5,49.8,46.4,50,46.2,50.2z M46.1,35.6c-1.3,1.2-2.9,1.8-4.8,1.8c-2,0-3.6-0.5-4.8-1.5
		c-1.3-1-1.9-2.4-1.9-4.1H37c0,1.7,0.8,2.7,2.5,3.2c0.5,0.1,1.1,0.2,1.7,0.2c1.3,0,2.3-0.4,3.1-1.2c0.8-0.8,1.2-1.8,1.2-3.1
		c0-2.4-1.6-3.6-4.7-3.6h-5.1l0.8-9.2h10.5v2.2h-8.3l-0.5,5.5c1-0.2,2-0.3,3-0.3c2.1,0,3.7,0.5,4.9,1.4c1.2,0.9,1.8,2.3,1.8,4.2
		C48,32.8,47.4,34.4,46.1,35.6z"/>
	<polygon fill="none" points="26.4,30.6 26.4,21.6 19.3,30.6 	"/>
	<path fill="#2D50C6" d="M33.3,0.4C15.1,0.4,0.2,15.2,0.2,33.5c0,18.3,14.9,33.1,33.1,33.1s33.1-14.9,33.1-33.1
		C66.5,15.2,51.6,0.4,33.3,0.4z M33.3,64.6c-17.2,0-31.1-14-31.1-31.1s14-31.1,31.1-31.1s31.1,14,31.1,31.1S50.5,64.6,33.3,64.6z"/>
	<path fill="#2D50C6" d="M28.6,17.8h-2.2l-9.9,12.8v1.8h9.8v4.6h2.3v-4.6h3.3v-2.1h-3.3C28.6,30.4,28.6,17.8,28.6,17.8z M26.4,30.6
		h-7l7-9.1V30.6z"/>
	<path fill="#2D50C6" d="M46.2,26.8c-1.2-0.9-2.8-1.4-4.9-1.4c-0.9,0-1.9,0.1-3,0.3l0.5-5.5h8.3v-2.2H36.5l-0.8,9.2h5.1
		c3.1,0,4.7,1.2,4.7,3.6c0,1.3-0.4,2.3-1.2,3.1c-0.8,0.8-1.8,1.2-3.1,1.2c-0.6,0-1.2-0.1-1.7-0.2c-1.7-0.5-2.5-1.6-2.5-3.2h-2.4
		c0,1.8,0.6,3.1,1.9,4.1c1.2,1,2.9,1.5,4.8,1.5c2,0,3.6-0.6,4.8-1.8c1.2-1.2,1.9-2.8,1.9-4.6C48,29.1,47.4,27.7,46.2,26.8z"/>
	<polygon fill="#2D50C6" points="25.9,47.6 23.1,41.9 21.6,41.9 21.6,50.3 22.7,50.3 22.7,43.3 25.6,49.2 26.3,49.2 29.2,43.4 
		29.2,50.3 30.2,50.3 30.2,41.9 28.8,41.9 	"/>
	<rect x="32.9" y="41.9" fill="#2D50C6" width="1.1" height="8.4"/>
	<polygon fill="#2D50C6" points="42.1,48.6 37.9,41.9 36.7,41.9 36.7,50.3 37.7,50.3 37.7,43.4 42,50.3 43.1,50.3 43.1,41.9 
		42.1,41.9 	"/>
	<path fill="#2D50C6" d="M45.7,48.9c-0.2,0-0.4,0.1-0.6,0.2c-0.1,0.1-0.2,0.3-0.2,0.5c0,0.2,0.1,0.4,0.2,0.5
		c0.1,0.1,0.3,0.2,0.6,0.2s0.4-0.1,0.6-0.2c0.2-0.1,0.2-0.3,0.2-0.5c0-0.2-0.1-0.4-0.2-0.5C46.1,49,45.9,48.9,45.7,48.9z"/>
</g>
</svg>
