<?xml version="1.0" encoding="utf-8"?>
<!-- Generator: Adobe Illustrator 18.0.0, SVG Export Plug-In . SVG Version: 6.00 Build 0)  -->
<!DOCTYPE svg PUBLIC "-//W3C//DTD SVG 1.1//EN" "http://www.w3.org/Graphics/SVG/1.1/DTD/svg11.dtd">
<svg version="1.1" id="Layer_1" xmlns="http://www.w3.org/2000/svg" xmlns:xlink="http://www.w3.org/1999/xlink" x="0px" y="0px"
	 width="66.3px" height="66.3px" viewBox="0 0 66.3 66.3" enable-background="new 0 0 66.3 66.3" xml:space="preserve">
<g>
	<g>
		<circle fill="none" stroke="#2D50C6" stroke-width="2" stroke-miterlimit="10" cx="33.4" cy="33.2" r="32.1"/>
	</g>
	<polygon fill="#2D50C6" points="20.6,37.1 11.1,30.1 11.1,28 20.6,21.1 22.2,22.9 13.5,29.1 22.2,35.3 	"/>
	<g>
		<path fill="#2D50C6" d="M26.2,36.1h11v2.2H23.8v-2.8c0-2.2,0.8-3.9,2.5-4.9c0.5-0.3,1.1-0.6,1.8-0.9l3.7-1.5
			c1.9-0.8,2.9-2,2.9-3.8c0-1-0.3-1.8-1-2.4s-1.6-0.9-2.8-0.9s-2.2,0.3-2.9,0.8c-0.8,0.5-1.2,1.3-1.3,2.3h-2.6
			c0.1-1.7,0.8-2.9,2-3.8s2.8-1.3,4.7-1.3s3.5,0.5,4.7,1.6c1.2,1,1.8,2.3,1.8,3.9c0,1.5-0.4,2.8-1.2,3.7c-0.8,0.9-1.9,1.6-3.3,2.2
			L29,32c-1,0.4-1.7,0.9-2.2,1.4s-0.7,1.2-0.7,2L26.2,36.1L26.2,36.1z"/>
		<path fill="#2D50C6" d="M51.9,28.8c0-2.5-0.4-4.4-1.3-5.7c-0.8-1.3-2.1-2-3.7-2c-1.6,0-2.9,0.7-3.7,2s-1.3,3.2-1.3,5.7
			s0.4,4.4,1.3,5.7c0.8,1.3,2.1,2,3.7,2c1.6,0,2.9-0.7,3.7-2C51.5,33.2,51.9,31.3,51.9,28.8 M46.9,19c2.3,0,4.1,0.8,5.4,2.5
			c1.3,1.7,2,4.1,2,7.3s-0.7,5.6-2,7.3s-3.1,2.5-5.4,2.5c-2.3,0-4.1-0.8-5.5-2.5c-1.3-1.7-2-4.1-2-7.3s0.7-5.7,2-7.3
			C42.8,19.8,44.6,19,46.9,19"/>
	</g>
	<polygon fill="#2D50C6" points="23.1,43.1 26,48.8 28.8,43.1 30.3,43.1 30.3,51.5 29.2,51.5 29.2,44.6 26.3,50.5 25.6,50.5 
		22.7,44.5 22.7,51.5 21.6,51.5 21.6,43.1 	"/>
	<rect x="33" y="43.1" fill="#2D50C6" width="1.1" height="8.4"/>
	<polygon fill="#2D50C6" points="37.9,43.1 42.1,49.9 42.1,43.1 43.2,43.1 43.2,51.5 42,51.5 37.8,44.7 37.8,51.5 36.7,51.5 
		36.7,43.1 	"/>
	<g>
		<path fill="#2D50C6" d="M45.7,51.6c-0.2,0-0.4-0.1-0.6-0.2c-0.1-0.1-0.2-0.3-0.2-0.5s0.1-0.4,0.2-0.5c0.1-0.1,0.3-0.2,0.6-0.2
			c0.2,0,0.4,0.1,0.6,0.2c0.2,0.1,0.2,0.3,0.2,0.5s-0.1,0.4-0.2,0.5C46.1,51.6,45.9,51.6,45.7,51.6"/>
	</g>
</g>
</svg>
