<?xml version="1.0" encoding="utf-8"?>
<!-- Generator: Adobe Illustrator 18.0.0, SVG Export Plug-In . SVG Version: 6.00 Build 0)  -->
<!DOCTYPE svg PUBLIC "-//W3C//DTD SVG 1.1//EN" "http://www.w3.org/Graphics/SVG/1.1/DTD/svg11.dtd">
<svg version="1.1" id="Layer_1" xmlns="http://www.w3.org/2000/svg" xmlns:xlink="http://www.w3.org/1999/xlink" x="0px" y="0px"
	 width="23.2px" height="23.2px" viewBox="-1 0 23.2 23.2" enable-background="new -1 0 23.2 23.2" xml:space="preserve">
<g>
	<path fill="none" d="M5.3,6.5v1.7h10.4V6.5h-0.8v0.9c0,0.3-0.2,0.5-0.5,0.5S14,7.6,14,7.4V6.5h-1.7v0.9c0,0.3-0.2,0.5-0.5,0.5
		s-0.5-0.2-0.5-0.5V6.5H9.7v0.9c0,0.3-0.2,0.5-0.5,0.5l0,0l0,0C9,7.8,8.8,7.6,8.8,7.4V6.5H7.1v0.9c0,0.3-0.2,0.5-0.5,0.5l0,0l0,0
		c-0.3,0-0.5-0.2-0.5-0.5V6.5H5.3z"/>
	<path fill="none" d="M10.6,0.9C4.7,0.9-0.1,5.7-0.1,11.6c0,5.9,4.8,10.6,10.6,10.6c5.9,0,10.6-4.8,10.6-10.6S16.4,0.9,10.6,0.9z
		 M16.7,17.5c0,0.3-0.2,0.5-0.5,0.5H4.8c-0.3,0-0.5-0.2-0.5-0.5V6c0-0.3,0.2-0.5,0.5-0.5h1.3V4.8c0-0.3,0.2-0.5,0.5-0.5l0,0l0,0
		c0.3,0,0.5,0.2,0.5,0.5v0.8h1.6V4.8c0-0.3,0.2-0.5,0.5-0.5l0,0l0,0c0.3,0,0.5,0.2,0.5,0.5v0.8h1.6V4.8c0-0.3,0.2-0.5,0.5-0.5
		s0.5,0.2,0.5,0.5v0.8H14V4.8c0-0.3,0.2-0.5,0.5-0.5s0.5,0.2,0.5,0.5v0.8h1.3c0.3,0,0.5,0.2,0.5,0.5L16.7,17.5L16.7,17.5z"/>
	<path fill="none" d="M15.7,17.1v-8H5.3v8H15.7z M13,10.1h1.5c0.3,0,0.5,0.2,0.5,0.5c0,0.3-0.2,0.5-0.5,0.5H13
		c-0.3,0-0.5-0.2-0.5-0.5C12.6,10.3,12.8,10.1,13,10.1z M13,11.8h1.5c0.3,0,0.5,0.2,0.5,0.5s-0.2,0.5-0.5,0.5H13
		c-0.3,0-0.5-0.2-0.5-0.5S12.7,11.8,13,11.8z M13,13.5h1.5c0.3,0,0.5,0.2,0.5,0.5s-0.2,0.5-0.5,0.5H13c-0.3,0-0.5-0.2-0.5-0.5
		S12.7,13.5,13,13.5z M13,15.2h1.5c0.3,0,0.5,0.2,0.5,0.5s-0.2,0.5-0.5,0.5H13c-0.3,0-0.5-0.2-0.5-0.5S12.7,15.2,13,15.2z M9.8,11.8
		h1.5c0.3,0,0.5,0.2,0.5,0.5s-0.2,0.5-0.5,0.5H9.8c-0.3,0-0.5-0.2-0.5-0.5S9.5,11.8,9.8,11.8z M9.8,13.5h1.5c0.3,0,0.5,0.2,0.5,0.5
		s-0.2,0.5-0.5,0.5H9.8c-0.3,0-0.5-0.2-0.5-0.5S9.5,13.5,9.8,13.5z M9.8,15.2h1.5c0.3,0,0.5,0.2,0.5,0.5s-0.2,0.5-0.5,0.5H9.8
		c-0.3,0-0.5-0.2-0.5-0.5S9.5,15.2,9.8,15.2z M6.5,11.8H8c0.3,0,0.5,0.2,0.5,0.5S8.3,12.8,8,12.8H6.5c-0.3,0-0.5-0.2-0.5-0.5
		S6.3,11.8,6.5,11.8z M6.5,13.5H8c0.3,0,0.5,0.2,0.5,0.5S8.3,14.4,8,14.4H6.5c-0.3,0-0.5-0.2-0.5-0.5S6.3,13.5,6.5,13.5z M6.5,15.2
		H8c0.3,0,0.5,0.2,0.5,0.5S8.3,16.1,8,16.1H6.5c-0.3,0-0.5-0.2-0.5-0.5S6.3,15.2,6.5,15.2z"/>
	<path fill="#2D50C6" d="M10.6,0C4.2,0-1,5.2-1,11.6c0,6.4,5.2,11.6,11.6,11.6h0c6.4,0,11.6-5.2,11.6-11.6C22.2,5.2,17,0,10.6,0z
		 M21.2,11.6c0,5.9-4.8,10.6-10.6,10.6c-5.9,0-10.6-4.8-10.6-10.6S4.7,0.9,10.6,0.9S21.2,5.7,21.2,11.6z"/>
	<path fill="#2D50C6" d="M16.2,5.5h-1.3V4.8c0-0.3-0.2-0.5-0.5-0.5S14,4.5,14,4.8v0.8h-1.7V4.8c0-0.3-0.2-0.5-0.5-0.5
		s-0.5,0.2-0.5,0.5v0.8H9.7V4.8c0-0.3-0.2-0.5-0.5-0.5l0,0l0,0C9,4.3,8.8,4.5,8.8,4.8v0.8H7.1V4.8c0-0.3-0.2-0.5-0.5-0.5l0,0l0,0
		c-0.3,0-0.5,0.2-0.5,0.5v0.8H4.8C4.6,5.5,4.4,5.7,4.4,6v11.5c0,0.3,0.2,0.5,0.5,0.5h11.4c0.3,0,0.5-0.2,0.5-0.5V6
		C16.7,5.7,16.5,5.5,16.2,5.5z M15.7,9.1v8H5.3v-8H15.7z M6.7,7.8L6.7,7.8C6.7,7.8,6.7,7.8,6.7,7.8c0.3,0,0.5-0.2,0.5-0.5V6.5h1.6
		v0.9c0,0.3,0.2,0.5,0.5,0.5l0,0l0,0c0.3,0,0.5-0.2,0.5-0.5V6.5h1.6v0.9c0,0.3,0.2,0.5,0.5,0.5s0.5-0.2,0.5-0.5V6.5H14v0.9
		c0,0.3,0.2,0.5,0.5,0.5s0.5-0.2,0.5-0.5V6.5h0.8v1.7H5.3V6.5h0.9v0.9C6.2,7.6,6.4,7.8,6.7,7.8z"/>
	<path fill="#2D50C6" d="M13,16.1h1.5c0.3,0,0.5-0.2,0.5-0.5s-0.2-0.5-0.5-0.5H13c-0.3,0-0.5,0.2-0.5,0.5S12.7,16.1,13,16.1z"/>
	<path fill="#2D50C6" d="M13,14.4h1.5c0.3,0,0.5-0.2,0.5-0.5s-0.2-0.5-0.5-0.5H13c-0.3,0-0.5,0.2-0.5,0.5S12.7,14.4,13,14.4z"/>
	<path fill="#2D50C6" d="M9.8,12.8h1.5c0.3,0,0.5-0.2,0.5-0.5s-0.2-0.5-0.5-0.5H9.8c-0.3,0-0.5,0.2-0.5,0.5S9.5,12.8,9.8,12.8z"/>
	<path fill="#2D50C6" d="M13,12.8h1.5c0.3,0,0.5-0.2,0.5-0.5s-0.2-0.5-0.5-0.5H13c-0.3,0-0.5,0.2-0.5,0.5S12.7,12.8,13,12.8z"/>
	<path fill="#2D50C6" d="M13,11h1.5c0.3,0,0.5-0.2,0.5-0.5c0-0.3-0.2-0.5-0.5-0.5H13c-0.3,0-0.5,0.2-0.5,0.5
		C12.6,10.8,12.8,11,13,11z"/>
	<path fill="#2D50C6" d="M9.8,14.4h1.5c0.3,0,0.5-0.2,0.5-0.5s-0.2-0.5-0.5-0.5H9.8c-0.3,0-0.5,0.2-0.5,0.5S9.5,14.4,9.8,14.4z"/>
	<path fill="#2D50C6" d="M6.5,16.1H8c0.3,0,0.5-0.2,0.5-0.5S8.3,15.2,8,15.2H6.5c-0.3,0-0.5,0.2-0.5,0.5S6.3,16.1,6.5,16.1z"/>
	<path fill="#2D50C6" d="M6.5,14.4H8c0.3,0,0.5-0.2,0.5-0.5S8.3,13.5,8,13.5H6.5c-0.3,0-0.5,0.2-0.5,0.5S6.3,14.4,6.5,14.4z"/>
	<path fill="#2D50C6" d="M6.5,12.8H8c0.3,0,0.5-0.2,0.5-0.5S8.3,11.8,8,11.8H6.5c-0.3,0-0.5,0.2-0.5,0.5S6.3,12.8,6.5,12.8z"/>
	<path fill="#2D50C6" d="M9.8,16.1h1.5c0.3,0,0.5-0.2,0.5-0.5s-0.2-0.5-0.5-0.5H9.8c-0.3,0-0.5,0.2-0.5,0.5S9.5,16.1,9.8,16.1z"/>
</g>
</svg>
