<?xml version="1.0" encoding="utf-8"?>
<!-- Generator: Adobe Illustrator 18.0.0, SVG Export Plug-In . SVG Version: 6.00 Build 0)  -->
<!DOCTYPE svg PUBLIC "-//W3C//DTD SVG 1.1//EN" "http://www.w3.org/Graphics/SVG/1.1/DTD/svg11.dtd">
<svg version="1.1" id="Layer_1" xmlns="http://www.w3.org/2000/svg" xmlns:xlink="http://www.w3.org/1999/xlink" x="0px" y="0px"
	 width="23.2px" height="23.2px" viewBox="0 0 23.2 23.2" enable-background="new 0 0 23.2 23.2" xml:space="preserve">
<g>
	<polygon fill="none" points="7,12.6 9.1,12.6 9.1,9.9 	"/>
	<path fill="none" d="M11.6,0.9C5.7,0.9,0.9,5.7,0.9,11.6c0,5.9,4.8,10.7,10.7,10.7s10.7-4.8,10.7-10.7C22.3,5.7,17.5,0.9,11.6,0.9z
		 M11.2,13.5h-1.1V15H9v-1.6H5.6v-0.8l0,0l3.5-4.5h0.9v4.4h1.1V13.5z M16.1,14.5c-0.5,0.4-1,0.7-1.8,0.7c-0.7,0-1.3-0.2-1.8-0.5
		c-0.5-0.4-0.7-0.9-0.7-1.5V13H13v0.1c0,0.5,0.3,0.8,0.8,1c0.2,0,0.4,0.1,0.6,0.1c0.4,0,0.7-0.1,1-0.4c0.3-0.3,0.4-0.6,0.4-1
		c0-0.8-0.5-1.1-1.5-1.1h-1.9l0.3-3.5h3.9v1h-2.9l-0.2,1.6c0.3,0,0.6-0.1,0.9-0.1c0.7,0,1.3,0.2,1.8,0.5c0.4,0.3,0.7,0.9,0.7,1.5
		C16.8,13.5,16.6,14,16.1,14.5z"/>
	<path fill="#2D50C6" d="M11.6,0C5.2,0,0,5.2,0,11.6C0,18,5.2,23.2,11.6,23.2S23.2,18,23.2,11.6C23.2,5.2,18,0,11.6,0z M22.3,11.6
		c0,5.9-4.8,10.7-10.7,10.7S0.9,17.5,0.9,11.6S5.7,0.9,11.6,0.9S22.3,5.7,22.3,11.6z"/>
	<path fill="#2D50C6" d="M10.1,8.1H9.2l-3.5,4.5l0,0v0.8H9V15h1.1v-1.6h1.1v-1h-1.1L10.1,8.1L10.1,8.1z M7,12.6l2.1-2.6v2.6H7z"/>
	<path fill="#2D50C6" d="M16.1,11.3c-0.4-0.3-1-0.5-1.8-0.5c-0.3,0-0.6,0-0.9,0.1l0.2-1.6h2.9v-1h-3.9l-0.3,3.5h1.9
		c1,0,1.5,0.4,1.5,1.1c0,0.4-0.1,0.7-0.4,1c-0.2,0.3-0.6,0.4-1,0.4c-0.2,0-0.4,0-0.6-0.1c-0.5-0.2-0.8-0.5-0.8-1V13h-1.1v0.1
		c0,0.6,0.2,1.2,0.7,1.5c0.5,0.4,1,0.5,1.8,0.5c0.7,0,1.3-0.2,1.8-0.7c0.5-0.4,0.7-1,0.7-1.7C16.8,12.1,16.6,11.6,16.1,11.3z"/>
</g>
</svg>
