<?xml version="1.0" encoding="utf-8"?>
<!-- Generator: Adobe Illustrator 18.0.0, SVG Export Plug-In . SVG Version: 6.00 Build 0)  -->
<!DOCTYPE svg PUBLIC "-//W3C//DTD SVG 1.1//EN" "http://www.w3.org/Graphics/SVG/1.1/DTD/svg11.dtd">
<svg version="1.1" id="Layer_1" xmlns="http://www.w3.org/2000/svg" xmlns:xlink="http://www.w3.org/1999/xlink" x="0px" y="0px"
	 width="23.9px" height="25.1px" viewBox="-0.1 -0.1 23.9 25.1" enable-background="new -0.1 -0.1 23.9 25.1" xml:space="preserve">
<g>
	<path fill="none" d="M13.6,20.7V7.8c0-1.1,0.9-2,2-2h0.1V3.1H2.9v17.7H13.6z"/>
	<path fill="none" d="M13.8,21.9h-12v-20h15v3.9h0.7v-4c0-0.5-0.4-0.8-0.8-0.8H1.9C1.4,1,1,1.4,1,1.9V23c0,0.5,0.4,0.8,0.8,0.8h14.7
		c0.5,0,0.8-0.4,0.8-0.8v0h-1.9C14.8,23,14.1,22.6,13.8,21.9z"/>
	<path fill="none" d="M14.7,21c0,0.5,0.4,0.8,0.8,0.8h6.3c0.5,0,0.8-0.4,0.8-0.8v-1.2h-7.9C14.7,19.8,14.7,21,14.7,21z"/>
	<path fill="none" d="M21.8,7h-6.3c-0.5,0-0.8,0.4-0.8,0.8V8h7.9V7.8C22.7,7.4,22.3,7,21.8,7z"/>
	<rect x="14.7" y="9.2" fill="none" width="7.9" height="9.5"/>
	<path fill="#2D50C6" d="M21.8,5.8h-3.2v-4c0-1.1-0.9-2-2-2H1.9c-1.1,0-2,0.9-2,2V23c0,1.1,0.9,2,2,2h14.8c1.1,0,2-0.9,2-2l3.2,0
		c1.1,0,2-0.9,2-2V7.8C23.8,6.7,22.9,5.8,21.8,5.8z M17.5,23c0,0.5-0.4,0.8-0.8,0.8H1.9C1.4,23.8,1,23.5,1,23V1.9C1,1.4,1.4,1,1.9,1
		h14.8c0.5,0,0.8,0.4,0.8,0.8v4h-0.7V1.9h-15v20h12c0.3,0.7,1,1.1,1.8,1.1L17.5,23L17.5,23z M15.6,3.1v2.7h-0.1c-1.1,0-2,0.9-2,2
		v12.9H2.9V3.1H15.6z M22.7,21c0,0.5-0.4,0.8-0.8,0.8h-6.3c-0.5,0-0.8-0.4-0.8-0.8v-1.2h7.9V21z M22.7,18.7h-7.9V9.2h7.9V18.7z
		 M22.7,8h-7.9V7.8c0-0.5,0.4-0.8,0.8-0.8h6.3c0.5,0,0.8,0.4,0.8,0.8V8z"/>
</g>
</svg>
