<?xml version="1.0" encoding="utf-8"?>
<!-- Generator: Adobe Illustrator 18.0.0, SVG Export Plug-In . SVG Version: 6.00 Build 0)  -->
<!DOCTYPE svg PUBLIC "-//W3C//DTD SVG 1.1//EN" "http://www.w3.org/Graphics/SVG/1.1/DTD/svg11.dtd">
<svg version="1.1" id="Layer_1" xmlns="http://www.w3.org/2000/svg" xmlns:xlink="http://www.w3.org/1999/xlink" x="0px" y="0px"
	 width="51.9px" height="54.5px" viewBox="0 0 51.9 54.5" enable-background="new 0 0 51.9 54.5" xml:space="preserve">
<g>
	<path fill="none" d="M34.5,13.1V6.5H6.1v39.3H30V17.2c0-2.3,1.8-4.1,4.1-4.1H34.5z"/>
	<path fill="none" d="M30.4,47.7H4.1V4.5h32.4v8.6h2v-9c0-1.2-0.9-2.1-2.1-2.1H4.1C2.9,2,2,2.9,2,4.1v46.4c0,1.2,0.9,2.1,2.1,2.1
		h32.3c1.2,0,2.1-0.9,2.1-2.1v-0.3h-4.4C32.4,50.2,31,49.2,30.4,47.7z"/>
	<path fill="none" d="M32,46.1c0,1.2,0.9,2.1,2.1,2.1h13.8c1.2,0,2.1-0.9,2.1-2.1v-2.9H32V46.1z"/>
	<rect x="32" y="19.8" fill="none" width="17.9" height="21.3"/>
	<path fill="none" d="M47.8,15.1H34.1c-1.2,0-2.1,0.9-2.1,2.1v0.7h17.9v-0.7C49.9,16,49,15.1,47.8,15.1z"/>
	<path fill="#2D50C6" d="M47.8,13.1h-7.3v-9c0-2.3-1.8-4.1-4.1-4.1H4.1C1.8,0,0,1.8,0,4.1v46.4c0,2.3,1.8,4.1,4.1,4.1h32.3
		c2.3,0,4.1-1.8,4.1-4.1v-0.3h7.3c2.3,0,4.1-1.8,4.1-4.1V17.2C51.9,14.9,50.1,13.1,47.8,13.1z M38.5,50.5c0,1.2-0.9,2.1-2.1,2.1H4.1
		c-1.2,0-2.1-0.9-2.1-2.1V4.1C2,2.9,2.9,2,4.1,2h32.3c1.2,0,2.1,0.9,2.1,2.1v9h-2V4.5H4.1v43.3h26.2c0.6,1.4,2.1,2.4,3.7,2.4h4.4
		V50.5z M30,17.2v28.6H6.1V6.5h28.4v6.6h-0.4C31.8,13.1,30,14.9,30,17.2z M49.9,46.1c0,1.2-0.9,2.1-2.1,2.1H34.1
		c-1.2,0-2.1-0.9-2.1-2.1v-2.9h17.9V46.1z M49.9,41.2H32V19.8h17.9V41.2z M49.9,17.8H32v-0.7c0-1.2,0.9-2.1,2.1-2.1h13.8
		c1.2,0,2.1,0.9,2.1,2.1L49.9,17.8L49.9,17.8z"/>
</g>
</svg>
