<?xml version="1.0" encoding="utf-8"?>
<!-- Generator: Adobe Illustrator 18.0.0, SVG Export Plug-In . SVG Version: 6.00 Build 0)  -->
<!DOCTYPE svg PUBLIC "-//W3C//DTD SVG 1.1//EN" "http://www.w3.org/Graphics/SVG/1.1/DTD/svg11.dtd">
<svg version="1.1" id="Layer_1" xmlns="http://www.w3.org/2000/svg" xmlns:xlink="http://www.w3.org/1999/xlink" x="0px" y="0px"
	 width="66px" height="48px" viewBox="0.7 0 66 48" enable-background="new 0.7 0 66 48" xml:space="preserve">
<g>
	<path fill="none" d="M33.8,36.9c-2.4,0-4.3,1.9-4.3,4.3c0,2.4,1.9,4.3,4.3,4.3s4.3-1.9,4.3-4.3C38.1,38.9,36.2,36.9,33.8,36.9z"/>
	<path fill="none" d="M33.9,20.2c-6.6,0-12.6,3-16.5,8.3l5.6,3.9c2.6-3.3,6.5-5.2,10.8-5.2c4,0,7.7,1.7,10.3,4.7
		c0,0,0.1,0.1,0.1,0.1l5.7-4.1C46,23,40.2,20.2,33.9,20.2z"/>
	<path fill="none" d="M63.3,16.5C56.1,7.3,45.3,2,33.7,2c-12,0-23.3,5.8-30.4,15.5c-0.1,0.1-0.1,0.2-0.2,0.3L8.7,22
		c0.1-0.1,0.2-0.2,0.3-0.3c5.8-7.9,15-12.6,24.8-12.6c9.4,0,18.1,4.2,24,11.5c0.2,0.2,0.5,0.6,0.8,1l5.8-4c-0.1-0.1-0.2-0.3-0.4-0.4
		C63.7,16.9,63.4,16.6,63.3,16.5z"/>
	<path fill="#2D50C6" d="M66.6,17.3c-0.2-0.2-0.7-0.8-1.1-1.3c-0.3-0.3-0.5-0.6-0.6-0.7C57.3,5.6,45.9,0,33.7,0
		C21.1,0,9.1,6.1,1.7,16.3c-0.3,0.4-0.5,0.7-0.8,1.1c-0.3,0.4-0.2,1,0.2,1.4l7.1,5.3c0.2,0.1,0.4,0.2,0.6,0.2c0.1,0,0.1,0,0.2,0
		c0.3,0,0.5-0.2,0.7-0.4c0.1-0.1,0.2-0.3,0.4-0.5c0.2-0.2,0.4-0.4,0.5-0.6c5.4-7.4,14.1-11.8,23.2-11.8c8.8,0,16.9,3.9,22.4,10.8
		c0.3,0.3,1.1,1.4,1.4,1.8c0.3,0.4,0.9,0.5,1.4,0.2l7.4-5.1c0.2-0.2,0.4-0.4,0.4-0.7C66.8,17.8,66.7,17.5,66.6,17.3z M58.5,21.7
		c-0.3-0.4-0.7-0.9-0.8-1c-5.9-7.3-14.6-11.5-24-11.5c-9.8,0-19,4.7-24.8,12.6c-0.1,0.1-0.2,0.2-0.3,0.3l-5.6-4.2
		c0.1-0.1,0.1-0.2,0.2-0.3C10.3,7.8,21.7,2,33.7,2c11.6,0,22.4,5.3,29.6,14.5c0.1,0.1,0.4,0.4,0.6,0.8c0.1,0.1,0.2,0.3,0.4,0.4
		L58.5,21.7z"/>
	<path fill="#2D50C6" d="M33.8,34.9c-3.5,0-6.3,2.8-6.3,6.3c0,3.5,2.8,6.3,6.3,6.3s6.3-2.8,6.3-6.3S37.3,34.9,33.8,34.9z M33.8,45.6
		c-2.4,0-4.3-1.9-4.3-4.3c0-2.4,1.9-4.3,4.3-4.3s4.3,1.9,4.3,4.3C38.1,43.6,36.2,45.6,33.8,45.6z"/>
	<path fill="#2D50C6" d="M51.5,26.7c-4.3-5.4-10.7-8.4-17.6-8.4c-7.1,0-13.9,3.4-18.1,9.1c-0.2,0.3-0.4,0.5-0.6,0.8
		c-0.3,0.5-0.2,1.1,0.3,1.4l7.3,5c0.2,0.1,0.4,0.2,0.6,0.2c0.1,0,0.1,0,0.2,0c0.3,0,0.5-0.2,0.6-0.4c0.1-0.2,0.3-0.4,0.5-0.6
		c2.2-2.9,5.6-4.5,9.2-4.5c3.4,0,6.6,1.5,8.8,4c0.2,0.3,0.4,0.5,0.6,0.8c0.3,0.4,0.9,0.5,1.4,0.2l7.3-5.3c0.2-0.2,0.4-0.4,0.4-0.7
		s0-0.5-0.2-0.7C51.9,27.2,51.7,27,51.5,26.7z M44.3,32c0,0-0.1-0.1-0.1-0.1c-2.6-3-6.4-4.7-10.3-4.7c-4.2,0-8.1,1.9-10.8,5.2
		l-5.6-3.9c3.9-5.3,9.9-8.3,16.5-8.3c6.3,0,12.1,2.8,16,7.7L44.3,32z"/>
	<path fill="#2D50C6" d="M14.7,36.8c-0.4-0.4-1-0.4-1.4,0l-4,4l-4-4c-0.4-0.4-1-0.4-1.4,0s-0.4,1,0,1.4l4,4l-4,4
		c-0.4,0.4-0.4,1,0,1.4s1,0.4,1.4,0l4-4l4,4c0.2,0.2,0.5,0.3,0.7,0.3s0.5-0.1,0.7-0.3c0.4-0.4,0.4-1,0-1.4l-4-4l4-4
		C15.1,37.8,15.1,37.2,14.7,36.8z"/>
</g>
</svg>
