<?xml version="1.0" encoding="utf-8"?>
<!-- Generator: Adobe Illustrator 18.0.0, SVG Export Plug-In . SVG Version: 6.00 Build 0)  -->
<!DOCTYPE svg PUBLIC "-//W3C//DTD SVG 1.1//EN" "http://www.w3.org/Graphics/SVG/1.1/DTD/svg11.dtd">
<svg version="1.1" id="Layer_1" xmlns="http://www.w3.org/2000/svg" xmlns:xlink="http://www.w3.org/1999/xlink" x="0px" y="0px"
	 width="55.2px" height="53.4px" viewBox="0 0 55.2 53.4" enable-background="new 0 0 55.2 53.4" xml:space="preserve">
<g>
	<path fill="none" d="M27.9,38.4c0-1.5-1.2-2.8-2.8-2.8c-1.5,0-2.8,1.2-2.8,2.8c0,1.5,1.2,2.8,2.8,2.8C26.7,41.2,27.9,40,27.9,38.4z
		"/>
	<path fill="none" d="M37.8,37.9L35.7,40c-0.2,0.2-0.5,0.3-0.8,0.3c-0.3,0-0.6-0.2-0.7-0.5l-7.7-14.2c-0.2-0.4-0.1-0.9,0.2-1.2
		l4.9-4.9c0.3-0.3,0.8-0.4,1.2-0.2l14.2,7.7c0.3,0.1,0.5,0.4,0.5,0.7s-0.1,0.6-0.3,0.9L45,30.7l8.2,8.2v-7.6c-2.3-0.8-3.9-3-3.9-5.6
		V13.1c0-2.1-1.7-3.9-3.8-3.9c-0.5,2.1-2.4,3.7-4.6,3.7c-2.6,0-4.8-2.1-4.8-4.8c0-2.6,2.1-4.8,4.8-4.8c2.3,0,4.3,1.7,4.7,3.9
		c3.1,0.1,5.7,2.6,5.8,5.7h0v12.8c0,1.4,0.8,2.7,1.9,3.4v-25C53.2,3,52.2,2,51,2H4.2C3,2,2,3,2,4.1v1.8c1-0.9,2.4-1.5,3.9-1.5h15.5
		c2.7,0,4.9,1.8,5.7,4.2c2.4,0.3,4.2,2.3,4.2,4.7c0,2.6-2.1,4.8-4.8,4.8c-2.6,0-4.8-2.1-4.8-4.8c0-2.1,1.4-3.9,3.3-4.5
		c-0.6-1.4-2-2.4-3.6-2.4H5.9C3.9,6.5,2.3,8,2,9.9v18.5c0.2,1.9,1.9,3.4,3.9,3.4h8c2.1,0,3.8-1.7,3.9-3.8c-2-0.5-3.6-2.4-3.6-4.6
		c0-2.6,2.1-4.8,4.8-4.8c2.6,0,4.8,2.1,4.8,4.8c0,2.4-1.7,4.3-4,4.7c-0.1,3.1-2.7,5.7-5.9,5.7h-8c-1.5,0-2.8-0.6-3.9-1.5v16.9
		c0,1.2,1,2.1,2.1,2.1h2.4v-8.4c0-3.3,2.7-5.9,5.9-5.9h8.1c0.6-2,2.4-3.5,4.6-3.5c2.6,0,4.8,2.1,4.8,4.8c0,2.6-2.1,4.8-4.8,4.8
		c-2.4,0-4.4-1.8-4.7-4.1h-7.9c-2.2,0-3.9,1.8-3.9,3.9v8.4H51c0.1,0,0.1,0,0.2,0L37.8,37.9z"/>
	<path fill="none" d="M53.2,41.8L42.8,31.5c-0.2-0.2-0.3-0.4-0.3-0.7s0.1-0.5,0.3-0.7l1.9-1.9l-12.4-6.7l-3.8,3.8l6.7,12.4l1.9-1.9
		c0.4-0.4,1-0.4,1.4,0l14.5,14.4c0.1-0.3,0.2-0.6,0.2-1V41.8z"/>
	<path fill="none" d="M21.8,23.4c0-1.5-1.2-2.8-2.8-2.8c-1.5,0-2.8,1.2-2.8,2.8c0,1.5,1.2,2.8,2.8,2.8C20.6,26.2,21.8,25,21.8,23.4z
		"/>
	<path fill="none" d="M26.5,16.2c1.5,0,2.8-1.2,2.8-2.8c0-1.5-1.2-2.8-2.8-2.8c-1.5,0-2.8,1.2-2.8,2.8C23.7,14.9,25,16.2,26.5,16.2z
		"/>
	<path fill="none" d="M38,8.1c0,1.5,1.2,2.8,2.8,2.8c1.5,0,2.8-1.2,2.8-2.8c0-1.5-1.2-2.8-2.8-2.8C39.2,5.3,38,6.6,38,8.1z"/>
	<path fill="#2D50C6" d="M55.2,29.6V4.1C55.2,1.9,53.3,0,51,0H4.2C1.9,0,0,1.9,0,4.1v5.6c0,0.2,0,0.4,0,0.6l0,17.5h0
		c0,0.2,0,0.4,0,0.6v20.8c0,2.3,1.9,4.1,4.1,4.1H51c2.3,0,4.1-1.9,4.1-4.1V31.6c0,0,0,0,0,0L55.2,29.6
		C55.2,29.6,55.2,29.6,55.2,29.6z M38.5,35.8c-0.4-0.4-1-0.4-1.4,0l-1.9,1.9l-6.7-12.4l3.8-3.8l12.4,6.7L42.8,30
		c-0.2,0.2-0.3,0.4-0.3,0.7s0.1,0.5,0.3,0.7l10.3,10.3v7.5c0,0.3-0.1,0.7-0.2,1L38.5,35.8z M8.6,51.4v-8.4c0-2.2,1.8-3.9,3.9-3.9
		h7.9c0.3,2.3,2.3,4.1,4.7,4.1c2.6,0,4.8-2.1,4.8-4.8c0-2.6-2.1-4.8-4.8-4.8c-2.2,0-4,1.5-4.6,3.5h-8.1c-3.3,0-5.9,2.7-5.9,5.9v8.4
		H4.2c-1.2,0-2.1-1-2.1-2.1V32.3c1,0.9,2.4,1.5,3.9,1.5h8c3.2,0,5.8-2.5,5.9-5.7c2.3-0.4,4-2.3,4-4.7c0-2.6-2.1-4.8-4.8-4.8
		c-2.6,0-4.8,2.1-4.8,4.8c0,2.2,1.5,4.1,3.6,4.6c-0.1,2.1-1.8,3.8-3.9,3.8h-8c-2,0-3.6-1.5-3.9-3.4V9.9C2.3,8,3.9,6.5,5.9,6.5h15.5
		c1.6,0,3,1,3.6,2.4c-1.9,0.6-3.3,2.4-3.3,4.5c0,2.6,2.1,4.8,4.8,4.8c2.6,0,4.8-2.1,4.8-4.8c0-2.4-1.8-4.4-4.2-4.7
		c-0.7-2.4-3-4.2-5.7-4.2H5.9C4.4,4.5,3.1,5,2,5.9V4.1C2,3,3,2,4.2,2H51c1.2,0,2.1,1,2.1,2.1v25c-1.1-0.7-1.9-1.9-1.9-3.4V12.9h0
		c-0.1-3.1-2.7-5.6-5.8-5.7C45,5,43.1,3.3,40.8,3.3c-2.6,0-4.8,2.1-4.8,4.8c0,2.6,2.1,4.8,4.8,4.8c2.3,0,4.1-1.6,4.6-3.7
		c2.1,0,3.8,1.8,3.8,3.9v12.6c0,2.6,1.6,4.7,3.9,5.6v7.6L45,30.7l2.1-2.1c0.2-0.2,0.3-0.5,0.3-0.9c0-0.3-0.2-0.6-0.5-0.7l-14.2-7.7
		c-0.4-0.2-0.9-0.1-1.2,0.2l-4.9,4.9c-0.3,0.3-0.4,0.8-0.2,1.2l7.7,14.2c0.2,0.3,0.4,0.5,0.7,0.5c0.3,0,0.6-0.1,0.8-0.3l2.1-2.1
		l13.5,13.5c-0.1,0-0.1,0-0.2,0L8.6,51.4L8.6,51.4z M22.4,38.4c0-1.5,1.2-2.8,2.8-2.8c1.5,0,2.8,1.2,2.8,2.8c0,1.5-1.2,2.8-2.8,2.8
		S22.4,40,22.4,38.4z M16.3,23.4c0-1.5,1.2-2.8,2.8-2.8c1.5,0,2.8,1.2,2.8,2.8c0,1.5-1.2,2.8-2.8,2.8C17.5,26.2,16.3,25,16.3,23.4z
		 M26.5,10.6c1.5,0,2.8,1.2,2.8,2.8c0,1.5-1.2,2.8-2.8,2.8c-1.5,0-2.8-1.2-2.8-2.8C23.7,11.9,25,10.6,26.5,10.6z M43.5,8.1
		c0,1.5-1.2,2.8-2.8,2.8c-1.5,0-2.8-1.2-2.8-2.8c0-1.5,1.2-2.8,2.8-2.8C42.3,5.3,43.5,6.6,43.5,8.1z"/>
</g>
</svg>
