<?xml version="1.0" encoding="utf-8"?>
<!-- Generator: Adobe Illustrator 18.0.0, SVG Export Plug-In . SVG Version: 6.00 Build 0)  -->
<!DOCTYPE svg PUBLIC "-//W3C//DTD SVG 1.1//EN" "http://www.w3.org/Graphics/SVG/1.1/DTD/svg11.dtd">
<svg version="1.1" id="Layer_1" xmlns="http://www.w3.org/2000/svg" xmlns:xlink="http://www.w3.org/1999/xlink" x="0px" y="0px"
	 width="23.7px" height="17.3px" viewBox="0 0 23.7 17.3" enable-background="new 0 0 23.7 17.3" xml:space="preserve">
<g>
	<path fill="none" d="M11.9,7.4c-2.2,0-4.3,1-5.7,2.8L8,11.4c0.9-1.1,2.3-1.8,3.8-1.8c1.4,0,2.8,0.6,3.7,1.7l1.8-1.3
		C16,8.4,14,7.4,11.9,7.4z"/>
	<path fill="none" d="M12.1,16.1c0.6-0.1,1.1-0.7,1.1-1.4c0-0.8-0.6-1.4-1.4-1.4s-1.4,0.6-1.4,1.4c0,0.7,0.5,1.3,1.1,1.4
		c0.1,0,0.2,0,0.3,0C12,16.2,12.1,16.2,12.1,16.1z"/>
	<path fill="none" d="M22.5,6.4l-0.1-0.2c0,0,0,0,0,0c0-0.1-0.1-0.1-0.1-0.1c-1.6-2-3.6-3.5-6-4.3C14.8,1.2,13.3,1,11.8,1
		C9.8,1,7.7,1.4,5.9,2.3c0,0-0.1,0-0.1,0.1c0,0-0.1,0-0.1,0.1C3.9,3.4,2.3,4.7,1.1,6.4l0,0l1.8,1.3c0,0,0,0,0,0
		c0.4-0.5,0.9-1,1.3-1.5c0.8-0.7,1.6-1.3,2.6-1.8c1.5-0.8,3.2-1.2,5-1.2c3.4,0,6.5,1.5,8.6,4.1c0,0.1,0.1,0.2,0.2,0.3L22.5,6.4z"/>
	<path fill="#2D50C6" d="M23.6,6.2c-0.1-0.1-0.2-0.3-0.4-0.5l-0.1-0.1C23,5.5,23,5.5,23,5.4C20.3,2,16.2,0,11.8,0
		C7.3,0,3,2.2,0.4,5.8C0.3,6,0.2,6.1,0.1,6.2C-0.1,6.4,0,6.7,0.2,6.9l2.5,1.9C2.8,8.8,2.9,8.9,3,8.9c0,0,0.1,0,0.1,0
		c0.1,0,0.2-0.1,0.3-0.2c0,0,0.1-0.1,0.1-0.1l0,0c0.1-0.1,0.1-0.2,0.2-0.2c1.9-2.6,4.9-4.1,8.1-4.1c3.1,0,5.9,1.4,7.9,3.8
		c0.1,0.1,0.4,0.5,0.5,0.6c0.1,0.2,0.5,0.3,0.7,0.1l2.6-1.8c0.1-0.1,0.2-0.2,0.2-0.3C23.7,6.4,23.6,6.3,23.6,6.2z M11.8,3.2
		c-1.7,0-3.5,0.4-5,1.2C5.9,4.9,5.1,5.5,4.3,6.2C3.8,6.7,3.3,7.2,2.9,7.7c0,0,0,0,0,0L1.1,6.4l0,0c1.2-1.7,2.8-3,4.6-3.9
		c0,0,0.1,0,0.1-0.1c0,0,0.1,0,0.1-0.1C7.7,1.4,9.8,1,11.8,1c1.5,0,3,0.3,4.4,0.8c2.3,0.8,4.4,2.3,6,4.3c0,0,0.1,0.1,0.1,0.1
		c0,0,0,0,0,0l0.1,0.2l-1.8,1.3c-0.1-0.1-0.2-0.2-0.2-0.3C18.3,4.7,15.2,3.2,11.8,3.2z"/>
	<path fill="#2D50C6" d="M11.9,12.4c-1.3,0-2.4,1.1-2.4,2.4c0,1.3,1.1,2.4,2.4,2.4c1.3,0,2.4-1.1,2.4-2.4
		C14.2,13.4,13.2,12.4,11.9,12.4z M10.4,14.7c0-0.8,0.6-1.4,1.4-1.4s1.4,0.6,1.4,1.4c0,0.7-0.5,1.3-1.1,1.4c-0.1,0-0.2,0-0.3,0
		s-0.2,0-0.3,0C10.9,16,10.4,15.4,10.4,14.7z"/>
	<path fill="#2D50C6" d="M18.2,9.5c-1.6-1.9-3.9-3-6.3-3c-2.6,0-5,1.2-6.5,3.3C5.3,9.8,5.2,9.9,5.2,10c-0.1,0.2-0.1,0.5,0.1,0.7
		l2.6,1.8c0.1,0.1,0.2,0.1,0.3,0.1c0,0,0.1,0,0.1,0c0.1,0,0.2-0.1,0.3-0.2c0.1-0.1,0.1-0.1,0.2-0.2c0.8-1,1.9-1.6,3.2-1.6
		c1.2,0,2.3,0.5,3,1.4c0.1,0.1,0.1,0.2,0.2,0.3c0.1,0.2,0.5,0.3,0.7,0.1l2.6-1.9c0.1-0.1,0.2-0.2,0.2-0.3c0-0.1,0-0.3-0.1-0.4
		C18.4,9.7,18.3,9.6,18.2,9.5z M15.6,11.3c-0.9-1.1-2.3-1.7-3.7-1.7c-1.5,0-2.9,0.7-3.8,1.8l-1.8-1.2c1.4-1.8,3.4-2.8,5.7-2.8
		c2.1,0,4.1,0.9,5.5,2.6L15.6,11.3z"/>
	<path fill="#2D50C6" d="M3.8,15.1l1.3-1.3c0.2-0.2,0.2-0.5,0-0.7c-0.2-0.2-0.5-0.2-0.7,0l-1.3,1.3l-1.3-1.3c-0.2-0.2-0.5-0.2-0.7,0
		C1.1,13.2,1,13.3,1,13.4c0,0.1,0,0.2,0.1,0.3l1.3,1.3l-1.3,1.3C1.1,16.5,1,16.7,1,16.8c0,0.1,0,0.2,0.1,0.3c0.2,0.2,0.5,0.2,0.7,0
		l1.3-1.3l1.3,1.3c0.1,0.1,0.2,0.1,0.3,0.1s0.2,0,0.3-0.1c0.2-0.2,0.2-0.5,0-0.7L3.8,15.1z"/>
</g>
</svg>
