<?xml version="1.0" encoding="utf-8"?>
<!-- Generator: Adobe Illustrator 18.0.0, SVG Export Plug-In . SVG Version: 6.00 Build 0)  -->
<!DOCTYPE svg PUBLIC "-//W3C//DTD SVG 1.1//EN" "http://www.w3.org/Graphics/SVG/1.1/DTD/svg11.dtd">
<svg version="1.1" id="Layer_1" xmlns="http://www.w3.org/2000/svg" xmlns:xlink="http://www.w3.org/1999/xlink" x="0px" y="0px"
	 width="23.4px" height="22.7px" viewBox="0 0 23.4 22.7" enable-background="new 0 0 23.4 22.7" xml:space="preserve">
<g>
	<circle fill="none" cx="10.7" cy="16.3" r="1"/>
	<path fill="none" d="M16.4,15.1l5.9,5.9c0-0.1,0-0.1,0-0.2v-3.1L18,13.4c-0.1-0.1-0.2-0.2-0.2-0.4s0.1-0.3,0.2-0.4l0.7-0.7l-5-2.7
		l-1.5,1.5l2.7,5l0.7-0.7c0.1-0.1,0.2-0.2,0.4-0.2C16.1,14.9,16.3,15,16.4,15.1z"/>
	<path fill="none" d="M22.3,13.4c-1-0.4-1.6-1.4-1.6-2.4V5.6c0-0.8-0.6-1.5-1.4-1.5c-0.3,0.9-1.1,1.5-2,1.5c-1.2,0-2.1-1-2.1-2.1
		s1-2.1,2.1-2.1c1,0,1.8,0.7,2.1,1.6c1.3,0.1,2.3,1.1,2.5,2.4h0l0,0.1v5.4c0,0.5,0.2,0.9,0.6,1.2V1.9c0-0.4-0.3-0.8-0.8-0.8H1.9
		c-0.4,0-0.8,0.3-0.8,0.8v0.5c0.4-0.3,1-0.5,1.5-0.5h6.5c1.1,0,2.1,0.7,2.5,1.8c1,0.2,1.8,1.1,1.8,2.1c0,1.2-1,2.1-2.1,2.1
		s-2.1-1-2.1-2.1c0-0.9,0.5-1.7,1.3-2C10.2,3.3,9.7,3,9.1,3H2.6C1.9,3,1.2,3.5,1.1,4.3l0,7.8c0.1,0.7,0.7,1.3,1.5,1.3H6
		c0.8,0,1.4-0.6,1.5-1.4C6.6,11.7,6,10.9,6,10c0-1.2,1-2.1,2.1-2.1s2.1,1,2.1,2.1c0,1-0.7,1.9-1.7,2.1c-0.1,1.4-1.2,2.4-2.6,2.4H2.6
		c-0.5,0-1.1-0.2-1.5-0.5v6.9c0,0.4,0.3,0.8,0.8,0.8h0.9v-3.4c0-1.4,1.2-2.6,2.6-2.6h3.3c0.3-0.9,1.1-1.5,2-1.5c1.2,0,2.1,1,2.1,2.1
		s-1,2.1-2.1,2.1c-1,0-1.9-0.7-2.1-1.7H5.4c-0.8,0-1.5,0.7-1.5,1.5v3.4h17.5L16,16.2L15.2,17c-0.1,0.1-0.3,0.2-0.5,0.2
		c-0.2,0-0.3-0.1-0.4-0.3l-3.2-6c-0.1-0.2-0.1-0.5,0.1-0.6l2.1-2.1c0.2-0.2,0.4-0.2,0.6-0.1l6,3.2c0.2,0.1,0.3,0.2,0.3,0.4
		c0,0.2,0,0.3-0.2,0.5L19.2,13l3.1,3.1L22.3,13.4L22.3,13.4z"/>
	<circle fill="none" cx="11.3" cy="5.8" r="1"/>
	<circle fill="none" cx="17.3" cy="3.5" r="1"/>
	<circle fill="none" cx="8.1" cy="10" r="1"/>
	<path fill="#2D50C6" d="M21.6,0H1.9C0.8,0,0,0.8,0,1.9v2.4c0,0.1,0,0.2,0,0.3l0,7.3c0,0.1,0,0.2,0,0.3v8.7c0,1,0.8,1.9,1.9,1.9
		h19.7c1,0,1.9-0.8,1.9-1.9v-19C23.4,0.8,22.6,0,21.6,0z M15.6,15.1l-0.7,0.7l-2.7-5l1.5-1.5l5,2.7L18,12.7
		c-0.1,0.1-0.2,0.2-0.2,0.4s0.1,0.3,0.2,0.4l4.3,4.3v3.1c0,0.1,0,0.1,0,0.2l-5.9-5.9c-0.1-0.1-0.2-0.2-0.4-0.2
		C15.8,14.9,15.7,15,15.6,15.1z M20,12.2c0.1-0.1,0.2-0.3,0.2-0.5c0-0.2-0.1-0.3-0.3-0.4l-6-3.2c-0.2-0.1-0.5-0.1-0.6,0.1l-2.1,2.1
		c-0.2,0.2-0.2,0.4-0.1,0.6l3.2,6c0.1,0.1,0.2,0.3,0.4,0.3c0.2,0,0.3,0,0.5-0.2l0.8-0.8l5.4,5.4H3.9v-3.4c0-0.8,0.7-1.5,1.5-1.5h3.2
		c0.2,1,1.1,1.7,2.1,1.7c1.2,0,2.1-1,2.1-2.1s-1-2.1-2.1-2.1c-0.9,0-1.7,0.6-2,1.5H5.4c-1.4,0-2.6,1.2-2.6,2.6v3.4H1.9
		c-0.4,0-0.8-0.3-0.8-0.8V14c0.4,0.3,1,0.5,1.5,0.5H6c1.4,0,2.5-1,2.6-2.4c1-0.2,1.7-1.1,1.7-2.1c0-1.2-1-2.1-2.1-2.1S6,8.8,6,10
		c0,0.9,0.6,1.8,1.5,2c-0.1,0.8-0.7,1.4-1.5,1.4H2.6c-0.8,0-1.4-0.6-1.5-1.3l0-7.8C1.2,3.5,1.9,3,2.6,3h6.5c0.6,0,1.1,0.3,1.3,0.8
		c-0.8,0.3-1.3,1.1-1.3,2c0,1.2,1,2.1,2.1,2.1s2.1-1,2.1-2.1c0-1-0.8-1.9-1.8-2.1c-0.4-1.1-1.4-1.8-2.5-1.8H2.6
		C2.1,1.9,1.5,2,1.1,2.4V1.9c0-0.4,0.3-0.8,0.8-0.8h19.7c0.4,0,0.8,0.3,0.8,0.8v10.2c-0.3-0.3-0.6-0.7-0.6-1.2V5.5l0-0.1h0
		c-0.1-1.3-1.2-2.3-2.5-2.4c-0.2-1-1.1-1.6-2.1-1.6c-1.2,0-2.1,1-2.1,2.1c0,1.2,1,2.1,2.1,2.1c1,0,1.8-0.6,2-1.5
		c0.8,0.1,1.4,0.7,1.4,1.5v5.3c0,1.1,0.7,2,1.6,2.4v2.8L19.2,13L20,12.2z M9.7,16.3c0-0.6,0.5-1,1-1s1,0.5,1,1s-0.5,1-1,1
		C10.1,17.3,9.7,16.9,9.7,16.3z M8.1,11c-0.6,0-1-0.5-1-1s0.5-1,1-1s1,0.5,1,1S8.7,11,8.1,11z M10.2,5.8c0-0.6,0.5-1,1-1
		c0.6,0,1,0.5,1,1s-0.5,1-1,1C10.7,6.8,10.2,6.3,10.2,5.8z M18.3,3.5c0,0.6-0.5,1-1,1s-1-0.5-1-1s0.5-1,1-1S18.3,3,18.3,3.5z"/>
</g>
</svg>
