<?xml version="1.0" encoding="utf-8"?>
<!-- Generator: Adobe Illustrator 18.0.0, SVG Export Plug-In . SVG Version: 6.00 Build 0)  -->
<!DOCTYPE svg PUBLIC "-//W3C//DTD SVG 1.1//EN" "http://www.w3.org/Graphics/SVG/1.1/DTD/svg11.dtd">
<svg version="1.1" id="Layer_1" xmlns="http://www.w3.org/2000/svg" xmlns:xlink="http://www.w3.org/1999/xlink" x="0px" y="0px"
	 width="70.1px" height="53.7px" viewBox="0 0 70.1 53.7" enable-background="new 0 0 70.1 53.7" xml:space="preserve">
<g>
	<path fill="none" d="M30,43.5h11c2.2,0,3.9,1.7,4.1,3.8H66l-6.7-6.4c-0.3,0.1-0.5,0.1-0.8,0.1H11.7c-0.4,0-0.8-0.1-1.1-0.1L4,47.3
		h21.9C26.1,45.2,27.9,43.5,30,43.5z"/>
	<path fill="none" d="M11.7,38.9h46.9c1.2,0,2.1-1,2.1-2.1V7.9H9.6v28.9C9.6,38,10.5,38.9,11.7,38.9z"/>
	<path fill="none" d="M60.7,4.1c0-1.2-1-2.1-2.1-2.1H11.7c-1.2,0-2.1,1-2.1,2.1v1.8h51.1V4.1z"/>
	<path fill="none" d="M4.9,51.7h60.3c1.4,0,2.6-1,2.8-2.4H2C2.3,50.7,3.4,51.7,4.9,51.7z"/>
	<path fill="none" d="M30,45.5c-1.1,0-1.9,0.8-2.1,1.8h15.2c-0.2-1-1-1.8-2.1-1.8H30z"/>
	<path fill="#2D50C6" d="M61.3,39.9c0.9-0.8,1.4-1.9,1.4-3.1V4.1c0-2.3-1.9-4.1-4.1-4.1H11.7C9.4,0,7.6,1.9,7.6,4.1v32.7
		C7.6,38,8,39,8.8,39.8L0,48.4v0.4c0,2.7,2.2,4.9,4.9,4.9h60.3c2.7,0,4.9-2.2,4.9-4.9v-0.4L61.3,39.9z M9.6,4.1c0-1.2,1-2.1,2.1-2.1
		h46.9c1.2,0,2.1,1,2.1,2.1v1.8H9.6V4.1z M9.6,7.9h51.1v28.9c0,1.2-1,2.1-2.1,2.1H11.7c-1.2,0-2.1-1-2.1-2.1
		C9.6,36.8,9.6,7.9,9.6,7.9z M10.6,40.8c0.4,0.1,0.7,0.1,1.1,0.1h46.9c0.3,0,0.5,0,0.8-0.1l6.7,6.4H45.1c-0.2-2.1-2-3.8-4.1-3.8H30
		c-2.2,0-3.9,1.7-4.1,3.8H4L10.6,40.8z M43.1,47.3H27.9c0.2-1,1-1.8,2.1-1.8h11C42.1,45.5,42.9,46.3,43.1,47.3z M65.2,51.7H4.9
		c-1.4,0-2.6-1-2.8-2.4h66C67.8,50.7,66.6,51.7,65.2,51.7z"/>
</g>
</svg>
