<?xml version="1.0" encoding="utf-8"?>
<!-- Generator: Adobe Illustrator 18.0.0, SVG Export Plug-In . SVG Version: 6.00 Build 0)  -->
<!DOCTYPE svg PUBLIC "-//W3C//DTD SVG 1.1//EN" "http://www.w3.org/Graphics/SVG/1.1/DTD/svg11.dtd">
<svg version="1.1" id="Layer_1" xmlns="http://www.w3.org/2000/svg" xmlns:xlink="http://www.w3.org/1999/xlink" x="0px" y="0px"
	 width="23.7px" height="18.2px" viewBox="0 0 23.7 18.2" enable-background="new 0 0 23.7 18.2" xml:space="preserve">
<g>
	<path fill="none" d="M13.8,15.5h-3.7c-0.2,0-0.4,0.1-0.5,0.3h4.7C14.3,15.6,14.1,15.5,13.8,15.5z"/>
	<path fill="none" d="M19.7,13.9H4c-0.1,0-0.2,0-0.3,0l-1.9,1.9h6.9c0.1-0.7,0.8-1.3,1.5-1.3h3.7c0.7,0,1.4,0.5,1.5,1.3h6.6l-2-1.9
		C19.8,13.9,19.8,13.9,19.7,13.9z"/>
	<path fill="none" d="M22.7,16.7H1c0.1,0.3,0.4,0.6,0.8,0.6h20.2C22.3,17.3,22.6,17,22.7,16.7z"/>
	<path fill="none" d="M20.3,2.9H3.4v9.5C3.4,12.7,3.7,13,4,13h15.7c0.3,0,0.6-0.3,0.6-0.6V2.9z"/>
	<path fill="none" d="M20.3,1.5c0-0.3-0.3-0.6-0.6-0.6H4c-0.3,0-0.6,0.3-0.6,0.6V2h16.8V1.5z"/>
	<path fill="#2D50C6" d="M20.8,13.5c0.3-0.3,0.4-0.7,0.4-1V1.5c0-0.8-0.7-1.5-1.5-1.5H4C3.2,0,2.5,0.7,2.5,1.5v10.9
		c0,0.4,0.1,0.7,0.4,1L0,16.2l0,0v0.2c0,1,0.8,1.8,1.8,1.8h20.2c1,0,1.7-0.8,1.7-1.8v-0.2L20.8,13.5z M1,16.7h21.7
		c-0.1,0.3-0.4,0.6-0.8,0.6H1.8C1.4,17.3,1.1,17,1,16.7z M10.2,15.5h3.7c0.2,0,0.4,0.1,0.5,0.3H9.6C9.7,15.6,9.9,15.5,10.2,15.5z
		 M15.3,15.8c-0.1-0.7-0.8-1.3-1.5-1.3h-3.7c-0.7,0-1.4,0.5-1.5,1.3H1.8l1.9-1.9c0.1,0,0.2,0,0.3,0h15.7c0.1,0,0.2,0,0.2,0l2,1.9
		H15.3z M19.7,13H4c-0.3,0-0.6-0.3-0.6-0.6V2.9h16.8v9.5C20.3,12.7,20,13,19.7,13z M3.4,1.5c0-0.3,0.3-0.6,0.6-0.6h15.7
		c0.3,0,0.6,0.3,0.6,0.6V2H3.4V1.5z"/>
</g>
</svg>
