<?xml version="1.0" encoding="utf-8"?>
<!-- Generator: Adobe Illustrator 18.0.0, SVG Export Plug-In . SVG Version: 6.00 Build 0)  -->
<!DOCTYPE svg PUBLIC "-//W3C//DTD SVG 1.1//EN" "http://www.w3.org/Graphics/SVG/1.1/DTD/svg11.dtd">
<svg version="1.1" id="Layer_1" xmlns="http://www.w3.org/2000/svg" xmlns:xlink="http://www.w3.org/1999/xlink" x="0px" y="0px"
	 width="66.3px" height="66.3px" viewBox="0 0 66.3 66.3" enable-background="new 0 0 66.3 66.3" xml:space="preserve">
<g>
	<path fill="none" d="M30.6,35.1c-3.7,0.9-6.5,4.8-7.1,9.8l10.8-10.8c-0.1-0.2-0.2-0.5-0.2-0.9c0-1,0.7-1.7,1.2-1.9
		c0.1,0,0.1,0,0.2-0.1c4-1.1,7-5.7,7.4-10.9H23.4c0.4,5.1,3.4,9.7,7.3,10.8c0.6,0.2,1.6,0.8,1.6,2C32.3,34.3,31.4,35,30.6,35.1z"/>
	<path fill="none" d="M36,35.2L25.2,46h17.6C42.5,40.7,39.8,36.3,36,35.2z"/>
	<path fill="none" d="M19,49.4c-0.5,0-0.9-0.5-0.9-1c0-0.6,0.4-1,1-1H21l0.4-0.4c0-6.8,3.7-12.6,8.8-13.8c0,0,0,0,0,0
		c0,0-0.1,0-0.1,0c-5-1.5-8.7-7.2-8.8-13.6h-2.3c-0.6,0-1-0.4-1-1s0.4-1,1-1h27.1c0.6,0,1,0.4,1,1s-0.4,1-1,1h-1.4
		c0,1.7-0.3,3.3-0.7,4.8l12.1-12.1C50.5,5.9,42.3,2,33.1,2C16,2,2,16,2,33.1c0,9.1,3.9,17.3,10.2,23L19,49.4z"/>
	<path fill="none" d="M57.5,13.7L37.5,33.7c4.3,1.9,7.3,7.2,7.3,13.4c0,0.1,0,0.2-0.1,0.3h1.5c0.6,0,1,0.4,1,1s-0.4,1-1,1H21.8
		l-8.1,8.1c5.3,4.3,12.1,6.8,19.4,6.8c17.2,0,31.1-14,31.1-31.1C64.3,25.8,61.7,19.1,57.5,13.7z"/>
	<path fill="#2D50C6" d="M33.1,0C14.9,0,0,14.9,0,33.1s14.9,33.1,33.1,33.1s33.1-14.9,33.1-33.1S51.4,0,33.1,0z M2,33.1
		C2,16,16,2,33.1,2c9.1,0,17.3,3.9,23,10.2L44.1,24.3c0.4-1.5,0.7-3.1,0.7-4.8h1.4c0.6,0,1-0.4,1-1s-0.4-1-1-1H19.1
		c-0.6,0-1,0.4-1,1s0.4,1,1,1h2.3c0.1,6.4,3.7,12.1,8.8,13.6c0,0,0.1,0,0.1,0c0,0,0,0,0,0c-5.1,1.2-8.8,7.1-8.8,13.8L21,47.4h-1.9
		c-0.6,0-1,0.4-1,1c0,0.5,0.4,0.9,0.9,1l-6.8,6.8C5.9,50.5,2,42.3,2,33.1z M30.7,31.2c-3.9-1.2-6.9-5.7-7.3-10.8h19.4
		c-0.3,5.2-3.4,9.8-7.4,10.9c-0.1,0-0.1,0-0.2,0.1c-0.4,0.2-1.2,0.8-1.2,1.9c0,0.3,0.1,0.6,0.2,0.9L23.5,44.9
		c0.6-4.9,3.4-8.9,7.1-9.8c0.8-0.2,1.7-0.9,1.7-1.9C32.3,32,31.3,31.4,30.7,31.2z M36,35.2c3.8,1.1,6.5,5.5,6.8,10.8H25.2L36,35.2z
		 M33.1,64.3c-7.3,0-14.1-2.6-19.4-6.8l8.1-8.1h24.4c0.6,0,1-0.4,1-1s-0.4-1-1-1h-1.5c0-0.1,0.1-0.2,0.1-0.3c0-6.2-3-11.5-7.3-13.4
		l19.9-19.9c4.3,5.3,6.8,12.1,6.8,19.4C64.3,50.3,50.3,64.3,33.1,64.3z"/>
</g>
</svg>
