<?xml version="1.0" encoding="utf-8"?>
<!-- Generator: Adobe Illustrator 18.0.0, SVG Export Plug-In . SVG Version: 6.00 Build 0)  -->
<!DOCTYPE svg PUBLIC "-//W3C//DTD SVG 1.1//EN" "http://www.w3.org/Graphics/SVG/1.1/DTD/svg11.dtd">
<svg version="1.1" id="Layer_1" xmlns="http://www.w3.org/2000/svg" xmlns:xlink="http://www.w3.org/1999/xlink" x="0px" y="0px"
	 width="23.3px" height="23.3px" viewBox="-0.1 -0.1 23.3 23.3" enable-background="new -0.1 -0.1 23.3 23.3" xml:space="preserve">
<g>
	<path fill="none" d="M0.8,11.5c0,2.5,0.9,4.9,2.5,6.8c0.3,0.4,0.6,0.7,0.9,1l2.1-2.1c-0.1-0.1-0.2-0.2-0.2-0.4
		c0-0.3,0.2-0.5,0.5-0.5h0.6l0.1,0c0-2.2,1.2-4.2,2.8-4.8c-0.3-0.1-0.6-0.3-0.9-0.5c-1.1-0.9-1.9-2.4-2-4.1H6.6
		c-0.3,0-0.5-0.2-0.5-0.5S6.4,6,6.6,6h9.4c0.3,0,0.5,0.2,0.5,0.5l0,0l0,0c0,0.3-0.2,0.5-0.5,0.5h0h-0.4c0,0.4-0.1,0.7-0.1,1.1
		l3.8-3.8c-2-2.2-4.9-3.4-7.8-3.4C5.6,0.8,0.8,5.6,0.8,11.5z"/>
	<path fill="none" d="M14.7,15.9c-0.1-1.1-0.5-2-1-2.7c-0.3-0.4-0.7-0.7-1.2-0.8L9,15.9H14.7z"/>
	<path fill="none" d="M8.4,7.8c0.3,1.4,1.2,2.6,2.3,2.9c0.1,0,0.4,0.2,0.5,0.4c0,0,0.1,0.1,0.1,0.1c0,0.1,0.1,0.2,0.1,0.3
		c0,0.4-0.4,0.7-0.7,0.8c-0.3,0.1-0.5,0.2-0.8,0.4c-0.7,0.5-1.3,1.4-1.5,2.5l3.4-3.4c0-0.1-0.1-0.2-0.1-0.3c0-0.4,0.3-0.7,0.5-0.8
		c0,0,0.1,0,0.1,0c1.1-0.3,2-1.5,2.4-2.9c0-0.2,0.1-0.4,0.1-0.6H8.3C8.3,7.4,8.3,7.6,8.4,7.8z"/>
	<path fill="none" d="M15.7,21.4c3.8-1.6,6.5-5.4,6.5-9.9c0-1.8-0.4-3.5-1.3-5.1c-0.3-0.5-0.6-1-1-1.5l-6.7,6.7
		c1.3,0.6,2.2,2.1,2.4,3.9c0,0.3,0,0.5,0,0.8h0.4c0.3,0,0.5,0.2,0.5,0.5c0,0.3-0.2,0.5-0.5,0.5H7.6L5,20c1.9,1.5,4.2,2.3,6.6,2.3
		C13,22.2,14.4,21.9,15.7,21.4z"/>
	<path fill="#2D50C6" d="M11.5-0.1C5.1-0.1-0.1,5.1-0.1,11.5s5.2,11.6,11.6,11.6s11.6-5.2,11.6-11.6S17.9-0.1,11.5-0.1z M13.7,13.2
		c0.6,0.7,0.9,1.6,1,2.7H9l3.5-3.5C13,12.5,13.4,12.8,13.7,13.2z M14.6,7.8c-0.3,1.4-1.2,2.6-2.4,2.9c0,0-0.1,0-0.1,0
		c-0.2,0.1-0.5,0.3-0.5,0.8c0,0.1,0,0.2,0.1,0.3l-3.4,3.4c0.2-1.1,0.8-2,1.5-2.5c0.2-0.2,0.5-0.3,0.8-0.4c0.3-0.1,0.7-0.4,0.7-0.8
		c0-0.1,0-0.2-0.1-0.3c0-0.1-0.1-0.1-0.1-0.1c-0.1-0.2-0.3-0.3-0.5-0.4c-1.1-0.3-2-1.5-2.3-2.9c0-0.2-0.1-0.4-0.1-0.6h6.5
		C14.7,7.4,14.7,7.6,14.6,7.8z M15.6,8c0.1-0.4,0.1-0.7,0.1-1.1h0.4h0c0.3,0,0.5-0.2,0.5-0.5l0,0l0,0c0-0.3-0.2-0.5-0.5-0.5H6.6
		C6.4,6,6.2,6.2,6.2,6.4s0.2,0.5,0.5,0.5h0.7c0,1.7,0.8,3.2,2,4.1c0.3,0.2,0.5,0.4,0.9,0.5c-1.6,0.6-2.8,2.5-2.8,4.8l-0.1,0H6.6
		c-0.3,0-0.5,0.2-0.5,0.5c0,0.2,0.1,0.3,0.2,0.4l-2.1,2.1c-0.3-0.3-0.7-0.7-0.9-1c-1.6-1.9-2.5-4.3-2.5-6.8
		c0-5.9,4.8-10.7,10.7-10.7c3,0,5.8,1.2,7.8,3.4L15.6,8z M7.6,17.3h8.4c0.3,0,0.5-0.2,0.5-0.5c0-0.3-0.2-0.5-0.5-0.5h-0.4
		c0-0.3,0-0.5,0-0.8c-0.2-1.8-1.1-3.3-2.4-3.9L20,5c0.4,0.5,0.7,1,1,1.5c0.8,1.5,1.3,3.3,1.3,5.1c0,4.4-2.7,8.2-6.5,9.9
		c-1.3,0.5-2.7,0.8-4.2,0.8c-2.4,0-4.7-0.8-6.6-2.3L7.6,17.3z"/>
</g>
</svg>
