<?xml version="1.0" encoding="utf-8"?>
<!-- Generator: Adobe Illustrator 18.0.0, SVG Export Plug-In . SVG Version: 6.00 Build 0)  -->
<!DOCTYPE svg PUBLIC "-//W3C//DTD SVG 1.1//EN" "http://www.w3.org/Graphics/SVG/1.1/DTD/svg11.dtd">
<svg version="1.1" id="Layer_1" xmlns="http://www.w3.org/2000/svg" xmlns:xlink="http://www.w3.org/1999/xlink" x="0px" y="0px"
	 width="23px" height="23px" viewBox="0.3 0.3 23 23" enable-background="new 0.3 0.3 23 23" xml:space="preserve">
<g>
	<path fill="none" d="M15.3,10.9c0.2-0.4,0.3-0.8,0.4-1.2c-0.4-0.1-0.8-0.3-1.3-0.4c0.2,0.2,0.3,0.5,0.5,0.7
		C15,10.4,15.2,10.6,15.3,10.9z"/>
	<path fill="none" d="M14.8,12c-0.2-0.5-0.5-1-0.7-1.4c-0.3-0.5-0.6-1-1-1.4c-0.5-0.1-1-0.1-1.5-0.1c-0.5,0-1,0-1.5,0.1
		c-0.3,0.4-0.7,0.8-1,1.3c-0.3,0.5-0.6,0.9-0.8,1.4c0.2,0.6,0.5,1.1,0.9,1.7c0.2,0.4,0.5,0.8,0.8,1.2c0.5,0.1,1,0.1,1.6,0.1
		c0.5,0,1.1,0,1.6-0.1c0.3-0.3,0.5-0.7,0.8-1C14.2,13.1,14.5,12.6,14.8,12z M11.5,13.7c-0.9,0-1.7-0.7-1.7-1.7s0.7-1.7,1.7-1.7
		s1.7,0.7,1.7,1.7C13.2,12.9,12.4,13.7,11.5,13.7z"/>
	<path fill="none" d="M8.4,9.9c0.1-0.2,0.3-0.4,0.4-0.6C8.4,9.4,8,9.5,7.6,9.6c0.1,0.3,0.2,0.7,0.3,1C8,10.4,8.2,10.1,8.4,9.9z"/>
	<path fill="none" d="M8.7,14.5c-0.1-0.2-0.2-0.4-0.3-0.5c-0.2-0.3-0.4-0.7-0.6-1.1c-0.2,0.4-0.3,0.8-0.4,1.2
		C7.8,14.3,8.2,14.4,8.7,14.5z"/>
	<path fill="none" d="M14.6,14.2c-0.1,0.1-0.1,0.2-0.2,0.3c0.4-0.1,0.8-0.2,1.1-0.3c-0.1-0.3-0.2-0.7-0.3-1
		C15.1,13.5,14.8,13.8,14.6,14.2z"/>
	<path fill="none" d="M8.4,7.3c-0.3,0-0.5-0.1-0.7-0.2C7.5,7.6,7.5,8.1,7.5,8.7c0.7-0.2,1.4-0.4,2.2-0.5C10.1,7.8,10.5,7.4,11,7
		c-0.4-0.3-0.9-0.5-1.2-0.7c0,0.1-0.1,0.3-0.2,0.4c0,0,0,0,0,0C9.3,7.1,8.8,7.3,8.4,7.3z"/>
	<circle fill="none" cx="11.5" cy="12" r="0.7"/>
	<path fill="none" d="M18,12c0,0,0.1,0,0.1,0c0,0,0,0,0-0.1c0-0.6-0.6-1.3-1.6-1.8c-0.2,0.6-0.4,1.3-0.7,1.9
		c0.2,0.6,0.4,1.2,0.6,1.8c0.1,0,0.1-0.1,0.2-0.1c0-0.1,0-0.2,0-0.3C16.6,12.6,17.2,12,18,12z"/>
	<path fill="none" d="M12.3,8.1c-0.2-0.2-0.4-0.4-0.6-0.5c-0.2,0.1-0.4,0.3-0.5,0.5c0,0-0.1,0-0.1,0.1c0.1,0,0.3,0,0.4,0
		C11.8,8.1,12,8.1,12.3,8.1z"/>
	<path fill="none" d="M11.4,16.3c0.3-0.2,0.5-0.4,0.7-0.7c-0.5,0-0.9,0-1.4,0C11,15.9,11.2,16.1,11.4,16.3z"/>
	<path fill="none" d="M15.7,15.1c-0.7,0.2-1.4,0.4-2.2,0.5c-0.5,0.5-0.9,1-1.4,1.4c0.2,0.1,0.3,0.2,0.5,0.4c0.1,0,0.1,0.1,0.2,0.1
		c0.1,0.1,0.2,0.1,0.3,0.2c0.1,0,0.1,0.1,0.2,0.1c0.1,0.1,0.3,0.1,0.4,0.1c0.1,0,0.1,0,0.2,0c0.1,0,0.2,0,0.2,0c0.1,0,0.1,0,0.2,0
		c0.1,0,0.1,0,0.2,0c0.1,0,0.1,0,0.2,0c0.1,0,0.2-0.1,0.3-0.1C15.6,17.4,15.9,16.4,15.7,15.1z"/>
	<path fill="none" d="M4.9,11.9c0,0.6,0.5,1.1,1.3,1.6c0.1,0.1,0.2,0.1,0.4,0.2c0.2-0.6,0.5-1.3,0.8-2C7,11.1,6.9,10.5,6.7,9.9
		C5.6,10.5,4.9,11.2,4.9,11.9z"/>
	<path fill="none" d="M9.3,16.7c0.4,0,0.7,0.2,1,0.4c0.1-0.1,0.3-0.1,0.4-0.2c-0.4-0.4-0.8-0.9-1.2-1.4c-0.8-0.1-1.6-0.3-2.3-0.5
		c-0.2,1.2,0,2.1,0.6,2.5c0.1,0,0.1,0.1,0.2,0.1C8.2,17.1,8.7,16.7,9.3,16.7z"/>
	<path fill="none" d="M13.6,8.3c0.8,0.1,1.6,0.3,2.3,0.5c0.1-1.1-0.1-1.9-0.6-2.2c-0.6-0.4-1.6-0.2-2.8,0.5
		C12.9,7.4,13.2,7.8,13.6,8.3z"/>
	<path fill="none" d="M11.8,1.3C6,1.3,1.3,6,1.3,11.8c0,5.8,4.7,10.6,10.6,10.6c5.8,0,10.6-4.7,10.6-10.6C22.4,6,17.7,1.3,11.8,1.3z
		 M18.8,14.6C18.8,14.6,18.8,14.6,18.8,14.6c-0.1,0.1-0.2,0.1-0.2,0.1c0,0-0.1,0-0.1,0c-0.1,0-0.1,0-0.2,0.1c0,0,0,0,0,0
		c-0.1,0-0.2,0-0.3,0c-0.3,0-0.7-0.1-0.9-0.3c-0.2,0.1-0.3,0.2-0.5,0.2l0,0l0,0c0,0.1,0,0.1,0,0.2c0,0.1,0,0.3,0,0.4
		c0,0.1,0,0.1,0,0.2c0,0.1,0,0.3,0,0.4c0,0.1,0,0.1,0,0.2c0,0.1,0,0.3,0,0.4c0,0.1,0,0.1,0,0.2c0,0.1,0,0.2-0.1,0.3c0,0,0,0.1,0,0.1
		c0,0.1-0.1,0.2-0.1,0.4c0,0,0,0,0,0c-0.2,0.4-0.5,0.7-0.9,1c-0.3,0.2-0.7,0.3-1.1,0.3c-0.9,0-1.9-0.5-2.9-1.3l0,0l0,0l0,0l0,0
		c-0.2,0.2-0.4,0.3-0.7,0.4c0,0.1,0,0.1,0,0.2c0,0.8-0.6,1.4-1.4,1.4c-0.4,0-0.8-0.2-1-0.5c-0.1-0.2-0.3-0.3-0.3-0.5
		c-0.2-0.1-0.5-0.2-0.7-0.3c-0.2-0.1-0.4-0.3-0.5-0.5c0,0,0,0,0-0.1c-0.1-0.1-0.1-0.2-0.2-0.3c0,0,0,0,0-0.1
		c-0.3-0.7-0.4-1.6-0.2-2.6c-1.1-0.5-1.8-1.1-2.1-1.9c0,0,0-0.1-0.1-0.1c0,0,0,0,0,0c-0.1-0.2-0.2-0.5-0.2-0.8l0,0l0,0
		c0-1.1,1-2.2,2.6-2.9l0,0l0,0C6.5,7.9,6.6,7,7,6.3C6.9,6.2,6.9,6,6.9,5.9c0-0.8,0.6-1.4,1.4-1.4c0.6,0,1.1,0.3,1.3,0.9
		c0.2,0,0.3,0.1,0.5,0.2c0,0,0,0,0,0c0.2,0.1,0.3,0.1,0.5,0.2c0,0,0.1,0,0.1,0c0.1,0.1,0.3,0.2,0.4,0.3c0,0,0,0,0,0
		c0.2,0.1,0.3,0.2,0.5,0.4l0,0l0,0l0,0l0,0C11.9,6.3,12,6.3,12,6.2c0.1-0.1,0.2-0.1,0.3-0.2C12.5,6,12.6,6,12.7,5.9
		c0.1,0,0.2-0.1,0.2-0.1c0.1-0.1,0.2-0.1,0.4-0.1c0.1,0,0.1-0.1,0.2-0.1c0.1,0,0.3-0.1,0.4-0.1c0,0,0.1,0,0.1,0c0.1,0,0.2,0,0.4,0
		c0,0,0.1,0,0.1,0c0.1,0,0.2,0,0.3,0c0.1,0,0.1,0,0.2,0c0,0,0.1,0,0.1,0c0.3,0.1,0.5,0.2,0.7,0.3c0.9,0.6,1.2,1.8,1,3.4h0l0,0
		c1.5,0.7,2.3,1.7,2.3,2.7c0,0.1,0,0.3-0.1,0.4c0.3,0.3,0.5,0.6,0.5,1c0,0.1,0,0.1,0,0.2c0,0,0,0.1,0,0.1c0,0,0,0.1,0,0.1
		c0,0,0,0.1,0,0.1c0,0,0,0.1-0.1,0.1c0,0,0,0.1-0.1,0.1C19.1,14.3,19,14.5,18.8,14.6z"/>
	<path fill="#2D50C6" d="M11.5,10.4c-0.9,0-1.7,0.7-1.7,1.7s0.7,1.7,1.7,1.7s1.7-0.7,1.7-1.7C13.2,11.1,12.4,10.4,11.5,10.4z
		 M12.2,12c0,0.4-0.3,0.7-0.7,0.7s-0.7-0.3-0.7-0.7s0.3-0.7,0.7-0.7C11.9,11.3,12.2,11.6,12.2,12z"/>
	<path fill="#2D50C6" d="M11.8,0.3C5.5,0.3,0.3,5.5,0.3,11.8s5.2,11.5,11.5,11.5s11.5-5.2,11.5-11.5S18.2,0.3,11.8,0.3z M11.8,22.4
		C6,22.4,1.3,17.7,1.3,11.8C1.3,6,6,1.3,11.8,1.3c5.8,0,10.6,4.7,10.6,10.6C22.4,17.7,17.7,22.4,11.8,22.4z"/>
	<path fill="#2D50C6" d="M19.4,13.9c0,0,0-0.1,0-0.1c0,0,0-0.1,0-0.1c0,0,0-0.1,0-0.1c0-0.1,0-0.1,0-0.2c0-0.4-0.2-0.8-0.5-1
		c0-0.2,0.1-0.3,0.1-0.4c0-1.1-0.8-2-2.3-2.7l0,0h0c0.2-1.6-0.1-2.8-1-3.4c-0.2-0.1-0.5-0.2-0.7-0.3c0,0-0.1,0-0.1,0
		c-0.1,0-0.1,0-0.2,0c-0.1,0-0.2,0-0.3,0c0,0-0.1,0-0.1,0c-0.1,0-0.2,0-0.4,0c0,0-0.1,0-0.1,0c-0.1,0-0.3,0.1-0.4,0.1
		c-0.1,0-0.1,0-0.2,0.1c-0.1,0-0.2,0.1-0.4,0.1c-0.1,0-0.2,0.1-0.2,0.1c-0.1,0.1-0.2,0.1-0.3,0.2c-0.1,0.1-0.2,0.1-0.3,0.2
		c-0.1,0.1-0.2,0.1-0.3,0.2l0,0l0,0l0,0l0,0c-0.2-0.1-0.3-0.3-0.5-0.4c0,0,0,0,0,0c-0.1-0.1-0.3-0.2-0.4-0.3c0,0-0.1,0-0.1,0
		c-0.2-0.1-0.3-0.2-0.5-0.2c0,0,0,0,0,0C10,5.4,9.8,5.4,9.7,5.3C9.4,4.8,8.9,4.5,8.4,4.5c-0.8,0-1.4,0.6-1.4,1.4
		c0,0.1,0,0.3,0.1,0.4C6.6,7,6.5,7.9,6.6,9l0,0l0,0c-1.7,0.7-2.6,1.8-2.6,2.9l0,0l0,0c0,0.3,0.1,0.5,0.2,0.8c0,0,0,0,0,0
		c0,0,0,0.1,0.1,0.1c0.3,0.7,1.1,1.4,2.1,1.9c-0.2,1-0.1,1.9,0.2,2.6c0,0,0,0,0,0.1c0.1,0.1,0.1,0.2,0.2,0.3c0,0,0,0,0,0.1
		c0.1,0.2,0.3,0.4,0.5,0.5c0.2,0.1,0.4,0.2,0.7,0.3c0.1,0.2,0.2,0.4,0.3,0.5c0.3,0.3,0.6,0.5,1,0.5c0.8,0,1.4-0.6,1.4-1.4
		c0-0.1,0-0.1,0-0.2c0.2-0.1,0.5-0.3,0.7-0.4l0,0l0,0l0,0l0,0c1,0.8,2.1,1.3,2.9,1.3c0.4,0,0.8-0.1,1.1-0.3c0.4-0.2,0.6-0.5,0.9-1
		c0,0,0,0,0,0c0.1-0.1,0.1-0.2,0.1-0.4c0,0,0-0.1,0-0.1c0-0.1,0.1-0.2,0.1-0.3c0-0.1,0-0.1,0-0.2c0-0.1,0-0.2,0-0.4
		c0-0.1,0-0.1,0-0.2c0-0.1,0-0.3,0-0.4c0-0.1,0-0.1,0-0.2c0-0.1,0-0.3,0-0.4c0-0.1,0-0.1,0-0.2l0,0l0,0c0.2-0.1,0.3-0.2,0.5-0.2
		c0.3,0.2,0.6,0.3,0.9,0.3c0.1,0,0.2,0,0.3,0c0,0,0,0,0,0c0.1,0,0.1,0,0.2-0.1c0,0,0.1,0,0.1,0c0.1,0,0.1-0.1,0.2-0.1
		c0,0,0.1,0,0.1,0c0.2-0.1,0.3-0.2,0.4-0.4c0,0,0-0.1,0.1-0.1C19.3,14,19.3,14,19.4,13.9z M16.6,13.7c-0.1,0-0.1,0.1-0.2,0.1
		c-0.1-0.6-0.3-1.2-0.6-1.8c0.3-0.7,0.5-1.3,0.7-1.9c1,0.5,1.6,1.2,1.6,1.8c0,0,0,0,0,0.1c0,0-0.1,0-0.1,0c-0.8,0-1.4,0.6-1.4,1.4
		C16.6,13.5,16.6,13.6,16.6,13.7z M9.5,6.7c0.1-0.1,0.2-0.3,0.2-0.4C10.1,6.4,10.5,6.7,11,7c-0.4,0.4-0.9,0.8-1.3,1.2
		C8.9,8.3,8.2,8.5,7.5,8.7c0-0.6,0-1.1,0.1-1.5c0.2,0.1,0.5,0.2,0.7,0.2C8.8,7.3,9.3,7.1,9.5,6.7C9.5,6.7,9.5,6.7,9.5,6.7z
		 M11.2,8.1c0.2-0.2,0.4-0.3,0.5-0.5c0.2,0.2,0.4,0.4,0.6,0.5c-0.3,0-0.5,0-0.8,0C11.4,8.1,11.2,8.1,11.2,8.1
		C11.1,8.1,11.1,8.1,11.2,8.1z M11.5,14.8c-0.5,0-1.1,0-1.6-0.1c-0.3-0.4-0.6-0.8-0.8-1.2c-0.3-0.6-0.6-1.1-0.9-1.7
		c0.2-0.5,0.5-0.9,0.8-1.4c0.3-0.5,0.6-0.9,1-1.3c0.5,0,1-0.1,1.5-0.1c0.5,0,1,0,1.5,0.1c0.3,0.5,0.7,0.9,1,1.4
		c0.3,0.5,0.5,1,0.7,1.4c-0.3,0.6-0.6,1.1-1,1.6c-0.2,0.4-0.5,0.7-0.8,1C12.6,14.7,12,14.8,11.5,14.8z M15.7,9.7
		c-0.1,0.4-0.2,0.8-0.4,1.2c-0.1-0.3-0.3-0.5-0.4-0.8c-0.2-0.3-0.3-0.5-0.5-0.7C14.9,9.5,15.3,9.6,15.7,9.7z M8.8,9.3
		C8.7,9.5,8.5,9.7,8.4,9.9c-0.2,0.3-0.3,0.5-0.5,0.8c-0.1-0.4-0.2-0.7-0.3-1C8,9.5,8.4,9.4,8.8,9.3z M8.4,13.9
		c0.1,0.2,0.2,0.4,0.3,0.5c-0.5-0.1-0.9-0.2-1.3-0.4c0.1-0.4,0.3-0.8,0.4-1.2C8,13.2,8.2,13.6,8.4,13.9z M14.4,14.5
		c0.1-0.1,0.1-0.2,0.2-0.3c0.2-0.3,0.4-0.7,0.6-1c0.1,0.3,0.2,0.7,0.3,1C15.2,14.3,14.8,14.4,14.4,14.5z M12.2,15.7
		c-0.2,0.2-0.5,0.5-0.7,0.7c-0.2-0.2-0.4-0.4-0.7-0.7C11.2,15.7,11.7,15.7,12.2,15.7z M15.3,6.6c0.5,0.4,0.7,1.2,0.6,2.2
		c-0.7-0.2-1.4-0.4-2.3-0.5c-0.4-0.4-0.7-0.9-1.1-1.2C13.6,6.3,14.7,6.2,15.3,6.6z M6.5,13.7c-0.1-0.1-0.3-0.1-0.4-0.2
		c-0.8-0.5-1.3-1.1-1.3-1.6c0-0.7,0.7-1.4,1.9-2c0.1,0.6,0.3,1.2,0.5,1.8C7,12.4,6.7,13.1,6.5,13.7z M7.8,17.5
		C7.2,17.1,7,16.2,7.2,15c0.7,0.2,1.5,0.4,2.3,0.5c0.4,0.5,0.8,0.9,1.2,1.4c-0.1,0.1-0.2,0.1-0.4,0.2c-0.3-0.3-0.6-0.4-1-0.4
		c-0.6,0-1.1,0.4-1.3,0.9C7.9,17.6,7.8,17.5,7.8,17.5z M14.7,17.8c-0.1,0-0.1,0-0.2,0c-0.1,0-0.1,0-0.2,0c-0.1,0-0.1,0-0.2,0
		c-0.1,0-0.2,0-0.2,0c-0.1,0-0.1,0-0.2,0c-0.1,0-0.3-0.1-0.4-0.1c-0.1,0-0.1-0.1-0.2-0.1c-0.1,0-0.2-0.1-0.3-0.2
		c-0.1,0-0.1-0.1-0.2-0.1c-0.2-0.1-0.3-0.2-0.5-0.4c0.5-0.4,1-0.9,1.4-1.4c0.8-0.1,1.5-0.3,2.2-0.5c0.1,1.3-0.1,2.3-0.7,2.7
		C14.9,17.8,14.8,17.8,14.7,17.8z"/>
</g>
</svg>
