<?xml version="1.0" encoding="utf-8"?>
<!-- Generator: Adobe Illustrator 18.0.0, SVG Export Plug-In . SVG Version: 6.00 Build 0)  -->
<!DOCTYPE svg PUBLIC "-//W3C//DTD SVG 1.1//EN" "http://www.w3.org/Graphics/SVG/1.1/DTD/svg11.dtd">
<svg version="1.1" id="Layer_1" xmlns="http://www.w3.org/2000/svg" xmlns:xlink="http://www.w3.org/1999/xlink" x="0px" y="0px"
	 width="23px" height="23px" viewBox="0 0 23 23" enable-background="new 0 0 23 23" xml:space="preserve">
<g>
	<polygon fill="none" points="9.5,6.9 7.5,11.5 9.5,11.5 	"/>
	<ellipse fill="none" cx="14.8" cy="12.9" rx="1.6" ry="2.4"/>
	<path fill="none" d="M11.5,0.9C5.7,0.9,0.9,5.7,0.9,11.5s4.7,10.6,10.6,10.6s10.6-4.7,10.6-10.6C22.1,5.7,17.3,0.9,11.5,0.9z
		 M19.3,14.1L19.3,14.1L19.3,14.1c0.3,0,0.5,0.2,0.5,0.5c0,0.2,0,0.4-0.1,0.6v0.1c0,0.1-0.1,0.2-0.1,0.2l0,0
		c-0.1,0.2-0.3,0.3-0.5,0.5H19c-0.1,0-0.1,0.1-0.2,0.1s-0.1,0-0.2,0.1c-0.1,0-0.1,0-0.2,0s-0.2,0-0.3,0c0,0,0,0-0.1,0l0,0l0,0
		c-0.7,0-1.3-0.4-1.5-1c-0.5,0.6-1.1,1-1.8,1c-0.2,0-0.4,0-0.6-0.1c-0.4-0.1-0.8-0.4-1.1-0.7c-0.3,0.4-0.8,0.9-1.7,0.9l0,0l0,0
		c-0.9,0-1.9-0.7-1.9-1.7v-2.1H7.2l-0.9,2.1c-0.1,0.6-0.7,1.7-2.1,1.7l0,0l0,0c-0.9,0-1.9-0.7-1.9-1.7c0-0.3,0.2-0.5,0.5-0.5l0,0
		l0,0c0.3,0,0.5,0.2,0.5,0.5c0,0.4,0.6,0.8,1,0.8c1,0,1.2-0.9,1.2-1v-0.1l1-2.3c0,0,0-0.1,0.1-0.1l3.1-7.4c0,0,0-0.1,0.1-0.1
		C9.7,4.1,9.9,4.1,10,4.1c0,0,0,0,0.1,0l0,0c0.2,0.1,0.3,0.2,0.3,0.4v10c0,0.4,0.6,0.8,1,0.8c0.8,0,1.1-0.6,1.1-0.9
		c-0.2-0.5-0.3-1.1-0.3-1.6c0-1.9,1.1-3.4,2.5-3.4l0,0l0,0c0.6,0,1.2,0.3,1.6,0.8V9.7c0-0.3,0.2-0.5,0.5-0.5l0,0l0,0
		c0.3,0,0.5,0.2,0.5,0.5v4.9c0,0.4,0.4,0.7,0.8,0.7s0.8-0.4,0.8-0.8C18.9,14.3,19.1,14.1,19.3,14.1z"/>
	<path fill="#2D50C6" d="M18.1,15.3c-0.4,0-0.7-0.3-0.8-0.7V9.7c0-0.3-0.2-0.5-0.5-0.5l0,0l0,0c-0.3,0-0.5,0.2-0.5,0.5v0.5
		c-0.5-0.5-1-0.8-1.6-0.8l0,0l0,0c-1.4,0-2.5,1.5-2.5,3.4c0,0.6,0.1,1.1,0.3,1.6c-0.1,0.3-0.3,0.9-1.1,0.9c-0.4,0-1-0.4-1-0.8v-10
		c0-0.2-0.1-0.4-0.3-0.4l0,0c0,0,0,0-0.1,0c-0.2,0-0.3,0-0.4,0.2L9.5,4.4l-3.1,7.4c0,0,0,0.1-0.1,0.1l-1,2.3v0.1c0,0-0.2,1-1.2,1
		c-0.4,0-1-0.4-1-0.8c0-0.3-0.2-0.5-0.5-0.5l0,0l0,0c-0.3,0-0.5,0.2-0.5,0.5c0,1,1,1.7,1.9,1.7l0,0l0,0c1.4,0,2-1.1,2.1-1.7L7,12.4
		h2.3v2.1c0,1,1,1.7,1.9,1.7l0,0l0,0c0.9,0,1.5-0.5,1.7-0.9c0.3,0.3,0.7,0.6,1.1,0.7c0.2,0.1,0.4,0.1,0.6,0.1c0.7,0,1.3-0.3,1.8-1
		c0.3,0.6,0.9,1,1.5,1l0,0l0,0c0,0,0,0,0.1,0s0.2,0,0.3,0c0.1,0,0.1,0,0.2,0s0.1,0,0.2-0.1c0.1,0,0.1-0.1,0.2-0.1H19
		c0.2-0.1,0.3-0.3,0.5-0.5l0,0c0-0.1,0.1-0.2,0.1-0.2v-0.1c0.1-0.2,0.1-0.4,0.1-0.6c0-0.3-0.2-0.5-0.5-0.5l0,0l0,0
		c-0.3,0-0.5,0.2-0.5,0.5C18.9,15,18.5,15.3,18.1,15.3z M9.5,6.9v4.7h-2L9.5,6.9z M16.4,12.9c0,1.3-0.7,2.4-1.6,2.4
		c-0.9,0-1.6-1.1-1.6-2.4s0.7-2.4,1.6-2.4C15.7,10.4,16.4,11.5,16.4,12.9z"/>
	<path fill="#2D50C6" d="M11.5,0C5.2,0,0,5.2,0,11.5S5.2,23,11.5,23S23,17.8,23,11.5S17.8,0,11.5,0z M22.1,11.5
		c0,5.8-4.7,10.6-10.6,10.6S0.9,17.3,0.9,11.5S5.7,0.9,11.5,0.9S22.1,5.7,22.1,11.5z"/>
</g>
</svg>
