<?xml version="1.0" encoding="utf-8"?>
<!-- Generator: Adobe Illustrator 18.0.0, SVG Export Plug-In . SVG Version: 6.00 Build 0)  -->
<!DOCTYPE svg PUBLIC "-//W3C//DTD SVG 1.1//EN" "http://www.w3.org/Graphics/SVG/1.1/DTD/svg11.dtd">
<svg version="1.1" id="Layer_1" xmlns="http://www.w3.org/2000/svg" xmlns:xlink="http://www.w3.org/1999/xlink" x="0px" y="0px"
	 width="66.3px" height="66.3px" viewBox="0 0.5 66.3 66.3" enable-background="new 0 0.5 66.3 66.3" xml:space="preserve">
<g>
	<circle fill="none" cx="32.2" cy="34.1" r="2.5"/>
	<path fill="none" d="M43.2,36.6c-0.7,1.2-1.4,2.4-2.2,3.6c-0.4,0.5-0.8,1.1-1.1,1.6c1.6-0.3,3.2-0.7,4.6-1.2
		C44.1,39.3,43.7,37.9,43.2,36.6z"/>
	<path fill="none" d="M39.8,25.8c0.6,0.9,1.3,1.9,1.8,2.9c0.6,1,1.1,2,1.6,3c0.6-1.5,1.1-3.1,1.5-4.5C43.3,26.7,41.6,26.2,39.8,25.8
		z"/>
	<path fill="none" d="M32.2,23.1c1,0,2.1,0,3.1,0.1c-0.8-0.9-1.6-1.7-2.4-2.4c-0.9,0.7-1.8,1.5-2.7,2.4
		C30.8,23.2,31.5,23.1,32.2,23.1z"/>
	<path fill="none" d="M23,20.1c-0.8,0-1.6-0.3-2.3-0.7c-0.6,1.4-0.8,3.3-0.6,5.5c2.1-0.7,4.4-1.2,6.9-1.4c1.3-1.5,2.7-2.8,4.2-3.9
		c-1.6-1.2-3.1-2-4.5-2.4C26.4,18.8,24.9,20.1,23,20.1z"/>
	<path fill="none" d="M38.1,23.5c2.5,0.3,4.9,0.9,7.1,1.7c0.5-3.5-0.2-6.1-1.9-7.3c-1.9-1.3-5.2-0.7-8.8,1.7
		C35.7,20.8,36.9,22.1,38.1,23.5z"/>
	<path fill="none" d="M23.4,28.1c0.6-0.8,1.1-1.6,1.7-2.4c-1.6,0.3-3.2,0.7-4.6,1.2c0.2,1.3,0.6,2.7,1.1,4.1
		C22.1,30,22.7,29.1,23.4,28.1z"/>
	<path fill="none" d="M24.7,41.8c-0.5-0.7-1-1.5-1.4-2.3c-0.7-1.2-1.4-2.5-2-3.7c-0.7,1.6-1.3,3.2-1.6,4.6
		C21.2,41,22.9,41.5,24.7,41.8z"/>
	<path fill="none" d="M27.5,42.2c3.1,0.3,6.4,0.3,9.5,0c0.8-1,1.6-2.1,2.4-3.2c1.1-1.6,2.1-3.3,2.9-4.9c-0.7-1.5-1.4-2.9-2.3-4.4
		c-0.9-1.5-1.9-3-2.9-4.3c-2.9-0.3-6.1-0.4-9-0.1c-1.1,1.2-2.1,2.5-3,3.9c-0.9,1.4-1.8,2.8-2.5,4.2c0.7,1.7,1.6,3.4,2.6,5.1
		C25.8,39.8,26.6,41.1,27.5,42.2z M32.2,29.6c2.5,0,4.5,2,4.5,4.5s-2,4.5-4.5,4.5s-4.5-2-4.5-4.5S29.7,29.6,32.2,29.6z"/>
	<path fill="none" d="M33.1,2.5C16,2.5,2,16.4,2,33.6s14,31.1,31.1,31.1c17.2,0,31.1-14,31.1-31.1C64.3,16.4,50.3,2.5,33.1,2.5z
		 M51.2,42c-1,0-2-0.4-2.7-1.1c-0.6,0.3-1.2,0.6-1.8,0.9l0,0l0,0c0.8,5.3-0.3,9.3-3.1,11c-0.9,0.5-2,0.8-3.1,0.8
		c-2.5,0-5.6-1.4-8.6-3.8l0,0l0,0c-0.8,0.6-1.6,1.1-2.4,1.5c0,0.2,0.1,0.5,0.1,0.7c0,2.1-1.7,3.8-3.8,3.8c-1.8,0-3.3-1.3-3.7-2.9
		c-0.7-0.2-1.4-0.4-2-0.9c-2.5-1.7-3.5-5.5-2.5-10.3l0,0l0,0c-4.4-2-6.9-4.8-6.9-7.8c0-3.2,2.8-6.2,7.7-8.2l0,0l0,0
		c-0.4-3.3,0-6,1.2-7.9c-0.2-0.4-0.3-0.9-0.3-1.3c0-2.1,1.7-3.8,3.8-3.8c1.6,0,3,1,3.6,2.5c2,0.5,4.1,1.6,6.3,3.3l0,0l0,0
		c4.5-3.1,8.8-3.9,11.5-2c2.5,1.7,3.4,5.1,2.7,9.7l0,0l0,0c4.4,2,6.7,4.8,6.7,7.8c0,0.5-0.1,1-0.2,1.4c0.8,0.7,1.4,1.7,1.4,2.9
		C55,40.3,53.3,42,51.2,42z"/>
	<path fill="none" d="M37.9,44.1c-1.4,1.7-3,3.2-4.5,4.4c3.6,2.8,7,3.8,9,2.6c2-1.2,2.8-4.3,2.2-8.5C42.7,43.2,40.4,43.8,37.9,44.1z
		"/>
	<path fill="none" d="M47.3,38.1c0-2.1,1.7-3.8,3.8-3.8c0.2,0,0.4,0,0.6,0.1c0-0.2,0.1-0.4,0.1-0.6c0-2.1-1.9-4.2-5.2-5.8
		c-0.5,2-1.2,4-2.2,6.2c0.8,1.9,1.4,3.8,1.8,5.6c0.4-0.2,0.9-0.4,1.2-0.6C47.4,38.8,47.3,38.5,47.3,38.1z"/>
	<path fill="none" d="M18.6,27.6c-3.8,1.6-6.1,3.9-6.1,6.2c0,2.1,1.9,4.2,5.3,5.9c0.6-2,1.4-4.2,2.4-6.3
		C19.5,31.4,18.9,29.5,18.6,27.6z"/>
	<path fill="none" d="M26.4,44.1c-2.6-0.3-5-0.9-7.1-1.7c-0.7,3.8,0,6.7,1.8,7.9c0.3,0.2,0.6,0.3,1,0.5c0.5-1.5,1.9-2.7,3.6-2.7
		c1.1,0,2.2,0.5,2.9,1.3c0.6-0.3,1.1-0.6,1.7-1C28.9,47.1,27.6,45.7,26.4,44.1z"/>
	<path fill="none" d="M29.2,44.4c0.9,1,1.8,2,2.7,2.8c1-0.8,2.1-1.8,3.1-2.8C33.1,44.5,31.1,44.5,29.2,44.4z"/>
	<path fill="#2D50C6" d="M32.2,38.6c2.5,0,4.5-2,4.5-4.5s-2-4.5-4.5-4.5s-4.5,2-4.5,4.5S29.7,38.6,32.2,38.6z M32.2,31.6
		c1.4,0,2.5,1.1,2.5,2.5s-1.1,2.5-2.5,2.5s-2.5-1.1-2.5-2.5S30.8,31.6,32.2,31.6z"/>
	<path fill="#2D50C6" d="M33.1,0.5C14.9,0.5,0,15.3,0,33.6c0,18.3,14.9,33.1,33.1,33.1s33.1-14.9,33.1-33.1
		C66.3,15.3,51.4,0.5,33.1,0.5z M33.1,64.8C16,64.8,2,50.8,2,33.6S16,2.5,33.1,2.5c17.2,0,31.1,14,31.1,31.1
		C64.3,50.8,50.3,64.8,33.1,64.8z"/>
	<path fill="#2D50C6" d="M53.6,35.2c0.1-0.5,0.2-0.9,0.2-1.4c0-3-2.4-5.8-6.7-7.8l0,0l0,0c0.7-4.6-0.2-8-2.7-9.7
		c-2.7-1.9-7-1.1-11.5,2l0,0l0,0c-2.2-1.7-4.3-2.9-6.3-3.3c-0.6-1.4-1.9-2.5-3.6-2.5c-2.1,0-3.8,1.7-3.8,3.8c0,0.5,0.1,0.9,0.3,1.3
		c-1.1,1.9-1.6,4.6-1.2,7.9l0,0l0,0c-4.9,2-7.7,5-7.7,8.2c0,3,2.5,5.9,6.9,7.8l0,0l0,0c-0.9,4.9,0,8.6,2.5,10.3
		c0.6,0.4,1.3,0.7,2,0.9c0.4,1.7,1.9,2.9,3.7,2.9c2.1,0,3.8-1.7,3.8-3.8c0-0.2,0-0.5-0.1-0.7c0.8-0.4,1.6-0.9,2.4-1.5l0,0l0,0
		c3,2.5,6.1,3.8,8.6,3.8c1.1,0,2.2-0.3,3.1-0.8c2.8-1.7,4-5.6,3.1-11l0,0l0,0c0.7-0.3,1.3-0.6,1.8-0.9c0.7,0.7,1.6,1.1,2.7,1.1
		c2.1,0,3.8-1.7,3.8-3.8C55,37,54.5,35.9,53.6,35.2z M43.3,17.9c1.7,1.2,2.4,3.8,1.9,7.3c-2.1-0.8-4.5-1.3-7.1-1.7
		c-1.2-1.5-2.4-2.8-3.7-3.9C38.1,17.3,41.4,16.6,43.3,17.9z M21.3,35.8c0.6,1.3,1.3,2.5,2,3.7c0.5,0.8,0.9,1.5,1.4,2.3
		c-1.8-0.3-3.5-0.8-5-1.4C20.1,39,20.6,37.4,21.3,35.8z M20.5,26.9c1.4-0.5,3-0.9,4.6-1.2c-0.6,0.8-1.2,1.6-1.7,2.4
		c-0.6,0.9-1.3,1.9-1.8,2.9C21.1,29.6,20.7,28.2,20.5,26.9z M22.5,33.4c0.8-1.4,1.6-2.8,2.5-4.2c0.9-1.4,2-2.7,3-3.9
		c3-0.3,6.1-0.3,9,0.1c1,1.3,2,2.8,2.9,4.3c0.8,1.4,1.6,2.9,2.3,4.4c-0.8,1.7-1.8,3.3-2.9,4.9c-0.8,1.1-1.6,2.2-2.4,3.2
		c-3.1,0.3-6.4,0.3-9.5,0c-0.9-1.2-1.7-2.4-2.4-3.7C24,36.9,23.2,35.2,22.5,33.4z M41,40.2c0.8-1.2,1.6-2.4,2.2-3.6
		c0.5,1.4,0.9,2.7,1.2,4c-1.4,0.5-2.9,0.9-4.6,1.2C40.2,41.2,40.6,40.7,41,40.2z M43.3,31.7c-0.5-1-1-2-1.6-3
		c-0.6-1-1.2-1.9-1.8-2.9c1.8,0.3,3.5,0.8,5,1.4C44.5,28.7,44,30.2,43.3,31.7z M35.2,23.2c-1-0.1-2-0.1-3.1-0.1c-0.7,0-1.4,0-2.1,0
		c0.9-0.9,1.8-1.7,2.7-2.4C33.6,21.5,34.4,22.4,35.2,23.2z M27.1,23.4c-2.5,0.3-4.8,0.8-6.9,1.4c-0.2-2.2,0-4.1,0.6-5.5
		c0.6,0.5,1.4,0.7,2.3,0.7c1.9,0,3.4-1.3,3.8-3.1c1.4,0.4,2.9,1.3,4.5,2.4C29.8,20.6,28.4,21.9,27.1,23.4z M12.5,33.8
		c0-2.3,2.2-4.5,6.1-6.2c0.4,1.8,0.9,3.8,1.7,5.7c-1.1,2.2-1.9,4.3-2.4,6.3C14.4,38,12.5,35.9,12.5,33.8z M28.5,49.5
		c-0.7-0.8-1.7-1.3-2.9-1.3c-1.7,0-3.1,1.1-3.6,2.7c-0.4-0.1-0.7-0.3-1-0.5c-1.8-1.2-2.4-4.1-1.8-7.9c2.1,0.8,4.6,1.3,7.1,1.7
		c1.2,1.6,2.5,3.1,3.9,4.3C29.7,48.8,29.1,49.1,28.5,49.5z M29.2,44.4c1.9,0.1,3.9,0.1,5.8,0c-1,1-2,2-3.1,2.8
		C31,46.3,30.1,45.4,29.2,44.4z M42.5,51.1c-2.1,1.2-5.5,0.2-9-2.6c1.5-1.3,3.1-2.8,4.5-4.4c2.4-0.3,4.7-0.9,6.8-1.6
		C45.3,46.8,44.5,49.9,42.5,51.1z M46.2,39.8c-0.4-1.8-1-3.7-1.8-5.6c1-2.1,1.7-4.2,2.2-6.2c3.3,1.6,5.2,3.7,5.2,5.8
		c0,0.2,0,0.4-0.1,0.6c-0.2,0-0.4-0.1-0.6-0.1c-2.1,0-3.8,1.7-3.8,3.8c0,0.4,0.1,0.7,0.2,1C47.1,39.4,46.7,39.6,46.2,39.8z"/>
</g>
</svg>
