<?xml version="1.0" encoding="utf-8"?>
<!-- Generator: Adobe Illustrator 18.0.0, SVG Export Plug-In . SVG Version: 6.00 Build 0)  -->
<!DOCTYPE svg PUBLIC "-//W3C//DTD SVG 1.1//EN" "http://www.w3.org/Graphics/SVG/1.1/DTD/svg11.dtd">
<svg version="1.1" id="Layer_1" xmlns="http://www.w3.org/2000/svg" xmlns:xlink="http://www.w3.org/1999/xlink" x="0px" y="0px"
	 width="23px" height="23px" viewBox="-0.1 -0.1 23 23" enable-background="new -0.1 -0.1 23 23" xml:space="preserve">
<g>
	<path fill="none" d="M10.3,10.5L8.8,12l-1.5,1.5c0.4,0.5,0.6,1,0.7,1.6H17L10.3,10.5z"/>
	<path fill="none" d="M5,12.2c0.5,0.1,1.1,0.3,1.5,0.6l2.9-2.9L5,6.9V12.2z"/>
	<path fill="none" d="M6.9,15.1c-0.2-1-0.9-1.7-1.9-1.9v1.9H6.9z M5.7,14c0.2,0,0.4,0.2,0.4,0.4c0,0.2-0.2,0.4-0.4,0.4
		s-0.4-0.2-0.4-0.4C5.3,14.2,5.5,14,5.7,14z"/>
	<path fill="none" d="M11.4,0.8C5.6,0.8,0.8,5.6,0.8,11.4S5.6,22,11.4,22S22,17.2,22,11.4S17.2,0.8,11.4,0.8z M18.5,16H4.6
		c-0.3,0-0.5-0.2-0.5-0.5V6l0,0c0-0.1,0-0.2,0.1-0.2c0,0,0,0,0,0c0-0.1,0.1-0.1,0.2-0.2c0.1,0,0.1,0,0.2,0c0,0,0,0,0,0
		c0.1,0,0.1,0,0.2,0.1c0,0,0.1,0,0.1,0l13.9,9.6c0.2,0.1,0.2,0.3,0.2,0.5C18.9,15.9,18.7,16,18.5,16z"/>
	<circle fill="#2D50C6" cx="5.7" cy="14.4" r="0.4"/>
	<path fill="#2D50C6" d="M4.8,5.6C4.8,5.6,4.8,5.6,4.8,5.6C4.7,5.5,4.7,5.5,4.6,5.5c0,0,0,0,0,0c-0.1,0-0.1,0-0.2,0
		c-0.1,0-0.1,0.1-0.2,0.2c0,0,0,0,0,0c0,0.1-0.1,0.2-0.1,0.2l0,0v9.6c0,0.3,0.2,0.5,0.5,0.5h13.9c0.2,0,0.4-0.1,0.4-0.3
		s0-0.4-0.2-0.5L4.8,5.6z M7.2,13.5L8.8,12l1.5-1.5l6.7,4.6H7.9C7.8,14.5,7.6,14,7.2,13.5z M6.9,15.1H5v-1.9
		C6,13.4,6.8,14.1,6.9,15.1z M6.6,12.9c-0.5-0.3-1-0.5-1.5-0.6V6.9l4.5,3.1L6.6,12.9z"/>
	<path fill="#2D50C6" d="M11.4-0.1C5-0.1-0.1,5-0.1,11.4S5,22.9,11.4,22.9c6.4,0,11.5-5.2,11.5-11.5C22.9,5,17.7-0.1,11.4-0.1z
		 M22,11.4C22,17.2,17.2,22,11.4,22S0.8,17.2,0.8,11.4S5.6,0.8,11.4,0.8S22,5.6,22,11.4z"/>
</g>
</svg>
