<?xml version="1.0" encoding="utf-8"?>
<!-- Generator: Adobe Illustrator 18.0.0, SVG Export Plug-In . SVG Version: 6.00 Build 0)  -->
<!DOCTYPE svg PUBLIC "-//W3C//DTD SVG 1.1//EN" "http://www.w3.org/Graphics/SVG/1.1/DTD/svg11.dtd">
<svg version="1.1" id="Layer_1" xmlns="http://www.w3.org/2000/svg" xmlns:xlink="http://www.w3.org/1999/xlink" x="0px" y="0px"
	 width="66.3px" height="66.3px" viewBox="0 0 66.3 66.3" enable-background="new 0 0 66.3 66.3" xml:space="preserve">
<g>
	<path fill="none" d="M42.7,29.7c-2.8,0-5,3.3-5,7.4s2.3,7.4,5,7.4c2.8,0,5-3.3,5-7.4S45.5,29.7,42.7,29.7z"/>
	<polygon fill="none" points="27.7,33.6 27.7,17.9 21.1,33.6 	"/>
	<path fill="none" d="M33.1,2C16,2,2,16,2,33.1s14,31.1,31.1,31.1s31.1-14,31.1-31.1S50.3,2,33.1,2z M52.4,46.6
		c-2.1,0-3.8-1.4-4.4-3.2c-1.3,1.9-3.2,3.2-5.3,3.2c-1.9,0-3.5-1-4.8-2.6c-0.8,1.4-2.4,2.8-5,2.8c-2.5,0-5.2-2-5.2-4.6v-6.5h-7.4
		l-2.6,6.3c-0.3,1.7-1.9,4.7-5.7,4.7c-2.5,0-5.2-2-5.2-4.6c0-0.6,0.4-1,1-1s1,0.4,1,1c0,1.4,1.8,2.6,3.2,2.6c3.2,0,3.7-3,3.8-3.1
		c0-0.1,0-0.2,0.1-0.2l2.9-6.8c0-0.1,0.1-0.2,0.1-0.3l9-21.6c0.2-0.4,0.7-0.7,1.1-0.6c0.5,0.1,0.8,0.5,0.8,1v29.2
		c0,1.4,1.8,2.6,3.2,2.6c2.8,0,3.6-2.2,3.7-2.9c-0.6-1.4-1-3-1-4.7c0-5.2,3.2-9.4,7-9.4c2,0,3.8,1.1,5,2.9V28c0-0.6,0.4-1,1-1
		s1,0.4,1,1v14.2c0.1,1.3,1.2,2.4,2.6,2.4c1.4,0,2.6-1.2,2.6-2.6c0-0.6,0.4-1,1-1s1,0.4,1,1C57,44.5,54.9,46.6,52.4,46.6z"/>
	<path fill="#2D50C6" d="M33.1,0C14.9,0,0,14.9,0,33.1s14.9,33.1,33.1,33.1s33.1-14.9,33.1-33.1S51.4,0,33.1,0z M33.1,64.3
		C16,64.3,2,50.3,2,33.1S16,2,33.1,2s31.1,14,31.1,31.1S50.3,64.3,33.1,64.3z"/>
	<path fill="#2D50C6" d="M56,40.9c-0.6,0-1,0.4-1,1c0,1.4-1.2,2.6-2.6,2.6c-1.4,0-2.5-1.1-2.6-2.4V28c0-0.6-0.4-1-1-1s-1,0.4-1,1
		v2.5c-1.3-1.8-3.1-2.9-5-2.9c-3.9,0-7,4.2-7,9.4c0,1.7,0.4,3.3,1,4.7c-0.2,0.7-0.9,2.9-3.7,2.9c-1.5,0-3.2-1.2-3.2-2.6V12.9
		c0-0.5-0.3-0.9-0.8-1c-0.5-0.1-0.9,0.2-1.1,0.6l-9,21.6c-0.1,0.1-0.1,0.2-0.1,0.3l-2.9,6.8c0,0.1-0.1,0.2-0.1,0.2
		c0,0.1-0.5,3.1-3.8,3.1c-1.5,0-3.2-1.2-3.2-2.6c0-0.6-0.4-1-1-1s-1,0.4-1,1c0,2.6,2.8,4.6,5.2,4.6c3.8,0,5.4-3,5.7-4.7l2.6-6.3h7.4
		v6.5c0,2.6,2.8,4.6,5.2,4.6c2.6,0,4.2-1.4,5-2.8c1.3,1.6,2.9,2.6,4.8,2.6c2.1,0,4-1.2,5.3-3.2c0.6,1.9,2.3,3.2,4.4,3.2
		c2.5,0,4.6-2.1,4.6-4.6C57,41.4,56.5,40.9,56,40.9z M27.7,33.6h-6.6l6.6-15.7V33.6z M42.7,44.5c-2.8,0-5-3.3-5-7.4s2.3-7.4,5-7.4
		c2.8,0,5,3.3,5,7.4S45.5,44.5,42.7,44.5z"/>
</g>
</svg>
