<?xml version="1.0" encoding="utf-8"?>
<!-- Generator: Adobe Illustrator 18.0.0, SVG Export Plug-In . SVG Version: 6.00 Build 0)  -->
<!DOCTYPE svg PUBLIC "-//W3C//DTD SVG 1.1//EN" "http://www.w3.org/Graphics/SVG/1.1/DTD/svg11.dtd">
<svg version="1.1" id="Layer_1" xmlns="http://www.w3.org/2000/svg" xmlns:xlink="http://www.w3.org/1999/xlink" x="0px" y="0px"
	 width="66.3px" height="66.3px" viewBox="0 -0.5 66.3 66.3" enable-background="new 0 -0.5 66.3 66.3" xml:space="preserve">
<g>
	<path fill="none" d="M14.3,37.4v6.3h6.3C20.2,40.5,17.6,37.9,14.3,37.4z M16.7,42.2c-0.5,0-0.9-0.4-0.9-0.9c0-0.5,0.4-0.9,0.9-0.9
		c0.5,0,0.9,0.4,0.9,0.9C17.5,41.8,17.1,42.2,16.7,42.2z"/>
	<path fill="none" d="M20.5,38.8c1.1,1.4,1.9,3.1,2.1,4.9h28L29.8,29.5L20.5,38.8z"/>
	<path fill="none" d="M28.2,28.3l-13.9-9.6v16.6c1.8,0.2,3.5,0.9,4.8,2L28.2,28.3z"/>
	<path fill="none" d="M33.1,1.5C16,1.5,2,15.4,2,32.6s14,31.1,31.1,31.1s31.1-14,31.1-31.1S50.3,1.5,33.1,1.5z M54.7,45
		c-0.1,0.4-0.5,0.7-1,0.7H13.3c-0.6,0-1-0.4-1-1V16.9c0-0.4,0.2-0.7,0.5-0.9c0.3-0.2,0.7-0.1,1,0.1l40.5,27.9
		C54.7,44.2,54.9,44.6,54.7,45z"/>
	<path fill="#2D50C6" d="M33.1-0.5C14.9-0.5,0,14.3,0,32.6s14.9,33.1,33.1,33.1s33.1-14.9,33.1-33.1S51.4-0.5,33.1-0.5z M33.1,63.8
		C16,63.8,2,49.8,2,32.6S16,1.5,33.1,1.5s31.1,14,31.1,31.1S50.3,63.8,33.1,63.8z"/>
	<path fill="#2D50C6" d="M54.3,43.9L13.8,16c-0.3-0.2-0.7-0.2-1-0.1c-0.3,0.2-0.5,0.5-0.5,0.9v27.9c0,0.6,0.4,1,1,1h40.5
		c0.4,0,0.8-0.3,1-0.7S54.7,44.2,54.3,43.9z M14.3,18.8l13.9,9.5l-9.1,9.1c-1.4-1.1-3-1.8-4.8-2C14.3,35.4,14.3,18.8,14.3,18.8z
		 M14.3,43.7v-6.3c3.3,0.4,5.9,3,6.3,6.3L14.3,43.7L14.3,43.7z M22.6,43.7c-0.2-1.9-0.9-3.6-2.1-4.9l9.3-9.3l20.7,14.3L22.6,43.7
		L22.6,43.7z"/>
	<circle fill="#2D50C6" cx="16.7" cy="41.4" r="0.9"/>
</g>
</svg>
