<?xml version="1.0" encoding="utf-8"?>
<!-- Generator: Adobe Illustrator 18.0.0, SVG Export Plug-In . SVG Version: 6.00 Build 0)  -->
<!DOCTYPE svg PUBLIC "-//W3C//DTD SVG 1.1//EN" "http://www.w3.org/Graphics/SVG/1.1/DTD/svg11.dtd">
<svg version="1.1" id="Layer_1" xmlns="http://www.w3.org/2000/svg" xmlns:xlink="http://www.w3.org/1999/xlink" x="0px" y="0px"
	 width="66.3px" height="66.3px" viewBox="0 0 66.3 66.3" enable-background="new 0 0 66.3 66.3" xml:space="preserve">
<g>
	
		<rect x="42.4" y="41.3" transform="matrix(-0.7071 -0.7071 0.7071 -0.7071 40.7336 109.2503)" fill="none" width="1.1" height="9.8"/>
	<path fill="none" d="M25.6,21.8l-1-1L23,20.8c-0.1,0-0.2,0-0.3-0.1l-7.4-3.1l-0.5,0.5l2.7,7.7c0,0.1,0,0.1,0,0.2l0.2,1.8l1,1
		L25.6,21.8z"/>
	<rect x="23.4" y="22.1" transform="matrix(0.7071 0.7071 -0.7071 0.7071 26.128 -8.9489)" fill="none" width="0.9" height="9.8"/>
	
		<rect x="22.4" y="31.7" transform="matrix(-0.7071 -0.7071 0.7071 -0.7071 31.1365 86.0874)" fill="none" width="22" height="9.8"/>
	<path fill="none" d="M33.1,2C16,2,2,16,2,33.1s14,31.1,31.1,31.1s31.1-14,31.1-31.1S50.3,2,33.1,2z M52.4,47.2L44,55.6
		c-0.2,0.2-0.5,0.3-0.7,0.3s-0.5-0.1-0.7-0.3L16,29c-0.2-0.2-0.3-0.4-0.3-0.6l-0.2-2l-2.9-8.2c-0.1-0.4,0-0.8,0.2-1l1.4-1.5
		c0.3-0.3,0.7-0.4,1.1-0.2l7.9,3.3l1.9,0.1c0.2,0,0.5,0.1,0.6,0.3l26.6,26.6C52.8,46.2,52.8,46.9,52.4,47.2z"/>
	<rect x="44.4" y="44.1" transform="matrix(0.7071 0.7071 -0.7071 0.7071 48.068 -18.0376)" fill="none" width="2.9" height="9.8"/>
	<path fill="#2D50C6" d="M33.1,0C14.9,0,0,14.9,0,33.1s14.9,33.1,33.1,33.1s33.1-14.9,33.1-33.1S51.4,0,33.1,0z M33.1,64.3
		C16,64.3,2,50.3,2,33.1S16,2,33.1,2s31.1,14,31.1,31.1S50.3,64.3,33.1,64.3z"/>
	<path fill="#2D50C6" d="M25.8,19.2c-0.2-0.2-0.4-0.3-0.6-0.3l-1.9-0.1l-7.9-3.3c-0.4-0.2-0.8-0.1-1.1,0.2l-1.4,1.5
		c-0.3,0.3-0.4,0.7-0.2,1l2.9,8.2l0.2,2c0,0.2,0.1,0.4,0.3,0.6l26.6,26.6c0.2,0.2,0.5,0.3,0.7,0.3s0.5-0.1,0.7-0.3l8.4-8.4
		c0.4-0.4,0.4-1,0-1.4L25.8,19.2z M29.1,25.3l15.6,15.6l-7,7L22.1,32.3L29.1,25.3z M20.7,30.9l-0.6-0.6l7-7l0.6,0.6L20.7,30.9z
		 M46.1,42.3l0.8,0.8l-7,7l-0.8-0.8L46.1,42.3z M17.5,26c0-0.1,0-0.1,0-0.2l-2.7-7.7l0.5-0.5l7.4,3.1c0.1,0,0.2,0.1,0.3,0.1l1.7,0.1
		l1,1l-7,7l-1-1L17.5,26z M43.3,53.5l-2-2l7-7l2,2L43.3,53.5z"/>
</g>
</svg>
