<?xml version="1.0" encoding="utf-8"?>
<!-- Generator: Adobe Illustrator 18.0.0, SVG Export Plug-In . SVG Version: 6.00 Build 0)  -->
<!DOCTYPE svg PUBLIC "-//W3C//DTD SVG 1.1//EN" "http://www.w3.org/Graphics/SVG/1.1/DTD/svg11.dtd">
<svg version="1.1" id="Layer_1" xmlns="http://www.w3.org/2000/svg" xmlns:xlink="http://www.w3.org/1999/xlink" x="0px" y="0px"
	 width="66.3px" height="66.3px" viewBox="0 0 66.3 66.3" enable-background="new 0 0 66.3 66.3" xml:space="preserve">
<g>
	<path fill="none" d="M34.5,37.4c0-6.7-3.8-12.1-8.4-12.1c-4.6,0-8.4,5.5-8.4,12.2s3.8,12.2,8.4,12.2C30.7,49.6,34.5,44.1,34.5,37.4
		L34.5,37.4z"/>
	<path fill="none" d="M33.1,2C16,2,2,16,2,33.1s14,31.1,31.1,31.1s31.1-14,31.1-31.1S50.3,2,33.1,2z M43.8,23c-0.6,0-1-0.4-1-1
		c0,0,0,0,0,0c0,0,0,0,0,0c0-0.6,0.4-1,1-1c0.9,0,1.7-0.8,1.7-1.7s-0.8-1.7-1.7-1.7S42,18.3,42,19.2c0,0.6-0.4,1-1,1s-1-0.4-1-1
		c0-2,1.7-3.7,3.7-3.7c2,0,3.7,1.7,3.7,3.7c0,1.1-0.5,2.1-1.2,2.7c0.7,0.7,1.2,1.7,1.2,2.7c0,2-1.7,3.7-3.7,3.7
		c-2,0-3.7-1.7-3.7-3.7c0-0.6,0.4-1,1-1s1,0.4,1,1c0,0.9,0.8,1.7,1.7,1.7s1.7-0.8,1.7-1.7C45.5,23.8,44.7,23,43.8,23z M41.2,51.7
		c-3.4,0-6.2-2.6-6.6-5.9c0,0,0-0.1,0-0.1c-1.9,3.6-5,5.9-8.4,5.9c-5.8,0-10.4-6.4-10.4-14.2s4.7-14.2,10.4-14.2
		c3.5,0,6.5,2.3,8.4,5.9v-5.9c0-0.6,0.4-1,1-1s1,0.4,1,1v14.2c0,0,0,0,0,0s0,0,0,0v7.9c0.2,2.4,2.2,4.3,4.6,4.3
		c2.6,0,4.6-2.1,4.6-4.6c0-0.6,0.4-1,1-1s1,0.4,1,1C47.8,48.7,44.8,51.7,41.2,51.7z"/>
	<path fill="#2D50C6" d="M33.1,0C14.9,0,0,14.9,0,33.1s14.9,33.1,33.1,33.1s33.1-14.9,33.1-33.1S51.4,0,33.1,0z M33.1,64.3
		C16,64.3,2,50.3,2,33.1S16,2,33.1,2s31.1,14,31.1,31.1S50.3,64.3,33.1,64.3z"/>
	<path fill="#2D50C6" d="M46.8,44c-0.6,0-1,0.4-1,1c0,2.6-2.1,4.6-4.6,4.6c-2.4,0-4.4-1.9-4.6-4.3v-7.9c0,0,0,0,0,0s0,0,0,0V23.3
		c0-0.6-0.4-1-1-1s-1,0.4-1,1v5.9c-1.9-3.5-5-5.9-8.4-5.9c-5.8,0-10.4,6.4-10.4,14.2s4.7,14.2,10.4,14.2c3.5,0,6.6-2.3,8.4-5.9
		c0,0,0,0.1,0,0.1c0.4,3.3,3.2,5.9,6.6,5.9c3.7,0,6.6-3,6.6-6.6C47.8,44.5,47.4,44,46.8,44z M26.1,49.6c-4.6,0-8.4-5.5-8.4-12.2
		c0-6.7,3.8-12.2,8.4-12.2c4.6,0,8.4,5.4,8.4,12.1v0C34.5,44.1,30.7,49.6,26.1,49.6z"/>
	<path fill="#2D50C6" d="M43.8,26.4c-0.9,0-1.7-0.8-1.7-1.7c0-0.6-0.4-1-1-1s-1,0.4-1,1c0,2,1.7,3.7,3.7,3.7c2,0,3.7-1.7,3.7-3.7
		c0-1.1-0.5-2.1-1.2-2.7c0.7-0.7,1.2-1.7,1.2-2.7c0-2-1.7-3.7-3.7-3.7c-2,0-3.7,1.7-3.7,3.7c0,0.6,0.4,1,1,1s1-0.4,1-1
		c0-0.9,0.8-1.7,1.7-1.7s1.7,0.8,1.7,1.7s-0.8,1.7-1.7,1.7c-0.6,0-1,0.4-1,1c0,0,0,0,0,0s0,0,0,0c0,0.6,0.4,1,1,1
		c0.9,0,1.7,0.8,1.7,1.7C45.5,25.7,44.7,26.4,43.8,26.4z"/>
</g>
</svg>
