<?xml version="1.0" encoding="utf-8"?>
<!-- Generator: Adobe Illustrator 18.0.0, SVG Export Plug-In . SVG Version: 6.00 Build 0)  -->
<!DOCTYPE svg PUBLIC "-//W3C//DTD SVG 1.1//EN" "http://www.w3.org/Graphics/SVG/1.1/DTD/svg11.dtd">
<svg version="1.1" id="Layer_1" xmlns="http://www.w3.org/2000/svg" xmlns:xlink="http://www.w3.org/1999/xlink" x="0px" y="0px"
	 width="23.3px" height="23.2px" viewBox="-0.4 -0.4 23.3 23.2" enable-background="new -0.4 -0.4 23.3 23.2" xml:space="preserve">
<g>
	<path fill="none" d="M8.8,16.8c1.5,0,2.8-1.8,2.8-4.1c0-2.3-1.3-4.1-2.8-4.1C7.3,8.7,6,10.5,6,12.7C6,15,7.3,16.8,8.8,16.8z"/>
	<path fill="none" d="M11.3,0.6C5.4,0.6,0.6,5.4,0.6,11.3s4.8,10.7,10.7,10.7c5.9,0,10.7-4.8,10.7-10.7S17.1,0.6,11.3,0.6z
		 M14.9,7.9c-0.3,0-0.5-0.2-0.5-0.5c0-0.3,0.2-0.5,0.5-0.5c0.3,0,0.5-0.2,0.5-0.5S15.2,6,14.9,6c-0.3,0-0.5,0.2-0.5,0.5
		c0,0.3-0.2,0.5-0.5,0.5c-0.3,0-0.5-0.2-0.5-0.5c0-0.8,0.6-1.4,1.4-1.4s1.4,0.6,1.4,1.4c0,0.4-0.1,0.7-0.4,1c0.2,0.3,0.4,0.6,0.4,1
		c0,0.8-0.6,1.4-1.4,1.4s-1.4-0.6-1.4-1.4c0-0.3,0.2-0.5,0.5-0.5c0.3,0,0.5,0.2,0.5,0.5c0,0.3,0.2,0.5,0.5,0.5s0.5-0.2,0.5-0.5
		C15.4,8.1,15.2,7.9,14.9,7.9z M15.8,17.1C15.7,17.1,15.7,17.1,15.8,17.1c-0.2,0.1-0.3,0.2-0.4,0.3c-0.1,0.1-0.2,0.1-0.3,0.2
		c0,0-0.1,0-0.1,0.1c-0.1,0-0.2,0.1-0.3,0.1c0,0-0.1,0-0.1,0c-0.2,0-0.3,0-0.5,0c-1.1,0-2.1-0.8-2.4-1.8c-0.7,1.1-1.8,1.8-2.9,1.8
		c-2.1,0-3.7-2.3-3.7-5c0-2.8,1.7-5,3.7-5c1.1,0,2.1,0.6,2.8,1.7V7.8l0,0c0-0.3,0.2-0.5,0.5-0.5s0.5,0.2,0.5,0.5l0,0v7.7
		c0,0.4,0.2,0.7,0.5,1c0.3,0.2,0.6,0.4,1,0.4c0.7,0,1.3-0.5,1.5-1.2c0-0.1,0-0.2,0-0.3c0-0.3,0.2-0.5,0.5-0.5c0.1,0,0.2,0.1,0.3,0.1
		c0.1,0.1,0.1,0.2,0.1,0.3c0,0.1,0,0.2,0,0.2c0,0.1,0,0.2,0,0.3c0,0.1,0,0.1-0.1,0.2c0,0.1,0,0.2-0.1,0.3c0,0.1-0.1,0.1-0.1,0.2
		c0,0.1-0.1,0.2-0.1,0.2C16,16.8,15.9,16.9,15.8,17.1C15.8,17.1,15.8,17.1,15.8,17.1z"/>
	<path fill="#2D50C6" d="M16.2,16.5c0-0.1,0.1-0.1,0.1-0.2c0-0.1,0.1-0.2,0.1-0.3c0-0.1,0-0.1,0.1-0.2c0-0.1,0-0.2,0-0.3
		c0-0.1,0-0.2,0-0.2c0-0.1-0.1-0.2-0.1-0.3c-0.1-0.1-0.2-0.1-0.3-0.1c-0.3,0-0.5,0.2-0.5,0.5c0,0.1,0,0.2,0,0.3
		c-0.1,0.7-0.7,1.2-1.5,1.2c-0.4,0-0.7-0.1-1-0.4s-0.4-0.6-0.5-1V7.8l0,0c0-0.3-0.2-0.5-0.5-0.5s-0.5,0.2-0.5,0.5l0,0v1.6
		c-0.7-1.1-1.7-1.7-2.8-1.7c-2.1,0-3.7,2.3-3.7,5c0,2.8,1.7,5,3.7,5c1.1,0,2.2-0.7,2.9-1.8c0.3,1.1,1.2,1.8,2.4,1.8
		c0.2,0,0.3,0,0.5,0c0,0,0.1,0,0.1,0c0.1,0,0.2-0.1,0.3-0.1c0,0,0.1,0,0.1-0.1c0.1,0,0.2-0.1,0.3-0.2c0.1-0.1,0.2-0.2,0.3-0.2
		c0,0,0,0,0.1-0.1c0,0,0,0,0-0.1c0.1-0.1,0.2-0.2,0.3-0.3C16.1,16.7,16.1,16.6,16.2,16.5z M8.8,8.7c1.5,0,2.8,1.8,2.8,4.1
		c0,2.3-1.3,4.1-2.8,4.1C7.3,16.8,6,15,6,12.7C6,10.5,7.3,8.7,8.8,8.7z"/>
	<path fill="#2D50C6" d="M11.3-0.4C4.8-0.4-0.4,4.8-0.4,11.3s5.2,11.6,11.6,11.6s11.6-5.2,11.6-11.6S17.7-0.4,11.3-0.4z M21.9,11.3
		c0,5.9-4.8,10.7-10.7,10.7c-5.9,0-10.7-4.8-10.7-10.7S5.4,0.6,11.3,0.6S21.9,5.4,21.9,11.3z"/>
	<path fill="#2D50C6" d="M14.9,8.8c-0.3,0-0.5-0.2-0.5-0.5c0-0.3-0.2-0.5-0.5-0.5c-0.3,0-0.5,0.2-0.5,0.5c0,0.8,0.6,1.4,1.4,1.4
		s1.4-0.6,1.4-1.4c0-0.4-0.1-0.7-0.4-1c0.2-0.3,0.4-0.6,0.4-1c0-0.8-0.6-1.4-1.4-1.4s-1.4,0.6-1.4,1.4c0,0.3,0.2,0.5,0.5,0.5
		c0.3,0,0.5-0.2,0.5-0.5c0-0.3,0.2-0.5,0.5-0.5c0.3,0,0.5,0.2,0.5,0.5s-0.2,0.5-0.5,0.5c-0.3,0-0.5,0.2-0.5,0.5
		c0,0.3,0.2,0.5,0.5,0.5c0.3,0,0.5,0.2,0.5,0.5C15.4,8.6,15.2,8.8,14.9,8.8z"/>
</g>
</svg>
