<?xml version="1.0" encoding="utf-8"?>
<!-- Generator: Adobe Illustrator 18.0.0, SVG Export Plug-In . SVG Version: 6.00 Build 0)  -->
<!DOCTYPE svg PUBLIC "-//W3C//DTD SVG 1.1//EN" "http://www.w3.org/Graphics/SVG/1.1/DTD/svg11.dtd">
<svg version="1.1" id="Layer_1" xmlns="http://www.w3.org/2000/svg" xmlns:xlink="http://www.w3.org/1999/xlink" x="0px" y="0px"
	 width="23.7px" height="23.7px" viewBox="-1.1 -0.1 23.7 23.7" enable-background="new -1.1 -0.1 23.7 23.7" xml:space="preserve">
<g>
	<rect x="9.2" y="9.9" transform="matrix(-0.7071 0.7071 -0.7071 -0.7071 27.5788 14.4364)" fill="none" width="3.2" height="6.1"/>
	<rect x="14.8" y="15.7" transform="matrix(0.7071 0.7071 -0.7071 0.7071 16.6848 -5.6632)" fill="none" width="0.8" height="3.2"/>
	<path fill="none" d="M7.1,7.5c-0.1,0-0.1,0-0.2,0L4.4,6.3L4.3,6.4l0.9,2.7c0,0,0,0.1,0,0.1l0.1,0.6L5.6,10l2.3-2.3L7.6,7.5L7.1,7.5
		z"/>
	
		<rect x="13.5" y="14.5" transform="matrix(-0.7071 -0.7071 0.7071 -0.7071 12.4305 37.2777)" fill="none" width="0.8" height="3.2"/>
	<rect x="6.1" y="9.4" transform="matrix(-0.707 0.7072 -0.7072 -0.707 20.0454 11.3121)" fill="none" width="3.2" height="0.8"/>
	<path fill="none" d="M10.7,0.8c-6,0-10.9,4.9-10.9,10.9s4.9,10.9,10.9,10.9s10.9-4.9,10.9-10.9S16.7,0.8,10.7,0.8z M17.6,16.8l-3,3
		c-0.1,0.1-0.2,0.1-0.3,0.1s-0.2,0-0.3-0.1l-9.4-9.4c-0.1-0.1-0.1-0.2-0.1-0.3L4.3,9.3l-1-2.9C3.3,6.3,3.3,6.1,3.4,6l0.5-0.5
		c0.1-0.1,0.4-0.2,0.5-0.1l2.8,1.2l0.6,0c0.1,0,0.2,0.1,0.3,0.1l9.4,9.4C17.8,16.3,17.8,16.6,17.6,16.8z"/>
	<path fill="#2D50C6" d="M10.7-0.1C4.2-0.1-1.1,5.2-1.1,11.7s5.3,11.8,11.8,11.8s11.8-5.3,11.8-11.8S17.2-0.1,10.7-0.1z M21.6,11.7
		c0,6-4.9,10.9-10.9,10.9S-0.2,17.7-0.2,11.7S4.7,0.8,10.7,0.8S21.6,5.7,21.6,11.7z"/>
	<path fill="#2D50C6" d="M8.2,6.7C8.1,6.6,8,6.6,7.9,6.6l-0.6,0L4.5,5.3c-0.2-0.1-0.4,0-0.5,0.1L3.4,6C3.3,6.1,3.3,6.3,3.3,6.5
		l1,2.9L4.4,10c0,0.1,0.1,0.2,0.1,0.3l9.4,9.4c0.1,0.1,0.2,0.1,0.3,0.1s0.2,0,0.3-0.1l3-3c0.2-0.2,0.2-0.5,0-0.7L8.2,6.7z M7.9,7.7
		L5.6,10L5.4,9.8L5.3,9.2c0,0,0-0.1,0-0.1L4.3,6.4l0.1-0.1l2.5,1.1c0,0,0.1,0,0.2,0l0.5,0L7.9,7.7z M16.6,16.4l-2.3,2.3l-0.5-0.5
		l2.3-2.3L16.6,16.4z M14.8,14.6l0.6,0.6l-2.3,2.3l-0.6-0.6L14.8,14.6z M7.5,11.9l2.3-2.3l4.3,4.3l-2.3,2.3L7.5,11.9z M6.8,11.2
		l-0.6-0.6l2.3-2.3l0.6,0.6L6.8,11.2z"/>
</g>
</svg>
