<?xml version="1.0" encoding="utf-8"?>
<!-- Generator: Adobe Illustrator 16.0.0, SVG Export Plug-In . SVG Version: 6.00 Build 0)  -->
<!DOCTYPE svg PUBLIC "-//W3C//DTD SVG 1.1//EN" "http://www.w3.org/Graphics/SVG/1.1/DTD/svg11.dtd">
<svg version="1.1" xmlns="http://www.w3.org/2000/svg" xmlns:xlink="http://www.w3.org/1999/xlink" x="0px" y="0px" width="373.5px"
	 height="89.5px" viewBox="0 0 373.5 89.5" enable-background="new 0 0 373.5 89.5" xml:space="preserve">
<g id="Layer_5">
</g>
<g id="Layer_3">
	<g>
		<g>
			<path fill="#36A9E1" d="M357,35.5c-5.603-0.099-11.152,0.799-16.75,0.25c0.222,1.637,0.443,3.274,0.665,4.911
				c5.907-0.884,11.887-0.963,17.835-1.411c3.188-0.24,3.229-5.21,0-5c-13.517,0.878-26.735,4.122-40.25,5
				c0.222,1.637,0.443,3.274,0.665,4.911c10.781-3.722,22.295-3.896,33.585-3.911c0-1.667,0-3.333,0-5
				c-13.819,0.948-27.66,0.75-41.5,0.5c0,1.667,0,3.333,0,5c9.223-1.054,18.64-2.634,27.835-0.589
				c0.222-1.637,0.443-3.274,0.665-4.911c-5.054-0.08-10.053-0.657-15.074-1.185c-5.709-0.601-11.628,0.043-17.261-0.976
				c0,1.607,0,3.214,0,4.821c4.065-1.059,8.17-0.933,12.335-0.911c-0.222-1.637-0.443-3.274-0.665-4.911
				c-6.239,1.5-12.514,0.358-18.833,0.378c-3.258,0.01-6.35,0.886-8.526,3.4c-5.853,6.758-2.961,17.501,1.999,23.627
				c2.232,2.756,5.583,3.265,8.802,2.338c1.815-0.523,3.524-1.377,5.347-1.905c3.598-1.042,7.75-0.76,11.454-0.629
				c6.685,0.236,13.253,1.181,19.959,0.985c4.137-0.121,11.654-2.106,15.452-0.124c0-1.439,0-2.878,0-4.317
				c-2.351,1-5.537,0.029-7.988-0.091c0.222,1.637,0.443,3.274,0.665,4.911c5.056-1.375,11.845,2.571,16.13-1.709
				c4.007-4.004,5.53-10.185,5.705-15.701c0.371-11.73-15.523-10.744-23.243-10.521c-8.443,0.244-16.855-0.112-25.304,0.408
				c-7.87,0.485-17.59,0.668-24.715,4.455c-1.701,0.904-3.592,2.022-3.676,4.19c-0.048,1.235,0.144,2.482,0.188,3.719
				c0.063,1.781-1.681,3.586-2.492,5.062c-3.046,5.532,2.358,9.564,7.077,10.849c0-1.607,0-3.214,0-4.821
				c-0.583,0.083-1.166,0.167-1.75,0.25c-1.256,0.18-2.197,1.917-1.746,3.075c1.407,3.604,4.444,4.592,7.987,3.012
				c1.533-0.684,2.912-1.54,4.276-2.511c0.577-0.411,1.232-0.729,1.855-1.062c0.59-0.31,1.194-0.588,1.813-0.834
				c1.345-0.178,1.201-0.855-0.43-2.032c-0.644,1.317-0.273,2.578,0.896,3.42c4.997,3.601,19.288,2.979,22.986-2.592
				c1.938-2.919,1.063-6.388-1.731-8.434c-3.436-2.516-7.591-2.607-11.255-0.542c1.224,0.498,2.448,0.996,3.673,1.494
				c-0.516-3.221,2-6.372,3.747-8.824c-1.522-0.199-3.046-0.398-4.569-0.597c0.686,3.386,1.409,8.288,0.003,11.574
				c1.438,0,2.878,0,4.316,0c-0.6-1.158-0.782-2.626-0.939-3.895c-0.074-0.724-0.104-1.45-0.089-2.177
				c0.519-1.366,0.195-1.622-0.972-0.767c0.692,1.813,1.287,5.474-0.086,7.082c-1.037,1.214-3.365-3.309-3.588-3.889
				c-0.94-2.443-0.788-5.317,1.931-6.432c-1.025-0.582-2.051-1.164-3.076-1.746c1.145,3.502,0.935,7.95,0.132,11.492
				c-0.774,3.417-1.979,0.175-2.505-1.673c-0.656-2.313-1.359-7.123,0.302-9.216c-1.309-0.168-2.617-0.337-3.926-0.506
				c1.886,3.353,1.822,11.094-1.604,13.58c1.14,0.299,2.28,0.598,3.42,0.897c-2.335-4.046-3.029-11.175-1-15.477
				c-1.522-0.199-3.046-0.398-4.569-0.597c0.954,3.81,1.304,9.906-0.495,13.476c0.815,0.026,0.959-0.299,0.432-0.977
				c-0.174-0.641-0.292-1.292-0.356-1.954c-0.151-1.288-0.142-2.597-0.142-3.891c0-1.86,0.176-3.711,0.223-5.569
				c-1.667,0-3.333,0-5,0c0.063,2.326,0.342,4.651,0.484,6.974c0.107,1.743,0.138,3.485,0.104,5.231
				c-0.019,0.626-0.061,1.252-0.125,1.875c-0.264,3.071-0.104-0.411,0.951,1.233c-2.331-3.634-0.324-12.173,0.497-16.149
				c-1.607,0-3.215,0-4.822,0c0.936,5.227,0.527,11.584-2.497,16.074c1.309-0.169,2.617-0.337,3.926-0.506
				c-3.707-3.769-0.449-11.542-0.268-16.232c-1.667,0-3.333,0-5,0c0.055,4.206,1.488,11.296-1.518,14.732
				c1.309,0.168,2.617,0.337,3.926,0.506c-1.915-4.085-0.885-9.167,0.253-13.324c-1.607,0-3.215,0-4.822,0
				c1.673,4.097-0.479,8.789-2.997,12.074c1.438,0,2.878,0,4.316,0c-1.923-2.736-3.054-8.36-0.391-10.971
				c-1.393-0.368-2.785-0.735-4.179-1.103c0.817,3.121,1.186,6.664-0.497,9.574c1.522,0.199,3.046,0.398,4.569,0.597
				c-0.853-4.566,0.436-8.598,1.75-12.921c0.37-1.219-0.43-2.834-1.746-3.075c-1.564-0.287-2.832-0.458-4.415-0.589
				c0.804,0.612,1.607,1.224,2.411,1.835c-0.084-0.417-0.167-0.833-0.25-1.25C294.362,31.594,289.65,32.197,290,35
				c0.453,3.635,1.881,5.924,5.749,6.165c2.159,0.134,4.588-0.625,6.729-0.835c3.479-0.344,7.043-0.041,10.521,0.17
				c3.222,0.196,3.203-4.806,0-5c-3.516-0.213-7.002-0.355-10.521-0.17c-1.511,0.079-7.214,1.796-7.479-0.33
				c-1.637,0.222-3.273,0.443-4.911,0.665c0.084,0.417,0.167,0.833,0.25,1.25c0.229,1.145,1.354,1.747,2.411,1.835
				c1.028,0.137,2.057,0.274,3.085,0.411c-0.582-1.025-1.164-2.05-1.746-3.075c-1.615,5.314-2.784,10.034-1.75,15.579
				c0.409,2.191,3.55,2.359,4.569,0.597c2.364-4.085,2.167-8.978,1.003-13.426c-0.482-1.841-2.853-2.403-4.179-1.103
				c-4.247,4.162-3.622,12.434-0.391,17.029c1.16,1.652,3.138,1.538,4.316,0c3.26-4.25,5.637-10.699,3.503-15.926
				c-0.88-2.155-4.112-2.593-4.822,0c-1.538,5.622-2.29,11.753,0.253,17.176c0.662,1.413,2.923,1.653,3.926,0.506
				c4.251-4.859,3.06-12.312,2.982-18.268c-0.042-3.233-4.875-3.212-5,0c-0.255,6.565-3.597,14.351,1.732,19.768
				c1.187,1.207,3.04,0.81,3.926-0.506c3.789-5.622,4.164-13.436,3.003-19.926c-0.436-2.43-4.334-2.361-4.822,0
				c-0.961,4.652-4.29,20.376,2.54,22.215c8.9,2.397,5.484-15.898,5.371-20.051c-0.088-3.223-4.92-3.225-5,0
				c-0.112,4.493-1.997,17.853,5.75,17.25c7.033-0.547,5.503-15.3,4.411-19.665c-0.498-1.988-3.63-2.589-4.569-0.597
				c-2.828,5.993-2.308,14.792,1,20.523c0.63,1.093,2.319,1.695,3.42,0.897c5.757-4.177,6.754-14.453,3.396-20.42
				c-0.725-1.29-2.917-1.777-3.926-0.506c-4.389,5.529-3.308,20.137,5.184,21.204c7.681,0.965,6.542-15.629,5.245-19.601
				c-0.384-1.173-1.771-2.281-3.076-1.746c-6.416,2.633-7.238,8.846-4.524,14.704c2.042,4.409,8.503,8.326,11.909,2.917
				c2.278-3.62,2.185-13.818-3.173-14.894c-7.267-1.46-5.188,11.357-3.455,14.696c0.799,1.54,3.578,1.727,4.316,0
				c2.034-4.751,1.506-10.466,0.503-15.426c-0.47-2.318-3.429-2.199-4.569-0.597c-2.754,3.863-5.03,7.818-4.253,12.676
				c0.263,1.641,2.389,2.218,3.673,1.494c2.089-1.178,4.888-1.186,6.434,0.943c1.141,1.571-4.456,2.658-5.163,2.786
				c-3.228,0.582-8.453,1.234-11.271-0.796c0.299,1.14,0.598,2.28,0.896,3.42c1.5-3.072,0.335-6.753-3.739-5.749
				c-1.07,0.264-11.285,5.252-11.258,5.322c-0.582,1.025-1.164,2.05-1.746,3.075c0.583-0.083,1.166-0.167,1.75-0.25
				c2.556-0.365,2.218-4.218,0-4.821c-6.436-1.751-1.359-6.795-0.915-11.089c0.311-3.004-1.313-2.625,1.943-3.971
				c3.4-1.405,7.208-1.977,10.831-2.439c11.597-1.481,23.143-1.164,34.788-1.338c5.116-0.077,18.772-2.232,19.188,5.499
				c0.203,3.79-1.314,10.008-4.512,12.341c-1.538,1.122-5.271,0.144-6.99-0.06c-2.276-0.271-4.445-0.296-6.663,0.308
				c-2.799,0.762-2.105,4.775,0.665,4.911c3.753,0.184,6.958,0.921,10.512-0.591c1.732-0.737,1.534-3.517,0-4.317
				c-2.539-1.325-5.165-1.342-7.976-1.169c-4.55,0.279-9.079,0.636-13.644,0.682c-10.061,0.101-20.387-2.77-30.302,0.1
				c-4.403,1.275-6.329,3.215-9.563-1.5c-2.797-4.077-2.785-9.878-0.651-14.246c1.701-3.48,8.004-2.197,11-2.02
				c4.834,0.286,9.556,0.36,14.289-0.777c2.783-0.669,2.125-4.896-0.665-4.911c-4.619-0.025-9.165-0.083-13.665,1.089
				c-2.282,0.594-2.499,4.369,0,4.821c4.895,0.885,9.828,0.473,14.771,0.806c6.316,0.425,12.553,1.434,18.895,1.534
				c2.795,0.044,3.445-4.292,0.665-4.911c-9.697-2.156-19.432-0.702-29.165,0.411c-3.128,0.357-3.3,4.94,0,5
				c13.84,0.25,27.681,0.448,41.5-0.5c3.184-0.218,3.254-5.004,0-5c-11.705,0.016-23.737,0.231-34.915,4.089
				c-2.539,0.876-2.292,5.103,0.665,4.911c13.517-0.878,26.735-4.122,40.25-5c0-1.667,0-3.333,0-5
				c-6.402,0.482-12.806,0.638-19.165,1.589c-2.993,0.448-1.918,4.657,0.665,4.911c5.598,0.549,11.147-0.349,16.75-0.25
				C360.227,40.557,360.221,35.557,357,35.5L357,35.5z"/>
		</g>
	</g>
	<g>
		<g>
			<path fill="#36A9E1" d="M358.085,42.911c0.966,0.353-0.629,8.373-1.243,9.578c1.522,0.199,3.046,0.398,4.569,0.597
				c-1.362-4.571-2.244-12.129,1.106-16.068c-1.309-0.168-2.617-0.337-3.926-0.506c2.422,3.707,2.014,16.077-3.007,17.828
				c1.025,0.582,2.051,1.164,3.076,1.746c-0.738-5.01,0.438-11.203,3.856-15.068c-1.393-0.368-2.785-0.735-4.179-1.103
				c0.449,2.669-1.051,10.656-3.878,11.837c-0.938,0.392-0.378-6.069-0.318-6.386c0.306-1.609,0.884-4.484,2.369-5.457
				c-1.224-0.498-2.448-0.996-3.673-1.494c0.874,2.143,0.735,4.458,0.563,6.724c-0.045,0.586-1.926,8.545-2.84,7.766
				c-1.704-1.453-1.727-5.983-0.835-7.805c1.738-3.554,2.402,0.492,2.151,1.963c-0.228,1.333-0.676,2.627-1.12,3.899
				c-1.088,3.112-4.576,8.256-6.066,2.436c-0.387-1.51-0.326-3.249-0.019-4.765c0.237-1.169,3.384-4.898,2.434-0.794
				c-0.47,2.027-3.647,6.24-6.288,5.093c-1.831-0.795-1.629-3.74-1.345-5.248c0.859-4.564,8.02-4.746,3.344,0.897
				c-1.274,1.538-8.311,4.925-8.661,0.896c-0.182-2.08,2.631-4.13,4.095-5.085c1.753-1.143,7.413-2.95,6.388,1.694
				c-1.142,5.169-7.935,5.769-11.932,4.959c-2.406-0.487-4.569-1.754-6.627-3.032c-0.775-0.461-1.479-1.008-2.113-1.642
				c-0.391-0.742-0.567-0.627-0.531,0.343c1.438-1.108,3.829-1.27,5.552-1.539c3.895-0.61,7.854-0.484,11.762-0.925
				c3.14-0.354,3.292-4.881,0-5c-5.956-0.214-11.693-2.314-17.665-1.161c-2.573,0.497-2.193,4.116,0,4.821
				c8.746,2.811,19.501,2.123,28.08-1c3.033-1.104,1.848-5.422-1.33-4.821c-11.557,2.187-23.521,2.276-34.097,8.002
				c-2.271,1.229-1.133,4.577,1.262,4.659c5.751,0.198,11.498,0.025,17.25,0c4.941-0.021,9.646,0.51,14.415-1.089
				c3.059-1.025,1.828-5.495-1.33-4.821c-9.334,1.99-18.975,0.242-28.25,2.75c-2.441,0.66-2.33,4.108,0,4.821
				c5.691,1.742,11.531,2.758,17.425,3.534c3.007,0.396,6.018,0.755,9.025,1.151c1.023,0.135,2.041,0.276,3.056,0.467
				c-0.131-0.64-0.261-1.28-0.392-1.92c-0.71,0.119-1.424,0.18-2.144,0.184c-11.162,0.462-22.066-2.874-33.221-0.737
				c-1.216,0.233-2.247,1.886-1.746,3.075c0.232,0.551,0.439,1.088,0.753,1.597c1.686,2.74,6.012,0.23,4.316-2.523
				c-0.082-0.134-0.165-0.269-0.247-0.403c-0.582,1.025-1.164,2.05-1.746,3.075c8.821-1.69,17.842,0.221,26.688,0.773
				c3.07,0.191,10.387,1.253,12.087-2.288c2.333-4.856-3.07-5.743-6.615-6.197c-8.716-1.118-17.475-2.027-25.909-4.61
				c0,1.607,0,3.214,0,4.821c9.228-2.495,18.917-0.761,28.25-2.75c-0.443-1.607-0.887-3.214-1.33-4.821
				c-4.868,1.632-9.959,0.897-15.002,0.919c-5.114,0.022-10.219,0.167-15.333-0.008c0.421,1.553,0.841,3.106,1.262,4.659
				c10.104-5.471,21.854-5.407,32.903-7.498c-0.443-1.607-0.887-3.214-1.33-4.821c-7.8,2.839-17.455,3.56-25.42,1
				c0,1.607,0,3.214,0,4.821c5.359-1.035,10.947,1.146,16.335,1.339c0-1.667,0-3.333,0-5c-6.032,0.682-12.493,0.112-18.247,2.367
				c-8.446,3.31-0.63,9.908,3.829,12.326c8.177,4.433,21.021,3.015,23.356-7.559c1.931-8.744-8.837-9.224-13.96-6.31
				c-4.556,2.591-9.894,10.248-3.938,14.363c7.577,5.236,18.246-1.89,17.817-10.687c-0.419-8.586-12.233-3.979-14.415,1.055
				c-3.296,7.605,2.943,16.526,11.101,11.886c3.623-2.061,9.717-11.997,3.696-14.957c-4.799-2.36-9.871,2.335-10.398,7.086
				c-0.578,5.192,0.905,12.526,7.273,12.705c5.917,0.166,8.857-8.676,9.836-13.133c1.044-4.755-1.832-11.595-7.676-9.182
				c-5.524,2.28-5.411,9.293-3.847,14.039c1.56,4.735,6.938,6.481,10.081,2.015c3.233-4.594,4.555-12.899,2.402-18.178
				c-0.574-1.407-2.192-2.464-3.673-1.494c-5.432,3.557-7.891,16.476-2.01,20.526c7.982,5.499,11.942-13.006,11.183-17.532
				c-0.308-1.831-3.003-2.432-4.179-1.103c-4.724,5.339-6.16,13.019-5.144,19.932c0.19,1.289,1.902,2.155,3.076,1.746
				c8.303-2.896,10.354-18.501,5.993-25.172c-0.819-1.255-2.83-1.793-3.926-0.506c-4.648,5.463-4.338,14.404-2.394,20.932
				c0.588,1.97,3.548,2.598,4.569,0.597c2.186-4.279,4.159-14.769-1.743-16.922C356.379,36.981,355.082,41.814,358.085,42.911
				L358.085,42.911z"/>
		</g>
	</g>
	<g>
		<g>
			<path fill="#36A9E1" d="M346.262,50.659c0.417-0.25,0.833-0.5,1.25-0.75c2.446-1.467,0.83-5.28-1.927-4.569
				c-5.996,1.547-12.225,0.795-18.335,1.411c-3.177,0.32-3.208,5.323,0,5c6.571-0.662,13.208,0.077,19.665-1.589
				c-0.643-1.523-1.285-3.046-1.927-4.569c-0.417,0.25-0.833,0.5-1.25,0.75C340.978,47.998,343.49,52.322,346.262,50.659
				L346.262,50.659z"/>
		</g>
	</g>
	<g>
		<g>
			<path fill="#36A9E1" d="M67.091,40.012c0.384,0.843,0.417,1.899,0.48,2.803c0.032,0.621,0.009,1.24-0.068,1.857
				c-0.253,1.742,0.098,0.012-0.056-0.541c-0.361-1.294-0.333-2.671-0.294-4c0.06-2.019-0.444-3.149,0.376-0.702
				c0.44,1.316,0.544,2.706,0.587,4.082c0.014,0.687-0.047,1.368-0.183,2.042c-0.125,0.691,0.315,3.696,0.75,1.699
				c0.472-2.163,1.869-4.813,3.334-6.486c-1.178,0-2.357,0-3.535,0c1.896,1.97,1.957,4.645,1.455,7.186
				c-0.094,0.478-3.79,6.118-4.527,4.132c-0.804,1.055-1.607,2.11-2.411,3.165c10.686,0.891,6.748-18.115-0.944-15.855
				c-4.878,1.433-5.903,8.477-0.743,10.388c6.379,2.362,8.335-4.159,10.268-8.801c3.038-7.298-1.936-7.781-8.155-7.176
				c-10.862,1.055-21.845,0.735-32.724,0.616c-7.156-0.078-7.643,7.436-2.448,10.753c7.463,4.766,17.005-5.445,24.234-1.016
				c0.199-1.523,0.398-3.046,0.597-4.569C45.4,42.145,37.118,39.205,29.25,39.25c0,1.667,0,3.333,0,5
				c10.649-0.176,22.783-4.33,32.988,0.159c0.199-1.523,0.398-3.046,0.597-4.569c-10.356,1.471-20.721-0.938-31.085-1.089
				c0,1.667,0,3.333,0,5c9.29-0.183,18.994-3.391,28.085-0.339c0.222-1.637,0.443-3.274,0.665-4.911
				c-9.635,0.764-19.316,1.854-28.835-0.411c-2.285-0.543-4.429,2.456-2.432,4.178c3.7,3.192,8.234,4.188,12.985,4.815
				c7.327,0.967,14.647,2.011,22.033,2.417c0-1.667,0-3.333,0-5C51,44.488,37.75,44.262,24.5,44.25c0,1.667,0,3.333,0,5
				c6.75,0,13.5,0,20.25,0c6.336,0,12.628-1.11,18.835,0.661c0.222-1.637,0.443-3.274,0.665-4.911
				c-13.313,0.138-26.525-1.638-39.665,1.339c-2.735,0.62-2.16,5.095,0.665,4.911c5.313-0.347,10.49-1.555,15.775-2.133
				c4.028-0.441,9.898-1.805,13.463,0.542c0.199-1.523,0.398-3.046,0.597-4.569c-11.384,2.005-22.918-1.155-34.25,1.75
				c-2.306,0.591-2.478,4.34,0,4.821c11.549,2.244,23.229-1.04,34.75,1c0.222-1.637,0.443-3.274,0.665-4.911
				c-11.71,1.365-23.376,0.04-35-1.5c0,1.667,0,3.333,0,5c13.767-0.169,27.488,1.181,41.25,1.25c0-1.667,0-3.333,0-5
				c-15.251-0.01-30.503-0.218-45.75,0.25c-2.993,0.092-3.18,3.877-0.665,4.911C29.096,58.005,45.36,55.124,59,55
				c3.224-0.029,3.224-4.973,0-5c-7.076-0.059-14.105-0.667-21.146-1.327c-7.527-0.705-14.62,0.2-22.104,0.077
				c0.222,1.637,0.443,3.274,0.665,4.911c0.422-0.059,0.838-0.142,1.25-0.25c-0.811-1.393-1.622-2.786-2.432-4.178
				c-0.931,0.735-1.819,1.515-2.75,2.25c-1.269,1.001-0.788,3.21,0.506,3.926c3.985,2.206,8.017,0.341,12.262,0.341
				c-0.222-1.637-0.443-3.274-0.665-4.911c-2.12,0.307-4.21,0.199-6.335,0.161c-3.003-0.054-3.16,3.939-0.665,4.911
				C20.01,56.854,22.415,56.985,25,57c0-1.667,0-3.333,0-5c-1.258-0.041-2.508,0.042-3.75,0.25c-3.117,0.364-3.304,5.01,0,5
				c7.691-0.023,15.389-0.361,23.079-0.221c6.867,0.125,13.493,1.436,20.336,0.132c1.115-0.212,1.789-1.363,1.835-2.411
				c0.197-4.448,7.198-22.568-1.793-22.953c-12.831-0.549-25.639,1.83-38.457,1.953c0,1.667,0,3.333,0,5
				c3.717-0.049,7.329-0.327,10.915-1.339c2.289-0.646,2.49-4.291,0-4.821c-4.553-0.971-9.102-0.975-13.739-0.867
				c-3.606,0.084-8.49-0.855-11.877,0.761c-5.34,2.547-6.388,12.493-3.457,17.028c1.439-0.841,2.878-1.682,4.317-2.523
				C11.691,46.122,11.388,45.126,11.5,44c-0.132-2.796-4.105-3.433-4.911-0.665c-1.788,6.143,1.738,10.522,7.246,12.825
				c1.988,0.832,4.056-1.979,2.823-3.672c-3.062-4.205-7.217-9.504-1.397-13.33c-1.224-0.941-2.448-1.882-3.672-2.823
				c-0.995,5.682-0.513,10.462,2.002,15.676c1.121,2.324,4.638,1.096,4.659-1.262c0.013-1.425-1.902-11.01-1.585-11.089
				c-1.055-0.804-2.11-1.607-3.165-2.411c0.381,3.015-0.811,5.673,0.089,8.665c0.59,1.963,3.549,2.605,4.569,0.597
				c1.212-2.387,1.327-4.739,1.752-7.347c0.514-3.153-4.303-4.505-4.821-1.329c-0.334,2.052-0.29,4.266-1.248,6.153
				c1.523,0.199,3.046,0.398,4.569,0.597c-0.701-2.33,0.393-4.938,0.089-7.335c-0.204-1.611-1.439-2.843-3.165-2.411
				c-6.608,1.655-2.048,11.627-2.085,15.911c1.553-0.42,3.106-0.841,4.659-1.262c-1.899-3.938-2.246-7.553-1.498-11.824
				c0.347-1.983-1.667-4.142-3.672-2.823c-8.441,5.548-5.453,13.229-0.397,20.17c0.941-1.224,1.882-2.448,2.823-3.672
				c-3.015-1.261-4.711-3.388-3.754-6.675C9.774,44.443,8.137,44.222,6.5,44c0.096,2.038,0.398,3.821,1.591,5.512
				c1.83,2.595,6.089,0.218,4.317-2.523c-1.373-2.125-0.845-4.775-0.248-7.074c0.751-2.892,1.848-3.138,4.589-3.165
				c6.29-0.062,12.899-0.658,19.085,0.661c0-1.607,0-3.214,0-4.821c-3.179,0.897-6.303,1.118-9.585,1.161
				c-3.222,0.042-3.226,5.031,0,5c9.692-0.093,19.317-1.426,29-1.75c2.417-0.081,4.832-0.2,7.25-0.25
				c2.157-0.045,1.506-0.609,1.491,2.232c-0.028,5.292-2.255,10.441-2.491,15.768c0.612-0.804,1.224-1.607,1.835-2.411
				c-6.274,1.196-12.7-0.009-19.007-0.311c-7.66-0.366-15.411,0.199-23.079,0.221c0,1.667,0,3.333,0,5
				c1.242-0.208,2.492-0.291,3.75-0.25c3.222-0.054,3.227-4.981,0-5c-2.14-0.013-4.065-0.125-6.085-0.911
				c-0.222,1.637-0.443,3.274-0.665,4.911c2.609,0.047,5.084,0.034,7.665-0.339c2.851-0.413,2.076-4.911-0.665-4.911
				c-2.924,0-7.086,1.809-9.738,0.341c0.169,1.309,0.337,2.618,0.506,3.926c0.931-0.735,1.819-1.515,2.75-2.25
				c2.099-1.656-0.208-4.702-2.432-4.178c-0.412,0.108-0.829,0.191-1.25,0.25c-2.859,0.497-2.066,4.866,0.665,4.911
				c6.829,0.112,13.339-0.88,20.202-0.254C43.629,54.196,51.284,54.936,59,55c0-1.667,0-3.333,0-5
				c-7.484,0.068-14.938,0.701-22.425,0.453c-6.488-0.215-13.054-0.105-19.16-2.613c-0.222,1.637-0.443,3.274-0.665,4.911
				c15.247-0.468,30.499-0.26,45.75-0.25c3.225,0.002,3.224-4.984,0-5c-13.762-0.069-27.483-1.419-41.25-1.25
				c-3.325,0.041-3.094,4.59,0,5c11.624,1.54,23.29,2.865,35,1.5c2.561-0.298,3.678-4.377,0.665-4.911
				c-11.548-2.044-23.25,1.234-34.75-1c0,1.607,0,3.214,0,4.821c11.246-2.883,22.877,0.253,34.25-1.75
				c2.291-0.403,2.237-3.49,0.597-4.569c-3.599-2.369-7.996-1.961-12.094-1.548c-6.565,0.662-13.093,2.028-19.667,2.457
				c0.222,1.637,0.443,3.274,0.665,4.911C38.581,48.291,51.416,50.133,64.25,50c2.833-0.029,3.391-4.133,0.665-4.911
				c-6.107-1.742-12.325-1.095-18.583-0.863C39.074,44.496,31.763,44.25,24.5,44.25c-3.225,0-3.224,4.997,0,5
				c13.25,0.012,26.5,0.238,39.75,0.25c3.244,0.003,3.197-4.824,0-5c-5.85-0.321-11.684-0.987-17.481-1.827
				c-4.654-0.674-10.25-0.706-14.001-3.941c-0.811,1.393-1.622,2.786-2.432,4.178c9.986,2.376,20.047,1.392,30.165,0.589
				c2.812-0.223,3.406-3.991,0.665-4.911c-9.614-3.227-19.609-0.032-29.415,0.161c-3.222,0.063-3.225,4.953,0,5
				c10.879,0.159,21.539,2.456,32.415,0.911c2.083-0.296,2.496-3.734,0.597-4.569C53.357,35.076,41.14,39.053,29.25,39.25
				c-3.221,0.053-3.227,5.019,0,5c8.394-0.048,16.938,2.896,25.165,0.161c2.043-0.679,2.501-3.403,0.597-4.569
				c-5.87-3.597-12.791-0.393-18.866,0.983c-1.016,0.238-2.045,0.365-3.086,0.382c-1.483,0.384-2.27-0.21-2.357-1.785
				c1.582-0.135,3.255,0.162,4.831,0.289c5.093,0.411,10.39-0.203,15.49-0.369c4.722-0.154,9.375-0.242,14.083-0.699
				c0.964-0.103,1.932-0.172,2.901-0.208c-0.403-1.146-0.708-1.012-0.917,0.4c-0.469,1.172-1.001,2.318-1.529,3.465
				c-0.48,1.042-0.986,2.071-1.535,3.079c-0.202,0.37-1.769-2.675-0.162,0.27c0.809,1.483,1.55,4.802-0.863,4.601
				c-1.542-0.128-2.951,1.709-2.411,3.165c2.039,5.494,8.149,4.147,11.678,0.728c4.386-4.25,3.741-12.765-0.25-16.91
				c-0.898-0.934-2.649-1.012-3.535,0c-2.254,2.573-4.048,6.07-4.776,9.409c-0.627,2.875,1.382,6.026,4.646,5.02
				c6.793-2.094,6.297-15.269,0.635-18.481c-7.48-4.245-7.695,11.914-4.945,15.413c2.12,2.698,5.772,1.86,7.561-0.622
				c1.923-2.669,1.06-7.729-0.194-10.483C70.074,34.557,65.766,37.101,67.091,40.012L67.091,40.012z"/>
		</g>
	</g>
	<g>
		<g>
			<path fill="#36A9E1" d="M19.089,37.915c0.803,2.319,0.673,4.897-0.498,7.074c1.523,0.199,3.046,0.398,4.569,0.597
				c-1.134-3.659-0.459-7.573-0.411-11.335c-0.833,0.833-1.667,1.667-2.5,2.5c0.083,0,0.167,0,0.25,0
				c-0.833-0.833-1.667-1.667-2.5-2.5c0.199,4.002,0.007,7.925-0.911,11.835c1.637,0.222,3.274,0.443,4.911,0.665
				c-0.004-2.728,2.558-5.209,5.165-5.589c-0.443-1.607-0.886-3.214-1.329-4.821c-2.19,0.846-4.505,1.097-6.75,1.75
				c0.642,1.523,1.284,3.046,1.926,4.569c3.662-2.603,7.447-2.408,11.738-2.159c3.223,0.187,3.205-4.814,0-5
				c-5.139-0.298-9.9-0.258-14.262,2.841c-2.212,1.572-0.947,5.405,1.926,4.569c2.245-0.653,4.56-0.904,6.75-1.75
				c3.044-1.176,1.848-5.285-1.329-4.821C21.07,37.035,16.992,42,17,46.75c0.004,2.789,4.257,3.451,4.911,0.665
				c1.017-4.333,1.31-8.725,1.089-13.165c-0.067-1.361-1.086-2.5-2.5-2.5c-0.083,0-0.167,0-0.25,0c-1.376,0-2.482,1.138-2.5,2.5
				c-0.054,4.237-0.69,8.539,0.589,12.665c0.616,1.986,3.505,2.576,4.569,0.597c1.773-3.296,2.237-7.362,1.002-10.926
				C22.862,33.558,18.031,34.859,19.089,37.915L19.089,37.915z"/>
		</g>
	</g>
	<g>
		<g>
			<path fill="#36A9E1" d="M31.589,32.335c-0.086,0.346-0.196,0.643-0.25,1c-0.236,1.551,0.638,3.201,2.411,3.165
				c2.509-0.052,6.264-1.345,8.488,0.159c2.679,1.812,5.178-2.522,2.523-4.317c-3.253-2.2-7.398-0.916-11.012-0.841
				c0.804,1.055,1.607,2.11,2.411,3.165c0.055-0.357,0.164-0.654,0.25-1C37.193,30.536,32.371,29.208,31.589,32.335L31.589,32.335z"
				/>
		</g>
	</g>
	<g>
		<g>
			<path fill="#36A9E1" d="M62.915,41.411c0.274-0.063,0.578,0.674,0.677,0.851c0.941-1.224,1.882-2.448,2.823-3.672
				c-3.156-0.807-5.274-3.738-7.903-5.498c-2.477-1.659-4.822,1.895-3.029,3.926c1.212,1.375,2.065,3.105,3.986,3.561
				C62.096,41.202,64.435,40.147,67,40c3.205-0.184,3.223-5.185,0-5c-2.128,0.122-4.06,0.796-6.202,0.734
				c-0.634-0.019,0.414,0.506,0.158,0.168c-0.626-0.827-1.252-1.642-1.938-2.42c-1.01,1.309-2.02,2.618-3.029,3.926
				c3.101,2.077,5.317,5.036,9.097,6.002c2.143,0.547,3.901-1.743,2.823-3.672c-1.348-2.413-3.539-3.788-6.323-3.149
				C58.443,37.31,59.776,42.131,62.915,41.411L62.915,41.411z"/>
		</g>
	</g>
	<g>
		<g>
			<path fill="#36A9E1" d="M70.165,37.161c-0.501,0.079-0.83-0.035-1.132-0.432c0.188,0.247,0.229,0.419,0.344,0.806
				c0.226,0.764,0.288,1.555,0.341,2.345c0.104,1.539,0.041,3.08,0.032,4.62c-0.018,3.225,4.982,3.224,5,0
				c0.022-4.162,0.607-13.191-5.915-12.161C65.658,32.842,67.011,37.659,70.165,37.161L70.165,37.161z"/>
		</g>
	</g>
	<g>
		<g>
			<path fill="#36A9E1" d="M69.339,39.665c0.539,2.232,0.755,4.142-1.601,5.177c-1.248,0.549-1.525,2.348-0.897,3.42
				c0.747,1.275,2.173,1.445,3.42,0.897c4.472-1.965,4.92-6.589,3.899-10.823C73.405,35.202,68.583,36.531,69.339,39.665
				L69.339,39.665z"/>
		</g>
	</g>
	<g>
		<g>
			<path fill="#66C8F3" d="M57.091,41.012c0.104,0.242-2.193,5.281-2.341,6.488c-0.327,2.659,3.431,3.139,4.659,1.262
				c1.421-2.173,2.141-4.277,2.502-6.847c-1.637-0.222-3.274-0.443-4.911-0.665c0.218,2.408,0.388,4.788,0.839,7.165
				c0.547,2.881,4.8,2.042,4.911-0.665c0.091-2.23-0.311-4.59,1.268-6.482c1.684-2.018-0.612-5.76-3.029-3.926
				c-5.192,3.938-6.037,11.017-3.147,16.67C59,56.279,62.5,55.151,62.5,52.75c0-0.167,0-0.333,0-0.5
				c-0.833,0.833-1.667,1.667-2.5,2.5c0.083,0,0.167,0,0.25,0c-0.222-1.637-0.443-3.274-0.665-4.911
				c-4.995,1.409-9.728,0.032-14.71-0.601c-5.378-0.684-10.887-0.311-16.3-0.422c-4.383-0.091-8.702,0.216-13.081,0.325
				c-1.729,0.043-3.314,0.535-3.797-1.31c-0.579-2.21-0.219-4.506-0.786-6.746c-1.025,1.025-2.05,2.05-3.075,3.075
				c8.472,3.087,17.647,0.876,26.378,0.771c8.682-0.105,17.838,1.968,26.048-1.772c1.843-0.839,1.396-3.366,0-4.317
				c-2.898-1.976-7.118-1.126-10.367-0.798C44.455,38.591,38.97,38.178,33.5,38.75c-6.397,0.668-13.061,0.347-19.5,0.5
				c-2.86,0.068-5.829-1.758-7.161,1.835c-1.123,3.03,3.711,4.325,4.821,1.329c0.054-0.145,0.107-0.29,0.161-0.434
				c-0.582,0.582-1.164,1.164-1.746,1.746c1.088-0.211,2.781,0.412,3.924,0.523c2.023,0.197,4.216-0.197,6.25-0.25
				c4.994-0.13,9.949,0.095,14.927-0.425c4.238-0.443,8.42-0.208,12.656-0.353c2.714-0.093,7.514-1.693,9.905-0.063
				c0-1.439,0-2.878,0-4.317c-7.4,3.371-16.935,1.01-24.79,1.105c-7.909,0.096-16.096,2.195-23.784-0.607
				c-1.863-0.679-3.51,1.356-3.075,3.075c0.81,3.205-0.361,8.243,2.853,10.49c3.402,2.379,9.234,1.146,13.058,0.911
				c6.328-0.389,12.835-0.012,19.175,0.119c6.792,0.141,12.946,2.643,19.739,0.727c2.719-0.767,2.175-4.911-0.665-4.911
				c-0.083,0-0.167,0-0.25,0c-1.363,0-2.5,1.137-2.5,2.5c0,0.167,0,0.333,0,0.5c1.553-0.42,3.106-0.841,4.659-1.262
				c-1.517-2.967-1.555-7.624,1.353-9.83c-1.01-1.309-2.02-2.618-3.029-3.926c-2.632,3.154-2.57,6.046-2.732,10.018
				c1.637-0.222,3.274-0.443,4.911-0.665c-0.368-1.939-0.483-3.876-0.661-5.835c-0.235-2.595-4.491-3.647-4.911-0.665
				c-0.298,2.119-0.813,3.84-1.998,5.653c1.553,0.42,3.106,0.841,4.659,1.262c0.399-3.246,3.086-5.676,1.659-9.012
				C60.143,35.532,55.837,38.082,57.091,41.012L57.091,41.012z"/>
		</g>
	</g>
	<g>
		<g>
			<path fill="#66C8F3" d="M11.488,43.091c-2.742,1.958-1.606,4.585,0.103,6.92c0.879,1.201,2.787,1.835,3.926,0.506
				c1.523-1.776,4.061-1.066,5.991-0.852c2.066,0.23,4.112-0.076,6.156-0.384c3.15-0.476,6.313-0.793,9.465-1.247
				c1.649-0.238,15.647-2.012,15.62-0.785c0.833-0.833,1.667-1.667,2.5-2.5c-10.638,1.368-21.325-0.136-32,0.25
				c-2.694,0.097-3.56,4.478-0.665,4.911c6.076,0.909,12.195,0.222,18.285,0.979c4.418,0.549,8.91,1.535,13.379,1.361
				c3.213-0.125,3.226-5.126,0-5c-4.062,0.159-8.148-0.663-12.159-1.198c-6.047-0.807-12.162-0.063-18.177-0.963
				c-0.222,1.637-0.443,3.274-0.665,4.911c10.675-0.386,21.362,1.118,32-0.25c1.375-0.177,2.467-1.004,2.5-2.5
				c0.17-7.818-13.355-5.212-17.756-4.63c-4.009,0.531-8.037,0.991-12.033,1.594c-5.063,0.764-12.246-1.585-15.978,2.768
				c1.309,0.168,2.617,0.337,3.926,0.506c-0.35-0.479-1.152-1.307-1.096-1.926c-0.413,0.72-0.826,1.439-1.238,2.159
				c0.146-0.104,0.292-0.208,0.438-0.313C16.611,45.552,14.118,41.213,11.488,43.091L11.488,43.091z"/>
		</g>
	</g>
	<g>
		<g>
			<path fill="#66C8F3" d="M304.75,46c10.938,0.421,21.862-0.559,32.807-0.189c4.876,0.165,9.76,0.029,14.637,0.128
				c5.308,0.108,10.5,0.978,15.807,0.311c-0.804-1.055-1.607-2.11-2.411-3.165c-0.255,1.189-0.358,2.006-0.373,3.225
				c-0.031,2.554-1.001,3.8-2.483,5.672c-1.979,2.499,1.533,6.062,3.535,3.535c1.156-1.458,2.486-2.612,3.391-4.256
				c1.156-2.1,0.274-4.616,0.753-6.847c0.304-1.417-0.7-3.38-2.411-3.165c-4.689,0.589-9.31,0.061-14-0.25
				c-5.459-0.362-10.975-0.078-16.443-0.189c-10.937-0.223-21.879,0.61-32.807,0.189C301.524,40.876,301.536,45.876,304.75,46
				L304.75,46z"/>
		</g>
	</g>
	<g>
		<g>
			<path fill="#66C8F3" d="M365.768,52.982c-4.815-5.3-16.51-2.229-22.768-2.482c-7.693-0.313-15.306-1.988-23.021-2.317
				c-4.683-0.2-12.364-1.382-13.641,4.403c1.394-0.368,2.786-0.735,4.179-1.103c-1.134-1.27-0.748-3.963-1.106-5.647
				c-0.582,1.025-1.164,2.05-1.746,3.075c8.788-2.34,17.902-1.229,26.841-0.546c8.388,0.641,16.964,0.665,25.375,0.632
				c1.868-0.007,0.561,0.605-0.63,0.654c-2.404,0.097-4.868-0.495-7.23-0.849c-4.543-0.681-9.068-1.449-13.627-2.03
				c-9.237-1.178-18.623-1.341-27.894-2.271c0,1.667,0,3.333,0,5c5.796-0.743,11.569-0.302,17.322,0.608
				c5.552,0.878,11.097,3.809,16.756,3.458c3.885-0.241,7.1-2.85,11.085-3.072c0.739-0.024,1.478-0.004,2.215,0.058
				c0.492,0.086,0.983,0.171,1.476,0.257c1.316,0.041,1.857,0.758,1.623,2.153c-2.08,0.271-4.329-0.48-6.315-1.007
				c-11.296-2.996-23.414-3.247-34.932-5.17c-6.421-1.072-15.411-2.847-14.479,6.466c0.134,1.334,1.036,2.528,2.5,2.5
				c14.612-0.284,29.228-1.5,43.843-1.5c3.225,0,3.225-5,0-5c-0.197,0-0.396,0-0.593,0c-3.225,0-3.225,5,0,5
				c0.197,0,0.396,0,0.593,0c3.225,0,3.225-5,0-5c-14.615,0-29.23,1.216-43.843,1.5c0.833,0.833,1.667,1.667,2.5,2.5
				c-0.387-3.864,3.817-2.278,6.45-1.911c3.413,0.476,6.796,1.153,10.21,1.629c7.444,1.038,14.928,1.734,22.357,2.89
				c3.702,0.576,18.462,5.669,17.482-3.108c-0.955-8.562-12.077-8.23-18.212-5.743c-3.589,1.456-5.696,1.763-9.559,0.702
				c-3.279-0.9-6.473-1.834-9.828-2.423c-6.143-1.078-12.449-1.582-18.651-0.787c-3.176,0.407-3.254,4.673,0,5
				c12.812,1.286,25.602,1.804,38.333,3.833c5.735,0.914,18.819,4.075,17.113-6.126c-0.449-2.684-3.961-3.157-6.065-3.21
				c-6.18-0.155-12.355-0.193-18.537-0.266c-11.748-0.138-23.414-2.728-35.009,0.359c-1.373,0.366-2.028,1.752-1.746,3.075
				c0.645,3.018,0.223,5.423,2.394,7.853c1.226,1.374,3.783,0.687,4.179-1.103c0.44-1.999,13.796-0.438,15.987-0.234
				c5.452,0.509,10.904,1.619,16.377,1.841c3.122,0.126,6.287-0.209,9.41-0.264c2.35-0.042,7.539-0.674,9.297,1.26
				C364.405,58.909,367.931,55.362,365.768,52.982L365.768,52.982z"/>
		</g>
	</g>
	<g>
		<g>
			<path fill="#66C8F3" d="M8.442,36.942c3.223-3.049,8.578-2.439,12.671-2.243c5.22,0.25,10.442,0.174,15.668,0.189
				c6.407,0.019,12.813,0.09,19.219,0.237c3.615,0.083,7.195,1.121,10.565-0.585c0.719-0.364,0.086-1.442-0.631-1.079
				c-2.741,1.387-5.851,0.723-8.735,0.465c-2.934-0.262-5.943-0.151-8.887-0.195c-6.406-0.095-12.813-0.101-19.219-0.105
				c-6.359-0.004-16.406-2.421-21.536,2.433C6.972,36.613,7.857,37.496,8.442,36.942L8.442,36.942z"/>
		</g>
	</g>
	<g>
		<g>
			<path fill="#66C8F3" d="M302.5,39.125c10.994-0.583,21.998-0.746,33.006-0.775c5.861-0.015,11.723,0.011,17.584,0.021
				c2.647,0.005,10.317,1.465,12.218-0.813c-0.512,0.614,0.367,1.503,0.885,0.884c0.113-0.137,0.228-0.273,0.342-0.41
				c0.312-0.374,0.188-0.877-0.276-1.044c-0.47-0.169-0.828-0.119-1.34-0.04c-2.589,0.398-5.305,0.178-7.918,0.178
				c-5.863,0-11.727-0.023-17.59-0.028c-12.309-0.009-24.617,0.125-36.91,0.778C301.698,37.917,301.694,39.168,302.5,39.125
				L302.5,39.125z"/>
		</g>
	</g>
	<g>
		<g>
			<path fill="#66C8F3" d="M61.594,49.719c0.005,0.335-0.157,0.665-0.228,0.99c0.402,0,0.803,0,1.205,0
				c-0.079-0.489-0.146-0.993-0.031-1.48c-0.409-0.055-0.818-0.111-1.228-0.166c0.052,0.461,0.117,0.92,0.139,1.384
				c0.01,0.195,0.001,0.393-0.022,0.587c-0.007,0.058-0.069,0.201-0.009,0.122c0.125-0.096,0.249-0.191,0.374-0.287
				c0.143,0.032,0.286,0.064,0.429,0.096c-0.62-0.503-1.51,0.375-0.884,0.884c0.596,0.484,1.229,0.175,1.317-0.563
				c0.088-0.751-0.01-1.476-0.094-2.222c-0.073-0.655-1.055-0.904-1.228-0.166c-0.168,0.719-0.086,1.425,0.031,2.145
				c0.1,0.616,1.079,0.582,1.205,0c0.096-0.441,0.28-0.863,0.272-1.322C62.831,48.914,61.581,48.912,61.594,49.719L61.594,49.719z"
				/>
		</g>
	</g>
	<g>
		<g>
			<path fill="#66C8F3" d="M64.625,39.219c0.017-0.324,0.404-0.781,0.598-0.996c0.406-0.449,0.019-1.226-0.608-1.044
				c-2.875,0.831-5.947,1.04-8.928,0.978c0.147,0.355,0.294,0.711,0.442,1.067c1.773-1.536,5.859-0.648,8.061-0.661
				c1.063-0.006,2.182-0.137,2.31-1.344c0.036-0.336-0.312-0.629-0.625-0.625c-1.866,0.027-3.651,0.819-5.554,0.916
				c-2.089,0.106-4.345,0.232-6.394,0.638c-0.791,0.156-0.455,1.361,0.332,1.205c2.194-0.434,4.632-0.521,6.865-0.634
				c1.628-0.083,3.152-0.852,4.75-0.875c-0.208-0.208-0.417-0.417-0.625-0.625c-0.028,0.269-5.335,0.024-5.688,0.041
				c-1.536,0.071-3.109,0.034-4.317,1.08c-0.43,0.373-0.069,1.056,0.442,1.067c3.078,0.064,6.289-0.163,9.26-1.022
				c-0.203-0.348-0.405-0.696-0.608-1.044c-0.467,0.517-0.928,1.165-0.964,1.879C63.333,40.025,64.583,40.021,64.625,39.219
				L64.625,39.219z"/>
		</g>
	</g>
	<g>
		<g>
			<path fill="#66C8F3" d="M52.438,39.156c1.358-0.018,2.616-0.124,3.916-0.522c0.653-0.2,0.561-1.277-0.166-1.228
				c-1.185,0.08-2.307,0.373-3.479,0.554c-0.712,0.11-0.52,1.228,0.166,1.228c1.9,0,3.684-0.724,5.557-0.955
				c1.202-0.148,2.424-0.177,3.631-0.264c0.772-0.056,2.248-0.436,3.021-0.147c0.756,0.283,1.08-0.926,0.332-1.205
				c-1.68-0.627-4.309,0.167-6.083,0.287c-2.182,0.148-4.281,1.034-6.458,1.034c0.055,0.409,0.111,0.818,0.166,1.228
				c1.055-0.163,2.076-0.437,3.146-0.509c-0.055-0.409-0.111-0.818-0.166-1.228c-1.187,0.364-2.353,0.461-3.584,0.478
				C51.632,37.917,51.631,39.167,52.438,39.156L52.438,39.156z"/>
		</g>
	</g>
	<g>
		<g>
			<path fill="#66C8F3" d="M54.834,55.134c1.038,0.325,2.248,0.117,3.322,0.116c0.813-0.001,0.798-1.2,0-1.25
				c-0.78-0.049-1.53-0.221-2.313-0.219c-0.58,0.001-0.91,0.904-0.315,1.165c2.369,1.041,5.203,0.656,7.722,0.992
				c0.401,0.053,0.715-0.439,0.603-0.791c-0.308-0.967-0.849-2.352-1.85-2.78c-0.425-0.182-0.932,0.023-0.94,0.54
				c-0.008,0.496,0.068,0.368-0.299,0.516c-0.399,0.161-0.554,0.521-0.374,0.918c0.421,0.93,1.952,1.318,2.721,0.64
				c0.221-0.194,0.216-0.515,0.098-0.757c-0.223-0.458-0.719-0.594-1.167-0.763c-0.755-0.285-1.079,0.924-0.332,1.205
				c0.148,0.044,0.289,0.107,0.42,0.189c0.033-0.252,0.065-0.505,0.098-0.757c-0.28-0.063-0.532-0.193-0.758-0.387
				c-0.125,0.306-0.249,0.612-0.374,0.918c1.023-0.413,1.197-0.494,1.217-1.721c-0.313,0.18-0.627,0.36-0.94,0.54
				c0.676,0.29,1.068,1.384,1.275,2.033c0.201-0.264,0.402-0.527,0.603-0.791c-2.245-0.299-4.989,0.102-7.091-0.821
				c-0.105,0.388-0.21,0.776-0.315,1.165c0.777-0.002,1.537,0.17,2.313,0.219c0-0.417,0-0.833,0-1.25
				c-0.939,0.001-2.082,0.213-2.99-0.071C54.395,53.687,54.067,54.894,54.834,55.134L54.834,55.134z"/>
		</g>
	</g>
	<g>
		<g>
			<path fill="#66C8F3" d="M66.442,34.879c0.22-0.284,0.52-0.368,0.871-0.379c-0.201-0.153-0.402-0.306-0.603-0.459
				c0.077,0.337-0.209,0.564-0.463,0.732c-0.669,0.442-0.043,1.525,0.631,1.079c0.755-0.5,1.25-1.21,1.037-2.143
				c-0.06-0.263-0.335-0.468-0.603-0.459c-0.646,0.022-1.342,0.213-1.754,0.746C65.071,34.625,65.949,35.516,66.442,34.879
				L66.442,34.879z"/>
		</g>
	</g>
	<g>
		<g>
			<path fill="#66C8F3" d="M12.416,39.585c-1.681-0.57-3.328-1.23-5.063-1.625c-0.385-0.088-0.802,0.181-0.791,0.603
				c0.017,0.673,0.086,1.329,0,2c-0.102,0.798,1.149,0.788,1.25,0c0.086-0.671,0.017-1.327,0-2
				c-0.264,0.201-0.527,0.402-0.791,0.603c1.734,0.395,3.381,1.055,5.063,1.625C12.85,41.05,13.175,39.842,12.416,39.585
				L12.416,39.585z"/>
		</g>
	</g>
	<g>
		<g>
			<path fill="#66C8F3" d="M54.94,53.71c-0.104-0.063-0.208-0.125-0.313-0.188c-0.21,0.36-0.42,0.719-0.631,1.079
				c3.009,1.544,6.345,1.107,9.587,1.625c0.111-0.402,0.221-0.803,0.332-1.205c-2.456-0.386-4.714-1.482-7.179-1.897
				c-1.301-0.219-3.55-0.808-4.772-0.093c-0.654,0.384-0.42,1.363,0.157,1.694c1.689,0.968,4.326,0.556,6.212,0.875
				c0.055-0.409,0.111-0.818,0.166-1.228c-1.812,0.008-3.375-1.014-5.188-1.063c-0.762-0.021-0.774,0.976-0.166,1.228
				c1.415,0.585,2.838,0.952,4.354,1.147c0.72,0.093,0.817-1.035,0.166-1.228c-1.194-0.354-3.472-1.628-4.608-0.652
				c-0.173,0.148-0.205,0.399-0.161,0.608c0.227,1.074,2.015,1.064,2.854,1.169c0.986,0.124,1.988,0.133,2.979,0.177
				c1.075,0.048,4.017-0.356,4.89,0.429c0.597,0.538,1.484-0.344,0.884-0.884c-0.691-0.622-1.367-0.69-2.294-0.692
				c-1.78-0.004-3.554-0.125-5.334-0.185c-0.375-0.013-0.751-0.058-1.125-0.096c-0.407-0.043-0.809-0.108-1.208-0.195
				c-0.537-0.26-0.595-0.044-0.172,0.646c1.015,0.164,1.981,0.589,2.963,0.879c0.055-0.409,0.111-0.818,0.166-1.228
				c-1.406-0.182-2.716-0.563-4.021-1.103c-0.055,0.409-0.111,0.818-0.166,1.228c1.811,0.048,3.363,1.071,5.188,1.063
				c0.686-0.003,0.878-1.107,0.166-1.228c-1.099-0.187-2.198-0.298-3.31-0.391c-0.865-0.072-1.417-0.002-2.285,0.056
				c0.64-0.042,1.3,0.049,1.936,0.1c3.016,0.241,5.638,1.604,8.577,2.065c0.788,0.124,1.127-1.078,0.332-1.205
				c-3.085-0.493-6.434-0.035-9.288-1.5c-0.714-0.367-1.326,0.662-0.631,1.079c0.104,0.063,0.208,0.125,0.313,0.188
				C55.002,55.206,55.631,54.125,54.94,53.71L54.94,53.71z"/>
		</g>
	</g>
	<g>
		<g>
			<path fill="#66C8F3" d="M363.958,38.561c1.003-0.253,1.974-0.599,2.899-1.063c-0.306-0.125-0.612-0.249-0.918-0.374
				c0.17,0.499,0.444,0.95,0.584,1.458c0.201-0.264,0.401-0.527,0.603-0.791c-1.937,0.137-3.688-1.05-5.565-0.082
				c-0.608,0.314-0.245,1.101,0.315,1.165c0.69,0.078,1.416-0.029,2.106-0.067c0.451-0.025,0.903-0.041,1.355-0.041
				c0.198,0,0.396,0.011,0.595,0.024c0.182,0.012,0.442,0.167,0.361,0.023c0.396,0.703,1.476,0.072,1.08-0.631
				c-0.412-0.732-1.538-0.667-2.253-0.667c-1.069,0.001-2.181,0.228-3.245,0.107c0.105,0.388,0.21,0.776,0.315,1.165
				c1.501-0.774,3.333,0.366,4.935,0.252c0.401-0.028,0.716-0.378,0.603-0.791c-0.14-0.512-0.413-0.958-0.584-1.458
				c-0.136-0.398-0.543-0.562-0.918-0.374c-0.831,0.416-1.701,0.709-2.601,0.937C362.845,37.553,363.176,38.759,363.958,38.561
				L363.958,38.561z"/>
		</g>
	</g>
	<g>
		<g>
			<path fill="#66C8F3" d="M365.875,38.395c0.054-0.021,0.109-0.027,0.167-0.02c0.341,0.02,0.625-0.299,0.625-0.625
				c0-0.014,0-0.028,0-0.042c0-0.414-0.398-0.701-0.791-0.603c-0.056,0.014-0.11,0.027-0.166,0.042
				c-0.49,0.122-0.656,0.916-0.149,1.142c0.088,0.034,0.171,0.075,0.25,0.125c0.702,0.399,1.331-0.681,0.631-1.079
				c-0.079-0.05-0.162-0.091-0.25-0.125c-0.05,0.381-0.1,0.761-0.149,1.142c0.056-0.014,0.11-0.027,0.166-0.042
				c-0.264-0.201-0.527-0.402-0.791-0.603c0,0.014,0,0.028,0,0.042c0.208-0.208,0.417-0.417,0.625-0.625
				c-0.176-0.01-0.33,0.021-0.499,0.064C364.764,37.392,365.095,38.598,365.875,38.395L365.875,38.395z"/>
		</g>
	</g>
	<g>
		<g>
			<path fill="#66C8F3" d="M366.959,37.5c0.048-0.483,0.054-0.936-0.022-1.416c-0.401,0.111-0.804,0.221-1.205,0.332
				c0.154,0.518,0.553,1.111,0.458,1.668c-0.135,0.788,1.069,1.125,1.205,0.332c0.149-0.871-0.217-1.523-0.458-2.332
				c-0.235-0.789-1.329-0.447-1.205,0.332c0.057,0.358,0.013,0.726-0.022,1.084C365.63,38.302,366.881,38.294,366.959,37.5
				L366.959,37.5z"/>
		</g>
	</g>
	<g>
		<g>
			<path fill="#36A9E1" d="M290.792,36.5c-0.092,1.066-0.32,2.294-0.764,3.271c-0.186,0.408,0.494,0.295,0.476-0.063
				c-0.02-0.386,0.094-0.783,0.18-1.155c0.144-0.625,0.362-1.242,0.4-1.886c0.043-0.71-1.059-0.844-1.228-0.166
				c-0.199,0.799-0.02,2.021-0.548,2.682c0.349,0.092,0.697,0.184,1.045,0.276c-0.095-0.689,0.385-1.305,0.729-1.852
				c-0.389-0.105-0.776-0.21-1.165-0.315c0.023,1.549-0.627,3.03-0.019,4.541c0.297,0.738,1.506,0.416,1.205-0.332
				c-0.552-1.371,0.084-2.792,0.063-4.209c-0.01-0.632-0.835-0.839-1.165-0.315c-0.572,0.911-1.005,1.719-0.854,2.814
				c0.062,0.448,0.769,0.621,1.045,0.276c0.752-0.941,0.592-2.124,0.868-3.234c-0.409-0.055-0.818-0.111-1.228-0.166
				c-0.062,1.028-0.547,1.994-0.58,3.041c-0.02,0.624,0.439,1.635,1.228,1.323c0.726-0.287,0.921-1.336,1.096-2
				c0.217-0.822,0.392-1.682,0.465-2.531C292.111,35.696,290.86,35.703,290.792,36.5L290.792,36.5z"/>
		</g>
	</g>
	<g>
		<g>
			<path fill="#36A9E1" d="M300.517,41.942c0.616,0.718,0.846,1.691,1.175,2.558c0.198,0.521,0.415,1.03,0.588,1.561
				c0.067,0.206,0.322,1.545,0.364,1.524c0.306,0.235,0.612,0.47,0.918,0.706c0.007-0.005,0.014-0.011,0.021-0.017
				c0.455-0.668-0.629-1.292-1.08-0.631c-0.067,0.099-0.109,0.201-0.146,0.316c-0.175,0.557,0.454,0.938,0.918,0.706
				c0.99-0.495,0.317-2.609,0.071-3.361c-0.459-1.403-0.971-3.111-1.944-4.246C300.875,40.445,299.995,41.334,300.517,41.942
				L300.517,41.942z"/>
		</g>
	</g>
	<g>
		<g>
			<path fill="#36A9E1" d="M304.292,47.75c-0.107-1.36-0.597-2.629-1.168-3.857c-0.591-1.27-1.708-1.896-2.85-2.599
				c-0.688-0.424-1.315,0.657-0.631,1.079c0.855,0.527,1.692,0.958,2.239,1.837c0.621,0.999,1.066,2.369,1.159,3.54
				C303.105,48.548,304.355,48.554,304.292,47.75L304.292,47.75z"/>
		</g>
	</g>
	<g>
		<g>
			<path fill="#36A9E1" d="M290.332,50.477c-0.204-0.318-0.343-0.456-0.641-0.683c-0.304-0.231-0.857,0.002-0.918,0.374
				c-0.139,0.845,0.037,1.738-0.292,2.542c0.401,0,0.804,0,1.205,0c-0.204-0.695-0.164-1.298-0.145-2
				c-0.389,0.105-0.776,0.21-1.165,0.315c0.688,1.307,0.722,2.823,1.271,4.184c0.639,1.583,1.629,3.063,2.563,4.482
				c0.441,0.67,1.524,0.045,1.08-0.631c-0.971-1.475-1.96-3-2.623-4.644c-0.531-1.317-0.537-2.743-1.211-4.023
				c-0.301-0.571-1.148-0.281-1.165,0.315c-0.022,0.815-0.041,1.549,0.189,2.333c0.188,0.641,0.981,0.546,1.205,0
				c0.347-0.845,0.146-1.651,0.292-2.542c-0.306,0.125-0.612,0.249-0.918,0.374c0.063,0.078,0.128,0.156,0.191,0.234
				C289.686,51.784,290.768,51.158,290.332,50.477L290.332,50.477z"/>
		</g>
	</g>
	<g>
		<g>
			<path fill="#36A9E1" d="M291.377,58.899c0.515,0.937,1.232,1.734,2.169,2.26c0.542,0.305,1.715,0.764,2.078-0.01
				c0.34-0.725-0.737-1.36-1.08-0.631c0.382-0.115,0.469-0.185,0.263-0.209c-0.091-0.024-0.182-0.052-0.271-0.084
				c-0.256-0.085-0.479-0.208-0.706-0.353c-0.599-0.38-1.037-0.994-1.372-1.604C292.069,57.561,290.989,58.192,291.377,58.899
				L291.377,58.899z"/>
		</g>
	</g>
	<g>
		<g>
			<path fill="#36A9E1" d="M11.167,32.75c0.02-0.172,0.057-0.326,0.042-0.5c-0.066-0.795-1.305-0.808-1.25,0
				c0.041,0.085,0.018,0.146-0.067,0.183c-0.383,0.366-0.105,1.095,0.442,1.067c0.869-0.044,1.641-0.525,1.978-1.334
				c0.24-0.576-0.655-1.071-1.044-0.608c-0.14,0.167-0.267,0.294-0.457,0.402c-0.701,0.398-0.071,1.479,0.631,1.079
				c0.278-0.158,0.505-0.354,0.71-0.598c-0.348-0.203-0.696-0.405-1.044-0.608c-0.105,0.253-0.527,0.403-0.772,0.416
				c0.147,0.355,0.294,0.711,0.442,1.067c0.305-0.292,0.462-0.642,0.433-1.067c-0.417,0-0.833,0-1.25,0
				c0.014,0.17-0.022,0.331-0.042,0.5C9.824,33.55,11.075,33.541,11.167,32.75L11.167,32.75z"/>
		</g>
	</g>
	<g>
		<g>
			<path fill="#36A9E1" d="M17.814,55.791c0.018,0.097,0.024,0.194,0.02,0.292c0.264-0.201,0.527-0.402,0.791-0.603
				c-0.727-0.198-1.502-0.271-1.769,0.603c-0.109,0.356,0.129,0.641,0.437,0.769c0.979,0.407,2.778,0.388,3.566-0.411
				c0.566-0.574-0.317-1.458-0.884-0.884c-0.463,0.469-1.796,0.319-2.35,0.089c0.146,0.256,0.291,0.512,0.437,0.769
				c-0.234,0.104-0.273,0.162-0.116,0.175c0.117,0.024,0.232,0.064,0.348,0.095c0.389,0.106,0.795-0.195,0.791-0.603
				c-0.002-0.213-0.022-0.416-0.064-0.625C18.86,54.669,17.655,55.004,17.814,55.791L17.814,55.791z"/>
		</g>
	</g>
</g>
<g id="Layer_1">
	<g>
		<g>
			<path d="M73.318,32.171c-4.008-2.915-7.403,1.8-9.029,5.037c-2.502,4.985-3.943,11.853-2.023,17.246
				c2.195,6.166,8.838,4.503,12.197,0.438c6.209-7.512,1.818-16.412-2.385-23.648c-0.809-1.393-2.97-0.135-2.158,1.262
				c3.381,5.822,7.128,12.115,3.874,18.834c-1.327,2.74-4.406,6.128-7.72,4.269c-1.688-0.948-1.984-3.632-2.113-5.305
				c-0.22-2.849,2.823-19.809,8.095-15.975C73.363,35.279,74.608,33.109,73.318,32.171L73.318,32.171z"/>
		</g>
	</g>
	<g>
		<g>
			<path d="M69,32.75c0.333,0,0.667,0,1,0c1.612,0,1.612-2.5,0-2.5c-18.667,0-37.333,0-56,0c-1.612,0-1.612,2.5,0,2.5
				c0.667,0,1.333,0,2,0c1.612,0,1.612-2.5,0-2.5c-0.667,0-1.333,0-2,0c-1.612,0-1.612,2.5,0,2.5c18.667,0,37.333,0,56,0
				c1.612,0,1.612-2.5,0-2.5c-0.333,0-0.667,0-1,0C67.388,30.25,67.388,32.75,69,32.75L69,32.75z"/>
		</g>
	</g>
	<g>
		<g>
			<path d="M67.5,56.5c-17.583,0-35.167,0-52.75,0c-1.612,0-1.612,2.5,0,2.5c0.417,0,0.833,0,1.25,0c1.612,0,1.612-2.5,0-2.5
				c-0.417,0-0.833,0-1.25,0c-1.612,0-1.612,2.5,0,2.5c17.583,0,35.167,0,52.75,0C69.112,59,69.112,56.5,67.5,56.5L67.5,56.5z"/>
		</g>
	</g>
	<g>
		<g>
			<path d="M13.884,31.116c-4.448-5.694-8.786,6.063-9.517,9.123C2.246,49.112,7.313,58.287,16.75,58.5
				c1.613,0.037,1.609-2.463,0-2.5C8.831,55.821,6.32,49.199,6.625,42.266c0.084-1.896,3.548-11.869,5.491-9.382
				C13.108,34.153,14.864,32.371,13.884,31.116L13.884,31.116z"/>
		</g>
	</g>
	<g>
		<g>
			<path d="M72,44c-0.932,9.833,22.869,3.542,27.18,2.602c4.744-1.035,10.013-1.957,14.444-4.032
				c9.658-4.523,19.26-14.906,30.793-11.614c0.222-0.804,0.443-1.607,0.665-2.411c-6.783-1.591-11.489-0.128-15.157,6.122
				c-2.675,4.56-3.591,11.969,1.443,15.163c10.619,6.738,14.598-14.327,15.586-20.247c-0.819-0.111-1.637-0.222-2.456-0.333
				c-0.199,12.708,2.024,25.379,1.431,38.067c-0.379,8.1-3.834,23.145-14.344,13.248c-8.292-7.81,9.074-23.76,13.77-29.285
				c8.524-10.03,19.134-20.836,24.101-33.219c2.522-6.289,1.877-15.517-6.858-14.278c-9.238,1.31-11.951,12.826-12.536,20.374
				c-0.68,8.776-0.961,22.055,7.319,27.566c2.803,1.866,6.795,0.979,9.245-1.032c5.852-4.802,7.886-12.255,14.301-16.603
				c3.032-2.055,7.679-4.561,11.49-3.631c0.11-0.819,0.222-1.637,0.332-2.456c-7.305-0.566-12.547,4.283-14.167,11.184
				c-1.206,5.134-1.419,12.59,4.624,14.479c9.315,2.911,12.393-17.985,13.498-23.33c-0.804-0.222-1.606-0.443-2.41-0.665
				c-0.947,5.755-5.068,23.444,5.077,23.802c11.646,0.411,12.36-18.75,18.012-25.335c-0.711-0.294-1.423-0.589-2.134-0.884
				c0.125,4.978,2.608,8.6,5.293,12.616c1.737,2.598,3.596,5.979,2.771,9.203c-0.273,1.066-0.813,2.044-1.362,2.988
				c-0.381-0.734-0.147-0.955,0.701-0.665c0.728,0.068,1.441,0.203,2.142,0.406c4.976,1.258,6.132,3.509,10.685-0.34
				c2.687-2.272,4.066-5.325,7.173-7.275c3.008-1.888,7.78-4.583,11.217-2.354c1.356,0.881,2.608-1.285,1.262-2.158
				c-5.971-3.875-15.264,2.252-18.905,7.012c-2.553,3.337-5.226,5.052-9.345,3.238c-1.072-0.472-2.195-0.797-3.362-0.93
				c-1.617-0.185-5.138-0.175-5.104,2.333c0.026,1.927,0.931,4.021,3.066,4.082c2.125,0.062,3.367-3.387,3.979-4.886
				c3.422-8.388-7.508-15.224-7.709-23.27c-0.025-1.017-1.389-1.751-2.134-0.884c-5.716,6.66-5.742,16.776-12.096,23.115
				c-5.414,5.403-8.165-2.77-8.244-6.967c-0.078-4.1,0.767-8.157,1.429-12.182c0.258-1.562-2.08-2.261-2.41-0.665
				c-1.351,6.529-2.548,13.61-6.313,19.248c-1.218,1.823-3.008,2.939-5.151,1.938c-2.791-1.303-2.432-5.554-2.277-8.066
				c0.424-6.898,4.715-12.868,12.196-12.288c1.421,0.11,1.685-2.125,0.332-2.456c-5.191-1.266-10.717,2.054-14.855,4.86
				c-5.056,3.427-7.137,9.117-10.86,13.712c-7.755,9.57-13.852-2.13-14.478-9.417c-0.531-6.176-0.758-12.411,0.378-18.533
				c1.035-5.572,4.193-11.046,9.996-12.473c9.452-2.325,2.867,13.573,1.127,16.582c-7.169,12.393-17.87,23.34-27.17,34.155
				c-4.899,5.697-11.364,13.181-9.754,21.269c1.189,5.977,10.121,10.56,15.245,6.754c4.941-3.67,5.388-12.082,5.721-17.637
				c0.758-12.662-1.629-25.377-1.431-38.067c0.021-1.381-2.219-1.745-2.456-0.333c-0.991,5.936-1.933,14.631-7.054,18.554
				c-2.088,1.599-5.1,0.683-6.503-1.365c-1.399-2.043-0.595-5.354-0.007-7.498c0.672-2.452,2.121-4.366,3.821-6.198
				c2.697-2.907,6.177-2.262,9.617-1.455c1.567,0.368,2.218-1.968,0.665-2.411c-7.664-2.187-14.471,1.059-20.949,4.99
				c-5.878,3.567-11.299,7.071-18.001,8.823C102.368,43.341,73.881,50.533,74.5,44C74.652,42.395,72.151,42.41,72,44L72,44z"/>
		</g>
	</g>
	<g>
		<g>
			<path d="M254.668,41.956c3.618,1.036,6.481,3.489,9.645,5.421c2.826,1.728,5.996,2.25,9.239,2.538
				c7.522,0.667,15.361-1.47,22.53-3.459c-0.527-0.402-1.055-0.804-1.582-1.206c0,0.5,0,1,0,1.5c0,1.612,2.5,1.612,2.5,0
				c0-0.5,0-1,0-1.5c0-0.812-0.799-1.423-1.582-1.206c-7.156,1.986-14.391,3.662-21.866,3.37c-7.35-0.287-11.564-5.964-18.22-7.87
				C253.779,39.1,253.121,41.512,254.668,41.956L254.668,41.956z"/>
		</g>
	</g>
	<g>
		<g>
			<path d="M50.583,31.044c-5.231-1.461-7.19,4.468-7.978,8.522c-0.532,2.737-0.36,5.471,0.083,8.207
				c0.744,4.598,4.665,5.894,6.482,9.607c0.708,1.448,2.864,0.18,2.158-1.262c-0.739-1.51-1.825-2.372-3.123-3.429
				c-2.939-2.394-3.375-6.212-3.456-9.69c-0.061-2.62,1.058-10.693,5.167-9.544C51.473,33.89,52.133,31.478,50.583,31.044
				L50.583,31.044z"/>
		</g>
	</g>
	<g>
		<g>
			<path d="M39,30.5c-6.171-0.245-7.82,6.524-8.25,11.5c-0.665,7.705,3.672,11.911,9.869,15.579
				c1.391,0.823,2.647-1.338,1.262-2.158c-4.358-2.58-8.145-5.221-8.695-10.645C32.792,40.893,33.804,32.793,39,33
				C40.613,33.064,40.606,30.564,39,30.5L39,30.5z"/>
		</g>
	</g>
	<g>
		<g>
			<path d="M28.171,31.869c-6.34,8.278-4.656,18.913,3.195,25.515c1.225,1.03,3.003-0.729,1.768-1.768
				c-7.078-5.952-8.513-15.031-2.805-22.485C31.31,31.851,29.137,30.608,28.171,31.869L28.171,31.869z"/>
		</g>
	</g>
	<g>
		<g>
			<path d="M25.381,32.421c-3.495-1.597-5.816,5.413-6.586,7.747c-1.093,3.313-1.616,7.376-0.021,10.64
				c1.701,3.48,3.297,4.479,6.596,6.272c1.417,0.771,2.678-1.388,1.262-2.158c-1.331-0.724-2.785-1.243-3.938-2.254
				c-2.787-2.444-2.617-7.229-1.907-10.429c0.26-1.175,3.173-7.732,3.333-7.659C25.574,35.244,26.846,33.09,25.381,32.421
				L25.381,32.421z"/>
		</g>
	</g>
	<g>
		<g>
			<path d="M293.881,34.829c4.168-1.831,7.084,4.502,8.255,7.436c1.828,4.576,2.744,9.96,1.825,14.84
				c-1.412,7.496-9.54,5.585-13.042,0.426c-2.249-3.313-4.108-24.356,3.749-23.076c1.576,0.257,2.252-2.152,0.664-2.411
				c-9.885-1.61-9.473,16.236-8.385,22.058c1.267,6.782,11.089,14.903,17.214,8.423c6.454-6.826,0.552-35.169-11.542-29.855
				C291.146,33.318,292.42,35.471,293.881,34.829L293.881,34.829z"/>
		</g>
	</g>
	<g>
		<g>
			<path d="M295.832,33.956c5.274-1.081,10.764-0.137,16.088,0.179c5.755,0.342,11.507,0.432,17.269,0.257
				c5.588-0.169,11.166-0.583,16.754-0.764c2.852-0.092,17.086-1.208,18.103,1.955c0.491,1.528,2.905,0.875,2.41-0.665
				c-1.299-4.041-5.734-3.287-9.413-3.602c-6.763-0.58-13.604-0.13-20.366,0.227c-6.988,0.369-13.938,0.549-20.935,0.284
				c-6.797-0.258-13.853-1.659-20.573-0.281C293.589,31.868,294.259,34.278,295.832,33.956L295.832,33.956z"/>
		</g>
	</g>
	<g>
		<g>
			<path d="M364.168,33.956c3.574,0.813,4.335,11.363,3.893,14.2c-0.812,5.193-5.168,13.512-11.479,12.139
				c-1.571-0.342-2.239,2.068-0.664,2.411c8.088,1.76,13.088-7.19,14.553-13.885c0.941-4.303-0.392-16.083-5.639-17.276
				C363.263,31.188,362.596,33.598,364.168,33.956L364.168,33.956z"/>
		</g>
	</g>
	<g>
		<g>
			<path d="M301.634,64.384c3.43-2.725,8.647-2.274,12.774-2.189c4.354,0.089,8.583-0.129,12.925-0.546
				c6.04-0.581,11.637-0.281,17.628,0.703c5.081,0.834,10.059,1.3,15.121,0.105c1.569-0.371,0.903-2.781-0.664-2.411
				c-6.6,1.559-12.855-0.228-19.415-0.97c-6.111-0.691-12.075,0.077-18.17,0.567c-7.083,0.57-15.939-1.815-21.967,2.975
				C298.604,63.619,300.386,65.375,301.634,64.384L301.634,64.384z"/>
		</g>
	</g>
	<g>
		<g>
			<path d="M321.369,34.329C326.325,38.116,332.962,58.042,323,59c-1.59,0.153-1.604,2.654,0,2.5
				c13.348-1.285,6.55-24.043-0.369-29.329C321.35,31.191,320.106,33.365,321.369,34.329L321.369,34.329z"/>
		</g>
	</g>
	<g>
		<g>
			<path d="M329,35.75c1.9,0.089,3.711,5.885,4.343,7.351c1.042,2.417,1.687,4.738,1.943,7.377c0.349,3.58-2.106,5.305-4.17,7.638
				c-1.063,1.203,0.697,2.978,1.768,1.768c1.749-1.978,3.503-3.403,4.52-5.878c1.27-3.087,0.005-8.047-1.324-10.887
				c-1.393-2.975-2.987-9.677-7.079-9.869C327.388,33.174,327.395,35.675,329,35.75L329,35.75z"/>
		</g>
	</g>
	<g>
		<g>
			<path d="M336.918,34.956c7.845,1.374,2.533,22.868,2.414,22.839c-1.566-0.378-2.231,2.033-0.664,2.411
				c6.056,1.461,8.377-26.004-1.086-27.661C336.006,32.269,335.332,34.678,336.918,34.956L336.918,34.956z"/>
		</g>
	</g>
	<g>
		<g>
			<path d="M342.75,61.25c6.601-0.118,6.846-10.733,6.885-15.292c0.03-3.359-0.069-15.441-5.884-14.497
				c-1.589,0.258-0.912,2.667,0.664,2.411c2.411-0.392,5.796,24.745-1.665,24.878C341.14,58.779,341.137,61.279,342.75,61.25
				L342.75,61.25z"/>
		</g>
	</g>
	<g id="Layer_2">
	</g>
	<g display="none">
		<g display="inline">
			<path d="M78.044-501.079c13.871-23.355,52.73-16.256,66.006,4.047c3.87,5.918,4.685,12.808,4.04,19.724
				c-0.53,5.688-3.33,10.667-2.446,16.48c1.078,7.083,6.912,13.063,10.255,19.175c1.526,2.792,2.853,5.856,2.773,9.09
				c-0.12,4.891-7.24,5.657-10.747,5.996c-1.309,0.126-2.004,1.094-1.809,2.374c0.004,1.031-0.162,2.032-0.5,3.003
				c-0.278,1.056,0.346,1.945,1.311,2.307c0.795,0.298,1.52,0.24,2.333,0.5c-0.374-0.918-0.747-1.836-1.12-2.754
				c-2.135,3.733-6.078,3.175-9.781,3.879c-2.692,0.512-4.59,2.312-5.886,4.621c-0.71,1.266,0.194,2.774,1.619,2.821
				c2.641,0.087,5.681,0.262,7.268,2.691c1.534,2.35-0.634,6.033-1.778,7.988c-3.124,5.329-7.252,7.003-13.134,6.48
				c-11.735-1.043-23.613-3.824-35.188-0.342c-2.31,0.695-1.325,4.314,0.997,3.616c9.583-2.883,19.343-1.102,29.084-0.124
				c5.647,0.567,11.9,2.003,16.667-2.063c4.093-3.492,8.055-9.249,7.409-14.89c-0.641-5.59-6.662-6.952-11.325-7.106
				c0.54,0.94,1.079,1.881,1.619,2.821c2.053-3.657,6.084-3.063,9.669-3.768c2.738-0.538,4.661-2.395,5.998-4.732
				c0.619-1.083,0.034-2.385-1.121-2.754c-0.732-0.234-1.633-0.237-2.334-0.5c0.438,0.769,0.873,1.538,1.311,2.307
				c0.514-1.95,0.799-3.043,0.5-4.997c-0.604,0.791-1.206,1.583-1.809,2.374c6.433-0.621,13.607-2.329,14.497-9.746
				c0.932-7.773-6.462-16.015-10.177-22.087c-2.257-3.689-3.676-7.542-2.804-11.856c0.655-3.239,1.821-6.315,2.245-9.613
				c1.035-8.057-0.14-15.842-4.398-22.806c-14.225-23.26-57.42-29.408-72.482-4.046C73.568-500.888,76.811-499.002,78.044-501.079
				L78.044-501.079z"/>
		</g>
	</g>
	<g display="none">
		<g display="inline">
			<path d="M161.84-424.362c2.835,4.148,3.787,9.136,0.293,13.228c-1.561,1.828,1.079,4.494,2.651,2.651
				c4.568-5.35,4.156-12.121,0.293-17.772C163.723-428.238,160.471-426.364,161.84-424.362L161.84-424.362z"/>
		</g>
	</g>
	<g display="none">
		<g display="inline">
			<path d="M168.173-431.695c6.618,9.17,9.602,23.169-0.04,31.395c-1.843,1.572,0.823,4.211,2.651,2.651
				c10.864-9.267,8.201-25.444,0.627-35.938C170.011-435.529,166.755-433.66,168.173-431.695L168.173-431.695z"/>
		</g>
	</g>
	<g display="none">
		<g display="inline">
			<path d="M-370.659,97.428c12.337,18.273,34.523,29.994,56.657,24.149c9.245-2.441,17.162-8.532,21.886-16.821
				c6.084-10.676,5.538-23.708,2.693-35.254c-0.194-0.788-0.927-1.59-1.746-1.746c-25.544-4.878-46.102-24.527-50.92-50.254
				c-1.224,0.941-2.448,1.882-3.672,2.823c21.4,11.105,46.689,11.263,67.19-2c1.228-0.794,1.488-2.139,0.897-3.42
				c-5.865-12.715-14.704-24.543-22.122-36.38c-2.983-4.759-6.062-9.477-8.888-14.333c-1.106-1.9,1.902-9.227,3.063-11.387
				c1.614-3.002,4.472-4.241,7.599-5.078c6.664-1.785,11.854-3.692,15.888-9.673c5.583-8.278,9.61-19.753,11.35-29.568
				c2.298-12.96-3.125-22.14-13.788-29.043c-12.975-8.399-26.015-14.8-34.967-28.043c-6.049-8.949-10.592-19.756-11.939-30.513
				c-0.826-6.585,0.181-13.207-0.494-19.788c-1.666-16.244-17.894-28.039-31.449-34.609c-17.25-8.361-37.164-13.948-56.354-14.809
				c-6.164-0.276-13.499-0.052-18.491,4.05c-2.493,2.048,1.065,5.564,3.535,3.535c4.959-4.075,14.345-2.764,20.159-2.221
				c10.208,0.955,20.316,3.504,30.077,6.562c17.186,5.383,37.897,14.222,45.966,31.668c2.637,5.701,1.665,12.398,1.654,18.464
				c-0.016,8.898,1.972,17.566,5.467,25.734c7.174,16.766,18.177,28.705,33.715,37.991c9.856,5.89,22.202,11.139,22.51,24.324
				c0.232,9.907-4.517,20.023-8.648,28.737c-1.942,4.096-3.949,7.805-8.03,10.054c-2.672,1.472-5.891,1.852-8.791,2.687
				c-7.186,2.07-10.499,7.844-12.06,14.821c-0.583,2.604-1.688,6.172-0.289,8.627c1.077,1.89,2.26,3.724,3.408,5.57
				c8.303,13.351,16.855,26.561,24.832,40.111c0.968,1.645,1.97,3.295,2.771,5.031c0.299-1.14,0.598-2.28,0.897-3.42
				c-18.989,12.285-42.275,12.31-62.143,2c-2.036-1.057-4.078,0.656-3.672,2.823c5.109,27.279,27.317,48.572,54.413,53.746
				c-0.582-0.582-1.164-1.164-1.746-1.746c4.712,19.124-0.3,39.929-21.087,45.925c-19.675,5.675-40.142-5.753-51.01-21.851
				C-368.135,92.249-372.469,94.748-370.659,97.428L-370.659,97.428z"/>
		</g>
	</g>
	<g display="none">
		<g display="inline">
			<path d="M-17.086-339.63c10.373,0.926,21.001,2.313,31.281-0.093c4.473-1.047,8.523-3.279,11.199-7.063
				c2.442-3.453,3.349-11.087,0.863-14.703c-0.463-0.673-1.267-1.343-2.159-1.238c-7.34,0.862-14.481-2.981-20.305-7.055
				c-5.33-3.729-12.826-10.761-11.74-18.021c-1.224,0.498-2.448,0.996-3.672,1.494c13.256,8.174,30.292,5.031,44.57,1.664
				c1.715-0.404,2.566-2.986,1.103-4.178c-6.888-5.617-10.355-13.4-10.563-22.237c-1.055,0.804-2.11,1.607-3.165,2.411
				c4.883,1.493,13.366,3.861,16.446-2.004c2.545-4.848-1.001-11.488-3.187-15.771c-3.184-6.243-7.253-12.022-11.231-17.773
				c-6.713-9.707-9.375-20.7-13.417-31.62c-3.743-10.113-10.064-19.601-20.021-24.376c-8.021-3.847-17.229-3.325-25.515-0.69
				c-9.22,2.932-17.426,8.753-24.334,15.404c-8.506,8.19-13.568,18.243-18.513,28.82c-1.356,2.902,2.953,5.442,4.317,2.523
				c4.236-9.063,8.406-17.706,15.169-25.169c5.86-6.465,13.013-11.719,20.951-15.332c7.524-3.424,16.068-4.48,23.964-1.815
				c10.3,3.477,16.213,14.002,19.749,23.553c3.576,9.66,5.746,19.742,11.463,28.482c2.812,4.298,5.845,8.444,8.604,12.779
				c3.075,4.834,6.301,10.019,7.603,15.661c1.517,6.572-7.34,3.539-10.718,2.506c-1.535-0.469-3.202,0.813-3.165,2.411
				c0.237,10.051,4.154,19.352,12.028,25.772c0.368-1.393,0.735-2.786,1.103-4.178c-12.93,3.05-28.676,6.265-40.717-1.16
				c-1.256-0.774-3.433-0.109-3.672,1.494c-1.341,8.959,5.065,16.456,11.561,21.784c6.744,5.531,16.288,10.68,25.305,9.621
				c-0.72-0.413-1.439-0.826-2.159-1.238c2.204,3.206,0.099,9.003-2.374,11.331c-2.879,2.709-7.61,3.476-11.369,3.909
				c-8.402,0.967-16.912-0.157-25.283-0.904C-20.299-344.917-20.271-339.915-17.086-339.63L-17.086-339.63z"/>
		</g>
	</g>
</g>
<g id="Layer_4" display="none">
	<g display="inline">
		<g>
			<g>
				<path d="M377.214,40.78c2,3.1,3.718,7.803,0.793,10.895c-1.66,1.755,0.987,4.411,2.652,2.651
					c4.143-4.379,2.783-10.803-0.207-15.438C379.146,36.863,375.898,38.741,377.214,40.78L377.214,40.78z"/>
			</g>
		</g>
		<g>
			<g>
				<path d="M382.387,34.953c7.939,5.103,7.369,17.711,1.12,23.889c-1.722,1.702,0.932,4.353,2.652,2.651
					c8.033-7.94,8.081-23.376-1.88-29.778C382.238,30.403,380.36,33.65,382.387,34.953L382.387,34.953z"/>
			</g>
		</g>
		<g>
			<g>
				<path d="M385.007,27.492c9.09,9.135,15.95,28.668,2.38,37.055c-2.053,1.269-0.171,4.513,1.893,3.238
					c15.761-9.74,9.292-31.978-1.62-42.945C385.951,23.125,383.301,25.777,385.007,27.492L385.007,27.492z"/>
			</g>
		</g>
		<g>
			<g>
				<path d="M-3.159,38.841c-2.304,1.961-4.613,4.399-4.591,7.617c0.021,3.209,3.115,5.341,5.637,6.661
					c2.14,1.12,4.036-2.117,1.893-3.238C-1.522,49.2-3.784,48.153-4,46.458c-0.255-2.001,2.186-3.853,3.493-4.966
					C1.337,39.923-1.329,37.283-3.159,38.841L-3.159,38.841z"/>
			</g>
		</g>
		<g>
			<g>
				<path d="M-10.492,33.174c-7.181,7.939-7.676,16.861,0,24.651c1.699,1.725,4.35-0.928,2.651-2.651
					c-6.203-6.296-5.817-12.917,0-19.349C-6.223,34.038-8.867,31.377-10.492,33.174L-10.492,33.174z"/>
			</g>
		</g>
		<g>
			<g>
				<path d="M-13.786,22.887c-10.343,14.507-15.412,34.399-3.04,49.272c1.548,1.861,4.186-0.807,2.651-2.651
					c-11.258-13.535-5.596-31.791,3.627-44.728C-9.14,22.806-12.395,20.937-13.786,22.887L-13.786,22.887z"/>
			</g>
		</g>
	</g>
	<g display="inline">
		<g>
			<g>
				<path d="M10.078,60.479c-0.75-0.278-2.447-0.187-2.512,0.864c-0.043,0.693,0.704,1.385,1.314,1.555
					c0.579,0.161,1.232-0.1,1.639-0.513c0.227-0.23-0.127-0.583-0.354-0.354c-0.275,0.28-0.633,0.42-1.025,0.405
					c-0.478-0.018-1.165-0.661-1.065-1.166c0.107-0.544,1.502-0.445,1.87-0.309C10.248,61.074,10.377,60.591,10.078,60.479
					L10.078,60.479z"/>
			</g>
		</g>
		<g>
			<g>
				<path d="M12.501,59.155c0.029,1.413,0.244,2.876,0.009,4.28c-0.053,0.315,0.429,0.45,0.482,0.133
					c0.243-1.454,0.039-2.95,0.009-4.413C12.995,58.833,12.495,58.832,12.501,59.155L12.501,59.155z"/>
			</g>
		</g>
		<g>
			<g>
				<path d="M14.249,60.5c0.159-0.286,0.383-0.823,0.71-0.959c0.072-0.03,0.178,0.936,0.181,0.987
					c0.057,1.027-0.058,2.071-0.175,3.09c-0.037,0.32,0.464,0.316,0.5,0c0.098-0.853,0.172-1.707,0.184-2.566
					c0.007-0.516,0.028-1.168-0.205-1.648c-0.504-1.039-1.381,0.403-1.627,0.844C13.66,60.529,14.092,60.781,14.249,60.5
					L14.249,60.5z"/>
			</g>
		</g>
		<g>
			<g>
				<path d="M15.99,61.839c-0.229,0.804,0.083,1.48,0.744,1.958c0.262,0.189,0.511-0.245,0.252-0.432
					c-0.479-0.347-0.677-0.82-0.513-1.394C16.562,61.662,16.079,61.53,15.99,61.839L15.99,61.839z"/>
			</g>
		</g>
		<g>
			<g>
				<path d="M17.161,61.96c0.178,0.556,0.234,1.179,0.501,1.703c0.091,0.18,0.333,0.246,0.477,0.086
					c0.209-0.231,0.141-0.742,0.142-1.018c0.002-0.323-0.498-0.322-0.5,0c-0.001,0.146-0.003,0.29-0.008,0.436
					c-0.003,0.066-0.008,0.133-0.014,0.199c-0.05,0.16,0.062,0.175,0.335,0.044c-0.081-0.125-0.108-0.306-0.148-0.447
					c-0.105-0.377-0.183-0.763-0.302-1.136C17.545,61.521,17.063,61.652,17.161,61.96L17.161,61.96z"/>
			</g>
		</g>
		<g>
			<g>
				<path d="M18.272,62.379c0.005-0.037,0.313-0.026,0.387-0.026c0.322-0.001,0.322-0.501,0-0.5
					c-0.321,0.001-0.81-0.025-0.869,0.393C17.745,62.562,18.227,62.698,18.272,62.379L18.272,62.379z"/>
			</g>
		</g>
		<g>
			<g>
				<path d="M18.789,58.683c0.016,0.859,0.155,1.723,0.254,2.576c0.056,0.48,0.111,0.961,0.16,1.443
					c0.017,0.167,0.031,0.334,0.042,0.502c0.003,0.055,0.005,0.109,0.006,0.164c-0.023,0.187,0.118,0.172,0.423-0.044
					c-0.17-0.273-0.603-0.022-0.432,0.252c0.045,0.072,0.094,0.12,0.177,0.144c0.101,0.029,0.235-0.016,0.282-0.115
					c0.236-0.497-0.055-1.441-0.113-1.954c-0.112-0.982-0.281-1.978-0.299-2.968C19.283,58.361,18.783,58.36,18.789,58.683
					L18.789,58.683z"/>
			</g>
		</g>
		<g>
			<g>
				<path d="M19.847,61.151c-0.373,0.384-0.726,0.85-0.555,1.41c0.171,0.561,0.874,0.888,1.345,1.135
					c0.285,0.149,0.538-0.282,0.252-0.432c-0.338-0.177-0.679-0.356-0.958-0.621c-0.407-0.386-0.031-0.829,0.27-1.139
					C20.425,61.273,20.071,60.919,19.847,61.151L19.847,61.151z"/>
			</g>
		</g>
		<g>
			<g>
				<path d="M26.565,58.973c-0.107-1.314-1.947-0.108-2.19,0.549c-0.338,0.917,0.093,1.83,0.624,2.576
					c0.222,0.312,0.485,0.59,0.751,0.864c0.139,0.112,0.257,0.243,0.354,0.392c-0.105,0.436-0.505,0.307-0.764,0.241
					c-0.745-0.19-1.435-0.575-2.18-0.779c-0.312-0.085-0.443,0.397-0.133,0.482c1.037,0.284,3.183,1.741,3.606-0.007
					c0.021-0.084,0.002-0.183-0.064-0.243c-0.854-0.78-2.121-1.987-1.752-3.285c0.097-0.341,0.377-0.596,0.68-0.756
					c0.074-0.04,0.554-0.21,0.568-0.034C26.091,59.292,26.591,59.294,26.565,58.973L26.565,58.973z"/>
			</g>
		</g>
		<g>
			<g>
				<path d="M28.516,62.224c0.062,0.417,0.084,1.289,0.567,1.484c0.528,0.213,0.956-0.679,1.146-1.005
					c0.163-0.279-0.269-0.53-0.432-0.252c-0.109,0.186-0.221,0.369-0.344,0.546c-0.051,0.07-0.107,0.134-0.169,0.194
					c-0.078,0.061-0.089,0.068-0.035,0.021c-0.191-0.297-0.203-0.782-0.252-1.12C28.952,61.773,28.47,61.909,28.516,62.224
					L28.516,62.224z"/>
			</g>
		</g>
		<g>
			<g>
				<path d="M30.036,62.847c0.349,0.393,0.996,1.261,1.627,0.982c0.575-0.254,0.311-1.567,0.265-1.996
					c-0.034-0.317-0.534-0.32-0.5,0c0.051,0.478,0.146,1.028,0.014,1.501c-0.064,0.23-0.965-0.742-1.053-0.84
					C30.175,62.251,29.822,62.606,30.036,62.847L30.036,62.847z"/>
			</g>
		</g>
		<g>
			<g>
				<path d="M33.693,61.729c-0.499,0.194-1.365,0.478-1.488,1.094c-0.116,0.577,0.661,0.779,1.069,0.854
					c0.315,0.059,0.45-0.423,0.133-0.482c-0.107-0.02-0.745-0.115-0.708-0.297c0.067-0.335,0.886-0.592,1.127-0.686
					C34.123,62.096,33.994,61.612,33.693,61.729L33.693,61.729z"/>
			</g>
		</g>
		<g>
			<g>
				<path d="M33.509,61.97c-0.077,0.591-0.136,1.368,0.282,1.86c0.388,0.456,0.974,0.427,1.501,0.266
					c0.308-0.094,0.176-0.577-0.133-0.482c-0.405,0.124-0.831,0.186-1.068-0.234c-0.225-0.398-0.138-0.981-0.083-1.41
					C34.051,61.651,33.55,61.655,33.509,61.97L33.509,61.97z"/>
			</g>
		</g>
		<g>
			<g>
				<path d="M8.96,59.063c-1.405-0.033-2.543,0.706-2.418,2.22c0.107,1.294,1.073,2.542,2.309,2.936
					c1.556,0.497,2.984-0.836,3.063-2.341c0.086-1.66-1.365-3.121-3.02-2.805c-0.316,0.061-0.182,0.542,0.133,0.482
					c1.485-0.284,2.448,1.148,2.378,2.494c-0.074,1.421-1.677,2.115-2.847,1.511c-0.823-0.425-1.397-1.375-1.516-2.277
					c-0.162-1.238,0.818-1.746,1.918-1.72C9.283,59.57,9.282,59.07,8.96,59.063L8.96,59.063z"/>
			</g>
		</g>
		<g>
			<g>
				<path d="M22.316,61.583c-0.46-0.263-1.083-0.228-1.402,0.246c-0.39,0.579-0.05,1.154,0.47,1.495
					c1.161,0.76,1.569-0.868,1.31-1.696c-0.096-0.307-0.579-0.176-0.482,0.133c0.094,0.301,0.191,1.107-0.21,1.235
					c-0.353,0.113-0.814-0.406-0.75-0.734c0.077-0.388,0.543-0.401,0.813-0.247C22.345,62.175,22.597,61.743,22.316,61.583
					L22.316,61.583z"/>
			</g>
		</g>
		<g>
			<g>
				<path d="M28.258,62.193c-0.361-0.223-1.01-0.611-1.341-0.141c-0.231,0.328,0.046,0.873,0.21,1.164
					c0.175,0.311,0.482,0.746,0.882,0.75c0.611,0.005,0.491-0.993,0.451-1.348c-0.036-0.316-0.536-0.32-0.5,0
					c0.025,0.226,0.043,0.451,0.029,0.679c-0.011,0.167-0.099,0.156,0.034,0.174c-0.177-0.024-0.348-0.317-0.438-0.462
					c-0.124-0.199-0.25-0.445-0.243-0.686c0.001-0.044,0.554,0.234,0.664,0.302C28.281,62.795,28.532,62.362,28.258,62.193
					L28.258,62.193z"/>
			</g>
		</g>
	</g>
	<g display="inline">
		<g>
			<g>
				<path d="M12.731,59.424c0.118,0.036,0.354,0.348,0.46,0.46c0.131,0.138,0.447,0.42,0.491,0.555
					c0.1,0.305,0.583,0.174,0.482-0.133c-0.087-0.265-0.367-0.502-0.55-0.701c-0.198-0.216-0.457-0.574-0.751-0.664
					C12.555,58.847,12.424,59.33,12.731,59.424L12.731,59.424z"/>
			</g>
		</g>
		<g>
			<g>
				<path d="M16.35,61.028c0.322,0,0.322-0.5,0-0.5S16.027,61.028,16.35,61.028L16.35,61.028z"/>
			</g>
		</g>
	</g>
</g>
</svg>
