<?xml version="1.0" encoding="utf-8"?>
<!-- Generator: Adobe Illustrator 18.0.0, SVG Export Plug-In . SVG Version: 6.00 Build 0)  -->
<!DOCTYPE svg PUBLIC "-//W3C//DTD SVG 1.1//EN" "http://www.w3.org/Graphics/SVG/1.1/DTD/svg11.dtd">
<svg version="1.1" id="Ebene_1" xmlns="http://www.w3.org/2000/svg" xmlns:xlink="http://www.w3.org/1999/xlink" x="0px" y="0px"
	 width="16px" height="15.9px" viewBox="0 0 16 15.9" enable-background="new 0 0 16 15.9" xml:space="preserve">
<g>
	<path fill="#010202" d="M12.2,4.6c1.1,1.2,2.3,2.3,3.8,3.3V8c-1.4,1-2.7,2.1-3.8,3.3c-1.1,1.2-2.2,2.7-3.3,4.6l-1.5-1.2
		c1.8-2.7,3.6-4.7,5.3-6c-1.4,0.1-2.8,0.2-4.2,0.2H0V7h8.5c1.3,0,2.7,0.1,4.2,0.2C11,6,9.2,4,7.4,1.2L8.9,0
		C10,1.8,11.1,3.4,12.2,4.6z"/>
</g>
</svg>
