<?xml version="1.0" encoding="utf-8"?>
<!-- Generator: Adobe Illustrator 17.0.0, SVG Export Plug-In . SVG Version: 6.00 Build 0)  -->
<!DOCTYPE svg PUBLIC "-//W3C//DTD SVG 1.1//EN" "http://www.w3.org/Graphics/SVG/1.1/DTD/svg11.dtd">
<svg version="1.1" id="Layer_1" xmlns="http://www.w3.org/2000/svg" xmlns:xlink="http://www.w3.org/1999/xlink" x="0px" y="0px"
	 width="549.842px" height="158.992px" viewBox="0 0 549.842 158.992" enable-background="new 0 0 549.842 158.992"
	 xml:space="preserve">
<g>
	<path d="M352.134,88.148c-1.584,0.214-3.009,0.665-4.277,1.348c-1.269,0.685-2.303,1.675-3.102,2.973
		c-0.798,1.296-1.198,3.028-1.198,5.197c0,2.339,0.636,4.221,1.905,5.645c1.27,1.427,3.13,2.138,5.582,2.138
		c2.364,0,4.42-0.448,6.16-1.346c1.737-0.898,3.187-2.031,4.341-3.4c1.154-1.367,2.016-2.881,2.588-4.535
		c0.57-1.652,0.854-3.235,0.854-4.747v-3.805l-8.126,0.17C355.291,87.814,353.717,87.936,352.134,88.148z"/>
	<path d="M0,0.002v158.99h549.842V0.002H0z M246.086,64.175h10.05v12.787h-10.05V64.175z M113.971,88.939H80.953
		c0,2.424,0.27,4.654,0.812,6.695c0.542,2.038,1.356,3.792,2.439,5.26c1.083,1.469,2.431,2.61,4.041,3.42
		c1.612,0.814,3.471,1.22,5.582,1.22c1.567,0,3.015-0.178,4.34-0.534c1.325-0.356,2.517-0.848,3.573-1.476
		c1.054-0.626,1.937-1.376,2.651-2.245c0.712-0.871,1.24-1.819,1.581-2.844l6.76,1.924c-0.46,1.282-1.141,2.572-2.055,3.871
		c-0.913,1.296-2.125,2.466-3.635,3.505c-1.513,1.042-3.35,1.897-5.517,2.567c-2.167,0.668-4.732,1.003-7.699,1.003
		c-3.28,0-6.216-0.511-8.812-1.537c-2.594-1.028-4.789-2.552-6.585-4.578c-1.796-2.023-3.172-4.552-4.127-7.59
		c-0.956-3.036-1.432-6.564-1.432-10.586c0-4.447,0.562-8.182,1.688-11.206c1.126-3.023,2.644-5.46,4.556-7.313
		c1.91-1.853,4.112-3.18,6.608-3.978c2.494-0.796,5.111-1.198,7.847-1.198c3.735,0,6.893,0.599,9.474,1.796
		c2.58,1.198,4.684,2.873,6.308,5.025c1.626,2.154,2.801,4.742,3.528,7.765c0.727,3.02,1.091,6.357,1.091,10.005V88.939z
		 M157.254,110.452c-0.029-0.113-0.071-0.426-0.128-0.942c-0.058-0.511-0.108-1.125-0.151-1.837
		c-0.04-0.712-0.078-1.484-0.108-2.309c-0.026-0.827-0.04-1.612-0.04-2.353h-0.215c-1.397,2.994-3.25,5.169-5.559,6.522
		c-2.311,1.355-5.19,2.033-8.64,2.033c-5.758,0-9.993-1.984-12.701-5.946c-2.711-3.963-4.064-9.937-4.064-17.92
		c0-16.138,5.588-24.208,16.765-24.208c3.45,0,6.338,0.613,8.661,1.838c2.322,1.227,4.185,3.238,5.582,6.032h0.084
		c0-0.142-0.006-0.515-0.019-1.113c-0.015-0.599-0.023-1.254-0.023-1.966s-0.006-1.39-0.021-2.033
		c-0.015-0.641-0.021-1.089-0.021-1.345V46.981h7.697v53.934c0,1.113,0.008,2.182,0.023,3.208c0.015,1.028,0.036,1.968,0.065,2.824
		c0.028,0.855,0.057,1.588,0.086,2.201c0.028,0.615,0.057,1.049,0.084,1.304H157.254z M210.16,110.452
		c-0.031-0.141-0.057-0.528-0.087-1.154c-0.026-0.628-0.063-1.346-0.105-2.161c-0.042-0.812-0.079-1.638-0.107-2.481
		c-0.029-0.84-0.044-1.544-0.044-2.117h-0.128c-0.741,1.342-1.555,2.552-2.437,3.635c-0.884,1.084-1.911,2.005-3.08,2.759
		c-1.17,0.756-2.51,1.34-4.02,1.754c-1.512,0.411-3.266,0.618-5.261,0.618c-2.565,0-4.776-0.312-6.627-0.939
		c-1.856-0.628-3.381-1.596-4.578-2.91c-1.198-1.311-2.075-3-2.63-5.069c-0.557-2.067-0.835-4.525-0.835-7.377V64.175h7.7v29.341
		c0,2.254,0.162,4.133,0.49,5.647c0.327,1.51,0.869,2.73,1.626,3.656c0.754,0.927,1.74,1.583,2.952,1.966
		c1.209,0.387,2.714,0.579,4.51,0.579c1.824,0,3.471-0.322,4.941-0.963c1.468-0.641,2.722-1.568,3.763-2.78
		c1.042-1.212,1.84-2.709,2.394-4.491c0.558-1.782,0.837-3.826,0.837-6.137V64.175h7.741v36.397c0,0.971,0.008,1.991,0.019,3.06
		c0.016,1.07,0.037,2.08,0.066,3.034c0.027,0.956,0.058,1.775,0.084,2.46c0.031,0.685,0.057,1.126,0.087,1.325H210.16z
		 M245.188,125.979h-5.261l7.228-28.313h11.334L245.188,125.979z M325.167,110.454h-42v-6.074h18.048V53.057h-12.359v-6.074h20.06
		v57.397h16.252V110.454z M379.612,110.196c-0.969,0.23-1.932,0.4-2.886,0.513c-0.956,0.113-1.976,0.17-3.057,0.17
		c-1.457,0-2.704-0.193-3.743-0.576c-1.042-0.385-1.89-0.969-2.546-1.754c-0.655-0.783-1.156-1.753-1.497-2.908
		c-0.341-1.156-0.555-2.5-0.641-4.041h-0.257c-0.798,1.484-1.682,2.822-2.651,4.02c-0.971,1.196-2.081,2.217-3.336,3.059
		c-1.257,0.842-2.696,1.489-4.323,1.945c-1.623,0.455-3.491,0.685-5.6,0.685c-4.507,0-7.899-1.225-10.181-3.679
		c-2.282-2.452-3.42-5.815-3.42-10.092c0-3.051,0.562-5.554,1.688-7.508c1.125-1.952,2.601-3.484,4.428-4.598
		c1.822-1.112,3.897-1.887,6.221-2.33c2.326-0.442,4.684-0.678,7.079-0.706l10.094-0.172v-2.523c0-1.91-0.191-3.536-0.576-4.876
		c-0.387-1.338-0.971-2.423-1.754-3.25c-0.785-0.825-1.777-1.432-2.973-1.819c-1.198-0.384-2.596-0.576-4.192-0.576
		c-1.424,0-2.716,0.105-3.871,0.32c-1.154,0.214-2.146,0.599-2.971,1.156c-0.829,0.557-1.505,1.311-2.033,2.266
		c-0.528,0.956-0.876,2.162-1.047,3.615l-8.04-0.727c0.283-1.826,0.819-3.502,1.604-5.027c0.783-1.525,1.887-2.844,3.314-3.957
		c1.424-1.112,3.216-1.974,5.367-2.588c2.152-0.613,4.755-0.919,7.805-0.919c5.705,0,9.989,1.334,12.855,3.999
		c2.865,2.667,4.297,6.522,4.297,11.568v19.932c0,2.28,0.301,3.997,0.9,5.154c0.599,1.156,1.737,1.732,3.42,1.732
		c0.429,0,0.854-0.028,1.283-0.086c0.429-0.057,0.84-0.129,1.24-0.212V110.196z M424.842,105.278
		c-2.895,4.02-7.038,6.03-12.426,6.03c-3.306,0-6.172-0.613-8.597-1.839c-2.423-1.227-4.319-3.237-5.687-6.032h-0.086
		c0,0.741-0.015,1.505-0.042,2.29c-0.029,0.783-0.066,1.502-0.108,2.157c-0.042,0.659-0.086,1.22-0.128,1.691
		c-0.042,0.469-0.079,0.764-0.107,0.877h-7.443c0.029-0.257,0.057-0.693,0.086-1.306c0.028-0.612,0.057-1.346,0.087-2.201
		c0.026-0.858,0.049-1.798,0.063-2.824c0.013-1.026,0.019-2.096,0.019-3.208V46.983h7.7v18.092c0,0.825-0.008,1.646-0.023,2.46
		c-0.015,0.812-0.034,1.533-0.063,2.159c-0.028,0.741-0.057,1.44-0.084,2.096h0.17c1.367-2.994,3.258-5.166,5.667-6.522
		c2.41-1.355,5.282-2.033,8.618-2.033c5.559,0,9.734,1.976,12.531,5.923c2.795,3.95,4.192,9.93,4.192,17.943
		C429.183,95.199,427.734,101.258,424.842,105.278z M479.2,103.097c-0.84,1.738-2.06,3.214-3.656,4.426
		c-1.597,1.212-3.556,2.146-5.88,2.801c-2.326,0.655-4.985,0.984-7.979,0.984c-2.68,0-5.095-0.193-7.249-0.576
		c-2.152-0.385-4.039-1.021-5.666-1.905c-1.626-0.882-2.986-2.06-4.085-3.528c-1.097-1.469-1.903-3.285-2.418-5.454l6.8-1.326
		c0.343,1.568,0.892,2.818,1.649,3.743c0.753,0.926,1.667,1.631,2.737,2.117c1.07,0.486,2.301,0.806,3.698,0.963
		c1.397,0.155,2.91,0.235,4.533,0.235c1.654,0,3.187-0.121,4.598-0.366c1.413-0.241,2.631-0.655,3.658-1.238
		c1.028-0.584,1.834-1.342,2.416-2.267c0.584-0.927,0.877-2.075,0.877-3.442c0-1.427-0.364-2.572-1.091-3.444
		c-0.727-0.867-1.717-1.605-2.971-2.204c-1.254-0.597-2.745-1.11-4.47-1.537c-1.725-0.427-3.599-0.913-5.625-1.455
		c-1.822-0.484-3.635-1.011-5.43-1.583c-1.796-0.568-3.4-1.317-4.813-2.245c-1.411-0.926-2.552-2.101-3.421-3.528
		c-0.871-1.426-1.304-3.237-1.304-5.433c0-4.192,1.512-7.47,4.535-9.836c3.02-2.368,7.399-3.549,13.13-3.549
		c2.251,0,4.362,0.206,6.329,0.62c1.966,0.414,3.721,1.07,5.26,1.966c1.541,0.9,2.829,2.052,3.871,3.465
		c1.041,1.411,1.759,3.102,2.161,5.069l-6.928,0.854c-0.202-1.282-0.628-2.324-1.283-3.122c-0.657-0.798-1.461-1.432-2.418-1.903
		c-0.955-0.469-2.031-0.79-3.229-0.963c-1.198-0.17-2.452-0.256-3.763-0.256c-6.985,0-10.479,2.154-10.479,6.457
		c0,1.314,0.306,2.376,0.919,3.187c0.613,0.812,1.476,1.491,2.586,2.033c1.113,0.542,2.439,1.005,3.98,1.389
		c1.541,0.385,3.235,0.82,5.088,1.304c1.855,0.458,3.758,0.986,5.711,1.584c1.952,0.599,3.735,1.397,5.347,2.395
		c1.609,0.997,2.934,2.274,3.976,3.826c1.039,1.555,1.562,3.517,1.562,5.881C480.464,99.405,480.043,101.358,479.2,103.097z"/>
	<path d="M418.599,73.48c-0.9-1.469-2.026-2.554-3.381-3.253c-1.353-0.698-2.971-1.047-4.853-1.047c-1.884,0-3.578,0.32-5.091,0.963
		c-1.51,0.641-2.787,1.696-3.826,3.164c-1.042,1.468-1.848,3.408-2.418,5.818c-0.568,2.41-0.854,5.381-0.854,8.916
		c0,3.394,0.286,6.216,0.854,8.469c0.57,2.253,1.376,4.056,2.418,5.41c1.039,1.356,2.308,2.309,3.806,2.866
		c1.495,0.557,3.17,0.833,5.023,0.833c1.796,0,3.381-0.328,4.748-0.984c1.371-0.655,2.508-1.711,3.423-3.164
		c0.911-1.455,1.604-3.344,2.075-5.666c0.471-2.324,0.704-5.14,0.704-8.45c0-3.193-0.214-5.936-0.641-8.231
		C420.157,76.829,419.495,74.948,418.599,73.48z"/>
	<path d="M101.804,72.003c-1.099-1.084-2.345-1.853-3.742-2.309c-1.397-0.455-2.866-0.685-4.405-0.685
		c-1.314,0-2.688,0.207-4.127,0.621c-1.442,0.414-2.775,1.147-3.999,2.203c-1.228,1.055-2.263,2.486-3.102,4.297
		c-0.84,1.811-1.304,4.116-1.39,6.909h24.976c-0.227-2.68-0.712-4.92-1.453-6.716C103.82,74.526,102.901,73.087,101.804,72.003z"/>
	<path d="M153.535,73.031c-1.028-1.371-2.296-2.353-3.808-2.952c-1.512-0.599-3.251-0.9-5.218-0.9c-1.826,0-3.423,0.33-4.79,0.986
		c-1.369,0.655-2.504,1.711-3.4,3.164c-0.9,1.453-1.576,3.344-2.033,5.668c-0.456,2.326-0.685,5.138-0.685,8.446
		c0,3.195,0.207,5.933,0.62,8.212c0.414,2.282,1.055,4.164,1.924,5.648c0.871,1.479,1.989,2.572,3.36,3.269
		c1.368,0.699,3.009,1.049,4.917,1.049c1.97,0,3.714-0.341,5.242-1.028c1.525-0.685,2.806-1.774,3.849-3.271
		c1.039-1.495,1.822-3.442,2.353-5.837c0.528-2.395,0.79-5.305,0.79-8.725c0-3.31-0.262-6.08-0.79-8.318
		C155.335,76.201,154.559,74.398,153.535,73.031z"/>
	<path fill="#8DFBDC" d="M217.26,106.667c-0.029-0.955-0.05-1.965-0.066-3.034c-0.011-1.07-0.019-2.089-0.019-3.06V64.175h-7.741
		v26.818c0,2.311-0.278,4.355-0.837,6.137c-0.554,1.782-1.351,3.279-2.394,4.491c-1.041,1.212-2.295,2.14-3.763,2.78
		c-1.469,0.641-3.117,0.963-4.941,0.963c-1.796,0-3.302-0.193-4.51-0.579c-1.212-0.384-2.198-1.039-2.952-1.966
		c-0.757-0.926-1.3-2.146-1.626-3.656c-0.329-1.513-0.49-3.392-0.49-5.647V64.175h-7.7v30.838c0,2.852,0.278,5.31,0.835,7.377
		c0.555,2.068,1.432,3.758,2.63,5.069c1.198,1.314,2.722,2.282,4.578,2.91c1.851,0.626,4.062,0.939,6.627,0.939
		c1.995,0,3.75-0.207,5.261-0.618c1.51-0.414,2.85-0.999,4.02-1.754c1.169-0.754,2.196-1.675,3.08-2.759
		c0.882-1.083,1.696-2.293,2.437-3.635h0.128c0,0.573,0.015,1.277,0.044,2.117c0.028,0.843,0.065,1.669,0.107,2.481
		c0.042,0.814,0.079,1.533,0.105,2.161c0.031,0.626,0.057,1.013,0.087,1.154h7.271c-0.031-0.199-0.057-0.641-0.087-1.325
		C217.318,108.442,217.287,107.623,217.26,106.667z"/>
	<path fill="#8DFBDC" d="M164.44,106.947c-0.029-0.856-0.05-1.796-0.065-2.824c-0.015-1.026-0.023-2.094-0.023-3.208V46.981h-7.697
		v17.923c0,0.256,0.006,0.704,0.021,1.345c0.015,0.643,0.021,1.321,0.021,2.033s0.008,1.368,0.023,1.966
		c0.013,0.599,0.019,0.971,0.019,1.113h-0.084c-1.397-2.793-3.259-4.805-5.582-6.032c-2.324-1.225-5.211-1.838-8.661-1.838
		c-11.177,0-16.765,8.069-16.765,24.208c0,7.983,1.353,13.957,4.064,17.92c2.708,3.962,6.943,5.946,12.701,5.946
		c3.45,0,6.329-0.678,8.64-2.033c2.309-1.353,4.162-3.528,5.559-6.522h0.215c0,0.741,0.015,1.526,0.04,2.353
		c0.031,0.825,0.068,1.597,0.108,2.309c0.042,0.712,0.092,1.325,0.151,1.837c0.057,0.516,0.099,0.829,0.128,0.942h7.356
		c-0.028-0.256-0.057-0.689-0.084-1.304C164.496,108.534,164.467,107.801,164.44,106.947z M155.865,95.484
		c-0.531,2.395-1.314,4.342-2.353,5.837c-1.042,1.497-2.324,2.586-3.849,3.271c-1.528,0.686-3.272,1.028-5.242,1.028
		c-1.908,0-3.549-0.35-4.917-1.049c-1.371-0.698-2.489-1.79-3.36-3.269c-0.869-1.484-1.51-3.366-1.924-5.648
		c-0.413-2.279-0.62-5.017-0.62-8.212c0-3.308,0.228-6.121,0.685-8.446c0.456-2.324,1.133-4.214,2.033-5.668
		c0.897-1.453,2.031-2.508,3.4-3.164c1.368-0.655,2.965-0.986,4.79-0.986c1.966,0,3.706,0.301,5.218,0.9
		c1.512,0.599,2.78,1.581,3.808,2.952c1.024,1.368,1.8,3.17,2.33,5.41c0.528,2.238,0.79,5.009,0.79,8.318
		C156.655,90.179,156.393,93.089,155.865,95.484z"/>
	<rect x="246.086" y="64.175" fill="#8DFBDC" width="10.05" height="12.787"/>
	<path fill="#8DFBDC" d="M109.352,70.142c-1.625-2.152-3.729-3.827-6.308-5.025c-2.581-1.198-5.739-1.796-9.474-1.796
		c-2.737,0-5.354,0.401-7.847,1.198c-2.496,0.798-4.698,2.125-6.608,3.978c-1.911,1.853-3.429,4.29-4.556,7.313
		c-1.126,3.023-1.688,6.758-1.688,11.206c0,4.022,0.476,7.55,1.432,10.586c0.955,3.038,2.33,5.567,4.127,7.59
		c1.796,2.026,3.991,3.551,6.585,4.578c2.596,1.026,5.532,1.537,8.812,1.537c2.966,0,5.532-0.335,7.699-1.003
		c2.167-0.67,4.004-1.524,5.517-2.567c1.51-1.039,2.722-2.209,3.635-3.505c0.914-1.3,1.596-2.589,2.055-3.871l-6.76-1.924
		c-0.341,1.024-0.869,1.973-1.581,2.844c-0.714,0.869-1.597,1.618-2.651,2.245c-1.057,0.628-2.248,1.12-3.573,1.476
		c-1.325,0.356-2.774,0.534-4.34,0.534c-2.11,0-3.97-0.406-5.582-1.22c-1.61-0.809-2.958-1.95-4.041-3.42
		c-1.083-1.468-1.897-3.222-2.439-5.26c-0.542-2.041-0.812-4.271-0.812-6.695h33.018v-1.028c0-3.648-0.364-6.985-1.091-10.005
		C112.153,74.884,110.978,72.296,109.352,70.142z M81.038,83.039c0.086-2.793,0.55-5.098,1.39-6.909
		c0.84-1.811,1.874-3.242,3.102-4.297c1.224-1.055,2.557-1.788,3.999-2.203c1.439-0.414,2.813-0.621,4.127-0.621
		c1.539,0,3.009,0.23,4.405,0.685c1.397,0.456,2.643,1.225,3.742,2.309c1.097,1.084,2.016,2.523,2.758,4.319
		c0.741,1.796,1.227,4.036,1.453,6.716H81.038z"/>
	<polygon fill="#FFFFFF" points="239.927,125.979 245.188,125.979 258.488,97.665 247.155,97.665 	"/>
	<polygon fill="#FFFFFF" points="308.915,46.983 288.855,46.983 288.855,53.057 301.215,53.057 301.215,104.38 283.167,104.38 
		283.167,110.454 325.167,110.454 325.167,104.38 308.915,104.38 	"/>
	<path fill="#FFFFFF" d="M412.46,63.234c-3.335,0-6.208,0.678-8.618,2.033c-2.41,1.356-4.3,3.528-5.667,6.522h-0.17
		c0.027-0.655,0.057-1.355,0.084-2.096c0.029-0.626,0.049-1.346,0.063-2.159c0.015-0.814,0.023-1.635,0.023-2.46V46.983h-7.7v53.932
		c0,1.112-0.006,2.182-0.019,3.208c-0.015,1.026-0.037,1.966-0.063,2.824c-0.031,0.854-0.06,1.589-0.087,2.201
		c-0.029,0.613-0.057,1.049-0.086,1.306h7.443c0.028-0.113,0.065-0.408,0.107-0.877c0.042-0.471,0.086-1.032,0.128-1.691
		c0.042-0.655,0.079-1.374,0.108-2.157c0.027-0.785,0.042-1.549,0.042-2.29h0.086c1.368,2.795,3.264,4.805,5.687,6.032
		c2.424,1.225,5.29,1.839,8.597,1.839c5.388,0,9.531-2.01,12.426-6.03c2.892-4.02,4.34-10.079,4.34-18.178
		c0-8.013-1.397-13.992-4.192-17.943C422.195,65.21,418.019,63.234,412.46,63.234z M420.523,95.806
		c-0.471,2.322-1.164,4.211-2.075,5.666c-0.914,1.453-2.052,2.508-3.423,3.164c-1.368,0.655-2.952,0.984-4.748,0.984
		c-1.853,0-3.528-0.277-5.023-0.833c-1.499-0.557-2.767-1.51-3.806-2.866c-1.042-1.355-1.848-3.157-2.418-5.41
		c-0.568-2.253-0.854-5.075-0.854-8.469c0-3.534,0.286-6.506,0.854-8.916c0.57-2.41,1.376-4.35,2.418-5.818
		c1.039-1.468,2.316-2.523,3.826-3.164c1.513-0.642,3.208-0.963,5.091-0.963c1.882,0,3.5,0.35,4.853,1.047
		c1.355,0.699,2.481,1.783,3.381,3.253c0.897,1.468,1.559,3.348,1.987,5.645c0.427,2.295,0.641,5.038,0.641,8.231
		C421.227,90.666,420.994,93.482,420.523,95.806z"/>
	<path fill="#FFFFFF" d="M474.926,87.529c-1.612-0.999-3.395-1.796-5.347-2.395c-1.953-0.599-3.857-1.126-5.711-1.584
		c-1.853-0.484-3.548-0.919-5.088-1.304c-1.541-0.384-2.866-0.846-3.98-1.389c-1.11-0.542-1.973-1.22-2.586-2.033
		c-0.613-0.811-0.919-1.872-0.919-3.187c0-4.303,3.494-6.457,10.479-6.457c1.311,0,2.565,0.086,3.763,0.256
		c1.198,0.173,2.274,0.494,3.229,0.963c0.956,0.471,1.761,1.105,2.418,1.903c0.655,0.798,1.081,1.84,1.283,3.122l6.928-0.854
		c-0.401-1.966-1.12-3.658-2.161-5.069c-1.042-1.413-2.33-2.565-3.871-3.465c-1.539-0.897-3.293-1.552-5.26-1.966
		c-1.968-0.414-4.078-0.62-6.329-0.62c-5.731,0-10.11,1.181-13.13,3.549c-3.023,2.366-4.535,5.645-4.535,9.836
		c0,2.196,0.434,4.007,1.304,5.433c0.869,1.427,2.01,2.602,3.421,3.528c1.413,0.927,3.017,1.677,4.813,2.245
		c1.795,0.571,3.607,1.099,5.43,1.583c2.026,0.542,3.9,1.028,5.625,1.455c1.725,0.427,3.216,0.94,4.47,1.537
		c1.254,0.599,2.245,1.337,2.971,2.204c0.727,0.872,1.091,2.016,1.091,3.444c0,1.368-0.293,2.515-0.877,3.442
		c-0.583,0.926-1.389,1.683-2.416,2.267c-1.026,0.583-2.245,0.997-3.658,1.238c-1.411,0.244-2.944,0.366-4.598,0.366
		c-1.623,0-3.136-0.079-4.533-0.235c-1.397-0.157-2.628-0.477-3.698-0.963c-1.07-0.485-1.984-1.191-2.737-2.117
		c-0.757-0.926-1.306-2.175-1.649-3.743l-6.8,1.326c0.515,2.169,1.321,3.984,2.418,5.454c1.099,1.468,2.458,2.646,4.085,3.528
		c1.626,0.884,3.513,1.52,5.666,1.905c2.154,0.384,4.569,0.576,7.249,0.576c2.994,0,5.653-0.329,7.979-0.984
		c2.324-0.655,4.282-1.589,5.88-2.801c1.596-1.212,2.816-2.688,3.656-4.426c0.843-1.738,1.264-3.692,1.264-5.86
		c0-2.364-0.523-4.326-1.562-5.881C477.86,89.803,476.535,88.526,474.926,87.529z"/>
	<path fill="#FFFFFF" d="M377.089,105.705c-1.683,0-2.821-0.576-3.42-1.732c-0.599-1.157-0.9-2.874-0.9-5.154V78.887
		c0-5.046-1.432-8.901-4.297-11.568c-2.866-2.665-7.15-3.999-12.855-3.999c-3.051,0-5.653,0.306-7.805,0.919
		c-2.151,0.613-3.942,1.476-5.367,2.588c-1.427,1.113-2.531,2.432-3.314,3.957c-0.785,1.524-1.321,3.201-1.604,5.027l8.04,0.727
		c0.172-1.453,0.519-2.659,1.047-3.615c0.528-0.955,1.204-1.709,2.033-2.266c0.825-0.557,1.817-0.942,2.971-1.156
		c1.156-0.215,2.447-0.32,3.871-0.32c1.596,0,2.994,0.193,4.192,0.576c1.196,0.387,2.188,0.994,2.973,1.819
		c0.783,0.827,1.367,1.911,1.754,3.25c0.385,1.34,0.576,2.966,0.576,4.876v2.523l-10.094,0.172
		c-2.395,0.027-4.753,0.264-7.079,0.706c-2.324,0.443-4.399,1.219-6.221,2.33c-1.827,1.113-3.303,2.646-4.428,4.598
		c-1.126,1.953-1.688,4.457-1.688,7.508c0,4.277,1.138,7.64,3.42,10.092c2.282,2.453,5.674,3.679,10.181,3.679
		c2.109,0,3.976-0.23,5.6-0.685c1.627-0.456,3.065-1.104,4.323-1.945c1.254-0.842,2.364-1.863,3.336-3.059
		c0.969-1.198,1.853-2.536,2.651-4.02h0.257c0.086,1.541,0.299,2.886,0.641,4.041c0.341,1.156,0.842,2.125,1.497,2.908
		c0.655,0.785,1.503,1.369,2.546,1.754c1.039,0.384,2.287,0.576,3.743,0.576c1.081,0,2.101-0.057,3.057-0.17
		c0.953-0.113,1.916-0.283,2.886-0.513v-4.789c-0.4,0.083-0.811,0.155-1.24,0.212C377.944,105.678,377.518,105.705,377.089,105.705z
		 M364.985,91.42c0,1.512-0.285,3.094-0.854,4.747c-0.571,1.654-1.434,3.167-2.588,4.535c-1.154,1.369-2.604,2.502-4.341,3.4
		c-1.74,0.898-3.795,1.346-6.16,1.346c-2.452,0-4.311-0.711-5.582-2.138c-1.269-1.424-1.905-3.306-1.905-5.645
		c0-2.169,0.4-3.9,1.198-5.197c0.799-1.298,1.834-2.288,3.102-2.973c1.269-0.683,2.693-1.135,4.277-1.348
		c1.583-0.212,3.157-0.333,4.726-0.362l8.126-0.17V91.42z"/>
</g>
</svg>
