<?xml version="1.0" encoding="utf-8"?>
<!-- Generator: Adobe Illustrator 17.0.0, SVG Export Plug-In . SVG Version: 6.00 Build 0)  -->
<!DOCTYPE svg PUBLIC "-//W3C//DTD SVG 1.1//EN" "http://www.w3.org/Graphics/SVG/1.1/DTD/svg11.dtd">
<svg version="1.1" id="Layer_1" xmlns="http://www.w3.org/2000/svg" xmlns:xlink="http://www.w3.org/1999/xlink" x="0px" y="0px"
	 width="319.338px" height="156.823px" viewBox="0 0 319.338 156.823" enable-background="new 0 0 319.338 156.823"
	 xml:space="preserve">
<g>
	<path d="M0,0v156.823h319.338V0H0z M149.862,54.278h11.983v15.247h-11.983V54.278z M123.55,83.802H84.185
		c0,2.89,0.323,5.551,0.972,7.98c0.642,2.429,1.613,4.521,2.904,6.269c1.294,1.755,2.901,3.111,4.819,4.083
		c1.918,0.968,4.141,1.45,6.657,1.45c1.867,0,3.59-0.21,5.174-0.635c1.581-0.428,2.999-1.012,4.257-1.758
		c1.258-0.751,2.31-1.642,3.162-2.679c0.848-1.033,1.479-2.165,1.885-3.39l8.057,2.295c-0.544,1.53-1.36,3.068-2.447,4.616
		c-1.088,1.545-2.531,2.937-4.333,4.181c-1.802,1.24-3.996,2.262-6.577,3.06c-2.585,0.798-5.645,1.196-9.177,1.196
		c-3.912,0-7.411-0.609-10.504-1.835c-3.096-1.226-5.711-3.042-7.854-5.457c-2.143-2.411-3.782-5.431-4.924-9.05
		c-1.138-3.619-1.704-7.828-1.704-12.621c0-5.301,0.671-9.753,2.012-13.357c1.342-3.604,3.151-6.512,5.428-8.724
		c2.281-2.208,4.906-3.789,7.882-4.743c2.973-0.95,6.091-1.425,9.355-1.425c4.452,0,8.216,0.714,11.294,2.143
		c3.075,1.429,5.58,3.423,7.524,5.99c1.933,2.567,3.336,5.653,4.206,9.257c0.863,3.604,1.298,7.578,1.298,11.929V83.802z
		 M148.791,127.96h-6.269l8.615-33.756h13.513L148.791,127.96z M238.28,109.449h-50.072v-7.241h21.519V41.02h-14.735v-7.241h23.916
		v68.43h19.373V109.449z"/>
	<path d="M109.047,63.61c-1.313-1.291-2.799-2.212-4.467-2.756c-1.664-0.544-3.412-0.816-5.247-0.816
		c-1.566,0-3.209,0.247-4.924,0.74c-1.719,0.497-3.307,1.371-4.768,2.629c-1.461,1.255-2.694,2.966-3.695,5.123
		c-1.008,2.161-1.555,4.902-1.661,8.238h29.779c-0.272-3.198-0.848-5.867-1.733-8.009C111.451,66.616,110.352,64.904,109.047,63.61z
		"/>
	<path fill="#8DFBDC" d="M118.046,61.391c-1.943-2.567-4.449-4.561-7.524-5.99c-3.078-1.429-6.842-2.143-11.294-2.143
		c-3.263,0-6.381,0.475-9.355,1.425c-2.977,0.954-5.602,2.534-7.882,4.743c-2.277,2.212-4.086,5.12-5.428,8.724
		c-1.342,3.604-2.012,8.057-2.012,13.357c0,4.793,0.566,9.003,1.704,12.621c1.142,3.619,2.781,6.639,4.924,9.05
		c2.143,2.415,4.757,4.231,7.854,5.457c3.093,1.225,6.592,1.835,10.504,1.835c3.532,0,6.592-0.399,9.177-1.196
		c2.582-0.798,4.775-1.82,6.577-3.06c1.802-1.244,3.245-2.636,4.333-4.181c1.088-1.548,1.904-3.086,2.447-4.616l-8.057-2.295
		c-0.406,1.225-1.037,2.357-1.885,3.39c-0.852,1.037-1.904,1.929-3.162,2.679c-1.258,0.747-2.676,1.331-4.257,1.758
		c-1.584,0.424-3.307,0.635-5.174,0.635c-2.516,0-4.739-0.482-6.657-1.45c-1.918-0.972-3.524-2.328-4.819-4.083
		c-1.291-1.748-2.262-3.84-2.904-6.269c-0.649-2.429-0.972-5.091-0.972-7.98h39.365v-1.226c0-4.351-0.435-8.325-1.298-11.929
		C121.382,67.043,119.979,63.958,118.046,61.391z M84.286,76.768c0.105-3.336,0.653-6.077,1.661-8.238
		c1.001-2.157,2.234-3.869,3.695-5.123c1.461-1.258,3.049-2.132,4.768-2.629c1.715-0.493,3.358-0.74,4.924-0.74
		c1.835,0,3.582,0.272,5.247,0.816c1.668,0.544,3.154,1.465,4.467,2.756c1.305,1.294,2.404,3.006,3.285,5.149
		c0.885,2.143,1.461,4.811,1.733,8.009H84.286z"/>
	<polygon fill="#FFFFFF" points="142.522,127.96 148.791,127.96 164.65,94.204 151.137,94.204 	"/>
	<rect x="149.862" y="54.278" fill="#8DFBDC" width="11.983" height="15.247"/>
	<polygon fill="#FFFFFF" points="218.908,33.779 194.992,33.779 194.992,41.02 209.727,41.02 209.727,102.209 188.208,102.209 
		188.208,109.449 238.28,109.449 238.28,102.209 218.908,102.209 	"/>
</g>
</svg>
