<svg fill="#004FCC" xmlns:dc="http://purl.org/dc/elements/1.1/" xmlns:cc="http://creativecommons.org/ns#" xmlns:rdf="http://www.w3.org/1999/02/22-rdf-syntax-ns#" xmlns:svg="http://www.w3.org/2000/svg" xmlns="http://www.w3.org/2000/svg" xmlns:sodipodi="http://sodipodi.sourceforge.net/DTD/sodipodi-0.dtd" xmlns:inkscape="http://www.inkscape.org/namespaces/inkscape" version="1.1" x="0px" y="0px" viewBox="0 0 100 100"><g transform="translate(0,-952.36218)"><path style="text-indent:0;text-transform:none;direction:ltr;block-progression:tb;baseline-shift:baseline;color:#000000;enable-background:accumulate;" d="m 20,962.36217 c -2.1987,0 -4,1.8013 -4,4 l 0,4 -7,0 c -1.6447,0 -3,1.3553 -3,3 l 0,66.00003 c 0,1.6447 1.3553,3 3,3 l 82,0 c 1.6447,0 3,-1.3553 3,-3 l 0,-66.00003 c 0,-1.6447 -1.3553,-3 -3,-3 l -7,0 0,-4 c 0,-2.1987 -1.8013,-4 -4,-4 -2.1987,0 -4,1.8013 -4,4 l 0,4 -12,0 0,-4 c 0,-2.1987 -1.8013,-4 -4,-4 -2.1987,0 -4,1.8013 -4,4 l 0,4 -12,0 0,-4 c 0,-2.1987 -1.8013,-4 -4,-4 -2.1987,0 -4,1.8013 -4,4 l 0,4 -12,0 0,-4 c 0,-2.1987 -1.8013,-4 -4,-4 z m 0,2 c 1.1253,0 2,0.8747 2,2 l 0,10 c 0,1.1253 -0.8747,2 -2,2 -1.1253,0 -2,-0.8747 -2,-2 l 0,-10 c 0,-1.1253 0.8747,-2 2,-2 z m 20,0 c 1.1253,0 2,0.8747 2,2 l 0,10 c 0,1.1253 -0.8747,2 -2,2 -1.1253,0 -2,-0.8747 -2,-2 l 0,-10 c 0,-1.1253 0.8747,-2 2,-2 z m 20,0 c 1.1253,0 2,0.8747 2,2 l 0,10 c 0,1.1253 -0.8747,2 -2,2 -1.1253,0 -2,-0.8747 -2,-2 l 0,-10 c 0,-1.1253 0.8747,-2 2,-2 z m 20,0 c 1.1253,0 2,0.8747 2,2 l 0,10 c 0,1.1253 -0.8747,2 -2,2 -1.1253,0 -2,-0.8747 -2,-2 l 0,-10 c 0,-1.1253 0.8747,-2 2,-2 z m -71,8 7,0 0,4 c 0,2.1987 1.8013,4 4,4 2.1987,0 4,-1.8013 4,-4 l 0,-4 12,0 0,4 c 0,2.1987 1.8013,4 4,4 2.1987,0 4,-1.8013 4,-4 l 0,-4 12,0 0,4 c 0,2.1987 1.8013,4 4,4 2.1987,0 4,-1.8013 4,-4 l 0,-4 12,0 0,4 c 0,2.1987 1.8013,4 4,4 2.1987,0 4,-1.8013 4,-4 l 0,-4 7,0 c 0.5713,0 1,0.4287 1,1 l 0,13 -84,0 0,-13 c 0,-0.5713 0.4287,-1 1,-1 z m -1,16.00002 84,0 0,51.00001 c 0,0.5713 -0.4287,1 -1,1 l -82,0 c -0.5713,0 -1,-0.4287 -1,-1 l 0,-51.00001 z m 52,9 c -2.7496,0 -5,2.2504 -5,5.00001 0,0.4709 0.096,0.9109 0.2188,1.3438 l -11.3438,7.5312 c -0.9187,-1.1316 -2.3129,-1.875 -3.875,-1.875 -2.7496,0 -5,2.2504 -5,5 0,2.7496 2.2504,5 5,5 1.5621,0 2.9563,-0.7434 3.875,-1.875 l 11.3125,7.5625 c -0.1165,0.4215 -0.1875,0.8554 -0.1875,1.3125 0,2.7496 2.2504,5 5,5 2.7496,0 5,-2.2504 5,-5 0,-2.7496 -2.2504,-5 -5,-5 -1.5621,0 -2.9563,0.7434 -3.875,1.875 l -11.3438,-7.5312 c 0.1229,-0.4329 0.2188,-0.8729 0.2188,-1.3438 0,-0.4571 -0.071,-0.891 -0.1875,-1.3125 l 11.3125,-7.5625 c 0.9187,1.1316 2.3129,1.875 3.875,1.875 2.7496,0 5,-2.2504 5,-5 0,-2.74961 -2.2504,-5.00001 -5,-5.00001 z m 0,2 c 1.6687,0 3,1.33131 3,3.00001 0,1.6687 -1.3313,3 -3,3 -1.6687,0 -3,-1.3313 -3,-3 0,-1.6687 1.3313,-3.00001 3,-3.00001 z m -20,12.00001 c 1.6687,0 3,1.3313 3,3 0,1.6687 -1.3313,3 -3,3 -1.6687,0 -3,-1.3313 -3,-3 0,-1.6687 1.3313,-3 3,-3 z m 20,12 c 1.6687,0 3,1.3313 3,3 0,1.6687 -1.3313,3 -3,3 -1.6687,0 -3,-1.3313 -3,-3 0,-1.6687 1.3313,-3 3,-3 z" fill="#004FCC" fill-opacity="1" fill-rule="nonzero" stroke="none" marker="none" visibility="visible" display="inline" overflow="visible"></path></g></svg>