<svg fill="#004FCC" xmlns="http://www.w3.org/2000/svg" xmlns:xlink="http://www.w3.org/1999/xlink" version="1.1" x="0px" y="0px" viewBox="0 0 100 100" style="enable-background:new 0 0 100 100;" xml:space="preserve"><path d="M69.307,75.131L55.553,60.441c0.482-0.649,0.834-1.364,1.059-2.114c0.016-0.046,0.027-0.093,0.041-0.14  c0-0.002,0-0.002,0-0.004c0.014-0.045,0.024-0.093,0.037-0.14c0-0.001,0-0.004,0-0.004c0.013-0.045,0.022-0.091,0.035-0.14  c0-0.002,0-0.004,0-0.006c0.01-0.045,0.021-0.09,0.029-0.136c0.001-0.002,0.001-0.006,0.002-0.01c0.01-0.045,0.018-0.09,0.026-0.133  c0.001-0.007,0.001-0.009,0.003-0.015c0.007-0.043,0.014-0.086,0.021-0.132c0.002-0.006,0.002-0.01,0.002-0.016  c0.008-0.043,0.015-0.085,0.021-0.127c0.001-0.007,0.002-0.015,0.003-0.021c0.005-0.041,0.014-0.082,0.018-0.121  c0.002-0.009,0.002-0.021,0.004-0.028c0.004-0.039,0.008-0.078,0.013-0.117c0.001-0.013,0.003-0.022,0.003-0.035  c0.004-0.037,0.008-0.073,0.011-0.108c0-0.017,0.002-0.029,0.003-0.045c0.002-0.035,0.006-0.066,0.008-0.103  c0-0.019,0.002-0.037,0.002-0.058c0.002-0.028,0.004-0.062,0.004-0.086c0.002-0.028,0.002-0.059,0.004-0.086  c0-0.021,0-0.041,0.002-0.063c0.002-0.048,0.002-0.098,0-0.146c0.002,0,0.002,0,0.002,0c-0.006-1.283-0.365-2.567-1.092-3.694  l14.689-13.754c2.598,1.924,6.271,1.806,8.748-0.456c2.809-2.568,3.004-6.927,0.436-9.736c-2.566-2.809-6.926-3.005-9.735-0.437  c-2.515,2.301-2.935,6.037-1.149,8.81L54.111,50.8c-0.039-0.028-0.079-0.058-0.119-0.087c-0.003-0.001-0.004-0.003-0.006-0.004  c-0.039-0.027-0.08-0.057-0.12-0.083c-0.001,0-0.001,0-0.002,0c-0.29-0.197-0.591-0.368-0.902-0.515  c-0.002,0-0.004-0.001-0.006-0.003c-0.043-0.018-0.086-0.038-0.128-0.058c-0.003,0-0.006-0.002-0.008-0.003  c-0.312-0.137-0.629-0.251-0.954-0.341c-0.005-0.003-0.011-0.004-0.017-0.006c-0.041-0.011-0.082-0.022-0.125-0.033  c-0.008-0.002-0.015-0.004-0.021-0.005c-0.042-0.009-0.083-0.02-0.125-0.03c-0.008-0.002-0.014-0.003-0.018-0.004  c-0.045-0.01-0.088-0.02-0.133-0.029c-0.188-0.04-0.378-0.071-0.566-0.094c-0.004,0-0.008-0.001-0.012-0.002  c-0.039-0.004-0.08-0.009-0.121-0.013c-0.012-0.001-0.021-0.003-0.031-0.004c-0.038-0.004-0.076-0.006-0.113-0.01  c-0.016-0.001-0.025-0.002-0.04-0.003c-0.036-0.004-0.073-0.006-0.111-0.007c-0.013-0.001-0.027-0.001-0.04-0.003  c-0.036-0.003-0.074-0.004-0.111-0.005c-0.013,0-0.025,0-0.037,0c-0.039-0.002-0.078-0.003-0.117-0.005c-0.006,0-0.011,0-0.015,0  c-0.131-0.001-0.264,0-0.396,0.006c-0.012,0-0.024,0-0.034,0.001c-0.034,0.002-0.069,0.004-0.104,0.007  c-0.016,0-0.034,0.001-0.051,0.002c-0.033,0.003-0.065,0.005-0.097,0.008c-0.019,0.002-0.039,0.003-0.058,0.005  c-0.031,0.002-0.063,0.006-0.094,0.009c-0.021,0.002-0.041,0.004-0.063,0.006c-0.03,0.004-0.061,0.008-0.091,0.011  c-0.021,0.003-0.042,0.006-0.063,0.009c-0.031,0.004-0.061,0.008-0.091,0.013c-0.02,0.003-0.042,0.007-0.062,0.01  c-0.031,0.004-0.062,0.009-0.092,0.015c-0.016,0.002-0.032,0.005-0.048,0.008c-0.06,0.01-0.12,0.022-0.18,0.035  c-0.023,0.004-0.045,0.009-0.067,0.014c-0.027,0.006-0.055,0.013-0.081,0.019c-0.023,0.005-0.048,0.012-0.072,0.017  c-0.027,0.006-0.053,0.013-0.078,0.019c-0.025,0.008-0.051,0.014-0.075,0.02c-0.026,0.008-0.051,0.014-0.077,0.021  c-0.025,0.007-0.05,0.014-0.075,0.022c-0.025,0.006-0.05,0.015-0.075,0.022c-0.026,0.006-0.052,0.015-0.078,0.023  c-0.024,0.008-0.048,0.016-0.072,0.024c-0.027,0.008-0.055,0.018-0.081,0.028c-0.023,0.007-0.046,0.014-0.068,0.024  c-0.033,0.012-0.065,0.022-0.097,0.035c-0.018,0.006-0.036,0.013-0.054,0.021c-0.047,0.018-0.094,0.038-0.141,0.056  c-0.018,0.009-0.037,0.016-0.057,0.025c-0.029,0.013-0.059,0.025-0.089,0.038c-0.021,0.008-0.042,0.018-0.063,0.028  c-0.003,0.001-0.008,0.004-0.012,0.006L33.031,24.746c1.736-1.198,2.903-3.176,2.978-5.447c0.125-3.805-2.858-6.991-6.663-7.117  c-3.805-0.126-6.99,2.857-7.116,6.663c-0.126,3.803,2.857,6.99,6.662,7.115c0.639,0.021,1.261-0.047,1.855-0.19l14.377,25.716  c-0.13,0.132-0.256,0.264-0.373,0.402c-0.187,0.221-0.359,0.449-0.514,0.688c-0.062,0.096-0.122,0.191-0.179,0.29  c-0.406,0.694-0.681,1.448-0.824,2.221L32.228,54.59c-0.445-3.266-3.192-5.834-6.599-5.948c-3.804-0.127-6.991,2.854-7.116,6.658  c-0.127,3.806,2.853,6.991,6.657,7.117c3.352,0.11,6.222-2.188,6.945-5.338l11.112,0.511c0.205,1.123,0.689,2.205,1.46,3.141  c0.075,0.092,0.152,0.182,0.233,0.27c0.037,0.041,0.077,0.082,0.116,0.123c0.012,0.014,0.025,0.025,0.038,0.039  c0.027,0.027,0.054,0.055,0.08,0.08c0.016,0.016,0.032,0.031,0.047,0.048c0.024,0.022,0.049,0.047,0.073,0.069  c0.018,0.016,0.034,0.031,0.051,0.047c0.026,0.021,0.049,0.045,0.073,0.066c0.017,0.016,0.034,0.03,0.052,0.047  c0.024,0.021,0.049,0.043,0.073,0.063c0.016,0.016,0.035,0.027,0.053,0.046c0.025,0.021,0.051,0.041,0.075,0.063  c0.018,0.013,0.035,0.026,0.053,0.041c0.026,0.021,0.054,0.043,0.08,0.063c0.017,0.016,0.033,0.023,0.05,0.038  c0.03,0.022,0.062,0.046,0.093,0.069c0.013,0.01,0.025,0.019,0.038,0.027c0.045,0.031,0.089,0.063,0.133,0.094  c0.012,0.009,0.024,0.016,0.036,0.023c0.033,0.021,0.065,0.045,0.099,0.066c0.018,0.012,0.036,0.021,0.054,0.035  c0.028,0.017,0.056,0.033,0.083,0.052c0.019,0.013,0.04,0.024,0.059,0.036c0.027,0.016,0.054,0.031,0.08,0.048  c0.021,0.012,0.041,0.022,0.062,0.036c0.026,0.015,0.053,0.029,0.078,0.043c0.022,0.013,0.043,0.025,0.064,0.037  c0.026,0.012,0.052,0.024,0.077,0.041c0.022,0.012,0.043,0.021,0.065,0.035c0.026,0.012,0.052,0.021,0.078,0.039  c0.022,0.01,0.044,0.021,0.065,0.029c0.027,0.016,0.054,0.025,0.081,0.039c0.022,0.008,0.043,0.02,0.064,0.029  c0.031,0.016,0.062,0.025,0.093,0.042c0.027,0.012,0.056,0.022,0.084,0.034c0.036,0.016,0.073,0.031,0.11,0.047  c0.023,0.009,0.046,0.017,0.069,0.025c0.027,0.01,0.053,0.021,0.078,0.029c0.025,0.012,0.05,0.018,0.075,0.027  c0.024,0.009,0.049,0.018,0.073,0.027c0.026,0.008,0.052,0.016,0.078,0.023c0.023,0.009,0.048,0.017,0.071,0.023  c0.026,0.008,0.054,0.018,0.08,0.023c0.023,0.007,0.046,0.016,0.069,0.023c0.027,0.006,0.056,0.015,0.083,0.021  c0.021,0.007,0.044,0.014,0.066,0.02c0.029,0.008,0.056,0.015,0.085,0.021c0.022,0.005,0.043,0.012,0.064,0.02  c0.031,0.004,0.059,0.013,0.09,0.021c0.018,0.003,0.036,0.007,0.055,0.013c0.12,0.026,0.24,0.051,0.362,0.072  c0.01,0.001,0.02,0.004,0.03,0.006c0.035,0.006,0.07,0.01,0.105,0.018c0.016,0.004,0.031,0.005,0.048,0.008  c0.034,0.004,0.068,0.009,0.102,0.013c0.016,0.004,0.034,0.006,0.051,0.009c0.034,0.006,0.068,0.008,0.103,0.012  c0.016,0.002,0.033,0.004,0.051,0.007c0.034,0.002,0.069,0.006,0.102,0.009c0.017,0.001,0.033,0.003,0.05,0.004  c0.034,0.003,0.07,0.005,0.106,0.008c0.014,0.002,0.028,0.002,0.043,0.002c0.038,0.004,0.075,0.006,0.112,0.006  c0.01,0.002,0.021,0.002,0.031,0.002c0.233,0.01,0.469,0.004,0.702-0.01c0.006-0.003,0.013-0.003,0.02-0.003  c0.042-0.003,0.083-0.006,0.125-0.01c0.009-0.002,0.018-0.002,0.026-0.002c0.041-0.004,0.081-0.009,0.123-0.015  c0.011,0,0.019-0.002,0.028-0.002c0.042-0.006,0.084-0.011,0.125-0.018c0.007,0,0.018-0.001,0.023-0.001  c0.043-0.007,0.086-0.014,0.129-0.021c0.004-0.002,0.01-0.002,0.014-0.002c0.289-0.045,0.576-0.108,0.857-0.19  c0.004,0,0.004-0.002,0.006-0.002c0.047-0.015,0.092-0.024,0.138-0.041c0.003-0.001,0.007-0.001,0.012-0.003  c0.045-0.016,0.089-0.03,0.132-0.044c0.006-0.002,0.01-0.003,0.014-0.005c0.043-0.016,0.089-0.03,0.133-0.047  c0.002,0,0.004-0.002,0.006-0.002c0.327-0.123,0.646-0.267,0.958-0.438c0.002-0.001,0.003-0.001,0.005-0.001  c0.042-0.024,0.085-0.049,0.127-0.073c0.003-0.002,0.006-0.002,0.01-0.005c0.041-0.024,0.084-0.049,0.125-0.073  c0.002-0.002,0.006-0.006,0.008-0.006c0.041-0.025,0.084-0.053,0.127-0.078l13.752,14.689c-1.924,2.598-1.807,6.273,0.455,8.747  c2.57,2.81,6.929,3.004,9.738,0.438c2.807-2.568,3.004-6.929,0.438-9.736C75.816,73.766,72.078,73.348,69.307,75.131z"></path></svg>