<?xml version="1.0" encoding="utf-8"?>
<!-- Generator: Adobe Illustrator 18.0.0, SVG Export Plug-In . SVG Version: 6.00 Build 0)  -->
<!DOCTYPE svg PUBLIC "-//W3C//DTD SVG 1.1//EN" "http://www.w3.org/Graphics/SVG/1.1/DTD/svg11.dtd">
<svg version="1.1" id="Ebene_1" xmlns="http://www.w3.org/2000/svg" xmlns:xlink="http://www.w3.org/1999/xlink" x="0px" y="0px"
	 width="28.9px" height="28.1px" viewBox="0 0 28.9 28.1" enable-background="new 0 0 28.9 28.1" xml:space="preserve">
<path fill="#010202" d="M19.4,16.8c-4,0-7.3-3.3-7.3-7.3c0-4,3.3-7.3,7.3-7.3s7.3,3.3,7.3,7.3C26.7,13.6,23.4,16.8,19.4,16.8
	 M19.4,0c-5.3,0-9.5,4.3-9.5,9.5c0,1.6,0.4,3.2,1.2,4.6c-0.2,0.1-0.4,0.2-0.5,0.4l-9.9,9.9c-0.9,0.9-0.9,2.3,0,3.1
	c0.4,0.4,1,0.6,1.6,0.6c0.6,0,1.1-0.2,1.6-0.6l9.9-9.9c0.1-0.1,0.2-0.2,0.2-0.3c1.6,1.1,3.5,1.8,5.5,1.8c5.3,0,9.5-4.3,9.5-9.5
	C28.9,4.3,24.7,0,19.4,0"/>
</svg>
